  0
SECTION
  2
HEADER
  9
$ACADVER
  1
AC1015
  9
$ACADMAINTVER
 70
     6
  9
$DWGCODEPAGE
  3
ANSI_1252
  9
$INSBASE
 10
0.0
 20
0.0
 30
0.0
  9
$EXTMIN
 10
-198.5
 20
-104.3
 30
0.0
  9
$EXTMAX
 10
198.5
 20
32.0
 30
0.0
  9
$LIMMIN
 10
0.0
 20
0.0
  9
$LIMMAX
 10
420.0
 20
297.0
  9
$ORTHOMODE
 70
     0
  9
$REGENMODE
 70
     1
  9
$FILLMODE
 70
     1
  9
$QTEXTMODE
 70
     0
  9
$MIRRTEXT
 70
     1
  9
$LTSCALE
 40
1.0
  9
$ATTMODE
 70
     1
  9
$TEXTSIZE
 40
3.5
  9
$TRACEWID
 40
1.0
  9
$TEXTSTYLE
  7
Standard
  9
$CLAYER
  8
0
  9
$CELTYPE
  6
ByLayer
  9
$CECOLOR
 62
   256
  9
$CELTSCALE
 40
1.0
  9
$DISPSILH
 70
     0
  9
$DIMSCALE
 40
1.0
  9
$DIMASZ
 40
6.0
  9
$DIMEXO
 40
1.0
  9
$DIMDLI
 40
3.75
  9
$DIMRND
 40
0.0
  9
$DIMDLE
 40
0.0
  9
$DIMEXE
 40
1.0
  9
$DIMTP
 40
0.0
  9
$DIMTM
 40
0.0
  9
$DIMTXT
 40
3.5
  9
$DIMCEN
 40
2.5
  9
$DIMTSZ
 40
0.0
  9
$DIMTOL
 70
     0
  9
$DIMLIM
 70
     0
  9
$DIMTIH
 70
     1
  9
$DIMTOH
 70
     1
  9
$DIMSE1
 70
     0
  9
$DIMSE2
 70
     0
  9
$DIMTAD
 70
     1
  9
$DIMZIN
 70
     0
  9
$DIMBLK
  1

  9
$DIMASO
 70
     1
  9
$DIMSHO
 70
     1
  9
$DIMPOST
  1

  9
$DIMAPOST
  1

  9
$DIMALT
 70
     0
  9
$DIMALTD
 70
     3
  9
$DIMALTF
 40
0.0393700787
  9
$DIMLFAC
 40
1.0
  9
$DIMTOFL
 70
     1
  9
$DIMTVP
 40
0.0
  9
$DIMTIX
 70
     0
  9
$DIMSOXD
 70
     0
  9
$DIMSAH
 70
     0
  9
$DIMBLK1
  1

  9
$DIMBLK2
  1

  9
$DIMSTYLE
  2
ISO-25
  9
$DIMCLRD
 70
     0
  9
$DIMCLRE
 70
     0
  9
$DIMCLRT
 70
     0
  9
$DIMTFAC
 40
1.0
  9
$DIMGAP
 40
1.524
  9
$DIMJUST
 70
     0
  9
$DIMSD1
 70
     0
  9
$DIMSD2
 70
     0
  9
$DIMTOLJ
 70
     0
  9
$DIMTZIN
 70
     0
  9
$DIMALTZ
 70
     0
  9
$DIMALTTZ
 70
     0
  9
$DIMUPT
 70
     0
  9
$DIMDEC
 70
     2
  9
$DIMTDEC
 70
     2
  9
$DIMALTU
 70
     2
  9
$DIMALTTD
 70
     3
  9
$DIMTXSTY
  7
Standard
  9
$DIMAUNIT
 70
     0
  9
$DIMADEC
 70
     2
  9
$DIMALTRND
 40
0.0
  9
$DIMAZIN
 70
     0
  9
$DIMDSEP
 70
    44
  9
$DIMATFIT
 70
     3
  9
$DIMFRAC
 70
     0
  9
$DIMLDRBLK
  1

  9
$DIMLUNIT
 70
     2
  9
$DIMLWD
 70
    -2
  9
$DIMLWE
 70
    -2
  9
$DIMTMOVE
 70
     0
  9
$LUNITS
 70
     2
  9
$LUPREC
 70
     2
  9
$SKETCHINC
 40
1.0
  9
$FILLETRAD
 40
10.0
  9
$AUNITS
 70
     0
  9
$AUPREC
 70
     2
  9
$MENU
  1
.
  9
$ELEVATION
 40
0.0
  9
$PELEVATION
 40
0.0
  9
$THICKNESS
 40
0.0
  9
$LIMCHECK
 70
     0
  9
$CHAMFERA
 40
0.0
  9
$CHAMFERB
 40
0.0
  9
$CHAMFERC
 40
0.0
  9
$CHAMFERD
 40
0.0
  9
$SKPOLY
 70
     0
  9
$TDCREATE
 40
2459712.661451134
  9
$TDUCREATE
 40
2459712.536451134
  9
$TDUPDATE
 40
2459712.661503981
  9
$TDUUPDATE
 40
2459712.536503981
  9
$TDINDWG
 40
0.0000000116
  9
$TDUSRTIMER
 40
0.0000000116
  9
$USRTIMER
 70
     1
  9
$ANGBASE
 50
0.0
  9
$ANGDIR
 70
     0
  9
$PDMODE
 70
     0
  9
$PDSIZE
 40
-1.0
  9
$PLINEWID
 40
0.0
  9
$SPLFRAME
 70
     0
  9
$SPLINETYPE
 70
     6
  9
$SPLINESEGS
 70
     8
  9
$HANDSEED
  5
3B6
  9
$SURFTAB1
 70
     6
  9
$SURFTAB2
 70
     6
  9
$SURFTYPE
 70
     6
  9
$SURFU
 70
     6
  9
$SURFV
 70
     6
  9
$UCSBASE
  2

  9
$UCSNAME
  2

  9
$UCSORG
 10
0.0
 20
0.0
 30
0.0
  9
$UCSXDIR
 10
1.0
 20
0.0
 30
0.0
  9
$UCSYDIR
 10
0.0
 20
1.0
 30
0.0
  9
$UCSORTHOREF
  2

  9
$UCSORTHOVIEW
 70
     0
  9
$UCSORGTOP
 10
0.0
 20
0.0
 30
0.0
  9
$UCSORGBOTTOM
 10
0.0
 20
0.0
 30
0.0
  9
$UCSORGLEFT
 10
0.0
 20
0.0
 30
0.0
  9
$UCSORGRIGHT
 10
0.0
 20
0.0
 30
0.0
  9
$UCSORGFRONT
 10
0.0
 20
0.0
 30
0.0
  9
$UCSORGBACK
 10
0.0
 20
0.0
 30
0.0
  9
$PUCSBASE
  2

  9
$PUCSNAME
  2

  9
$PUCSORG
 10
0.0
 20
0.0
 30
0.0
  9
$PUCSXDIR
 10
1.0
 20
0.0
 30
0.0
  9
$PUCSYDIR
 10
0.0
 20
1.0
 30
0.0
  9
$PUCSORTHOREF
  2

  9
$PUCSORTHOVIEW
 70
     0
  9
$PUCSORGTOP
 10
0.0
 20
0.0
 30
0.0
  9
$PUCSORGBOTTOM
 10
0.0
 20
0.0
 30
0.0
  9
$PUCSORGLEFT
 10
0.0
 20
0.0
 30
0.0
  9
$PUCSORGRIGHT
 10
0.0
 20
0.0
 30
0.0
  9
$PUCSORGFRONT
 10
0.0
 20
0.0
 30
0.0
  9
$PUCSORGBACK
 10
0.0
 20
0.0
 30
0.0
  9
$USERI1
 70
     0
  9
$USERI2
 70
     0
  9
$USERI3
 70
     0
  9
$USERI4
 70
     0
  9
$USERI5
 70
     0
  9
$USERR1
 40
0.0
  9
$USERR2
 40
0.0
  9
$USERR3
 40
0.0
  9
$USERR4
 40
0.0
  9
$USERR5
 40
0.0
  9
$WORLDVIEW
 70
     1
  9
$SHADEDGE
 70
     3
  9
$SHADEDIF
 70
    70
  9
$TILEMODE
 70
     1
  9
$MAXACTVP
 70
    64
  9
$PINSBASE
 10
0.0
 20
0.0
 30
0.0
  9
$PLIMCHECK
 70
     0
  9
$PEXTMIN
 10
-198.5
 20
-104.3
 30
0.0
  9
$PEXTMAX
 10
198.5
 20
32.0
 30
0.0
  9
$PLIMMIN
 10
-229.3949416342
 20
-115.8856031128
  9
$PLIMMAX
 10
229.3949416342
 20
208.5112840467
  9
$UNITMODE
 70
     0
  9
$VISRETAIN
 70
     1
  9
$PLINEGEN
 70
     0
  9
$PSLTSCALE
 70
     1
  9
$TREEDEPTH
 70
  3020
  9
$CMLSTYLE
  2
Standard
  9
$CMLJUST
 70
     0
  9
$CMLSCALE
 40
20.0
  9
$PROXYGRAPHICS
 70
     1
  9
$MEASUREMENT
 70
     1
  9
$CELWEIGHT
370
    -1
  9
$ENDCAPS
280
     0
  9
$JOINSTYLE
280
     0
  9
$LWDISPLAY
290
     1
  9
$INSUNITS
 70
     4
  9
$HYPERLINKBASE
  1

  9
$STYLESHEET
  1

  9
$XEDIT
290
     1
  9
$CEPSNTYPE
380
     0
  9
$PSTYLEMODE
290
     1
  9
$FINGERPRINTGUID
  2
{06C45FE2-D7D4-493B-B684-47F2BA4FE49C}
  9
$VERSIONGUID
  2
{FAEB1C32-E019-11D5-929B-00C0DF256EC4}
  9
$EXTNAMES
290
     1
  9
$PSVPSCALE
 40
0.0
  9
$OLESTARTUP
290
     0
  0
ENDSEC
  0
SECTION
  2
CLASSES
  0
CLASS
  1
ACDBDICTIONARYWDFLT
  2
AcDbDictionaryWithDefault
  3
ObjectDBX Classes
 90
        0
280
     0
281
     0
  0
CLASS
  1
VISUALSTYLE
  2
AcDbVisualStyle
  3
ObjectDBX Classes
 90
     4095
280
     0
281
     0
  0
CLASS
  1
MATERIAL
  2
AcDbMaterial
  3
ObjectDBX Classes
 90
     1153
280
     0
281
     0
  0
CLASS
  1
SCALE
  2
AcDbScale
  3
ObjectDBX Classes
 90
     1153
280
     0
281
     0
  0
CLASS
  1
TABLESTYLE
  2
AcDbTableStyle
  3
ObjectDBX Classes
 90
     4095
280
     0
281
     0
  0
CLASS
  1
MLEADERSTYLE
  2
AcDbMLeaderStyle
  3
ACDB_MLEADERSTYLE_CLASS
 90
     4095
280
     0
281
     0
  0
CLASS
  1
SUN
  2
AcDbSun
  3
SCENEOE
 90
     1153
280
     0
281
     0
  0
CLASS
  1
ACDBPLACEHOLDER
  2
AcDbPlaceHolder
  3
ObjectDBX Classes
 90
        0
280
     0
281
     0
  0
CLASS
  1
LAYOUT
  2
AcDbLayout
  3
ObjectDBX Classes
 90
        0
280
     0
281
     0
  0
ENDSEC
  0
SECTION
  2
TABLES
  0
TABLE
  2
VPORT
  5
8
330
0
100
AcDbSymbolTable
 70
     1
  0
VPORT
  5
29
330
8
100
AcDbSymbolTableRecord
100
AcDbViewportTableRecord
  2
*Active
 70
     0
 10
0.0
 20
0.0
 11
1.0
 21
1.0
 12
0.0
 22
-36.15
 13
0.0
 23
0.0
 14
10.0
 24
10.0
 15
10.0
 25
10.0
 16
0.0
 26
0.0
 36
1.0
 17
0.0
 27
0.0
 37
0.0
 40
139.026
 41
2.9126925899
 42
50.0
 43
0.0
 44
0.0
 50
0.0
 51
0.0
 71
     0
 72
   100
 73
     1
 74
     3
 75
     0
 76
     0
 77
     0
 78
     0
281
     0
 65
     1
110
0.0
120
0.0
130
0.0
111
1.0
121
0.0
131
0.0
112
0.0
122
1.0
132
0.0
 79
     0
146
0.0
  0
ENDTAB
  0
TABLE
  2
LTYPE
  5
5
330
0
100
AcDbSymbolTable
 70
     6
  0
LTYPE
  5
14
330
5
100
AcDbSymbolTableRecord
100
AcDbLinetypeTableRecord
  2
ByBlock
 70
     0
  3

 72
    65
 73
     0
 40
0.0
  0
LTYPE
  5
15
330
5
100
AcDbSymbolTableRecord
100
AcDbLinetypeTableRecord
  2
ByLayer
 70
     0
  3

 72
    65
 73
     0
 40
0.0
  0
LTYPE
  5
16
330
5
100
AcDbSymbolTableRecord
100
AcDbLinetypeTableRecord
  2
Continuous
 70
     0
  3
Solid line
 72
    65
 73
     0
 40
0.0
  0
LTYPE
  5
6E
330
5
100
AcDbSymbolTableRecord
100
AcDbLinetypeTableRecord
  2
HIDDEN
 70
     0
  3
Hidden __ __ __ __ __ __ __ __ __ __ __ __ __ __
 72
    65
 73
     2
 40
1.905
 49
1.27
 74
     0
 49
-0.635
 74
     0
  0
LTYPE
  5
6F
330
5
100
AcDbSymbolTableRecord
100
AcDbLinetypeTableRecord
  2
PHANTOM
 70
     0
  3
Phantom ______  __  __  ______  __  __  ______
 72
    65
 73
     6
 40
12.7
 49
6.35
 74
     0
 49
-1.27
 74
     0
 49
1.27
 74
     0
 49
-1.27
 74
     0
 49
1.27
 74
     0
 49
-1.27
 74
     0
  0
LTYPE
  5
70
330
5
100
AcDbSymbolTableRecord
100
AcDbLinetypeTableRecord
  2
CENTER
 70
     0
  3
Center ____ _ ____ _ ____ _ ____ _ ____ _ ____
 72
    65
 73
     4
 40
10.16
 49
6.35
 74
     0
 49
-1.27
 74
     0
 49
1.27
 74
     0
 49
-1.27
 74
     0
  0
LTYPE
  5
71
330
5
100
AcDbSymbolTableRecord
100
AcDbLinetypeTableRecord
  2
CENTERX2
 70
     0
  3
Center (2x) ________  __  ________  __  _____
 72
    65
 73
     4
 40
20.32
 49
12.7
 74
     0
 49
-2.54
 74
     0
 49
2.54
 74
     0
 49
-2.54
 74
     0
  0
LTYPE
  5
72
330
5
100
AcDbSymbolTableRecord
100
AcDbLinetypeTableRecord
  2
DOT2
 70
     0
  3
Dot (.5x) ........................................
 72
    65
 73
     2
 40
0.635
 49
0.0
 74
     0
 49
-0.635
 74
     0
  0
ENDTAB
  0
TABLE
  2
LAYER
  5
2
330
0
100
AcDbSymbolTable
 70
     1
  0
LAYER
  5
10
330
2
100
AcDbSymbolTableRecord
100
AcDbLayerTableRecord
  2
0
 70
     0
 62
     7
  6
Continuous
370
    -3
390
F
  0
ENDTAB
  0
TABLE
  2
STYLE
  5
3
330
0
100
AcDbSymbolTable
 70
     1
  0
STYLE
  5
11
330
3
100
AcDbSymbolTableRecord
100
AcDbTextStyleTableRecord
  2
Standard
 70
     0
 40
0.0
 41
1.0
 50
0.0
 71
     0
 42
3.5
  3
txt
  4

  0
ENDTAB
  0
TABLE
  2
VIEW
  5
6
330
0
100
AcDbSymbolTable
 70
     0
  0
ENDTAB
  0
TABLE
  2
UCS
  5
7
330
0
100
AcDbSymbolTable
 70
     0
  0
ENDTAB
  0
TABLE
  2
APPID
  5
9
330
0
100
AcDbSymbolTable
 70
     1
  0
APPID
  5
12
330
9
100
AcDbSymbolTableRecord
100
AcDbRegAppTableRecord
  2
ACAD
 70
     0
  0
ENDTAB
  0
TABLE
  2
DIMSTYLE
  5
A
330
0
100
AcDbSymbolTable
 70
     1
100
AcDbDimStyleTable
  0
DIMSTYLE
105
27
330
A
100
AcDbSymbolTableRecord
100
AcDbDimStyleTableRecord
  2
ISO-25
 70
     0
 41
2.5
 42
0.625
 43
3.75
 44
1.25
 73
     0
 74
     0
 77
     1
 78
     8
140
2.5
141
2.5
143
0.0393700787
147
0.625
171
     3
172
     1
178
     0
271
     2
272
     2
274
     3
278
    44
283
     0
284
     8
340
11
  0
ENDTAB
  0
TABLE
  2
BLOCK_RECORD
  5
1
330
0
100
AcDbSymbolTable
 70
     2
  0
BLOCK_RECORD
  5
1F
330
1
100
AcDbSymbolTableRecord
100
AcDbBlockTableRecord
  2
*Model_Space
340
22
  0
BLOCK_RECORD
  5
1B
330
1
100
AcDbSymbolTableRecord
100
AcDbBlockTableRecord
  2
*Paper_Space
340
1E
  0
BLOCK_RECORD
  5
23
330
1
100
AcDbSymbolTableRecord
100
AcDbBlockTableRecord
  2
*Paper_Space0
340
26
  0
BLOCK_RECORD
  5
36C
330
1
100
AcDbSymbolTableRecord
100
AcDbBlockTableRecord
  2
*Paper_Space1
340
36D
  0
ENDTAB
  0
ENDSEC
  0
SECTION
  2
BLOCKS
  0
BLOCK
  5
20
330
1F
100
AcDbEntity
  8
0
100
AcDbBlockBegin
  2
*Model_Space
 70
     0
 10
0.0
 20
0.0
 30
0.0
  3
*Model_Space
  1

  0
ENDBLK
  5
21
330
1F
100
AcDbEntity
  8
0
100
AcDbBlockEnd
  0
BLOCK
  5
1C
330
1B
100
AcDbEntity
 67
     1
  8
0
100
AcDbBlockBegin
  2
*Paper_Space
 70
     0
 10
0.0
 20
0.0
 30
0.0
  3
*Paper_Space
  1

  0
ENDBLK
  5
1D
330
1B
100
AcDbEntity
 67
     1
  8
0
100
AcDbBlockEnd
  0
BLOCK
  5
24
330
23
100
AcDbEntity
  8
0
100
AcDbBlockBegin
  2
*Paper_Space0
 70
     0
 10
0.0
 20
0.0
 30
0.0
  3
*Paper_Space0
  1

  0
SPLINE
  5
30A
330
23
100
AcDbEntity
  8
0
  6
Continuous
 62
     7
370
    25
100
AcDbSpline
210
0.0
220
0.0
230
1.0
 70
    24
 71
     3
 72
     9
 73
     5
 74
     0
 42
0.000000001
 43
0.00000001
 40
0.0
 40
0.0
 40
0.0
 40
0.0
 40
0.7650845031495086
 40
1.0
 40
1.0
 40
1.0
 40
1.0
 10
88.46829927884619
 20
-3.0
 30
0.0
 10
88.20532384182279
 20
-2.999999999999999
 30
0.0
 10
87.86160306857377
 20
-2.999999999999998
 30
0.0
 10
87.58599352513104
 20
-3.0
 30
0.0
 10
87.52124857229647
 20
-3.0
 30
0.0
  0
LINE
  5
322
330
23
100
AcDbEntity
  8
0
  6
Continuous
 62
     7
370
    25
100
AcDbLine
 10
198.5
 20
0.0
 30
0.0
 11
198.5
 21
-3.0
 31
0.0
  0
LINE
  5
323
330
23
100
AcDbEntity
  8
0
  6
Continuous
 62
     7
370
    25
100
AcDbLine
 10
194.5
 20
-3.0
 30
0.0
 11
194.5
 21
0.0
 31
0.0
  0
LINE
  5
324
330
23
100
AcDbEntity
  8
0
  6
Continuous
 62
     7
370
    25
100
AcDbLine
 10
185.05
 20
-3.0
 30
0.0
 11
185.05
 21
0.0
 31
0.0
  0
LINE
  5
325
330
23
100
AcDbEntity
  8
0
  6
Continuous
 62
     7
370
    25
100
AcDbLine
 10
167.5
 20
0.0
 30
0.0
 11
167.5
 21
-3.0
 31
0.0
  0
LINE
  5
326
330
23
100
AcDbEntity
  8
0
  6
Continuous
 62
     7
370
    25
100
AcDbLine
 10
163.5
 20
-3.0
 30
0.0
 11
163.5
 21
0.0
 31
0.0
  0
LINE
  5
327
330
23
100
AcDbEntity
  8
0
  6
Continuous
 62
     7
370
    25
100
AcDbLine
 10
179.95
 20
0.0
 30
0.0
 11
179.95
 21
-3.0
 31
0.0
  0
LINE
  5
328
330
23
100
AcDbEntity
  8
0
  6
Continuous
 62
     7
370
    25
100
AcDbLine
 10
-179.95
 20
-3.0
 30
0.0
 11
-179.95
 21
0.0
 31
0.0
  0
LINE
  5
329
330
23
100
AcDbEntity
  8
0
  6
Continuous
 62
     7
370
    25
100
AcDbLine
 10
-167.5
 20
-3.0
 30
0.0
 11
-167.5
 21
0.0
 31
0.0
  0
LINE
  5
32A
330
23
100
AcDbEntity
  8
0
  6
Continuous
 62
     7
370
    25
100
AcDbLine
 10
-194.5
 20
0.0
 30
0.0
 11
-194.5
 21
-3.0
 31
0.0
  0
LINE
  5
32B
330
23
100
AcDbEntity
  8
0
  6
Continuous
 62
     7
370
    25
100
AcDbLine
 10
-198.5
 20
-3.0
 30
0.0
 11
-198.5
 21
0.0
 31
0.0
  0
LINE
  5
32C
330
23
100
AcDbEntity
  8
0
  6
Continuous
 62
     7
370
    25
100
AcDbLine
 10
-163.5
 20
0.0
 30
0.0
 11
-163.5
 21
-3.0
 31
0.0
  0
LINE
  5
32D
330
23
100
AcDbEntity
  8
0
  6
Continuous
 62
     7
370
    25
100
AcDbLine
 10
-185.05
 20
0.0
 30
0.0
 11
-185.05
 21
-3.0
 31
0.0
  0
LINE
  5
32E
330
23
100
AcDbEntity
  8
0
  6
Continuous
 62
     7
370
    25
100
AcDbLine
 10
-53.5
 20
-3.0
 30
0.0
 11
-53.5
 21
0.0
 31
0.0
  0
LINE
  5
32F
330
23
100
AcDbEntity
  8
0
  6
Continuous
 62
     7
370
    25
100
AcDbLine
 10
-56.5
 20
-3.0
 30
0.0
 11
-56.5
 21
0.0
 31
0.0
  0
LINE
  5
330
330
23
100
AcDbEntity
  8
0
  6
Continuous
 62
     7
370
    25
100
AcDbLine
 10
56.5
 20
-3.0
 30
0.0
 11
56.5
 21
0.0
 31
0.0
  0
LINE
  5
331
330
23
100
AcDbEntity
  8
0
  6
Continuous
 62
     7
370
    25
100
AcDbLine
 10
53.5
 20
-3.0
 30
0.0
 11
53.5
 21
0.0
 31
0.0
  0
LINE
  5
332
330
23
100
AcDbEntity
  8
0
  6
Continuous
 62
     7
370
    25
100
AcDbLine
 10
198.5
 20
0.0
 30
0.0
 11
-198.5
 21
0.0
 31
0.0
  0
LINE
  5
333
330
23
100
AcDbEntity
  8
0
  6
Continuous
 62
     7
370
    25
100
AcDbLine
 10
35.5
 20
-3.0
 30
0.0
 11
35.5
 21
0.0
 31
0.0
  0
LINE
  5
334
330
23
100
AcDbEntity
  8
0
  6
Continuous
 62
     7
370
    25
100
AcDbLine
 10
-145.5
 20
-3.0
 30
0.0
 11
-145.5
 21
0.0
 31
0.0
  0
LINE
  5
335
330
23
100
AcDbEntity
  8
0
  6
Continuous
 62
     7
370
    25
100
AcDbLine
 10
145.5
 20
-3.0
 30
0.0
 11
145.5
 21
0.0
 31
0.0
  0
LINE
  5
336
330
23
100
AcDbEntity
  8
0
  6
Continuous
 62
     7
370
    25
100
AcDbLine
 10
-74.5
 20
-3.0
 30
0.0
 11
-74.5
 21
0.0
 31
0.0
  0
LINE
  5
337
330
23
100
AcDbEntity
  8
0
  6
Continuous
 62
     7
370
    25
100
AcDbLine
 10
74.5
 20
-3.0
 30
0.0
 11
74.5
 21
0.0
 31
0.0
  0
LINE
  5
338
330
23
100
AcDbEntity
  8
0
  6
Continuous
 62
     7
370
    25
100
AcDbLine
 10
-35.5
 20
-3.0
 30
0.0
 11
-35.5
 21
0.0
 31
0.0
  0
LINE
  5
339
330
23
100
AcDbEntity
  8
0
  6
Continuous
 62
     7
370
    25
100
AcDbLine
 10
143.8853632479
 20
-2.75
 30
0.0
 11
144.5502136752
 21
-2.75
 31
0.0
  0
LINE
  5
33A
330
23
100
AcDbEntity
  8
0
  6
Continuous
 62
     7
370
    25
100
AcDbLine
 10
143.8853632479
 20
-2.75
 30
0.0
 11
143.8853632479
 21
-3.0
 31
0.0
  0
LINE
  5
33B
330
23
100
AcDbEntity
  8
0
  6
Continuous
 62
     7
370
    25
100
AcDbLine
 10
141.5108974359
 20
-2.75
 30
0.0
 11
141.5108974359
 21
-3.0
 31
0.0
  0
LINE
  5
33C
330
23
100
AcDbEntity
  8
0
  6
Continuous
 62
     7
370
    25
100
AcDbLine
 10
140.8460470085
 20
-2.75
 30
0.0
 11
141.5108974359
 21
-2.75
 31
0.0
  0
LINE
  5
33D
330
23
100
AcDbEntity
  8
0
  6
Continuous
 62
     7
370
    25
100
AcDbLine
 10
140.8460470085
 20
-2.75
 30
0.0
 11
140.8460470085
 21
-3.0
 31
0.0
  0
LINE
  5
33E
330
23
100
AcDbEntity
  8
0
  6
Continuous
 62
     7
370
    25
100
AcDbLine
 10
137.9017094017
 20
-2.75
 30
0.0
 11
137.9017094017
 21
-3.0
 31
0.0
  0
LINE
  5
33F
330
23
100
AcDbEntity
  8
0
  6
Continuous
 62
     7
370
    25
100
AcDbLine
 10
133.7226495726
 20
-2.75
 30
0.0
 11
137.9017094017
 21
-2.75
 31
0.0
  0
LINE
  5
340
330
23
100
AcDbEntity
  8
0
  6
Continuous
 62
     7
370
    25
100
AcDbLine
 10
133.7226495726
 20
-2.75
 30
0.0
 11
133.7226495726
 21
-3.0
 31
0.0
  0
LINE
  5
341
330
23
100
AcDbEntity
  8
0
  6
Continuous
 62
     7
370
    25
100
AcDbLine
 10
132.7728632479
 20
-2.75
 30
0.0
 11
132.7728632479
 21
-3.0
 31
0.0
  0
LINE
  5
342
330
23
100
AcDbEntity
  8
0
  6
Continuous
 62
     7
370
    25
100
AcDbLine
 10
132.1035606971
 20
-2.75
 30
0.0
 11
132.7728632479
 21
-2.75
 31
0.0
  0
LINE
  5
343
330
23
100
AcDbEntity
  8
0
  6
Continuous
 62
     7
370
    25
100
AcDbLine
 10
132.1035606971
 20
-2.75
 30
0.0
 11
132.1035606971
 21
-3.0
 31
0.0
  0
LINE
  5
344
330
23
100
AcDbEntity
  8
0
  6
Continuous
 62
     7
370
    25
100
AcDbLine
 10
128.7110426683
 20
-2.75
 30
0.0
 11
128.7110426683
 21
-3.0
 31
0.0
  0
LINE
  5
345
330
23
100
AcDbEntity
  8
0
  6
Continuous
 62
     7
370
    25
100
AcDbLine
 10
128.5611545139
 20
-2.75
 30
0.0
 11
128.7110426683
 21
-2.75
 31
0.0
  0
LINE
  5
346
330
23
100
AcDbEntity
  8
0
  6
Continuous
 62
     7
370
    25
100
AcDbLine
 10
128.5611545139
 20
-2.75
 30
0.0
 11
128.5611545139
 21
-3.0
 31
0.0
  0
LINE
  5
347
330
23
100
AcDbEntity
  8
0
  6
Continuous
 62
     7
370
    25
100
AcDbLine
 10
125.1775407318
 20
-2.75
 30
0.0
 11
125.1775407318
 21
-3.0
 31
0.0
  0
LINE
  5
348
330
23
100
AcDbEntity
  8
0
  6
Continuous
 62
     7
370
    25
100
AcDbLine
 10
124.5097222222
 20
-2.75
 30
0.0
 11
125.1775407318
 21
-2.75
 31
0.0
  0
LINE
  5
349
330
23
100
AcDbEntity
  8
0
  6
Continuous
 62
     7
370
    25
100
AcDbLine
 10
124.5097222222
 20
-2.75
 30
0.0
 11
124.5097222222
 21
-3.0
 31
0.0
  0
LINE
  5
34A
330
23
100
AcDbEntity
  8
0
  6
Continuous
 62
     7
370
    25
100
AcDbLine
 10
120.1407051282
 20
-2.75
 30
0.0
 11
120.1407051282
 21
-3.0
 31
0.0
  0
LINE
  5
34B
330
23
100
AcDbEntity
  8
0
  6
Continuous
 62
     7
370
    25
100
AcDbLine
 10
119.4758547009
 20
-2.75
 30
0.0
 11
120.1407051282
 21
-2.75
 31
0.0
  0
LINE
  5
34C
330
23
100
AcDbEntity
  8
0
  6
Continuous
 62
     7
370
    25
100
AcDbLine
 10
119.4758547009
 20
-2.75
 30
0.0
 11
119.4758547009
 21
-3.0
 31
0.0
  0
LINE
  5
34D
330
23
100
AcDbEntity
  8
0
  6
Continuous
 62
     7
370
    25
100
AcDbLine
 10
117.8612179487
 20
-2.75
 30
0.0
 11
117.8612179487
 21
-3.0
 31
0.0
  0
LINE
  5
34E
330
23
100
AcDbEntity
  8
0
  6
Continuous
 62
     7
370
    25
100
AcDbLine
 10
115.5654063168
 20
-2.75
 30
0.0
 11
117.8612179487
 21
-2.75
 31
0.0
  0
LINE
  5
34F
330
23
100
AcDbEntity
  8
0
  6
Continuous
 62
     7
370
    25
100
AcDbLine
 10
115.5654063168
 20
-2.75
 30
0.0
 11
115.5654063168
 21
-3.0
 31
0.0
  0
LINE
  5
350
330
23
100
AcDbEntity
  8
0
  6
Continuous
 62
     7
370
    25
100
AcDbLine
 10
104.5642094017
 20
-2.75
 30
0.0
 11
104.5642094017
 21
-3.0
 31
0.0
  0
LINE
  5
351
330
23
100
AcDbEntity
  8
0
  6
Continuous
 62
     7
370
    25
100
AcDbLine
 10
103.8993589744
 20
-2.75
 30
0.0
 11
104.5642094017
 21
-2.75
 31
0.0
  0
LINE
  5
352
330
23
100
AcDbEntity
  8
0
  6
Continuous
 62
     7
370
    25
100
AcDbLine
 10
103.8993589744
 20
-2.75
 30
0.0
 11
103.8993589744
 21
-3.0
 31
0.0
  0
LINE
  5
353
330
23
100
AcDbEntity
  8
0
  6
Continuous
 62
     7
370
    25
100
AcDbLine
 10
101.038175351
 20
-3.0
 30
0.0
 11
101.038175351
 21
-2.75
 31
0.0
  0
LINE
  5
354
330
23
100
AcDbEntity
  8
0
  6
Continuous
 62
     7
370
    25
100
AcDbLine
 10
101.038175351
 20
-2.75
 30
0.0
 11
100.6351867377
 21
-2.75
 31
0.0
  0
LINE
  5
355
330
23
100
AcDbEntity
  8
0
  6
Continuous
 62
     7
370
    25
100
AcDbLine
 10
100.6351867377
 20
-2.75
 30
0.0
 11
100.6351867377
 21
-3.0
 31
0.0
  0
LINE
  5
356
330
23
100
AcDbEntity
  8
0
  6
Continuous
 62
     7
370
    25
100
AcDbLine
 10
93.1667735043
 20
-2.75
 30
0.0
 11
93.1667735043
 21
-3.0
 31
0.0
  0
LINE
  5
357
330
23
100
AcDbEntity
  8
0
  6
Continuous
 62
     7
370
    25
100
AcDbLine
 10
92.5019230769
 20
-2.75
 30
0.0
 11
93.1667735043
 21
-2.75
 31
0.0
  0
LINE
  5
358
330
23
100
AcDbEntity
  8
0
  6
Continuous
 62
     7
370
    25
100
AcDbLine
 10
92.5019230769
 20
-2.75
 30
0.0
 11
92.5019230769
 21
-3.0
 31
0.0
  0
LINE
  5
359
330
23
100
AcDbEntity
  8
0
  6
Continuous
 62
     7
370
    25
100
AcDbLine
 10
87.3779865973
 20
-2.75
 30
0.0
 11
87.3779865973
 21
-3.0
 31
0.0
  0
LINE
  5
35A
330
23
100
AcDbEntity
  8
0
  6
Continuous
 62
     7
370
    25
100
AcDbLine
 10
85.2835470085
 20
-2.75
 30
0.0
 11
85.2835470085
 21
-3.0
 31
0.0
  0
LINE
  5
35B
330
23
100
AcDbEntity
  8
0
  6
Continuous
 62
     7
370
    25
100
AcDbLine
 10
80.2496794872
 20
-2.75
 30
0.0
 11
85.2835470085
 21
-2.75
 31
0.0
  0
LINE
  5
35C
330
23
100
AcDbEntity
  8
0
  6
Continuous
 62
     7
370
    25
100
AcDbLine
 10
80.2496794872
 20
-2.75
 30
0.0
 11
80.2496794872
 21
-3.0
 31
0.0
  0
LINE
  5
35D
330
23
100
AcDbEntity
  8
0
  6
Continuous
 62
     7
370
    25
100
AcDbLine
 10
144.5502136752
 20
-2.75
 30
0.0
 11
144.5502136752
 21
-3.0
 31
0.0
  0
LINE
  5
35E
330
23
100
AcDbEntity
  8
0
  6
Continuous
 62
     7
370
    25
100
AcDbLine
 10
89.5910847425
 20
-3.0
 30
0.0
 11
89.5910847425
 21
-2.75
 31
0.0
  0
LINE
  5
35F
330
23
100
AcDbEntity
  8
0
  6
Continuous
 62
     7
370
    25
100
AcDbLine
 10
89.5910847425
 20
-2.75
 30
0.0
 11
87.3779865973
 21
-2.75
 31
0.0
  0
LINE
  5
360
330
23
100
AcDbEntity
  8
0
  6
Continuous
 62
     7
370
    25
100
AcDbLine
 10
87.3779865973
 20
-3.0
 30
0.0
 11
-198.5
 21
-3.0
 31
0.0
  0
LINE
  5
361
330
23
100
AcDbEntity
  8
0
  6
Continuous
 62
     7
370
    25
100
AcDbLine
 10
115.5654063168
 20
-3.0
 30
0.0
 11
89.5910847425
 21
-3.0
 31
0.0
  0
LINE
  5
362
330
23
100
AcDbEntity
  8
0
  6
Continuous
 62
     7
370
    25
100
AcDbLine
 10
88.4682992788
 20
-2.75
 30
0.0
 11
88.4682992788
 21
-3.0
 31
0.0
  0
LINE
  5
363
330
23
100
AcDbEntity
  8
0
  6
Continuous
 62
     7
370
    25
100
AcDbLine
 10
89.5204844418
 20
-3.0
 30
0.0
 11
88.4682992788
 21
-3.0
 31
0.0
  0
LINE
  5
364
330
23
100
AcDbEntity
  8
0
  6
Continuous
 62
     7
370
    25
100
AcDbLine
 10
137.2368589744
 20
-2.75
 30
0.0
 11
137.2368589744
 21
-3.0
 31
0.0
  0
LINE
  5
365
330
23
100
AcDbEntity
  8
0
  6
Continuous
 62
     7
370
    25
100
AcDbLine
 10
116.3460119525
 20
-2.75
 30
0.0
 11
116.3460119525
 21
-3.0
 31
0.0
  0
LINE
  5
366
330
23
100
AcDbEntity
  8
0
  6
Continuous
 62
     7
370
    25
100
AcDbLine
 10
115.7086582918
 20
-3.0
 30
0.0
 11
198.5
 21
-3.0
 31
0.0
  0
LINE
  5
367
330
23
100
AcDbEntity
  8
0
  6
Continuous
 62
     7
370
    25
100
AcDbLine
 10
83.6971070379
 20
-2.75
 30
0.0
 11
83.6971070379
 21
-3.0
 31
0.0
  0
LINE
  5
368
330
23
100
AcDbEntity
  8
0
  6
Continuous
 62
     7
370
    25
100
AcDbLine
 10
117.1963675214
 20
-2.75
 30
0.0
 11
117.1963675214
 21
-3.0
 31
0.0
  0
LINE
  5
369
330
23
100
AcDbEntity
  8
0
  6
Continuous
 62
     7
370
    25
100
AcDbLine
 10
128.641292735
 20
-2.75
 30
0.0
 11
128.641292735
 21
-3.0
 31
0.0
  0
LINE
  5
36A
330
23
100
AcDbEntity
  8
0
  6
Continuous
 62
     7
370
    25
100
AcDbLine
 10
104.0344067174
 20
-2.75
 30
0.0
 11
104.0344067174
 21
-3.0
 31
0.0
  0
LINE
  5
36B
330
23
100
AcDbEntity
  8
0
  6
Continuous
 62
     7
370
    25
100
AcDbLine
 10
92.63697082
 20
-2.75
 30
0.0
 11
92.63697082
 21
-3.0
 31
0.0
  0
VIEWPORT
  5
3B2
330
23
100
AcDbEntity
  8
0
100
AcDbViewport
 10
0.0
 20
0.0
 30
0.0
 40
205.6
 41
156.0
 68
     1
 69
     1
 12
0.0
 22
-36.15
 13
0.0
 23
0.0
 14
10.0
 24
10.0
 15
10.0
 25
10.0
 16
0.0
 26
0.0
 36
1.0
 17
0.0
 27
0.0
 37
0.0
 42
50.0
 43
0.0
 44
0.0
 45
307.2501945525
 50
0.0
 51
0.0
 72
   100
 90
   557152
  1

281
     0
 71
     1
 74
     0
110
0.0
120
0.0
130
0.0
111
1.0
121
0.0
131
0.0
112
0.0
122
1.0
132
0.0
 79
     0
146
0.0
  0
ENDBLK
  5
25
330
23
100
AcDbEntity
  8
0
100
AcDbBlockEnd
  0
BLOCK
  5
36E
330
36C
100
AcDbEntity
  8
0
100
AcDbBlockBegin
  2
*Paper_Space1
 70
     0
 10
0.0
 20
0.0
 30
0.0
  3
*Paper_Space1
  1

  0
LINE
  5
390
330
36C
100
AcDbEntity
  8
0
  6
Continuous
 62
     7
370
    25
100
AcDbLine
 10
-185.05
 20
32.0
 30
0.0
 11
-194.5
 21
32.0
 31
0.0
  0
LINE
  5
391
330
36C
100
AcDbEntity
  8
0
  6
Continuous
 62
     7
370
    25
100
AcDbLine
 10
-179.95
 20
-15.0
 30
0.0
 11
-179.95
 21
32.0
 31
0.0
  0
LINE
  5
392
330
36C
100
AcDbEntity
  8
0
  6
Continuous
 62
     7
370
    25
100
AcDbLine
 10
-167.5
 20
32.0
 30
0.0
 11
-179.95
 21
32.0
 31
0.0
  0
LINE
  5
393
330
36C
100
AcDbEntity
  8
0
  6
Continuous
 62
     7
370
    25
100
AcDbLine
 10
179.95
 20
32.0
 30
0.0
 11
167.5
 21
32.0
 31
0.0
  0
LINE
  5
394
330
36C
100
AcDbEntity
  8
0
  6
Continuous
 62
     7
370
    25
100
AcDbLine
 10
179.95
 20
32.0
 30
0.0
 11
179.95
 21
-15.0
 31
0.0
  0
LINE
  5
395
330
36C
100
AcDbEntity
  8
0
  6
Continuous
 62
     7
370
    25
100
AcDbLine
 10
179.95
 20
-15.0
 30
0.0
 11
185.05
 21
-15.0
 31
0.0
  0
LINE
  5
396
330
36C
100
AcDbEntity
  8
0
  6
Continuous
 62
     7
370
    25
100
AcDbLine
 10
194.5
 20
32.0
 30
0.0
 11
185.05
 21
32.0
 31
0.0
  0
LINE
  5
397
330
36C
100
AcDbEntity
  8
0
  6
Continuous
 62
     7
370
    25
100
AcDbLine
 10
-35.5
 20
-69.3
 30
0.0
 11
35.5
 21
-69.3
 31
0.0
  0
LINE
  5
398
330
36C
100
AcDbEntity
  8
0
  6
Continuous
 62
     7
370
    25
100
AcDbLine
 10
-53.5
 20
-51.3
 30
0.0
 11
-35.5
 21
-69.3
 31
0.0
  0
LINE
  5
399
330
36C
100
AcDbEntity
  8
0
  6
Continuous
 62
     7
370
    25
100
AcDbLine
 10
-56.5
 20
-51.3
 30
0.0
 11
-53.5
 21
-51.3
 31
0.0
  0
LINE
  5
39A
330
36C
100
AcDbEntity
  8
0
  6
Continuous
 62
     7
370
    25
100
AcDbLine
 10
-74.5
 20
-69.3
 30
0.0
 11
-56.5
 21
-51.3
 31
0.0
  0
LINE
  5
39B
330
36C
100
AcDbEntity
  8
0
  6
Continuous
 62
     7
370
    25
100
AcDbLine
 10
-163.5
 20
-51.3
 30
0.0
 11
-145.5
 21
-69.3
 31
0.0
  0
LINE
  5
39C
330
36C
100
AcDbEntity
  8
0
  6
Continuous
 62
     7
370
    25
100
AcDbLine
 10
-163.5
 20
28.0
 30
0.0
 11
-163.5
 21
-51.3
 31
0.0
  0
LINE
  5
39D
330
36C
100
AcDbEntity
  8
0
  6
Continuous
 62
     7
370
    25
100
AcDbLine
 10
-198.5
 20
-100.3
 30
0.0
 11
-198.5
 21
28.0
 31
0.0
  0
LINE
  5
39E
330
36C
100
AcDbEntity
  8
0
  6
Continuous
 62
     7
370
    25
100
AcDbLine
 10
194.5
 20
-104.3
 30
0.0
 11
-194.5
 21
-104.3
 31
0.0
  0
LINE
  5
39F
330
36C
100
AcDbEntity
  8
0
  6
Continuous
 62
     7
370
    25
100
AcDbLine
 10
198.5
 20
28.0
 30
0.0
 11
198.5
 21
-100.3
 31
0.0
  0
LINE
  5
3A0
330
36C
100
AcDbEntity
  8
0
  6
Continuous
 62
     7
370
    25
100
AcDbLine
 10
163.5
 20
-51.3
 30
0.0
 11
163.5
 21
28.0
 31
0.0
  0
LINE
  5
3A1
330
36C
100
AcDbEntity
  8
0
  6
Continuous
 62
     7
370
    25
100
AcDbLine
 10
145.5
 20
-69.3
 30
0.0
 11
163.5
 21
-51.3
 31
0.0
  0
LINE
  5
3A2
330
36C
100
AcDbEntity
  8
0
  6
Continuous
 62
     7
370
    25
100
AcDbLine
 10
74.5
 20
-69.3
 30
0.0
 11
145.5
 21
-69.3
 31
0.0
  0
LINE
  5
3A3
330
36C
100
AcDbEntity
  8
0
  6
Continuous
 62
     7
370
    25
100
AcDbLine
 10
56.5
 20
-51.3
 30
0.0
 11
74.5
 21
-69.3
 31
0.0
  0
LINE
  5
3A4
330
36C
100
AcDbEntity
  8
0
  6
Continuous
 62
     7
370
    25
100
AcDbLine
 10
53.5
 20
-51.3
 30
0.0
 11
56.5
 21
-51.3
 31
0.0
  0
LINE
  5
3A5
330
36C
100
AcDbEntity
  8
0
  6
Continuous
 62
     7
370
    25
100
AcDbLine
 10
35.5
 20
-69.3
 30
0.0
 11
53.5
 21
-51.3
 31
0.0
  0
LINE
  5
3A6
330
36C
100
AcDbEntity
  8
0
  6
Continuous
 62
     7
370
    25
100
AcDbLine
 10
185.05
 20
-15.0
 30
0.0
 11
185.05
 21
32.0
 31
0.0
  0
LINE
  5
3A7
330
36C
100
AcDbEntity
  8
0
  6
Continuous
 62
     7
370
    25
100
AcDbLine
 10
-185.05
 20
32.0
 30
0.0
 11
-185.05
 21
-15.0
 31
0.0
  0
LINE
  5
3A8
330
36C
100
AcDbEntity
  8
0
  6
Continuous
 62
     7
370
    25
100
AcDbLine
 10
-185.05
 20
-15.0
 30
0.0
 11
-179.95
 21
-15.0
 31
0.0
  0
LINE
  5
3A9
330
36C
100
AcDbEntity
  8
0
  6
Continuous
 62
     7
370
    25
100
AcDbLine
 10
-145.5
 20
-69.3
 30
0.0
 11
-74.5
 21
-69.3
 31
0.0
  0
ARC
  5
3AA
330
36C
100
AcDbEntity
  8
0
  6
Continuous
 62
     7
370
    25
100
AcDbCircle
 10
194.5
 20
-100.3
 30
0.0
 40
3.999999999999972
100
AcDbArc
 50
270.0
 51
0.0
  0
ARC
  5
3AB
330
36C
100
AcDbEntity
  8
0
  6
Continuous
 62
     7
370
    25
100
AcDbCircle
 10
-194.5
 20
-100.3
 30
0.0
 40
3.999999999999986
100
AcDbArc
 50
180.0
 51
270.0
  0
ARC
  5
3AC
330
36C
100
AcDbEntity
  8
0
  6
Continuous
 62
     7
370
    25
100
AcDbCircle
 10
-194.5
 20
28.0
 30
0.0
 40
4.0
100
AcDbArc
 50
90.0
 51
180.0
  0
ARC
  5
3AD
330
36C
100
AcDbEntity
  8
0
  6
Continuous
 62
     7
370
    25
100
AcDbCircle
 10
-167.5
 20
28.0
 30
0.0
 40
4.000000000000032
100
AcDbArc
 50
0.0
 51
90.0
  0
ARC
  5
3AE
330
36C
100
AcDbEntity
  8
0
  6
Continuous
 62
     7
370
    25
100
AcDbCircle
 10
167.5
 20
28.0
 30
0.0
 40
4.000000000000032
100
AcDbArc
 50
90.0
 51
180.0
  0
ARC
  5
3AF
330
36C
100
AcDbEntity
  8
0
  6
Continuous
 62
     7
370
    25
100
AcDbCircle
 10
194.5
 20
28.0
 30
0.0
 40
4.0
100
AcDbArc
 50
0.0
 51
90.0
  0
VIEWPORT
  5
3B4
330
36C
100
AcDbEntity
  8
0
100
AcDbViewport
 10
0.0
 20
0.0
 30
0.0
 40
205.6
 41
156.0
 68
     1
 69
     1
 12
0.0
 22
-36.15
 13
0.0
 23
0.0
 14
10.0
 24
10.0
 15
10.0
 25
10.0
 16
0.0
 26
0.0
 36
1.0
 17
0.0
 27
0.0
 37
0.0
 42
50.0
 43
0.0
 44
0.0
 45
307.2501945525
 50
0.0
 51
0.0
 72
   100
 90
   557152
  1

281
     0
 71
     1
 74
     0
110
0.0
120
0.0
130
0.0
111
1.0
121
0.0
131
0.0
112
0.0
122
1.0
132
0.0
 79
     0
146
0.0
  0
ENDBLK
  5
36F
330
36C
100
AcDbEntity
  8
0
100
AcDbBlockEnd
  0
ENDSEC
  0
SECTION
  2
ENTITIES
  0
SPLINE
  5
74
330
1F
100
AcDbEntity
  8
0
  6
Continuous
 62
     7
370
    25
100
AcDbSpline
210
0.0
220
0.0
230
1.0
 70
     8
 71
     3
 72
    15
 73
    11
 74
     0
 42
0.000000001
 43
0.00000001
 40
0.0
 40
0.0
 40
0.0
 40
0.0
 40
0.0843186169585876
 40
0.1792845142139063
 40
0.2865825276465634
 40
0.405111483434279
 40
0.5355928734189797
 40
0.6781902099934185
 40
0.8329758397604935
 40
1.0
 40
1.0
 40
1.0
 40
1.0
 10
114.3989499866453
 20
-75.74073851495726
 30
0.0
 10
114.4610765797987
 20
-75.75791828728488
 30
0.0
 10
114.5931747625611
 20
-75.79444719687999
 30
0.0
 10
114.8087349614151
 20
-75.83429423538409
 30
0.0
 10
115.0513370277073
 20
-75.8694404249698
 30
0.0
 10
115.3220580617313
 20
-75.89919660825478
 30
0.0
 10
115.6205894668171
 20
-75.9205481050953
 30
0.0
 10
115.9471608397196
 20
-75.93657405434753
 30
0.0
 10
116.3019133360544
 20
-75.94738309310196
 30
0.0
 10
116.54783303271
 20
-75.94812119001531
 30
0.0
 10
116.6754690838675
 20
-75.94850427350427
 30
0.0
  0
SPLINE
  5
75
330
1F
100
AcDbEntity
  8
0
  6
Continuous
 62
     7
370
    25
100
AcDbSpline
210
0.0
220
0.0
230
1.0
 70
     8
 71
     3
 72
    23
 73
    19
 74
     0
 42
0.000000001
 43
0.00000001
 40
0.0
 40
0.0
 40
0.0
 40
0.0
 40
0.0701420572220218
 40
0.1377946922754859
 40
0.2031998303117151
 40
0.2671393260097541
 40
0.3299811044164899
 40
0.3915885098483967
 40
0.4530550564334014
 40
0.5140826114793893
 40
0.574740810819669
 40
0.6345985188588841
 40
0.6938416495593346
 40
0.7534736712850496
 40
0.8131500916116926
 40
0.8740960537026237
 40
0.9360153315621015
 40
1.0
 40
1.0
 40
1.0
 40
1.0
 10
112.4474358974359
 20
-72.91215611645299
 30
0.0
 10
112.4485235136873
 20
-72.99879813097215
 30
0.0
 10
112.4506601454403
 20
-73.16900713540738
 30
0.0
 10
112.4774710195656
 20
-73.41876146147641
 30
0.0
 10
112.5167344598539
 20
-73.65893552449054
 30
0.0
 10
112.5732118559441
 20
-73.88970224025913
 30
0.0
 10
112.6461757818108
 20
-74.11076137492554
 30
0.0
 10
112.7334830332723
 20
-74.32336181848817
 30
0.0
 10
112.8394877411063
 20
-74.5247676063023
 30
0.0
 10
112.9594962776216
 20
-74.71668456800322
 30
0.0
 10
113.0942278386461
 20
-74.89620624287838
 30
0.0
 10
113.243084759438
 20
-75.06122943791885
 30
0.0
 10
113.4044974355276
 20
-75.21206155291038
 30
0.0
 10
113.5777219658392
 20
-75.34894273637518
 30
0.0
 10
113.7651803211059
 20
-75.46943874508739
 30
0.0
 10
113.9637003375241
 20
-75.57663011386872
 30
0.0
 10
114.1760784344228
 20
-75.66770627567519
 30
0.0
 10
114.3238514221891
 20
-75.7161296482158
 30
0.0
 10
114.3989499866453
 20
-75.74073851495726
 30
0.0
  0
SPLINE
  5
76
330
1F
100
AcDbEntity
  8
0
  6
Continuous
 62
     7
370
    25
100
AcDbSpline
210
0.0
220
0.0
230
1.0
 70
     8
 71
     3
 72
    23
 73
    19
 74
     0
 42
0.000000001
 43
0.00000001
 40
0.0
 40
0.0
 40
0.0
 40
0.0
 40
0.0624012892571567
 40
0.1233121250056869
 40
0.1830857765168621
 40
0.2417318174828644
 40
0.3008503100224237
 40
0.3599389926754495
 40
0.4191280276905993
 40
0.4797642139829911
 40
0.5407054899311946
 40
0.6021453426096063
 40
0.6645243374636227
 40
0.7278534407500998
 40
0.792509892884826
 40
0.8592732719002432
 40
0.9284795423630056
 40
1.0
 40
1.0
 40
1.0
 40
1.0
 10
114.2282852564103
 20
-70.24830228365384
 30
0.0
 10
114.1606597863692
 20
-70.27211630254416
 30
0.0
 10
114.027024079246
 20
-70.31917554297412
 30
0.0
 10
113.8346798939711
 20
-70.40504832210512
 30
0.0
 10
113.6552009064017
 20
-70.50664244142153
 30
0.0
 10
113.4855950138873
 20
-70.62023885845741
 30
0.0
 10
113.3269522177968
 20
-70.7475916126875
 30
0.0
 10
113.1800071812941
 20
-70.88910571435655
 30
0.0
 10
113.0435992190435
 20
-71.04314282575953
 30
0.0
 10
112.9199123533904
 20
-71.21022197862075
 30
0.0
 10
112.8080473952288
 20
-71.38848934757792
 30
0.0
 10
112.7113964398564
 20
-71.57774635632137
 30
0.0
 10
112.6299207790099
 20
-71.77693096257337
 30
0.0
 10
112.5630754157622
 20
-71.98535016989706
 30
0.0
 10
112.5109589538095
 20
-72.20312802196648
 30
0.0
 10
112.4742669139083
 20
-72.43081103186913
 30
0.0
 10
112.451529286779
 20
-72.66830928469989
 30
0.0
 10
112.4488152376523
 20
-72.82998759704589
 30
0.0
 10
112.4474358974359
 20
-72.912156116453
 30
0.0
  0
SPLINE
  5
77
330
1F
100
AcDbEntity
  8
0
  6
Continuous
 62
     7
370
    25
100
AcDbSpline
210
0.0
220
0.0
230
1.0
 70
     8
 71
     3
 72
    15
 73
    11
 74
     0
 42
0.000000001
 43
0.00000001
 40
0.0
 40
0.0
 40
0.0
 40
0.0
 40
0.1719006646132699
 40
0.3306279320958817
 40
0.4755488358809165
 40
0.6067461903123634
 40
0.7250238034674852
 40
0.8297423869584583
 40
0.9213228203439738
 40
1.0
 40
1.0
 40
1.0
 40
1.0
 10
116.3460119524573
 20
-70.05982905982906
 30
0.0
 10
116.2238202343909
 20
-70.06035419715417
 30
0.0
 10
115.9888008110838
 20
-70.06136422854792
 30
0.0
 10
115.6508580501554
 20
-70.07022714184671
 30
0.0
 10
115.3420799942921
 20
-70.08470924289534
 30
0.0
 10
115.0624227994098
 20
-70.10497649092368
 30
0.0
 10
114.8120443646472
 20
-70.13179172640565
 30
0.0
 10
114.5904214273956
 20
-70.1616894372212
 30
0.0
 10
114.3982804639413
 20
-70.19893737465485
 30
0.0
 10
114.2820131557475
 20
-70.23270023874912
 30
0.0
 10
114.2282852564103
 20
-70.24830228365384
 30
0.0
  0
SPLINE
  5
7A
330
1F
100
AcDbEntity
  8
0
  6
Continuous
 62
     7
370
    25
100
AcDbSpline
210
0.0
220
0.0
230
1.0
 70
     8
 71
     3
 72
    23
 73
    19
 74
     0
 42
0.000000001
 43
0.00000001
 40
0.0
 40
0.0
 40
0.0
 40
0.0
 40
0.0765394938586499
 40
0.1491234783097258
 40
0.2187712836403719
 40
0.28534010295651
 40
0.3507805362970413
 40
0.4145763818714929
 40
0.4776143792398921
 40
0.5407871921023042
 40
0.602605863173796
 40
0.6624219351141082
 40
0.7200055187117725
 40
0.775964332192117
 40
0.8311577461331994
 40
0.886696223364455
 40
0.9425669484058548
 40
1.0
 40
1.0
 40
1.0
 40
1.0
 10
88.46829927884619
 20
-69.8698717948718
 30
0.0
 10
88.3989824724887
 20
-69.87121831644517
 30
0.0
 10
88.26393110556384
 20
-69.8738417722654
 30
0.0
 10
88.06683262911888
 20
-69.89651677463462
 30
0.0
 10
87.88126930186823
 20
-69.9335558616322
 30
0.0
 10
87.7054633690761
 20
-69.98377689212043
 30
0.0
 10
87.54072339335403
 20
-70.05034927015372
 30
0.0
 10
87.38727392019047
 20
-70.13303854530784
 30
0.0
 10
87.24302538788326
 20
-70.22748756933993
 30
0.0
 10
87.11414270033369
 20
-70.3393070453305
 30
0.0
 10
86.99695665094576
 20
-70.45896080175724
 30
0.0
 10
86.89431090919174
 20
-70.58496016243089
 30
0.0
 10
86.8074410445834
 20
-70.71604323396869
 30
0.0
 10
86.73741558919713
 20
-70.85213328659316
 30
0.0
 10
86.68180868863496
 20
-70.99273019925229
 30
0.0
 10
86.64172244436936
 20
-71.13841112263952
 30
0.0
 10
86.61701616175854
 20
-71.28974827686469
 30
0.0
 10
86.61451545668412
 20
-71.39240388299723
 30
0.0
 10
86.61324786324789
 20
-71.44443943643162
 30
0.0
  0
SPLINE
  5
7B
330
1F
100
AcDbEntity
  8
0
  6
Continuous
 62
     7
370
    25
100
AcDbSpline
210
0.0
220
0.0
230
1.0
 70
     8
 71
     3
 72
    19
 73
    15
 74
     0
 42
0.000000001
 43
0.00000001
 40
0.0
 40
0.0
 40
0.0
 40
0.0
 40
0.0749254640055745
 40
0.1491944878975575
 40
0.224577089902291
 40
0.3027299155445766
 40
0.3823547567728359
 40
0.4612145038051449
 40
0.5426309737493437
 40
0.6269606111813709
 40
0.7143536925660795
 40
0.8048319229127568
 40
0.9000909095527335
 40
1.0
 40
1.0
 40
1.0
 40
1.0
 10
90.31741452991456
 20
-71.37468950320513
 30
0.0
 10
90.31447564271022
 20
-71.30817237538282
 30
0.0
 10
90.30862361660323
 20
-71.17572089238463
 30
0.0
 10
90.26386250678567
 20
-70.98046388865787
 30
0.0
 10
90.19035182575502
 20
-70.79148978702378
 30
0.0
 10
90.08722500589208
 20
-70.61146377317998
 30
0.0
 10
89.9614343978536
 20
-70.4425685812372
 30
0.0
 10
89.80851137712202
 20
-70.29327591243776
 30
0.0
 10
89.63218436857703
 20
-70.16559547469299
 30
0.0
 10
89.43390198197692
 20
-70.05888082215031
 30
0.0
 10
89.21654566256575
 20
-69.9743613709751
 30
0.0
 10
88.98145863303898
 20
-69.91389347146747
 30
0.0
 10
88.7302332933829
 20
-69.87588684142244
 30
0.0
 10
88.55698655129163
 20
-69.87190840731083
 30
0.0
 10
88.46829927884619
 20
-69.8698717948718
 30
0.0
  0
SPLINE
  5
7C
330
1F
100
AcDbEntity
  8
0
  6
Continuous
 62
     7
370
    25
100
AcDbSpline
210
0.0
220
0.0
230
1.0
 70
     8
 71
     3
 72
    23
 73
    19
 74
     0
 42
0.000000001
 43
0.00000001
 40
0.0
 40
0.0
 40
0.0
 40
0.0
 40
0.0712707658340636
 40
0.1398158522338485
 40
0.2065034392291549
 40
0.2715431433929119
 40
0.3360916074305592
 40
0.3998151727836481
 40
0.4642725027334044
 40
0.5293408582651521
 40
0.5937158345077672
 40
0.6556317882307253
 40
0.7148999079784768
 40
0.7721675321124059
 40
0.828848812934519
 40
0.8851188209124865
 40
0.9420776683186709
 40
1.0
 40
1.0
 40
1.0
 40
1.0
 10
88.42526208600431
 20
-73.00416666666666
 30
0.0
 10
88.4911448180477
 20
-73.00299445768985
 30
0.0
 10
88.62039066268461
 20
-73.00069486970072
 30
0.0
 10
88.80974371868851
 20
-72.9751101654212
 30
0.0
 10
88.99145694023001
 20
-72.93947070152696
 30
0.0
 10
89.16497250241652
 20
-72.88549284243537
 30
0.0
 10
89.32939972375493
 20
-72.81526031272574
 30
0.0
 10
89.48705261792642
 20
-72.73197656281175
 30
0.0
 10
89.63546238456105
 20
-72.63215276050198
 30
0.0
 10
89.77396568089206
 20
-72.51820952300929
 30
0.0
 10
89.90076916805427
 20
-72.39473197623855
 30
0.0
 10
90.01242140976187
 20
-72.26432319221915
 30
0.0
 10
90.10675172401375
 20
-72.12875396023068
 30
0.0
 10
90.18330183152376
 20
-71.98785280570627
 30
0.0
 10
90.24268737892628
 20
-71.84193017741657
 30
0.0
 10
90.28651483032598
 20
-71.69090091844475
 30
0.0
 10
90.311960990546
 20
-71.53434375489834
 30
0.0
 10
90.31558654786292
 20
-71.42820431016573
 30
0.0
 10
90.31741452991456
 20
-71.37468950320513
 30
0.0
  0
SPLINE
  5
7D
330
1F
100
AcDbEntity
  8
0
  6
Continuous
 62
     7
370
    25
100
AcDbSpline
210
0.0
220
0.0
230
1.0
 70
     8
 71
     3
 72
    23
 73
    19
 74
     0
 42
0.000000001
 43
0.00000001
 40
0.0
 40
0.0
 40
0.0
 40
0.0
 40
0.057333524022765
 40
0.1130516941125431
 40
0.1691640350495452
 40
0.225970679168741
 40
0.2837418700319718
 40
0.3433637077705868
 40
0.4062345747817652
 40
0.471713132696196
 40
0.5383168504705856
 40
0.603370876310482
 40
0.6676360442187863
 40
0.7322530046199085
 40
0.7970257039479084
 40
0.8630620863860792
 40
0.9303641553519834
 40
1.0
 40
1.0
 40
1.0
 40
1.0
 10
86.61324786324789
 20
-71.44443943643162
 30
0.0
 10
86.61515257511967
 20
-71.49498556220976
 30
0.0
 10
86.61890833420772
 20
-71.59465369263502
 30
0.0
 10
86.64308805107213
 20
-71.74224270998043
 30
0.0
 10
86.6845966301158
 20
-71.88541655920767
 30
0.0
 10
86.74512313687663
 20
-72.02352949306191
 30
0.0
 10
86.81945276078157
 20
-72.15818812165205
 30
0.0
 10
86.91127356490958
 20
-72.28826196805026
 30
0.0
 10
87.01946643624929
 20
-72.41411120033425
 30
0.0
 10
87.14376655539071
 20
-72.5331447188195
 30
0.0
 10
87.27847981246336
 20
-72.64318580348069
 30
0.0
 10
87.42124645199577
 20
-72.7409769170212
 30
0.0
 10
87.57271710628673
 20
-72.82090248945993
 30
0.0
 10
87.72989120313724
 20
-72.8880455983983
 30
0.0
 10
87.89435319434072
 20
-72.94037065273136
 30
0.0
 10
88.06530982634321
 20
-72.97706166661658
 30
0.0
 10
88.24308496633468
 20
-73.00012194483129
 30
0.0
 10
88.36385032823567
 20
-73.0028031942501
 30
0.0
 10
88.42526208600431
 20
-73.00416666666666
 30
0.0
  0
SPLINE
  5
A2
330
1F
100
AcDbEntity
  8
0
  6
Continuous
 62
     7
370
    25
100
AcDbSpline
210
0.0
220
0.0
230
1.0
 70
     8
 71
     3
 72
    19
 73
    15
 74
     0
 42
0.000000001
 43
0.00000001
 40
0.0
 40
0.0
 40
0.0
 40
0.0
 40
0.0987013748863703
 40
0.1956706803858551
 40
0.2924199929089603
 40
0.3913392869674676
 40
0.4444587417649341
 40
0.5042245791547472
 40
0.570347591406355
 40
0.6429138259794851
 40
0.7222898165239623
 40
0.8079227212022517
 40
0.9004703662977959
 40
1.0
 40
1.0
 40
1.0
 40
1.0
 10
80.34465811965813
 20
-74.69597355769231
 30
0.0
 10
80.34824224903244
 20
-74.59279068560289
 30
0.0
 10
80.35534761138499
 20
-74.38823565474186
 30
0.0
 10
80.41612554949607
 20
-74.0876368774011
 30
0.0
 10
80.51105380688159
 20
-73.79639995202048
 30
0.0
 10
80.62533808329451
 20
-73.56199800702754
 30
0.0
 10
80.74066076066184
 20
-73.37313832620742
 30
0.0
 10
80.84447929501378
 20
-73.21756382206861
 30
0.0
 10
80.96670725136642
 20
-73.050095988646
 30
0.0
 10
81.106300367888
 20
-72.8700570018195
 30
0.0
 10
81.26566263611063
 20
-72.67980462423611
 30
0.0
 10
81.44065384572882
 20
-72.47545719595465
 30
0.0
 10
81.63579320510276
 20
-72.26079324220257
 30
0.0
 10
81.77263280900422
 20
-72.1140793517748
 30
0.0
 10
81.84353966346154
 20
-72.03805588942308
 30
0.0
  0
SPLINE
  5
A3
330
1F
100
AcDbEntity
  8
0
  6
Continuous
 62
     7
370
    25
100
AcDbSpline
210
0.0
220
0.0
230
1.0
 70
     8
 71
     3
 72
    23
 73
    19
 74
     0
 42
0.000000001
 43
0.00000001
 40
0.0
 40
0.0
 40
0.0
 40
0.0
 40
0.069479636366983
 40
0.1365250035391412
 40
0.2008008928734211
 40
0.2639832069133287
 40
0.3257111447611861
 40
0.3872705140757311
 40
0.4494927805315659
 40
0.5129551957628501
 40
0.576266397070109
 40
0.637574966831177
 40
0.6979010984244973
 40
0.7575582794115652
 40
0.8165875043650651
 40
0.8766457566083141
 40
0.9372858729381274
 40
1.0
 40
1.0
 40
1.0
 40
1.0
 10
82.5825921474359
 20
-76.89829059829059
 30
0.0
 10
82.50135284057683
 20
-76.89640429815061
 30
0.0
 10
82.3417205045947
 20
-76.89269778575722
 30
0.0
 10
82.10883677916489
 20
-76.86038862106572
 30
0.0
 10
81.88660985267562
 20
-76.81087770590212
 30
0.0
 10
81.67755822071312
 20
-76.7375103289599
 30
0.0
 10
81.47953642605246
 20
-76.64545031970302
 30
0.0
 10
81.29499630711098
 20
-76.53096163690125
 30
0.0
 10
81.11947549135333
 20
-76.39946149978005
 30
0.0
 10
80.96158823474445
 20
-76.24435063953374
 30
0.0
 10
80.81654974230437
 20
-76.07884695984735
 30
0.0
 10
80.69153533090743
 20
-75.90209042158358
 30
0.0
 10
80.58387193631334
 20
-75.7193187184584
 30
0.0
 10
80.49575281075171
 20
-75.52910413760897
 30
0.0
 10
80.4289545948069
 20
-75.33082724789725
 30
0.0
 10
80.3794635185478
 20
-75.12638899769918
 30
0.0
 10
80.35117174488352
 20
-74.913430031046
 30
0.0
 10
80.34685352943694
 20
-74.76926700819702
 30
0.0
 10
80.34465811965813
 20
-74.69597355769231
 30
0.0
  0
SPLINE
  5
A4
330
1F
100
AcDbEntity
  8
0
  6
Continuous
 62
     7
370
    25
100
AcDbSpline
210
0.0
220
0.0
230
1.0
 70
     8
 71
     3
 72
    23
 73
    19
 74
     0
 42
0.000000001
 43
0.00000001
 40
0.0
 40
0.0
 40
0.0
 40
0.0
 40
0.0687985167452391
 40
0.1351184559300889
 40
0.1990010113675062
 40
0.2619337007769927
 40
0.3235312844431791
 40
0.3854347205665496
 40
0.4472155159851228
 40
0.5100181032833269
 40
0.5725109099917953
 40
0.6333640222588522
 40
0.6932167277430208
 40
0.7525553881310327
 40
0.8125582265741719
 40
0.8732608589653633
 40
0.9355427078252683
 40
1.0
 40
1.0
 40
1.0
 40
1.0
 10
84.99861111111112
 20
-74.42884615384615
 30
0.0
 10
84.99427870813427
 20
-74.51704996774039
 30
0.0
 10
84.98576998398742
 20
-74.69027991083155
 30
0.0
 10
84.94590633531172
 20
-74.94284269383724
 30
0.0
 10
84.88891925024686
 20
-75.18428095068082
 30
0.0
 10
84.80815525585857
 20
-75.41252479198128
 30
0.0
 10
84.70841878053591
 20
-75.63030078191659
 30
0.0
 10
84.58631247211366
 20
-75.83471710726423
 30
0.0
 10
84.44443943932322
 20
-76.027802575817
 30
0.0
 10
84.28305995390653
 20
-76.20590143933886
 30
0.0
 10
84.10794833887881
 20
-76.36870606806575
 30
0.0
 10
83.92015378506069
 20
-76.5107839624
 30
0.0
 10
83.72160646554862
 20
-76.62945244778989
 30
0.0
 10
83.51402849477792
 20
-76.72919604655014
 30
0.0
 10
83.29501917222753
 20
-76.8039748221243
 30
0.0
 10
83.06667198190364
 20
-76.85948381734701
 30
0.0
 10
82.8279548178914
 20
-76.8928753027721
 30
0.0
 10
82.66531028748093
 20
-76.8964649612764
 30
0.0
 10
82.5825921474359
 20
-76.89829059829059
 30
0.0
  0
SPLINE
  5
A6
330
1F
100
AcDbEntity
  8
0
  6
Continuous
 62
     7
370
    25
100
AcDbSpline
210
0.0
220
0.0
230
1.0
 70
     8
 71
     3
 72
    23
 73
    19
 74
     0
 42
0.000000001
 43
0.00000001
 40
0.0
 40
0.0
 40
0.0
 40
0.0
 40
0.0644420198530834
 40
0.1265534866972344
 40
0.1867788219416123
 40
0.2459439745213386
 40
0.3041103458128547
 40
0.3617852793109966
 40
0.4202554070674575
 40
0.4799428587769961
 40
0.5402862362437815
 40
0.6007123566267307
 40
0.6619622304358106
 40
0.7244721944653055
 40
0.7888813129531307
 40
0.8563062910592513
 40
0.9263482014292813
 40
1.0
 40
1.0
 40
1.0
 40
1.0
 10
82.61672509348291
 20
-76.13846153846154
 30
0.0
 10
82.67467482173467
 20
-76.1370082323895
 30
0.0
 10
82.78847851969662
 20
-76.13415417922556
 30
0.0
 10
82.95520848963496
 20
-76.11252281663506
 30
0.0
 10
83.11537669946762
 20
-76.07976322089286
 30
0.0
 10
83.26651500211067
 20
-76.02761021264719
 30
0.0
 10
83.41178645329028
 20
-75.96657193006111
 30
0.0
 10
83.54748510547276
 20
-75.88753809083666
 30
0.0
 10
83.67742290339403
 20
-75.79722970726242
 30
0.0
 10
83.79898740853287
 20
-75.69193586793055
 30
0.0
 10
83.90970640359157
 20
-75.573074983037
 30
0.0
 10
84.01042846446414
 20
-75.44369701031297
 30
0.0
 10
84.0957712652404
 20
-75.30150834049381
 30
0.0
 10
84.17152920841791
 20
-75.14992083146205
 30
0.0
 10
84.22946907827486
 20
-74.98476974895841
 30
0.0
 10
84.27900351501474
 20
-74.81009406395133
 30
0.0
 10
84.31498461117789
 20
-74.6234015652901
 30
0.0
 10
84.32739804239927
 20
-74.49477508027569
 30
0.0
 10
84.3337606837607
 20
-74.42884615384615
 30
0.0
  0
SPLINE
  5
A7
330
1F
100
AcDbEntity
  8
0
  6
Continuous
 62
     7
370
    25
100
AcDbSpline
210
0.0
220
0.0
230
1.0
 70
     8
 71
     3
 72
    23
 73
    19
 74
     0
 42
0.000000001
 43
0.00000001
 40
0.0
 40
0.0
 40
0.0
 40
0.0
 40
0.0619690391917448
 40
0.1221290764323336
 40
0.1809991241916566
 40
0.2401624165448515
 40
0.2998647227478889
 40
0.359951267092579
 40
0.4217417893803261
 40
0.4865456790123973
 40
0.5515084714935606
 40
0.6149949372340028
 40
0.6772396658274396
 40
0.7397146797414236
 40
0.8030385380943941
 40
0.8664872928331443
 40
0.9319694797733322
 40
1.0
 40
1.0
 40
1.0
 40
1.0
 10
81.00950854700856
 20
-74.63661191239318
 30
0.0
 10
81.01084037901752
 20
-74.6871664582542
 30
0.0
 10
81.01346516415764
 20
-74.78679976023841
 30
0.0
 10
81.03706895226082
 20
-74.93278180264964
 30
0.0
 10
81.0717476018238
 20
-75.07414450921817
 30
0.0
 10
81.12519811348186
 20
-75.2091400313839
 30
0.0
 10
81.18941693519892
 20
-75.34042347011541
 30
0.0
 10
81.2714612155334
 20
-75.4640033994408
 30
0.0
 10
81.36521628321624
 20
-75.58409236254316
 30
0.0
 10
81.47396756304971
 20
-75.69657260841132
 30
0.0
 10
81.59335626127267
 20
-75.79962197987365
 30
0.0
 10
81.71950151970263
 20
-75.89089933862087
 30
0.0
 10
81.85295650445741
 20
-75.96718263349686
 30
0.0
 10
81.99316504949869
 20
-76.0297162324815
 30
0.0
 10
82.13973454855949
 20
-76.07877082650603
 30
0.0
 10
82.29294894683628
 20
-76.11276147621356
 30
0.0
 10
82.45238477552634
 20
-76.1341027366568
 30
0.0
 10
82.56125234220573
 20
-76.13699023348059
 30
0.0
 10
82.61672509348291
 20
-76.13846153846154
 30
0.0
  0
SPLINE
  5
A8
330
1F
100
AcDbEntity
  8
0
  6
Continuous
 62
     7
370
    25
100
AcDbSpline
210
0.0
220
0.0
230
1.0
 70
     8
 71
     3
 72
    19
 73
    15
 74
     0
 42
0.000000001
 43
0.00000001
 40
0.0
 40
0.0
 40
0.0
 40
0.0
 40
0.1107941734871603
 40
0.2128129326077728
 40
0.3060779098917645
 40
0.390617458060213
 40
0.4672327266979068
 40
0.534450618381696
 40
0.5938668014988489
 40
0.6448329686326054
 40
0.7362206188001748
 40
0.8250374016667793
 40
0.9119923130965305
 40
0.9999999999999999
 40
0.9999999999999999
 40
0.9999999999999999
 40
0.9999999999999999
 10
82.4104433760684
 20
-72.36602897970087
 30
0.0
 10
82.340487063164
 20
-72.43904641250276
 30
0.0
 10
82.20611530303405
 20
-72.57929795748008
 30
0.0
 10
82.01614067284136
 20
-72.7841229550795
 30
0.0
 10
81.8452384459896
 20
-72.97391881604541
 30
0.0
 10
81.69329525548568
 20
-73.14952657090302
 30
0.0
 10
81.56018608140144
 20
-73.30995068786576
 30
0.0
 10
81.44633681468518
 20
-73.45644837291002
 30
0.0
 10
81.35124426211186
 20
-73.58776242566118
 30
0.0
 10
81.25046597232777
 20
-73.7420246841869
 30
0.0
 10
81.15436718559756
 20
-73.93059329006523
 30
0.0
 10
81.06990618515269
 20
-74.15987484496725
 30
0.0
 10
81.01877464457249
 20
-74.39642418393058
 30
0.0
 10
81.0126096114976
 20
-74.5562288136504
 30
0.0
 10
81.00950854700855
 20
-74.63661191239316
 30
0.0
  0
SPLINE
  5
AB
330
1F
100
AcDbEntity
  8
0
  6
Continuous
 62
     7
370
    25
100
AcDbSpline
210
0.0
220
0.0
230
1.0
 70
     8
 71
     3
 72
    12
 73
     8
 74
     0
 42
0.000000001
 43
0.00000001
 40
0.0
 40
0.0
 40
0.0
 40
0.0
 40
0.1192834503733669
 40
0.2370928820686261
 40
0.3547960442151261
 40
0.4745763009408463
 40
0.4907951245715855
 40
0.4907951245715855
 40
0.4907951245715855
 40
0.4907951245715855
 10
86.50936498397441
 20
-69.92329727564103
 30
0.0
 10
86.56828552125185
 20
-69.85854045360368
 30
0.0
 10
86.6853984983867
 20
-69.72982702753843
 30
0.0
 10
86.88602236184084
 20
-69.56271447972435
 30
0.0
 10
87.10620201591799
 20
-69.4222749288938
 30
0.0
 10
87.27437846194339
 20
-69.34169940697646
 30
0.0
 10
87.3669181802177
 20
-69.30436922532476
 30
0.0
 10
87.37798659728122
 20
-69.30000000112986
 30
0.0
  0
SPLINE
  5
AC
330
1F
100
AcDbEntity
  8
0
  6
Continuous
 62
     7
370
    25
100
AcDbSpline
210
0.0
220
0.0
230
1.0
 70
     8
 71
     3
 72
    15
 73
    11
 74
     0
 42
0.000000001
 43
0.00000001
 40
0.0
 40
0.0
 40
0.0
 40
0.0
 40
0.1281643900560246
 40
0.2536854172428121
 40
0.3773435734415361
 40
0.5005243883782274
 40
0.6229001123712938
 40
0.745827088414978
 40
0.8713890588678204
 40
0.9999999999999999
 40
0.9999999999999999
 40
0.9999999999999999
 40
0.9999999999999999
 10
85.94839743589746
 20
-71.45779580662392
 30
0.0
 10
85.9500211241612
 20
-71.38646586575449
 30
0.0
 10
85.95323501246878
 20
-71.24527714864313
 30
0.0
 10
85.98151970361538
 20
-71.0369442309827
 30
0.0
 10
86.02329993384453
 20
-70.83379134708264
 30
0.0
 10
86.08676810555895
 20
-70.63812146734128
 30
0.0
 10
86.1648687049266
 20
-70.44826744914509
 30
0.0
 10
86.26342133671884
 20
-70.26678713542736
 30
0.0
 10
86.374650740753
 20
-70.08847106177657
 30
0.0
 10
86.4641025585047
 20
-69.97879375474916
 30
0.0
 10
86.5093649839744
 20
-69.92329727564102
 30
0.0
  0
SPLINE
  5
AD
330
1F
100
AcDbEntity
  8
0
  6
Continuous
 62
     7
370
    25
100
AcDbSpline
210
0.0
220
0.0
230
1.0
 70
     8
 71
     3
 72
    23
 73
    19
 74
     0
 42
0.000000001
 43
0.00000001
 40
0.0
 40
0.0
 40
0.0
 40
0.0
 40
0.0790137330422216
 40
0.1545852078983686
 40
0.2268619743906002
 40
0.2958929341764834
 40
0.3615958596672695
 40
0.4246568368570499
 40
0.4853322406891323
 40
0.5440113763315256
 40
0.6009735383430889
 40
0.6578572180182837
 40
0.7139883690835372
 40
0.7694791522711589
 40
0.8261384148636312
 40
0.8828910494631536
 40
0.9407037627843796
 40
1.0
 40
1.0
 40
1.0
 40
1.0
 10
87.38049712873935
 20
-73.42711838942307
 30
0.0
 10
87.32034038583541
 20
-73.39550543337052
 30
0.0
 10
87.20264764749425
 20
-73.33365674966062
 30
0.0
 10
87.03498988929299
 20
-73.23376919636222
 30
0.0
 10
86.87850798178246
 20
-73.13213710058407
 30
0.0
 10
86.73609615820055
 20
-73.02510638532576
 30
0.0
 10
86.6063582133748
 20
-72.91495214782188
 30
0.0
 10
86.48889489275246
 20
-72.80196586204212
 30
0.0
 10
86.38244295232192
 20
-72.68650486263078
 30
0.0
 10
86.29065948189287
 20
-72.5656008625045
 30
0.0
 10
86.20922394232113
 20
-72.44140389190886
 30
0.0
 10
86.1402380495436
 20
-72.31238325142044
 30
0.0
 10
86.08003088526961
 20
-72.18040331146778
 30
0.0
 10
86.03277576300793
 20
-72.04346034661283
 30
0.0
 10
85.99376124501062
 20
-71.90343302185397
 30
0.0
 10
85.96693709937294
 20
-71.75844240460819
 30
0.0
 10
85.95250637079073
 20
-71.60946308471476
 30
0.0
 10
85.94977859923648
 20
-71.50877672738994
 30
0.0
 10
85.94839743589746
 20
-71.45779580662392
 30
0.0
  0
SPLINE
  5
AE
330
1F
100
AcDbEntity
  8
0
  6
Continuous
 62
     7
370
    25
100
AcDbSpline
210
0.0
220
0.0
230
1.0
 70
     8
 71
     3
 72
    15
 73
    11
 74
     0
 42
0.000000001
 43
0.00000001
 40
0.0
 40
0.0
 40
0.0
 40
0.0
 40
0.1219329697347745
 40
0.2394694222484205
 40
0.3547948844456224
 40
0.4715031982725505
 40
0.5923001109584685
 40
0.7192362206827413
 40
0.8548579476808102
 40
1.0
 40
1.0
 40
1.0
 40
1.0
 10
86.32831196581202
 20
-74.97645733173078
 30
0.0
 10
86.33136682152953
 20
-74.89608044986866
 30
0.0
 10
86.33736638452973
 20
-74.73822482227655
 30
0.0
 10
86.38717107399214
 20
-74.50843945425362
 30
0.0
 10
86.47235255642288
 20
-74.29368634188361
 30
0.0
 10
86.58726264440695
 20
-74.09066090226334
 30
0.0
 10
86.73808475429244
 20
-73.90260746813955
 30
0.0
 10
86.92177364545951
 20
-73.72859210221763
 30
0.0
 10
87.13594574376164
 20
-73.56521142705854
 30
0.0
 10
87.29715783804036
 20
-73.47417833884055
 30
0.0
 10
87.38049712873936
 20
-73.42711838942309
 30
0.0
  0
SPLINE
  5
AF
330
1F
100
AcDbEntity
  8
0
  6
Continuous
 62
     7
370
    25
100
AcDbSpline
210
0.0
220
0.0
230
1.0
 70
     8
 71
     3
 72
    19
 73
    15
 74
     0
 42
0.000000001
 43
0.00000001
 40
0.0
 40
0.0
 40
0.0
 40
0.0
 40
0.0893861771357529
 40
0.1762593581666844
 40
0.2630042155133471
 40
0.3498011875281802
 40
0.435431432373711
 40
0.5192021929221164
 40
0.601265012572587
 40
0.6841449567266811
 40
0.7658683829686709
 40
0.8449176964414462
 40
0.922300251970302
 40
1.0
 40
1.0
 40
1.0
 40
1.0
 10
88.43119825053422
 20
-76.89829059829059
 30
0.0
 10
88.33699499323768
 20
-76.8952423993485
 30
0.0
 10
88.15123690177037
 20
-76.88923169829481
 30
0.0
 10
87.87778381763076
 20
-76.83860569007886
 30
0.0
 10
87.6159165617541
 20
-76.7549999363019
 30
0.0
 10
87.3671028000202
 20
-76.64112859530535
 30
0.0
 10
87.13663675200175
 20
-76.49924157341161
 30
0.0
 10
86.93154330287042
 20
-76.33055495423918
 30
0.0
 10
86.75014816629957
 20
-76.14044742307034
 30
0.0
 10
86.60028304295344
 20
-75.92716754365458
 30
0.0
 10
86.48005955722155
 20
-75.69960805068602
 30
0.0
 10
86.39348480010167
 20
-75.46355373163689
 30
0.0
 10
86.33875153304356
 20
-75.22183451226473
 30
0.0
 10
86.33179656326226
 20
-75.05836117684959
 30
0.0
 10
86.328311965812
 20
-74.97645733173077
 30
0.0
  0
SPLINE
  5
B0
330
1F
100
AcDbEntity
  8
0
  6
Continuous
 62
     7
370
    25
100
AcDbSpline
210
0.0
220
0.0
230
1.0
 70
     8
 71
     3
 72
    19
 73
    15
 74
     0
 42
0.000000001
 43
0.00000001
 40
0.0
 40
0.0
 40
0.0
 40
0.0
 40
0.0740603829256034
 40
0.1488742855290754
 40
0.2266736570165105
 40
0.3081503389269856
 40
0.3912004800128959
 40
0.473974818621686
 40
0.5583406082994355
 40
0.6454044470352092
 40
0.7333570108929957
 40
0.8210873153668223
 40
0.9092848183305257
 40
1.0
 40
1.0
 40
1.0
 40
1.0
 10
90.60235042735046
 20
-74.99723390758548
 30
0.0
 10
90.59888263924762
 20
-75.07617676318321
 30
0.0
 10
90.59191178039191
 20
-75.23486567026795
 30
0.0
 10
90.53573829429732
 20
-75.4711547211945
 30
0.0
 10
90.44350439237705
 20
-75.70335562774494
 30
0.0
 10
90.3202013965033
 20
-75.93093029523621
 30
0.0
 10
90.16328309454333
 20
-76.14350904609752
 30
0.0
 10
89.97754835461045
 20
-76.33571084039822
 30
0.0
 10
89.76323081418667
 20
-76.50256128951037
 30
0.0
 10
89.52504110287674
 20
-76.64360476029528
 30
0.0
 10
89.26917363275531
 20
-76.75894721448373
 30
0.0
 10
88.99875532798231
 20
-76.83768977583675
 30
0.0
 10
88.71860570530578
 20
-76.88947882701677
 30
0.0
 10
88.52789530128899
 20
-76.89532591425072
 30
0.0
 10
88.43119825053422
 20
-76.89829059829059
 30
0.0
  0
SPLINE
  5
B1
330
1F
100
AcDbEntity
  8
0
  6
Continuous
 62
     7
370
    25
100
AcDbSpline
210
0.0
220
0.0
230
1.0
 70
     8
 71
     3
 72
    15
 73
    11
 74
     0
 42
0.000000001
 43
0.00000001
 40
0.0
 40
0.0
 40
0.0
 40
0.0
 40
0.1458762987563661
 40
0.2820156607062498
 40
0.41096902990553
 40
0.5347112110032575
 40
0.6543961906333372
 40
0.770107841923191
 40
0.8845429919876359
 40
1.0
 40
1.0
 40
1.0
 40
1.0
 10
89.52048444177353
 20
-73.42711838942307
 30
0.0
 10
89.60629825164685
 20
-73.47410640300967
 30
0.0
 10
89.77219797967297
 20
-73.56494607888477
 30
0.0
 10
89.99396576607946
 20
-73.72976192367045
 30
0.0
 10
90.1818218339606
 20
-73.91150206334027
 30
0.0
 10
90.33376977559632
 20
-74.11043999479158
 30
0.0
 10
90.45374036877588
 20
-74.32003732110198
 30
0.0
 10
90.53856094705256
 20
-74.53919062324381
 30
0.0
 10
90.59392527590244
 20
-74.76545561060607
 30
0.0
 10
90.5995337337726
 20
-74.91974587136265
 30
0.0
 10
90.60235042735046
 20
-74.99723390758548
 30
0.0
  0
SPLINE
  5
B2
330
1F
100
AcDbEntity
  8
0
  6
Continuous
 62
     7
370
    25
100
AcDbSpline
210
0.0
220
0.0
230
1.0
 70
     8
 71
     3
 72
    23
 73
    19
 74
     0
 42
0.000000001
 43
0.00000001
 40
0.0
 40
0.0
 40
0.0
 40
0.0
 40
0.058848476354647
 40
0.1163053604439762
 40
0.1726598517648843
 40
0.2287605241456255
 40
0.2845556518310192
 40
0.3407401274836657
 40
0.3971085317763482
 40
0.454280838635334
 40
0.5127523429271224
 40
0.5734479876041841
 40
0.6364162535651305
 40
0.702388787266924
 40
0.7715028959200626
 40
0.8441980054086107
 40
0.9200767335203553
 40
1.0
 40
1.0
 40
1.0
 40
1.0
 10
90.98226495726499
 20
-71.3969501201923
 30
0.0
 10
90.98104147627048
 20
-71.44893362636988
 30
0.0
 10
90.97862344598528
 20
-71.55167138268307
 30
0.0
 10
90.96189584828011
 20
-71.7034578190984
 30
0.0
 10
90.93498022344166
 20
-71.85118670313285
 30
0.0
 10
90.89850707689027
 20
-71.99544113172647
 30
0.0
 10
90.84862367613555
 20
-72.13545995210714
 30
0.0
 10
90.78944416990404
 20
-72.27196525972188
 30
0.0
 10
90.71977568861814
 20
-72.40495309987047
 30
0.0
 10
90.6368748758796
 20
-72.53239876557927
 30
0.0
 10
90.54553967366232
 20
-72.6588166916277
 30
0.0
 10
90.43711638538747
 20
-72.77792964680133
 30
0.0
 10
90.31883353134444
 20
-72.89673416058206
 30
0.0
 10
90.18364969327068
 20
-73.00800573994454
 30
0.0
 10
90.03886579405736
 20
-73.12093698134763
 30
0.0
 10
89.8777294522317
 20
-73.2260888266758
 30
0.0
 10
89.70561360869748
 20
-73.33166787222245
 30
0.0
 10
89.58325297016115
 20
-73.39475564184491
 30
0.0
 10
89.52048444177353
 20
-73.42711838942307
 30
0.0
  0
SPLINE
  5
B3
330
1F
100
AcDbEntity
  8
0
  6
Continuous
 62
     7
370
    25
100
AcDbSpline
210
0.0
220
0.0
230
1.0
 70
     8
 71
     3
 72
    19
 73
    15
 74
     0
 42
0.000000001
 43
0.00000001
 40
0.2993540911802584
 40
0.2993540911802584
 40
0.2993540911802584
 40
0.2993540911802584
 40
0.3554080163481787
 40
0.4182941664943081
 40
0.4803896634667933
 40
0.5430717870965395
 40
0.6049212141612176
 40
0.6643937497230415
 40
0.7219362256164248
 40
0.778013060035011
 40
0.8338350510862125
 40
0.8888646543080232
 40
0.9440906590805257
 40
1.0
 40
1.0
 40
1.0
 40
1.0
 10
89.59108474251123
 20
-69.29999999887403
 30
0.0
 10
89.65709156351747
 20
-69.32627711096187
 30
0.0
 10
89.79429477203396
 20
-69.38934550664914
 30
0.0
 10
89.9910004302932
 20
-69.5080906273264
 30
0.0
 10
90.18056674296606
 20
-69.65258566350784
 30
0.0
 10
90.34768506026178
 20
-69.82065666880008
 30
0.0
 10
90.49601178297783
 20
-70.00071199158178
 30
0.0
 10
90.62642007586415
 20
-70.18641213177655
 30
0.0
 10
90.73420211981652
 20
-70.37762193376825
 30
0.0
 10
90.82710158399125
 20
-70.57143289769188
 30
0.0
 10
90.89623681386952
 20
-70.77177204542323
 30
0.0
 10
90.94527208473423
 20
-70.97658344007274
 30
0.0
 10
90.9760730744534
 20
-71.18528523341499
 30
0.0
 10
90.98019255320314
 20
-71.32610653602586
 30
0.0
 10
90.982264957265
 20
-71.39695012019232
 30
0.0
  0
SPLINE
  5
C0
330
1F
100
AcDbEntity
  8
0
  6
Continuous
 62
     7
370
    25
100
AcDbSpline
210
0.0
220
0.0
230
1.0
 70
     8
 71
     3
 72
    19
 73
    15
 74
     0
 42
0.000000001
 43
0.00000001
 40
0.0
 40
0.0
 40
0.0
 40
0.0
 40
0.0983120084115323
 40
0.1994013174837906
 40
0.3048237292518287
 40
0.4153745308074243
 40
0.4740203509906804
 40
0.5367581311177554
 40
0.6030424874843957
 40
0.6741160119094327
 40
0.7494372881980278
 40
0.828267395244457
 40
0.9120612846467485
 40
1.0
 40
1.0
 40
1.0
 40
1.0
 10
97.63076923076926
 20
-74.62177150106837
 30
0.0
 10
97.63324354742208
 20
-74.5439936948871
 30
0.0
 10
97.63826207983149
 20
-74.38624087024112
 30
0.0
 10
97.67391487307792
 20
-74.14721660567717
 30
0.0
 10
97.73256914216151
 20
-73.90318373522322
 30
0.0
 10
97.79955055111479
 20
-73.69617732030301
 30
0.0
 10
97.86916970254116
 20
-73.52641064592412
 30
0.0
 10
97.92731883342803
 20
-73.38978327776285
 30
0.0
 10
97.9982228941926
 20
-73.248175900739
 30
0.0
 10
98.07891538037727
 20
-73.10056448572578
 30
0.0
 10
98.16542439022376
 20
-72.94479882421062
 30
0.0
 10
98.26294447982075
 20
-72.78377596180766
 30
0.0
 10
98.3694166086454
 20
-72.61658565603895
 30
0.0
 10
98.44525731030262
 20
-72.50388008195036
 30
0.0
 10
98.48409288194448
 20
-72.4461672008547
 30
0.0
  0
SPLINE
  5
C1
330
1F
100
AcDbEntity
  8
0
  6
Continuous
 62
     7
370
    25
100
AcDbSpline
210
0.0
220
0.0
230
1.0
 70
     8
 71
     3
 72
    19
 73
    15
 74
     0
 42
0.000000001
 43
0.00000001
 40
0.0
 40
0.0
 40
0.0
 40
0.0
 40
0.0855258546254364
 40
0.1689910274487449
 40
0.2523165333954465
 40
0.3360491729607673
 40
0.4194246596293176
 40
0.5012749879686931
 40
0.5837070042392135
 40
0.6676536112842715
 40
0.7519367965071071
 40
0.8346098034319482
 40
0.9165317713927665
 40
1.0
 40
1.0
 40
1.0
 40
1.0
 10
99.92658086271369
 20
-76.89829059829059
 30
0.0
 10
99.82394307537074
 20
-76.89443065260483
 30
0.0
 10
99.62114048176775
 20
-76.88680376375129
 30
0.0
 10
99.32251939470359
 20
-76.83045680295304
 30
0.0
 10
99.03625366374789
 20
-76.73650029624008
 30
0.0
 10
98.76458442066735
 20
-76.60606774396992
 30
0.0
 10
98.51438044492966
 20
-76.44149243452351
 30
0.0
 10
98.28840619052437
 20
-76.2470822951835
 30
0.0
 10
98.09355505156384
 20
-76.02060497096157
 30
0.0
 10
97.92737308638878
 20
-75.76899880018776
 30
0.0
 10
97.79647452034298
 20
-75.49696897986752
 30
0.0
 10
97.70055544651139
 20
-75.21356629660607
 30
0.0
 10
97.64192438739461
 20
-74.92048665916626
 30
0.0
 10
97.63451072018317
 20
-74.72196190083883
 30
0.0
 10
97.63076923076926
 20
-74.62177150106837
 30
0.0
  0
SPLINE
  5
C2
330
1F
100
AcDbEntity
  8
0
  6
Continuous
 62
     7
370
    25
100
AcDbSpline
210
0.0
220
0.0
230
1.0
 70
     8
 71
     3
 72
    19
 73
    15
 74
     0
 42
0.000000001
 43
0.00000001
 40
0.0
 40
0.0
 40
0.0
 40
0.0
 40
0.0852509209904107
 40
0.1673302640104389
 40
0.2481807684308668
 40
0.3292002182086021
 40
0.4099461068796828
 40
0.4906242307199377
 40
0.5730350744520031
 40
0.6583083502216196
 40
0.7442669205444983
 40
0.8289815135743526
 40
0.9139364100040839
 40
0.9999999999999999
 40
0.9999999999999999
 40
0.9999999999999999
 40
0.9999999999999999
 10
102.2847222222222
 20
-74.62919170673077
 30
0.0
 10
102.2810436232639
 20
-74.73283802546756
 30
0.0
 10
102.2738232797444
 20
-74.93627472358703
 30
0.0
 10
102.2159347572007
 20
-75.23358307099184
 30
0.0
 10
102.120024160215
 20
-75.51485641940413
 30
0.0
 10
101.9883918478756
 20
-75.7797802432818
 30
0.0
 10
101.8194179025857
 20
-76.02226924167994
 30
0.0
 10
101.6187488227428
 20
-76.24150184766323
 30
0.0
 10
101.3847627431463
 20
-76.43356727211538
 30
0.0
 10
101.1235686544906
 20
-76.59847804385112
 30
0.0
 10
100.8416776005905
 20
-76.73201271326006
 30
0.0
 10
100.5452255151337
 20
-76.82688340657002
 30
0.0
 10
100.2392063160356
 20
-76.8874890204376
 30
0.0
 10
100.0312387572332
 20
-76.89467454469174
 30
0.0
 10
99.92658086271369
 20
-76.89829059829059
 30
0.0
  0
SPLINE
  5
C3
330
1F
100
AcDbEntity
  8
0
  6
Continuous
 62
     7
370
    25
100
AcDbSpline
210
0.0
220
0.0
230
1.0
 70
     8
 71
     3
 72
    23
 73
    19
 74
     0
 42
0.000000001
 43
0.00000001
 40
0.0
 40
0.0
 40
0.0
 40
0.0
 40
0.0662926774432302
 40
0.130126728667404
 40
0.1928557221658782
 40
0.2547508809666998
 40
0.3159143825399982
 40
0.3773406045409196
 40
0.4402056083033239
 40
0.5041733202243082
 40
0.5680296676598556
 40
0.6302216599279266
 40
0.6908533710945604
 40
0.7510329137478188
 40
0.8114720938156159
 40
0.8727547574474971
 40
0.9353929133658735
 40
1.0
 40
1.0
 40
1.0
 40
1.0
 10
100.0156233306624
 20
-72.43429487179486
 30
0.0
 10
100.0933918470948
 20
-72.43629272433034
 30
0.0
 10
100.24604464416
 20
-72.44021433414952
 30
0.0
 10
100.4705089064507
 20
-72.47112214669828
 30
0.0
 10
100.6865118349191
 20
-72.51926468375089
 30
0.0
 10
100.8932307212224
 20
-72.58943570158004
 30
0.0
 10
101.0904812239064
 20
-72.6791161783355
 30
0.0
 10
101.2789523692722
 20
-72.78835842723177
 30
0.0
 10
101.4583918997368
 20
-72.91757033724294
 30
0.0
 10
101.6266986481303
 20
-73.06535821746908
 30
0.0
 10
101.7797319438048
 20
-73.2276772132711
 30
0.0
 10
101.9161817476217
 20
-73.399414878419
 30
0.0
 10
102.0289638100797
 20
-73.58243458687178
 30
0.0
 10
102.1243246874395
 20
-73.77287396602804
 30
0.0
 10
102.1946168145387
 20
-73.97479838662244
 30
0.0
 10
102.2470408002239
 20
-74.18478139631803
 30
0.0
 10
102.2789625457276
 20
-74.40412649228162
 30
0.0
 10
102.2827826267018
 20
-74.55340003993217
 30
0.0
 10
102.2847222222222
 20
-74.62919170673077
 30
0.0
  0
SPLINE
  5
C4
330
1F
100
AcDbEntity
  8
0
  6
Continuous
 62
     7
370
    25
100
AcDbSpline
210
0.0
220
0.0
230
1.0
 70
     8
 71
     3
 72
     9
 73
     5
 74
     0
 42
0.000000001
 43
0.00000001
 40
0.0
 40
0.0
 40
0.0
 40
0.0
 40
0.5079925144248166
 40
1.0
 40
1.0
 40
1.0
 40
1.0
 10
99.23650173611114
 20
-72.49068843482905
 30
0.0
 10
99.3679089568473
 20
-72.47386650434609
 30
0.0
 10
99.6265883999587
 20
-72.44075198000705
 30
0.0
 10
99.88733436434893
 20
-72.43642418120268
 30
0.0
 10
100.0156233306624
 20
-72.43429487179486
 30
0.0
  0
SPLINE
  5
D2
330
1F
100
AcDbEntity
  8
0
  6
Continuous
 62
     7
370
    25
100
AcDbSpline
210
0.0
220
0.0
230
1.0
 70
     8
 71
     3
 72
    31
 73
    27
 74
     0
 42
0.000000001
 43
0.00000001
 40
0.0
 40
0.0
 40
0.0
 40
0.0
 40
0.0460789331718977
 40
0.0908033506254644
 40
0.1342901697877926
 40
0.1770176620073438
 40
0.2188144224581016
 40
0.2601525809625646
 40
0.3009867807439088
 40
0.3415192683708195
 40
0.3814872745332977
 40
0.4201624942685522
 40
0.4577665571630189
 40
0.4947807484119018
 40
0.5310556470601845
 40
0.5669862605707132
 40
0.602559674478113
 40
0.6380458471959372
 40
0.6747953027942841
 40
0.7134079580996773
 40
0.75445113052699
 40
0.7978230399965941
 40
0.8439953817289204
 40
0.8930756311861634
 40
0.9449654365550478
 40
0.9999999999999999
 40
0.9999999999999999
 40
0.9999999999999999
 40
0.9999999999999999
 10
111.7825854700855
 20
-72.9106720753205
 30
0.0
 10
111.7839176826889
 20
-72.81910276433342
 30
0.0
 10
111.7865429467697
 20
-72.63865587288578
 30
0.0
 10
111.8100871425337
 20
-72.3727115327908
 30
0.0
 10
111.8443739992124
 20
-72.11467738090006
 30
0.0
 10
111.8972138463833
 20
-71.86568641812542
 30
0.0
 10
111.9621422250077
 20
-71.62406226017852
 30
0.0
 10
112.0422803995206
 20
-71.39094896154185
 30
0.0
 10
112.1372644837757
 20
-71.16618808353351
 30
0.0
 10
112.2474190439816
 20
-70.95156484055225
 30
0.0
 10
112.3680337931395
 20
-70.7476011152695
 30
0.0
 10
112.4994633635089
 20
-70.55752858432263
 30
0.0
 10
112.6372076895056
 20
-70.37925161508196
 30
0.0
 10
112.7862905559042
 20
-70.21679768211135
 30
0.0
 10
112.9417759809199
 20
-70.06510792173023
 30
0.0
 10
113.1089522407359
 20
-69.930911305312
 30
0.0
 10
113.2825848480578
 20
-69.80797778267714
 30
0.0
 10
113.4678902308471
 20
-69.70004063448798
 30
0.0
 10
113.6663887500855
 20
-69.60402733311952
 30
0.0
 10
113.8832654688206
 20
-69.52294352440182
 30
0.0
 10
114.1177288486706
 20
-69.45316486651242
 30
0.0
 10
114.3713324908357
 20
-69.39757000738445
 30
0.0
 10
114.6432306034262
 20
-69.35275773006923
 30
0.0
 10
114.9341602405165
 20
-69.32291505427318
 30
0.0
 10
115.2435766169421
 20
-69.30267799590452
 30
0.0
 10
115.4560467600834
 20
-69.30090999819187
 30
0.0
 10
115.5654063167735
 20
-69.30000000000001
 30
0.0
  0
SPLINE
  5
D3
330
1F
100
AcDbEntity
  8
0
  6
Continuous
 62
     7
370
    25
100
AcDbSpline
210
0.0
220
0.0
230
1.0
 70
     8
 71
     3
 72
    23
 73
    19
 74
     0
 42
0.000000001
 43
0.00000001
 40
0.0
 40
0.0
 40
0.0
 40
0.0
 40
0.0615435260186333
 40
0.1216914490610202
 40
0.1811506168838214
 40
0.2400657121915173
 40
0.2986720767057363
 40
0.3576161787882354
 40
0.4175721950753192
 40
0.47864894749014
 40
0.5403937355314621
 40
0.6023302295747606
 40
0.6651085453793636
 40
0.7285656598540723
 40
0.7936553700861423
 40
0.8605375307382646
 40
0.9292376162628273
 40
1.0
 40
1.0
 40
1.0
 40
1.0
 10
114.0145833333334
 20
-76.44120592948718
 30
0.0
 10
113.9288618033057
 20
-76.40855440389173
 30
0.0
 10
113.759362623138
 20
-76.34399178096756
 30
0.0
 10
113.5181588224223
 20
-76.22201715093544
 30
0.0
 10
113.2903222986131
 20
-76.08437965825556
 30
0.0
 10
113.077652058259
 20
-75.92792375188756
 30
0.0
 10
112.8796794935262
 20
-75.75464875469483
 30
0.0
 10
112.6939136801249
 20
-75.56595659971127
 30
0.0
 10
112.525679249406
 20
-75.35680984138084
 30
0.0
 10
112.3691737474353
 20
-75.13369822903424
 30
0.0
 10
112.2321908263676
 20
-74.894591398358
 30
0.0
 10
112.1113982144953
 20
-74.64427862807642
 30
0.0
 10
112.0082596623281
 20
-74.38324559876723
 30
0.0
 10
111.9277838880797
 20
-74.10958767228895
 30
0.0
 10
111.8612969911876
 20
-73.82593322526856
 30
0.0
 10
111.8166859144398
 20
-73.53013464768142
 30
0.0
 10
111.7870525695557
 20
-73.22391646692424
 30
0.0
 10
111.7840891106037
 20
-73.01611117790985
 30
0.0
 10
111.7825854700855
 20
-72.9106720753205
 30
0.0
  0
SPLINE
  5
D4
330
1F
100
AcDbEntity
  8
0
  6
Continuous
 62
     7
370
    25
100
AcDbSpline
210
0.0
220
0.0
230
1.0
 70
     8
 71
     3
 72
    15
 73
    11
 74
     0
 42
0.000000001
 43
0.00000001
 40
0.0
 40
0.0
 40
0.0
 40
0.0
 40
0.1642896338889908
 40
0.3174067176726094
 40
0.4588447774378845
 40
0.5887462863853704
 40
0.7078305764569894
 40
0.81576956262074
 40
0.9128796815536468
 40
1.0
 40
1.0
 40
1.0
 40
1.0
 10
116.3653044871795
 20
-76.70833333333334
 30
0.0
 10
116.2351948583316
 20
-76.7073991128314
 30
0.0
 10
115.9838237325179
 20
-76.7055942036835
 30
0.0
 10
115.6205810083929
 20
-76.69408473367301
 30
0.0
 10
115.2849680746842
 20
-76.67393004399706
 30
0.0
 10
114.9771755211316
 20
-76.64400606670077
 30
0.0
 10
114.6967088546498
 20
-76.60808890797958
 30
0.0
 10
114.4440172745973
 20
-76.56241124947894
 30
0.0
 10
114.2186912753197
 20
-76.50869122998094
 30
0.0
 10
114.0801145637483
 20
-76.46287287068135
 30
0.0
 10
114.0145833333334
 20
-76.44120592948718
 30
0.0
  0
SPLINE
  5
FA
330
1F
100
AcDbEntity
  8
0
  6
Continuous
 62
     7
370
    25
100
AcDbSpline
210
0.0
220
0.0
230
1.0
 70
     8
 71
     3
 72
    19
 73
    15
 74
     0
 42
0.000000001
 43
0.00000001
 40
0.0
 40
0.0
 40
0.0
 40
0.0
 40
0.0897134540802918
 40
0.1785408138776823
 40
0.2669077215250871
 40
0.3569311822942492
 40
0.4457305340947904
 40
0.5307957532315181
 40
0.6145911610392171
 40
0.6982439584905903
 40
0.7790840380441454
 40
0.8553156624734288
 40
0.9285380867824864
 40
1.0
 40
1.0
 40
1.0
 40
1.0
 10
88.44158653846156
 20
-73.76399572649572
 30
0.0
 10
88.3786117151597
 20
-73.76583397829371
 30
0.0
 10
88.25328406702285
 20
-73.76949232558943
 30
0.0
 10
88.06859856769341
 20
-73.80381675106844
 30
0.0
 10
87.88857287315871
 20
-73.8571258283054
 30
0.0
 10
87.71661337976678
 20
-73.93278842944162
 30
0.0
 10
87.55579775688828
 20
-74.02503931998996
 30
0.0
 10
87.41066166792005
 20
-74.13382893836928
 30
0.0
 10
87.28727878878804
 20
-74.26171212337455
 30
0.0
 10
87.18231135823136
 20
-74.4012706829707
 30
0.0
 10
87.10024168747307
 20
-74.54930859858982
 30
0.0
 10
87.03737503448244
 20
-74.69847630227315
 30
0.0
 10
87.00035212507595
 20
-74.85000248002689
 30
0.0
 10
86.99553945034613
 20
-74.9515366681435
 30
0.0
 10
86.99316239316244
 20
-75.00168603098291
 30
0.0
  0
SPLINE
  5
FB
330
1F
100
AcDbEntity
  8
0
  6
Continuous
 62
     7
370
    25
100
AcDbSpline
210
0.0
220
0.0
230
1.0
 70
     8
 71
     3
 72
    23
 73
    19
 74
     0
 42
0.000000001
 43
0.00000001
 40
0.0
 40
0.0
 40
0.0
 40
0.0
 40
0.0545758228698559
 40
0.1078496662517289
 40
0.162170282677566
 40
0.2174738153155545
 40
0.2744748480432942
 40
0.3348044050001937
 40
0.3980342556721858
 40
0.4652485089082483
 40
0.533409970337744
 40
0.6000340702050734
 40
0.6659259946635429
 40
0.7310251103024028
 40
0.7968392948864145
 40
0.8632618417772352
 40
0.9308161660685802
 40
1.0
 40
1.0
 40
1.0
 40
1.0
 10
89.93750000000003
 20
-74.98684561965813
 30
0.0
 10
89.93599482886826
 20
-74.94816930788569
 30
0.0
 10
89.93302039448179
 20
-74.87173935965659
 30
0.0
 10
89.91149133903784
 20
-74.75842129471003
 30
0.0
 10
89.87549457687868
 20
-74.64851368794434
 30
0.0
 10
89.82613527472536
 20
-74.54099052581878
 30
0.0
 10
89.7627918528218
 20
-74.43612779893371
 30
0.0
 10
89.68591185361116
 20
-74.33352367826004
 30
0.0
 10
89.59215947466228
 20
-74.23589144897709
 30
0.0
 10
89.48862855672951
 20
-74.14046109539578
 30
0.0
 10
89.37553934915832
 20
-74.05253969927703
 30
0.0
 10
89.25670316399341
 20
-73.97400349602125
 30
0.0
 10
89.13125272705705
 20
-73.91139512627862
 30
0.0
 10
89.00294498717285
 20
-73.85650038125688
 30
0.0
 10
88.86906653884687
 20
-73.81532295681129
 30
0.0
 10
88.73054048483331
 20
-73.78565704870088
 30
0.0
 10
88.58751479919336
 20
-73.76730683380096
 30
0.0
 10
88.49061421370284
 20
-73.76510816279036
 30
0.0
 10
88.44158653846156
 20
-73.76399572649572
 30
0.0
  0
SPLINE
  5
FC
330
1F
100
AcDbEntity
  8
0
  6
Continuous
 62
     7
370
    25
100
AcDbSpline
210
0.0
220
0.0
230
1.0
 70
     8
 71
     3
 72
    23
 73
    19
 74
     0
 42
0.000000001
 43
0.00000001
 40
0.0
 40
0.0
 40
0.0
 40
0.0
 40
0.0752210918485142
 40
0.1471653460574316
 40
0.2163831805268164
 40
0.2839411788631233
 40
0.3503014014318414
 40
0.4149720351941577
 40
0.4791814116234592
 40
0.5441840161099428
 40
0.6075579040300341
 40
0.6673235774160188
 40
0.7251676366748984
 40
0.7810285992574743
 40
0.8348905409591411
 40
0.889470799624716
 40
0.9440886027546803
 40
1.0
 40
1.0
 40
1.0
 40
1.0
 10
88.46829927884619
 20
-76.13846153846154
 30
0.0
 10
88.52026696729901
 20
-76.13708711960672
 30
0.0
 10
88.62193848877021
 20
-76.13439815536242
 30
0.0
 10
88.77098707216788
 20
-76.12024151707318
 30
0.0
 10
88.9128367727954
 20
-76.09304883459822
 30
0.0
 10
89.04826328030143
 20
-76.05579522595087
 30
0.0
 10
89.17773051399142
 20
-76.00944427278368
 30
0.0
 10
89.298269558632
 20
-75.94837531232021
 30
0.0
 10
89.4139312151974
 20
-75.88049690845641
 30
0.0
 10
89.52092109595499
 20
-75.80087863121608
 30
0.0
 10
89.61777410337416
 20
-75.71401336941614
 30
0.0
 10
89.70428091351145
 20
-75.62329628458122
 30
0.0
 10
89.77475711563027
 20
-75.52605307941013
 30
0.0
 10
89.83539037639152
 20
-75.42714870114291
 30
0.0
 10
89.88041904173619
 20
-75.3224808438039
 30
0.0
 10
89.91240585258738
 20
-75.21434124257968
 30
0.0
 10
89.93504316778022
 20
-75.10204494858696
 30
0.0
 10
89.93667469100589
 20
-75.02554384313372
 30
0.0
 10
89.93750000000003
 20
-74.98684561965813
 30
0.0
  0
SPLINE
  5
FD
330
1F
100
AcDbEntity
  8
0
  6
Continuous
 62
     7
370
    25
100
AcDbSpline
210
0.0
220
0.0
230
1.0
 70
     8
 71
     3
 72
    23
 73
    19
 74
     0
 42
0.000000001
 43
0.00000001
 40
0.0
 40
0.0
 40
0.0
 40
0.0
 40
0.0508772017638902
 40
0.100983953099029
 40
0.1516948808199744
 40
0.202987904353239
 40
0.2558050578101531
 40
0.3113708367483922
 40
0.3688073676579355
 40
0.4300229441527909
 40
0.4924965631092926
 40
0.5565918828063278
 40
0.6221830862506407
 40
0.690345962523118
 40
0.7615031533044218
 40
0.8364373496861773
 40
0.9155289043647552
 40
1.0
 40
1.0
 40
1.0
 40
1.0
 10
86.99316239316244
 20
-75.00168603098291
 30
0.0
 10
86.99426741926361
 20
-75.03688942130069
 30
0.0
 10
86.99646073768731
 20
-75.10676310525989
 30
0.0
 10
87.01526712688387
 20
-75.2102855667446
 30
0.0
 10
87.04459935165833
 20
-75.31151747058719
 30
0.0
 10
87.0873552150428
 20
-75.40986453670203
 30
0.0
 10
87.13907649948054
 20
-75.50761145761318
 30
0.0
 10
87.20500433785423
 20
-75.60169182220349
 30
0.0
 10
87.28141093971499
 20
-75.69495276485574
 30
0.0
 10
87.36939934629683
 20
-75.78432455383118
 30
0.0
 10
87.46880809660914
 20
-75.86822918916145
 30
0.0
 10
87.58044133212023
 20
-75.94096136480256
 30
0.0
 10
87.70331392555697
 20
-76.00161190716736
 30
0.0
 10
87.83577857667282
 20
-76.05256585753513
 30
0.0
 10
87.97923515286516
 20
-76.09040978449849
 30
0.0
 10
88.1324485236998
 20
-76.11888871282684
 30
0.0
 10
88.29680114327579
 20
-76.13490741361792
 30
0.0
 10
88.40989337381257
 20
-76.13725113534315
 30
0.0
 10
88.46829927884619
 20
-76.13846153846154
 30
0.0
  0
SPLINE
  5
FE
330
1F
100
AcDbEntity
  8
0
  6
Continuous
 62
     7
370
    25
100
AcDbSpline
210
0.0
220
0.0
230
1.0
 70
     8
 71
     3
 72
    23
 73
    19
 74
     0
 42
0.000000001
 43
0.00000001
 40
0.0
 40
0.0
 40
0.0
 40
0.0
 40
0.0687038005706952
 40
0.1347962908936138
 40
0.1995142441893746
 40
0.2633041215944929
 40
0.3264772709956767
 40
0.3895211760195701
 40
0.4533110534246845
 40
0.5183809346577186
 40
0.5830988879534826
 40
0.6450084467181997
 40
0.7047941097687619
 40
0.7635152545248368
 40
0.8218772451793135
 40
0.880018314222167
 40
0.9391148350649494
 40
1.0
 40
1.0
 40
1.0
 40
1.0
 10
99.9607138087607
 20
-76.13846153846154
 30
0.0
 10
100.0171544359874
 20
-76.13682073700785
 30
0.0
 10
100.1278904817765
 20
-76.13360149806893
 30
0.0
 10
100.2909882990465
 20
-76.11460522943935
 30
0.0
 10
100.4474061385878
 20
-76.08019365807193
 30
0.0
 10
100.5975205333935
 20
-76.03210313641841
 30
0.0
 10
100.74255299024
 20
-75.97363169405558
 30
0.0
 10
100.8795798956506
 20
-75.8981718326312
 30
0.0
 10
101.0106828964582
 20
-75.8102909944317
 30
0.0
 10
101.1345828649892
 20
-75.71016331840526
 30
0.0
 10
101.2472792778901
 20
-75.59989254039269
 30
0.0
 10
101.3481177594908
 20
-75.48426108796427
 30
0.0
 10
101.4316294026852
 20
-75.36139484939254
 30
0.0
 10
101.5005532608404
 20
-75.23314559934002
 30
0.0
 10
101.5538856987801
 20
-75.09911117982367
 30
0.0
 10
101.5932355871348
 20
-74.96002378219055
 30
0.0
 10
101.6156651193713
 20
-74.81493668304789
 30
0.0
 10
101.6184557026987
 20
-74.71633071190372
 30
0.0
 10
101.6198717948718
 20
-74.66629273504273
 30
0.0
  0
SPLINE
  5
FF
330
1F
100
AcDbEntity
  8
0
  6
Continuous
 62
     7
370
    25
100
AcDbSpline
210
0.0
220
0.0
230
1.0
 70
     8
 71
     3
 72
    23
 73
    19
 74
     0
 42
0.000000001
 43
0.00000001
 40
0.0
 40
0.0
 40
0.0
 40
0.0
 40
0.0595545584719145
 40
0.1174524894489472
 40
0.1744843092114489
 40
0.2317921668390129
 40
0.2892813024107668
 40
0.3487746791661692
 40
0.4105475713490288
 40
0.4747272014139089
 40
0.539757747642028
 40
0.6041235506948176
 40
0.668392287300376
 40
0.7320428323550239
 40
0.7966882308896738
 40
0.8628712533349657
 40
0.9304441516162831
 40
1.0
 40
1.0
 40
1.0
 40
1.0
 10
101.6198717948718
 20
-74.66629273504275
 30
0.0
 10
101.6185878581678
 20
-74.61623810850999
 30
0.0
 10
101.6160556999914
 20
-74.51752122359716
 30
0.0
 10
101.5916752787966
 20
-74.37246321336968
 30
0.0
 10
101.5507947578577
 20
-74.23346227681652
 30
0.0
 10
101.4965869709969
 20
-74.09933185136896
 30
0.0
 10
101.423838556366
 20
-73.97180723718262
 30
0.0
 10
101.3354281965534
 20
-73.85022716038495
 30
0.0
 10
101.2334177318437
 20
-73.73210608076229
 30
0.0
 10
101.1144640537702
 20
-73.62407359258188
 30
0.0
 10
100.9867283739321
 20
-73.52322727059433
 30
0.0
 10
100.8495266493606
 20
-73.43527706171984
 30
0.0
 10
100.7056160208514
 20
-73.36152810893371
 30
0.0
 10
100.5559204942917
 20
-73.29968042880988
 30
0.0
 10
100.3993199421684
 20
-73.25236176914797
 30
0.0
 10
100.2360324320892
 20
-73.21796277369498
 30
0.0
 10
100.0660285552563
 20
-73.19905872302463
 30
0.0
 10
99.9508632454784
 20
-73.19578464369776
 30
0.0
 10
99.89244791666668
 20
-73.19412393162393
 30
0.0
  0
SPLINE
  5
100
330
1F
100
AcDbEntity
  8
0
  6
Continuous
 62
     7
370
    25
100
AcDbSpline
210
0.0
220
0.0
230
1.0
 70
     8
 71
     3
 72
    23
 73
    19
 74
     0
 42
0.000000001
 43
0.00000001
 40
0.0
 40
0.0
 40
0.0
 40
0.0
 40
0.072732919898767
 40
0.1415862688361219
 40
0.2084196140601597
 40
0.2725362381327682
 40
0.3357213363127401
 40
0.3980597494831407
 40
0.459748723832648
 40
0.5224807065591089
 40
0.5842663248129304
 40
0.6448451240948517
 40
0.703814355238724
 40
0.7614435286618453
 40
0.8199811634634951
 40
0.8784837505557668
 40
0.9382475860283632
 40
1.0
 40
1.0
 40
1.0
 40
1.0
 10
99.89244791666668
 20
-73.19412393162393
 30
0.0
 10
99.83353400151232
 20
-73.19573674508428
 30
0.0
 10
99.71884863701925
 20
-73.19887634460119
 30
0.0
 10
99.55081373301205
 20
-73.2178996600617
 30
0.0
 10
99.39229481258516
 20
-73.25187776950665
 30
0.0
 10
99.24227163593875
 20
-73.2998596050648
 30
0.0
 10
99.10092582294229
 20
-73.36064301064424
 30
0.0
 10
98.96821285089027
 20
-73.43471753898108
 30
0.0
 10
98.84548832416759
 20
-73.52370601009717
 30
0.0
 10
98.73231532300095
 20
-73.62373083094879
 30
0.0
 10
98.62960738166532
 20
-73.73335406268711
 30
0.0
 10
98.54104946542542
 20
-73.85080517432978
 30
0.0
 10
98.46437433547872
 20
-73.97243536713499
 30
0.0
 10
98.40320472504216
 20
-74.10073458813935
 30
0.0
 10
98.35390827872695
 20
-74.23360400800598
 30
0.0
 10
98.31951094175797
 20
-74.37296517596823
 30
0.0
 10
98.3005128204249
 20
-74.5178558860834
 30
0.0
 10
98.29726841016856
 20
-74.61627690814284
 30
0.0
 10
98.2956196581197
 20
-74.66629273504275
 30
0.0
  0
SPLINE
  5
101
330
1F
100
AcDbEntity
  8
0
  6
Continuous
 62
     7
370
    25
100
AcDbSpline
210
0.0
220
0.0
230
1.0
 70
     8
 71
     3
 72
    23
 73
    19
 74
     0
 42
0.000000001
 43
0.00000001
 40
0.0
 40
0.0
 40
0.0
 40
0.0
 40
0.060737713727929
 40
0.1196911150875952
 40
0.1776913785528859
 40
0.2359120286036037
 40
0.2944909629593745
 40
0.3541318375677151
 40
0.4155017912396704
 40
0.4800630111120083
 40
0.5449753066253515
 40
0.6091104491866507
 40
0.6725300499627306
 40
0.7355502071342506
 40
0.7991855987227411
 40
0.8643336623498572
 40
0.9308625296481249
 40
1.0
 40
1.0
 40
1.0
 40
1.0
 10
98.29561965811969
 20
-74.66629273504273
 30
0.0
 10
98.29703562222454
 20
-74.7163308218296
 30
0.0
 10
98.2998259531776
 20
-74.81493700959619
 30
0.0
 10
98.32225732574628
 20
-74.96002252911202
 30
0.0
 10
98.36160036446715
 20
-75.09911580604532
 30
0.0
 10
98.41495846406752
 20
-75.2331281991861
 30
0.0
 10
98.48378529643324
 20
-75.36146073015004
 30
0.0
 10
98.56748864389877
 20
-75.4837412075024
 30
0.0
 10
98.6666095854437
 20
-75.60041947093875
 30
0.0
 10
98.77955322593849
 20
-75.7100335779183
 30
0.0
 10
98.90348901686508
 20
-75.81075762192617
 30
0.0
 10
99.03597243727403
 20
-75.89817006924574
 30
0.0
 10
99.17409885935028
 20
-75.97330424984743
 30
0.0
 10
99.31943786599732
 20
-76.03212689081172
 30
0.0
 10
99.47001696373489
 20
-76.08041334505072
 30
0.0
 10
99.62749231970308
 20
-76.11457206127595
 30
0.0
 10
99.79205506521936
 20
-76.13360812130972
 30
0.0
 10
99.90377815412161
 20
-76.13682312661894
 30
0.0
 10
99.9607138087607
 20
-76.13846153846154
 30
0.0
  0
LINE
  5
11B
330
1F
100
AcDbEntity
  8
0
  6
Continuous
 62
     7
370
    25
100
AcDbLine
 10
116.6754690839
 20
-75.9485042735
 30
0.0
 11
117.1963675214
 21
-75.9485042735
 31
0.0
  0
LINE
  5
11C
330
1F
100
AcDbEntity
  8
0
  6
Continuous
 62
     7
370
    25
100
AcDbLine
 10
117.1963675214
 20
-70.0598290598
 30
0.0
 11
116.3460119525
 21
-70.0598290598
 31
0.0
  0
LINE
  5
11D
330
1F
100
AcDbEntity
  8
0
  6
Continuous
 62
     7
370
    25
100
AcDbLine
 10
117.1963675214
 20
-75.9485042735
 30
0.0
 11
117.1963675214
 21
-70.0598290598
 31
0.0
  0
LINE
  5
11E
330
1F
100
AcDbEntity
  8
0
  6
Continuous
 62
     7
370
    25
100
AcDbLine
 10
163.5
 20
-51.3
 30
0.0
 11
145.5
 21
-69.3
 31
0.0
  0
LINE
  5
11F
330
1F
100
AcDbEntity
  8
0
  6
Continuous
 62
     7
370
    25
100
AcDbLine
 10
163.5
 20
28.0
 30
0.0
 11
163.5
 21
-51.3
 31
0.0
  0
LINE
  5
120
330
1F
100
AcDbEntity
  8
0
  6
Continuous
 62
     7
370
    25
100
AcDbLine
 10
167.5
 20
32.0
 30
0.0
 11
179.95
 21
32.0
 31
0.0
  0
LINE
  5
121
330
1F
100
AcDbEntity
  8
0
  6
Continuous
 62
     7
370
    25
100
AcDbLine
 10
179.95
 20
-15.0
 30
0.0
 11
179.95
 21
32.0
 31
0.0
  0
LINE
  5
122
330
1F
100
AcDbEntity
  8
0
  6
Continuous
 62
     7
370
    25
100
AcDbLine
 10
185.05
 20
-15.0
 30
0.0
 11
179.95
 21
-15.0
 31
0.0
  0
LINE
  5
123
330
1F
100
AcDbEntity
  8
0
  6
Continuous
 62
     7
370
    25
100
AcDbLine
 10
185.05
 20
32.0
 30
0.0
 11
185.05
 21
-15.0
 31
0.0
  0
LINE
  5
124
330
1F
100
AcDbEntity
  8
0
  6
Continuous
 62
     7
370
    25
100
AcDbLine
 10
185.05
 20
32.0
 30
0.0
 11
194.5
 21
32.0
 31
0.0
  0
LINE
  5
125
330
1F
100
AcDbEntity
  8
0
  6
Continuous
 62
     7
370
    25
100
AcDbLine
 10
198.5
 20
-100.3
 30
0.0
 11
198.5
 21
28.0
 31
0.0
  0
LINE
  5
126
330
1F
100
AcDbEntity
  8
0
  6
Continuous
 62
     7
370
    25
100
AcDbLine
 10
-194.5
 20
-104.3
 30
0.0
 11
194.5
 21
-104.3
 31
0.0
  0
LINE
  5
127
330
1F
100
AcDbEntity
  8
0
  6
Continuous
 62
     7
370
    25
100
AcDbLine
 10
-198.5
 20
28.0
 30
0.0
 11
-198.5
 21
-100.3
 31
0.0
  0
LINE
  5
128
330
1F
100
AcDbEntity
  8
0
  6
Continuous
 62
     7
370
    25
100
AcDbLine
 10
-194.5
 20
32.0
 30
0.0
 11
-185.05
 21
32.0
 31
0.0
  0
LINE
  5
129
330
1F
100
AcDbEntity
  8
0
  6
Continuous
 62
     7
370
    25
100
AcDbLine
 10
-185.05
 20
-15.0
 30
0.0
 11
-185.05
 21
32.0
 31
0.0
  0
LINE
  5
12A
330
1F
100
AcDbEntity
  8
0
  6
Continuous
 62
     7
370
    25
100
AcDbLine
 10
-179.95
 20
-15.0
 30
0.0
 11
-185.05
 21
-15.0
 31
0.0
  0
LINE
  5
12B
330
1F
100
AcDbEntity
  8
0
  6
Continuous
 62
     7
370
    25
100
AcDbLine
 10
-179.95
 20
32.0
 30
0.0
 11
-179.95
 21
-15.0
 31
0.0
  0
LINE
  5
12C
330
1F
100
AcDbEntity
  8
0
  6
Continuous
 62
     7
370
    25
100
AcDbLine
 10
-179.95
 20
32.0
 30
0.0
 11
-167.5
 21
32.0
 31
0.0
  0
LINE
  5
12D
330
1F
100
AcDbEntity
  8
0
  6
Continuous
 62
     7
370
    25
100
AcDbLine
 10
-163.5
 20
-51.3
 30
0.0
 11
-163.5
 21
28.0
 31
0.0
  0
LINE
  5
12E
330
1F
100
AcDbEntity
  8
0
  6
Continuous
 62
     7
370
    25
100
AcDbLine
 10
-145.5
 20
-69.3
 30
0.0
 11
-163.5
 21
-51.3
 31
0.0
  0
LINE
  5
12F
330
1F
100
AcDbEntity
  8
0
  6
Continuous
 62
     7
370
    25
100
AcDbLine
 10
-74.5
 20
-69.3
 30
0.0
 11
-145.5
 21
-69.3
 31
0.0
  0
LINE
  5
130
330
1F
100
AcDbEntity
  8
0
  6
Continuous
 62
     7
370
    25
100
AcDbLine
 10
-56.5
 20
-51.3
 30
0.0
 11
-74.5
 21
-69.3
 31
0.0
  0
LINE
  5
131
330
1F
100
AcDbEntity
  8
0
  6
Continuous
 62
     7
370
    25
100
AcDbLine
 10
-53.5
 20
-51.3
 30
0.0
 11
-56.5
 21
-51.3
 31
0.0
  0
LINE
  5
132
330
1F
100
AcDbEntity
  8
0
  6
Continuous
 62
     7
370
    25
100
AcDbLine
 10
-35.5
 20
-69.3
 30
0.0
 11
-53.5
 21
-51.3
 31
0.0
  0
LINE
  5
133
330
1F
100
AcDbEntity
  8
0
  6
Continuous
 62
     7
370
    25
100
AcDbLine
 10
35.5
 20
-69.3
 30
0.0
 11
-35.5
 21
-69.3
 31
0.0
  0
LINE
  5
134
330
1F
100
AcDbEntity
  8
0
  6
Continuous
 62
     7
370
    25
100
AcDbLine
 10
53.5
 20
-51.3
 30
0.0
 11
35.5
 21
-69.3
 31
0.0
  0
LINE
  5
135
330
1F
100
AcDbEntity
  8
0
  6
Continuous
 62
     7
370
    25
100
AcDbLine
 10
56.5
 20
-51.3
 30
0.0
 11
53.5
 21
-51.3
 31
0.0
  0
LINE
  5
136
330
1F
100
AcDbEntity
  8
0
  6
Continuous
 62
     7
370
    25
100
AcDbLine
 10
74.5
 20
-69.3
 30
0.0
 11
56.5
 21
-51.3
 31
0.0
  0
LINE
  5
137
330
1F
100
AcDbEntity
  8
0
  6
Continuous
 62
     7
370
    25
100
AcDbLine
 10
80.2496794872
 20
-70.0598290598
 30
0.0
 11
80.2496794872
 21
-69.3
 31
0.0
  0
LINE
  5
138
330
1F
100
AcDbEntity
  8
0
  6
Continuous
 62
     7
370
    25
100
AcDbLine
 10
83.6971070379
 20
-70.0598290598
 30
0.0
 11
80.2496794872
 21
-70.0598290598
 31
0.0
  0
LINE
  5
139
330
1F
100
AcDbEntity
  8
0
  6
Continuous
 62
     7
370
    25
100
AcDbLine
 10
81.8435396635
 20
-72.0380558894
 30
0.0
 11
83.6971070379
 21
-70.0598290598
 31
0.0
  0
LINE
  5
13A
330
1F
100
AcDbEntity
  8
0
  6
Continuous
 62
     7
370
    25
100
AcDbLine
 10
84.3337606838
 20
-74.4288461538
 30
0.0
 11
84.9986111111
 21
-74.4288461538
 31
0.0
  0
LINE
  5
13B
330
1F
100
AcDbEntity
  8
0
  6
Continuous
 62
     7
370
    25
100
AcDbLine
 10
85.2835470085
 20
-69.3
 30
0.0
 11
82.4104433761
 21
-72.3660289797
 31
0.0
  0
LINE
  5
13C
330
1F
100
AcDbEntity
  8
0
  6
Continuous
 62
     7
370
    25
100
AcDbLine
 10
92.5019230769
 20
-71.0096153846
 30
0.0
 11
92.5019230769
 21
-69.3
 31
0.0
  0
LINE
  5
13D
330
1F
100
AcDbEntity
  8
0
  6
Continuous
 62
     7
370
    25
100
AcDbLine
 10
91.6471153846
 20
-71.0096153846
 30
0.0
 11
92.5019230769
 21
-71.0096153846
 31
0.0
  0
LINE
  5
13E
330
1F
100
AcDbEntity
  8
0
  6
Continuous
 62
     7
370
    25
100
AcDbLine
 10
91.6471153846
 20
-71.7694444444
 30
0.0
 11
91.6471153846
 21
-71.0096153846
 31
0.0
  0
LINE
  5
13F
330
1F
100
AcDbEntity
  8
0
  6
Continuous
 62
     7
370
    25
100
AcDbLine
 10
92.5019230769
 20
-71.7694444444
 30
0.0
 11
91.6471153846
 21
-71.7694444444
 31
0.0
  0
LINE
  5
140
330
1F
100
AcDbEntity
  8
0
  6
Continuous
 62
     7
370
    25
100
AcDbLine
 10
92.5019230769
 20
-76.8982905983
 30
0.0
 11
92.5019230769
 21
-71.7694444444
 31
0.0
  0
LINE
  5
141
330
1F
100
AcDbEntity
  8
0
  6
Continuous
 62
     7
370
    25
100
AcDbLine
 10
92.63697082
 20
-76.8982905983
 30
0.0
 11
92.5019230769
 21
-76.8982905983
 31
0.0
  0
LINE
  5
142
330
1F
100
AcDbEntity
  8
0
  6
Continuous
 62
     7
370
    25
100
AcDbLine
 10
96.680982906
 20
-71.0096153846
 30
0.0
 11
92.63697082
 21
-76.8982905983
 31
0.0
  0
LINE
  5
143
330
1F
100
AcDbEntity
  8
0
  6
Continuous
 62
     7
370
    25
100
AcDbLine
 10
93.1667735043
 20
-71.0096153846
 30
0.0
 11
96.680982906
 21
-71.0096153846
 31
0.0
  0
LINE
  5
144
330
1F
100
AcDbEntity
  8
0
  6
Continuous
 62
     7
370
    25
100
AcDbLine
 10
93.1667735043
 20
-69.3
 30
0.0
 11
93.1667735043
 21
-71.0096153846
 31
0.0
  0
LINE
  5
145
330
1F
100
AcDbEntity
  8
0
  6
Continuous
 62
     7
370
    25
100
AcDbLine
 10
98.4840928819
 20
-72.4461672009
 30
0.0
 11
100.6351867377
 21
-69.3
 31
0.0
  0
LINE
  5
146
330
1F
100
AcDbEntity
  8
0
  6
Continuous
 62
     7
370
    25
100
AcDbLine
 10
101.296350828
 20
-69.479568977
 30
0.0
 11
99.2365017361
 21
-72.4906884348
 31
0.0
  0
LINE
  5
147
330
1F
100
AcDbEntity
  8
0
  6
Continuous
 62
     7
370
    25
100
AcDbLine
 10
101.296350828
 20
-69.479568977
 30
0.0
 11
101.038175351
 21
-69.3
 31
0.0
  0
LINE
  5
148
330
1F
100
AcDbEntity
  8
0
  6
Continuous
 62
     7
370
    25
100
AcDbLine
 10
103.8993589744
 20
-71.0096153846
 30
0.0
 11
103.8993589744
 21
-69.3
 31
0.0
  0
LINE
  5
149
330
1F
100
AcDbEntity
  8
0
  6
Continuous
 62
     7
370
    25
100
AcDbLine
 10
103.0445512821
 20
-71.0096153846
 30
0.0
 11
103.8993589744
 21
-71.0096153846
 31
0.0
  0
LINE
  5
14A
330
1F
100
AcDbEntity
  8
0
  6
Continuous
 62
     7
370
    25
100
AcDbLine
 10
103.0445512821
 20
-71.7694444444
 30
0.0
 11
103.0445512821
 21
-71.0096153846
 31
0.0
  0
LINE
  5
14B
330
1F
100
AcDbEntity
  8
0
  6
Continuous
 62
     7
370
    25
100
AcDbLine
 10
103.8993589744
 20
-71.7694444444
 30
0.0
 11
103.0445512821
 21
-71.7694444444
 31
0.0
  0
LINE
  5
14C
330
1F
100
AcDbEntity
  8
0
  6
Continuous
 62
     7
370
    25
100
AcDbLine
 10
103.8993589744
 20
-76.8982905983
 30
0.0
 11
103.8993589744
 21
-71.7694444444
 31
0.0
  0
LINE
  5
14D
330
1F
100
AcDbEntity
  8
0
  6
Continuous
 62
     7
370
    25
100
AcDbLine
 10
104.0344067174
 20
-76.8982905983
 30
0.0
 11
103.8993589744
 21
-76.8982905983
 31
0.0
  0
LINE
  5
14E
330
1F
100
AcDbEntity
  8
0
  6
Continuous
 62
     7
370
    25
100
AcDbLine
 10
108.0784188034
 20
-71.0096153846
 30
0.0
 11
104.0344067174
 21
-76.8982905983
 31
0.0
  0
LINE
  5
14F
330
1F
100
AcDbEntity
  8
0
  6
Continuous
 62
     7
370
    25
100
AcDbLine
 10
104.5642094017
 20
-71.0096153846
 30
0.0
 11
108.0784188034
 21
-71.0096153846
 31
0.0
  0
LINE
  5
150
330
1F
100
AcDbEntity
  8
0
  6
Continuous
 62
     7
370
    25
100
AcDbLine
 10
104.5642094017
 20
-69.3
 30
0.0
 11
104.5642094017
 21
-71.0096153846
 31
0.0
  0
LINE
  5
151
330
1F
100
AcDbEntity
  8
0
  6
Continuous
 62
     7
370
    25
100
AcDbLine
 10
117.8612179487
 20
-76.7083333333
 30
0.0
 11
116.3653044872
 21
-76.7083333333
 31
0.0
  0
LINE
  5
152
330
1F
100
AcDbEntity
  8
0
  6
Continuous
 62
     7
370
    25
100
AcDbLine
 10
117.8612179487
 20
-69.3
 30
0.0
 11
117.8612179487
 21
-76.7083333333
 31
0.0
  0
LINE
  5
153
330
1F
100
AcDbEntity
  8
0
  6
Continuous
 62
     7
370
    25
100
AcDbLine
 10
119.4758547009
 20
-76.7083333333
 30
0.0
 11
119.4758547009
 21
-69.3
 31
0.0
  0
LINE
  5
154
330
1F
100
AcDbEntity
  8
0
  6
Continuous
 62
     7
370
    25
100
AcDbLine
 10
120.1407051282
 20
-76.7083333333
 30
0.0
 11
119.4758547009
 21
-76.7083333333
 31
0.0
  0
LINE
  5
155
330
1F
100
AcDbEntity
  8
0
  6
Continuous
 62
     7
370
    25
100
AcDbLine
 10
120.1407051282
 20
-69.3
 30
0.0
 11
120.1407051282
 21
-76.7083333333
 31
0.0
  0
LINE
  5
156
330
1F
100
AcDbEntity
  8
0
  6
Continuous
 62
     7
370
    25
100
AcDbLine
 10
125.4936414931
 20
-76.7083333333
 30
0.0
 11
124.5097222222
 21
-69.3
 31
0.0
  0
LINE
  5
157
330
1F
100
AcDbEntity
  8
0
  6
Continuous
 62
     7
370
    25
100
AcDbLine
 10
125.5901041667
 20
-76.7083333333
 30
0.0
 11
125.4936414931
 21
-76.7083333333
 31
0.0
  0
LINE
  5
158
330
1F
100
AcDbEntity
  8
0
  6
Continuous
 62
     7
370
    25
100
AcDbLine
 10
128.641292735
 20
-70.6297008547
 30
0.0
 11
125.5901041667
 21
-76.7083333333
 31
0.0
  0
LINE
  5
159
330
1F
100
AcDbEntity
  8
0
  6
Continuous
 62
     7
370
    25
100
AcDbLine
 10
131.6999015091
 20
-76.7083333333
 30
0.0
 11
128.641292735
 21
-70.6297008547
 31
0.0
  0
LINE
  5
15A
330
1F
100
AcDbEntity
  8
0
  6
Continuous
 62
     7
370
    25
100
AcDbLine
 10
131.7948801416
 20
-76.7083333333
 30
0.0
 11
131.6999015091
 21
-76.7083333333
 31
0.0
  0
LINE
  5
15B
330
1F
100
AcDbEntity
  8
0
  6
Continuous
 62
     7
370
    25
100
AcDbLine
 10
132.7728632479
 20
-69.3
 30
0.0
 11
131.7948801416
 21
-76.7083333333
 31
0.0
  0
LINE
  5
15C
330
1F
100
AcDbEntity
  8
0
  6
Continuous
 62
     7
370
    25
100
AcDbLine
 10
133.7226495726
 20
-70.0598290598
 30
0.0
 11
133.7226495726
 21
-69.3
 31
0.0
  0
LINE
  5
15D
330
1F
100
AcDbEntity
  8
0
  6
Continuous
 62
     7
370
    25
100
AcDbLine
 10
137.2368589744
 20
-70.0598290598
 30
0.0
 11
133.7226495726
 21
-70.0598290598
 31
0.0
  0
LINE
  5
15E
330
1F
100
AcDbEntity
  8
0
  6
Continuous
 62
     7
370
    25
100
AcDbLine
 10
137.2368589744
 20
-72.9091880342
 30
0.0
 11
137.2368589744
 21
-70.0598290598
 31
0.0
  0
LINE
  5
15F
330
1F
100
AcDbEntity
  8
0
  6
Continuous
 62
     7
370
    25
100
AcDbLine
 10
133.7226495726
 20
-72.9091880342
 30
0.0
 11
137.2368589744
 21
-72.9091880342
 31
0.0
  0
LINE
  5
160
330
1F
100
AcDbEntity
  8
0
  6
Continuous
 62
     7
370
    25
100
AcDbLine
 10
133.7226495726
 20
-73.669017094
 30
0.0
 11
133.7226495726
 21
-72.9091880342
 31
0.0
  0
LINE
  5
161
330
1F
100
AcDbEntity
  8
0
  6
Continuous
 62
     7
370
    25
100
AcDbLine
 10
137.2368589744
 20
-73.669017094
 30
0.0
 11
133.7226495726
 21
-73.669017094
 31
0.0
  0
LINE
  5
162
330
1F
100
AcDbEntity
  8
0
  6
Continuous
 62
     7
370
    25
100
AcDbLine
 10
137.2368589744
 20
-75.9485042735
 30
0.0
 11
137.2368589744
 21
-73.669017094
 31
0.0
  0
LINE
  5
163
330
1F
100
AcDbEntity
  8
0
  6
Continuous
 62
     7
370
    25
100
AcDbLine
 10
133.7226495726
 20
-75.9485042735
 30
0.0
 11
137.2368589744
 21
-75.9485042735
 31
0.0
  0
LINE
  5
164
330
1F
100
AcDbEntity
  8
0
  6
Continuous
 62
     7
370
    25
100
AcDbLine
 10
133.7226495726
 20
-76.7083333333
 30
0.0
 11
133.7226495726
 21
-75.9485042735
 31
0.0
  0
LINE
  5
165
330
1F
100
AcDbEntity
  8
0
  6
Continuous
 62
     7
370
    25
100
AcDbLine
 10
137.9017094017
 20
-76.7083333333
 30
0.0
 11
133.7226495726
 21
-76.7083333333
 31
0.0
  0
LINE
  5
166
330
1F
100
AcDbEntity
  8
0
  6
Continuous
 62
     7
370
    25
100
AcDbLine
 10
137.9017094017
 20
-69.3
 30
0.0
 11
137.9017094017
 21
-76.7083333333
 31
0.0
  0
LINE
  5
167
330
1F
100
AcDbEntity
  8
0
  6
Continuous
 62
     7
370
    25
100
AcDbLine
 10
140.8460470085
 20
-75.9485042735
 30
0.0
 11
140.8460470085
 21
-69.3
 31
0.0
  0
LINE
  5
168
330
1F
100
AcDbEntity
  8
0
  6
Continuous
 62
     7
370
    25
100
AcDbLine
 10
139.2314102564
 20
-75.9485042735
 30
0.0
 11
140.8460470085
 21
-75.9485042735
 31
0.0
  0
LINE
  5
169
330
1F
100
AcDbEntity
  8
0
  6
Continuous
 62
     7
370
    25
100
AcDbLine
 10
139.2314102564
 20
-76.7083333333
 30
0.0
 11
139.2314102564
 21
-75.9485042735
 31
0.0
  0
LINE
  5
16A
330
1F
100
AcDbEntity
  8
0
  6
Continuous
 62
     7
370
    25
100
AcDbLine
 10
143.125534188
 20
-76.7083333333
 30
0.0
 11
139.2314102564
 21
-76.7083333333
 31
0.0
  0
LINE
  5
16B
330
1F
100
AcDbEntity
  8
0
  6
Continuous
 62
     7
370
    25
100
AcDbLine
 10
143.125534188
 20
-75.9485042735
 30
0.0
 11
143.125534188
 21
-76.7083333333
 31
0.0
  0
LINE
  5
16C
330
1F
100
AcDbEntity
  8
0
  6
Continuous
 62
     7
370
    25
100
AcDbLine
 10
141.5108974359
 20
-75.9485042735
 30
0.0
 11
143.125534188
 21
-75.9485042735
 31
0.0
  0
LINE
  5
16D
330
1F
100
AcDbEntity
  8
0
  6
Continuous
 62
     7
370
    25
100
AcDbLine
 10
141.5108974359
 20
-69.3
 30
0.0
 11
141.5108974359
 21
-75.9485042735
 31
0.0
  0
LINE
  5
16E
330
1F
100
AcDbEntity
  8
0
  6
Continuous
 62
     7
370
    25
100
AcDbLine
 10
143.8853632479
 20
-76.7083333333
 30
0.0
 11
143.8853632479
 21
-69.3
 31
0.0
  0
LINE
  5
16F
330
1F
100
AcDbEntity
  8
0
  6
Continuous
 62
     7
370
    25
100
AcDbLine
 10
144.5502136752
 20
-76.7083333333
 30
0.0
 11
143.8853632479
 21
-76.7083333333
 31
0.0
  0
LINE
  5
170
330
1F
100
AcDbEntity
  8
0
  6
Continuous
 62
     7
370
    25
100
AcDbLine
 10
144.5502136752
 20
-69.3
 30
0.0
 11
144.5502136752
 21
-76.7083333333
 31
0.0
  0
LINE
  5
171
330
1F
100
AcDbEntity
  8
0
  6
Continuous
 62
     7
370
    25
100
AcDbLine
 10
125.8869123932
 20
-74.6306757479
 30
0.0
 11
128.5611545139
 21
-69.3
 31
0.0
  0
LINE
  5
172
330
1F
100
AcDbEntity
  8
0
  6
Continuous
 62
     7
370
    25
100
AcDbLine
 10
125.1775407318
 20
-69.3
 30
0.0
 11
125.8869123932
 21
-74.6306757479
 31
0.0
  0
LINE
  5
173
330
1F
100
AcDbEntity
  8
0
  6
Continuous
 62
     7
370
    25
100
AcDbLine
 10
104.5642094017
 20
-74.9868456197
 30
0.0
 11
106.7724626068
 21
-71.7694444444
 31
0.0
  0
LINE
  5
174
330
1F
100
AcDbEntity
  8
0
  6
Continuous
 62
     7
370
    25
100
AcDbLine
 10
104.5642094017
 20
-71.7694444444
 30
0.0
 11
104.5642094017
 21
-74.9868456197
 31
0.0
  0
LINE
  5
175
330
1F
100
AcDbEntity
  8
0
  6
Continuous
 62
     7
370
    25
100
AcDbLine
 10
106.7724626068
 20
-71.7694444444
 30
0.0
 11
104.5642094017
 21
-71.7694444444
 31
0.0
  0
LINE
  5
176
330
1F
100
AcDbEntity
  8
0
  6
Continuous
 62
     7
370
    25
100
AcDbLine
 10
131.3956730769
 20
-74.6425480769
 30
0.0
 11
132.1035606971
 21
-69.3
 31
0.0
  0
LINE
  5
177
330
1F
100
AcDbEntity
  8
0
  6
Continuous
 62
     7
370
    25
100
AcDbLine
 10
128.7110426683
 20
-69.3
 30
0.0
 11
131.3956730769
 21
-74.6425480769
 31
0.0
  0
LINE
  5
178
330
1F
100
AcDbEntity
  8
0
  6
Continuous
 62
     7
370
    25
100
AcDbLine
 10
145.5
 20
-69.3
 30
0.0
 11
74.5
 21
-69.3
 31
0.0
  0
LINE
  5
179
330
1F
100
AcDbEntity
  8
0
  6
Continuous
 62
     7
370
    25
100
AcDbLine
 10
95.3750267094
 20
-71.7694444444
 30
0.0
 11
93.1667735043
 21
-71.7694444444
 31
0.0
  0
LINE
  5
17A
330
1F
100
AcDbEntity
  8
0
  6
Continuous
 62
     7
370
    25
100
AcDbLine
 10
93.1667735043
 20
-71.7694444444
 30
0.0
 11
93.1667735043
 21
-74.9868456197
 31
0.0
  0
LINE
  5
17B
330
1F
100
AcDbEntity
  8
0
  6
Continuous
 62
     7
370
    25
100
AcDbLine
 10
93.1667735043
 20
-74.9868456197
 30
0.0
 11
95.3750267094
 21
-71.7694444444
 31
0.0
  0
ARC
  5
17C
330
1F
100
AcDbEntity
  8
0
  6
Continuous
 62
     7
370
    25
100
AcDbCircle
 10
167.5
 20
28.0
 30
0.0
 40
4.000000000000028
100
AcDbArc
 50
90.0
 51
180.0
  0
ARC
  5
17D
330
1F
100
AcDbEntity
  8
0
  6
Continuous
 62
     7
370
    25
100
AcDbCircle
 10
194.5
 20
28.0
 30
0.0
 40
3.999999999999979
100
AcDbArc
 50
0.0
 51
90.0
  0
ARC
  5
17E
330
1F
100
AcDbEntity
  8
0
  6
Continuous
 62
     7
370
    25
100
AcDbCircle
 10
194.5
 20
-100.3
 30
0.0
 40
4.0
100
AcDbArc
 50
270.0
 51
0.0
  0
ARC
  5
17F
330
1F
100
AcDbEntity
  8
0
  6
Continuous
 62
     7
370
    25
100
AcDbCircle
 10
-194.5
 20
-100.3
 30
0.0
 40
4.0
100
AcDbArc
 50
180.0
 51
270.0
  0
ARC
  5
180
330
1F
100
AcDbEntity
  8
0
  6
Continuous
 62
     7
370
    25
100
AcDbCircle
 10
-194.5
 20
28.0
 30
0.0
 40
4.000000000000032
100
AcDbArc
 50
90.0
 51
180.0
  0
ARC
  5
181
330
1F
100
AcDbEntity
  8
0
  6
Continuous
 62
     7
370
    25
100
AcDbCircle
 10
-167.5
 20
28.0
 30
0.0
 40
4.000000000000032
100
AcDbArc
 50
0.0
 51
90.0
  0
SPLINE
  5
183
330
1B
100
AcDbEntity
 67
     1
  8
0
  6
Continuous
 62
     7
370
    25
100
AcDbSpline
210
0.0
220
0.0
230
1.0
 70
     8
 71
     3
 72
    15
 73
    11
 74
     0
 42
0.000000001
 43
0.00000001
 40
0.0
 40
0.0
 40
0.0
 40
0.0
 40
0.0843186169585876
 40
0.1792845142139063
 40
0.2865825276465634
 40
0.405111483434279
 40
0.5355928734189797
 40
0.6781902099934185
 40
0.8329758397604935
 40
1.0
 40
1.0
 40
1.0
 40
1.0
 10
114.3989499866453
 20
-75.74073851495726
 30
0.0
 10
114.4610765797987
 20
-75.75791828728488
 30
0.0
 10
114.5931747625611
 20
-75.79444719687999
 30
0.0
 10
114.8087349614151
 20
-75.83429423538409
 30
0.0
 10
115.0513370277073
 20
-75.8694404249698
 30
0.0
 10
115.3220580617313
 20
-75.89919660825478
 30
0.0
 10
115.6205894668171
 20
-75.9205481050953
 30
0.0
 10
115.9471608397196
 20
-75.93657405434753
 30
0.0
 10
116.3019133360544
 20
-75.94738309310196
 30
0.0
 10
116.54783303271
 20
-75.94812119001531
 30
0.0
 10
116.6754690838675
 20
-75.94850427350427
 30
0.0
  0
SPLINE
  5
184
330
1B
100
AcDbEntity
 67
     1
  8
0
  6
Continuous
 62
     7
370
    25
100
AcDbSpline
210
0.0
220
0.0
230
1.0
 70
     8
 71
     3
 72
    23
 73
    19
 74
     0
 42
0.000000001
 43
0.00000001
 40
0.0
 40
0.0
 40
0.0
 40
0.0
 40
0.0701420572220218
 40
0.1377946922754859
 40
0.2031998303117151
 40
0.2671393260097541
 40
0.3299811044164899
 40
0.3915885098483967
 40
0.4530550564334014
 40
0.5140826114793893
 40
0.574740810819669
 40
0.6345985188588841
 40
0.6938416495593346
 40
0.7534736712850496
 40
0.8131500916116926
 40
0.8740960537026237
 40
0.9360153315621015
 40
1.0
 40
1.0
 40
1.0
 40
1.0
 10
112.4474358974359
 20
-72.91215611645299
 30
0.0
 10
112.4485235136873
 20
-72.99879813097215
 30
0.0
 10
112.4506601454403
 20
-73.16900713540738
 30
0.0
 10
112.4774710195656
 20
-73.41876146147641
 30
0.0
 10
112.5167344598539
 20
-73.65893552449054
 30
0.0
 10
112.5732118559441
 20
-73.88970224025913
 30
0.0
 10
112.6461757818108
 20
-74.11076137492554
 30
0.0
 10
112.7334830332723
 20
-74.32336181848817
 30
0.0
 10
112.8394877411063
 20
-74.5247676063023
 30
0.0
 10
112.9594962776216
 20
-74.71668456800322
 30
0.0
 10
113.0942278386461
 20
-74.89620624287838
 30
0.0
 10
113.243084759438
 20
-75.06122943791885
 30
0.0
 10
113.4044974355276
 20
-75.21206155291038
 30
0.0
 10
113.5777219658392
 20
-75.34894273637518
 30
0.0
 10
113.7651803211059
 20
-75.46943874508739
 30
0.0
 10
113.9637003375241
 20
-75.57663011386872
 30
0.0
 10
114.1760784344228
 20
-75.66770627567519
 30
0.0
 10
114.3238514221891
 20
-75.7161296482158
 30
0.0
 10
114.3989499866453
 20
-75.74073851495726
 30
0.0
  0
SPLINE
  5
185
330
1B
100
AcDbEntity
 67
     1
  8
0
  6
Continuous
 62
     7
370
    25
100
AcDbSpline
210
0.0
220
0.0
230
1.0
 70
     8
 71
     3
 72
    23
 73
    19
 74
     0
 42
0.000000001
 43
0.00000001
 40
0.0
 40
0.0
 40
0.0
 40
0.0
 40
0.0624012892571567
 40
0.1233121250056869
 40
0.1830857765168621
 40
0.2417318174828644
 40
0.3008503100224237
 40
0.3599389926754495
 40
0.4191280276905993
 40
0.4797642139829911
 40
0.5407054899311946
 40
0.6021453426096063
 40
0.6645243374636227
 40
0.7278534407500998
 40
0.792509892884826
 40
0.8592732719002432
 40
0.9284795423630056
 40
1.0
 40
1.0
 40
1.0
 40
1.0
 10
114.2282852564103
 20
-70.24830228365384
 30
0.0
 10
114.1606597863692
 20
-70.27211630254416
 30
0.0
 10
114.027024079246
 20
-70.31917554297412
 30
0.0
 10
113.8346798939711
 20
-70.40504832210512
 30
0.0
 10
113.6552009064017
 20
-70.50664244142153
 30
0.0
 10
113.4855950138873
 20
-70.62023885845741
 30
0.0
 10
113.3269522177968
 20
-70.7475916126875
 30
0.0
 10
113.1800071812941
 20
-70.88910571435655
 30
0.0
 10
113.0435992190435
 20
-71.04314282575953
 30
0.0
 10
112.9199123533904
 20
-71.21022197862075
 30
0.0
 10
112.8080473952288
 20
-71.38848934757792
 30
0.0
 10
112.7113964398564
 20
-71.57774635632137
 30
0.0
 10
112.6299207790099
 20
-71.77693096257337
 30
0.0
 10
112.5630754157622
 20
-71.98535016989706
 30
0.0
 10
112.5109589538095
 20
-72.20312802196648
 30
0.0
 10
112.4742669139083
 20
-72.43081103186913
 30
0.0
 10
112.451529286779
 20
-72.66830928469989
 30
0.0
 10
112.4488152376523
 20
-72.82998759704589
 30
0.0
 10
112.4474358974359
 20
-72.912156116453
 30
0.0
  0
SPLINE
  5
186
330
1B
100
AcDbEntity
 67
     1
  8
0
  6
Continuous
 62
     7
370
    25
100
AcDbSpline
210
0.0
220
0.0
230
1.0
 70
     8
 71
     3
 72
    15
 73
    11
 74
     0
 42
0.000000001
 43
0.00000001
 40
0.0
 40
0.0
 40
0.0
 40
0.0
 40
0.1719006646132699
 40
0.3306279320958817
 40
0.4755488358809165
 40
0.6067461903123634
 40
0.7250238034674852
 40
0.8297423869584583
 40
0.9213228203439738
 40
1.0
 40
1.0
 40
1.0
 40
1.0
 10
116.3460119524573
 20
-70.05982905982906
 30
0.0
 10
116.2238202343909
 20
-70.06035419715417
 30
0.0
 10
115.9888008110838
 20
-70.06136422854792
 30
0.0
 10
115.6508580501554
 20
-70.07022714184671
 30
0.0
 10
115.3420799942921
 20
-70.08470924289534
 30
0.0
 10
115.0624227994098
 20
-70.10497649092368
 30
0.0
 10
114.8120443646472
 20
-70.13179172640565
 30
0.0
 10
114.5904214273956
 20
-70.1616894372212
 30
0.0
 10
114.3982804639413
 20
-70.19893737465485
 30
0.0
 10
114.2820131557475
 20
-70.23270023874912
 30
0.0
 10
114.2282852564103
 20
-70.24830228365384
 30
0.0
  0
SPLINE
  5
189
330
1B
100
AcDbEntity
 67
     1
  8
0
  6
Continuous
 62
     7
370
    25
100
AcDbSpline
210
0.0
220
0.0
230
1.0
 70
     8
 71
     3
 72
    23
 73
    19
 74
     0
 42
0.000000001
 43
0.00000001
 40
0.0
 40
0.0
 40
0.0
 40
0.0
 40
0.0765394938586499
 40
0.1491234783097258
 40
0.2187712836403719
 40
0.28534010295651
 40
0.3507805362970413
 40
0.4145763818714929
 40
0.4776143792398921
 40
0.5407871921023042
 40
0.602605863173796
 40
0.6624219351141082
 40
0.7200055187117725
 40
0.775964332192117
 40
0.8311577461331994
 40
0.886696223364455
 40
0.9425669484058548
 40
1.0
 40
1.0
 40
1.0
 40
1.0
 10
88.46829927884619
 20
-69.8698717948718
 30
0.0
 10
88.3989824724887
 20
-69.87121831644517
 30
0.0
 10
88.26393110556384
 20
-69.8738417722654
 30
0.0
 10
88.06683262911888
 20
-69.89651677463462
 30
0.0
 10
87.88126930186823
 20
-69.9335558616322
 30
0.0
 10
87.7054633690761
 20
-69.98377689212043
 30
0.0
 10
87.54072339335403
 20
-70.05034927015372
 30
0.0
 10
87.38727392019047
 20
-70.13303854530784
 30
0.0
 10
87.24302538788326
 20
-70.22748756933993
 30
0.0
 10
87.11414270033369
 20
-70.3393070453305
 30
0.0
 10
86.99695665094576
 20
-70.45896080175724
 30
0.0
 10
86.89431090919174
 20
-70.58496016243089
 30
0.0
 10
86.8074410445834
 20
-70.71604323396869
 30
0.0
 10
86.73741558919713
 20
-70.85213328659316
 30
0.0
 10
86.68180868863496
 20
-70.99273019925229
 30
0.0
 10
86.64172244436936
 20
-71.13841112263952
 30
0.0
 10
86.61701616175854
 20
-71.28974827686469
 30
0.0
 10
86.61451545668412
 20
-71.39240388299723
 30
0.0
 10
86.61324786324789
 20
-71.44443943643162
 30
0.0
  0
SPLINE
  5
18A
330
1B
100
AcDbEntity
 67
     1
  8
0
  6
Continuous
 62
     7
370
    25
100
AcDbSpline
210
0.0
220
0.0
230
1.0
 70
     8
 71
     3
 72
    19
 73
    15
 74
     0
 42
0.000000001
 43
0.00000001
 40
0.0
 40
0.0
 40
0.0
 40
0.0
 40
0.0749254640055745
 40
0.1491944878975575
 40
0.224577089902291
 40
0.3027299155445766
 40
0.3823547567728359
 40
0.4612145038051449
 40
0.5426309737493437
 40
0.6269606111813709
 40
0.7143536925660795
 40
0.8048319229127568
 40
0.9000909095527335
 40
1.0
 40
1.0
 40
1.0
 40
1.0
 10
90.31741452991456
 20
-71.37468950320513
 30
0.0
 10
90.31447564271022
 20
-71.30817237538282
 30
0.0
 10
90.30862361660323
 20
-71.17572089238463
 30
0.0
 10
90.26386250678567
 20
-70.98046388865787
 30
0.0
 10
90.19035182575502
 20
-70.79148978702378
 30
0.0
 10
90.08722500589208
 20
-70.61146377317998
 30
0.0
 10
89.9614343978536
 20
-70.4425685812372
 30
0.0
 10
89.80851137712202
 20
-70.29327591243776
 30
0.0
 10
89.63218436857703
 20
-70.16559547469299
 30
0.0
 10
89.43390198197692
 20
-70.05888082215031
 30
0.0
 10
89.21654566256575
 20
-69.9743613709751
 30
0.0
 10
88.98145863303898
 20
-69.91389347146747
 30
0.0
 10
88.7302332933829
 20
-69.87588684142244
 30
0.0
 10
88.55698655129163
 20
-69.87190840731083
 30
0.0
 10
88.46829927884619
 20
-69.8698717948718
 30
0.0
  0
SPLINE
  5
18B
330
1B
100
AcDbEntity
 67
     1
  8
0
  6
Continuous
 62
     7
370
    25
100
AcDbSpline
210
0.0
220
0.0
230
1.0
 70
     8
 71
     3
 72
    23
 73
    19
 74
     0
 42
0.000000001
 43
0.00000001
 40
0.0
 40
0.0
 40
0.0
 40
0.0
 40
0.0712707658340636
 40
0.1398158522338485
 40
0.2065034392291549
 40
0.2715431433929119
 40
0.3360916074305592
 40
0.3998151727836481
 40
0.4642725027334044
 40
0.5293408582651521
 40
0.5937158345077672
 40
0.6556317882307253
 40
0.7148999079784768
 40
0.7721675321124059
 40
0.828848812934519
 40
0.8851188209124865
 40
0.9420776683186709
 40
1.0
 40
1.0
 40
1.0
 40
1.0
 10
88.42526208600431
 20
-73.00416666666666
 30
0.0
 10
88.4911448180477
 20
-73.00299445768985
 30
0.0
 10
88.62039066268461
 20
-73.00069486970072
 30
0.0
 10
88.80974371868851
 20
-72.9751101654212
 30
0.0
 10
88.99145694023001
 20
-72.93947070152696
 30
0.0
 10
89.16497250241652
 20
-72.88549284243537
 30
0.0
 10
89.32939972375493
 20
-72.81526031272574
 30
0.0
 10
89.48705261792642
 20
-72.73197656281175
 30
0.0
 10
89.63546238456105
 20
-72.63215276050198
 30
0.0
 10
89.77396568089206
 20
-72.51820952300929
 30
0.0
 10
89.90076916805427
 20
-72.39473197623855
 30
0.0
 10
90.01242140976187
 20
-72.26432319221915
 30
0.0
 10
90.10675172401375
 20
-72.12875396023068
 30
0.0
 10
90.18330183152376
 20
-71.98785280570627
 30
0.0
 10
90.24268737892628
 20
-71.84193017741657
 30
0.0
 10
90.28651483032598
 20
-71.69090091844475
 30
0.0
 10
90.311960990546
 20
-71.53434375489834
 30
0.0
 10
90.31558654786292
 20
-71.42820431016573
 30
0.0
 10
90.31741452991456
 20
-71.37468950320513
 30
0.0
  0
SPLINE
  5
18C
330
1B
100
AcDbEntity
 67
     1
  8
0
  6
Continuous
 62
     7
370
    25
100
AcDbSpline
210
0.0
220
0.0
230
1.0
 70
     8
 71
     3
 72
    23
 73
    19
 74
     0
 42
0.000000001
 43
0.00000001
 40
0.0
 40
0.0
 40
0.0
 40
0.0
 40
0.057333524022765
 40
0.1130516941125431
 40
0.1691640350495452
 40
0.225970679168741
 40
0.2837418700319718
 40
0.3433637077705868
 40
0.4062345747817652
 40
0.471713132696196
 40
0.5383168504705856
 40
0.603370876310482
 40
0.6676360442187863
 40
0.7322530046199085
 40
0.7970257039479084
 40
0.8630620863860792
 40
0.9303641553519834
 40
1.0
 40
1.0
 40
1.0
 40
1.0
 10
86.61324786324789
 20
-71.44443943643162
 30
0.0
 10
86.61515257511967
 20
-71.49498556220976
 30
0.0
 10
86.61890833420772
 20
-71.59465369263502
 30
0.0
 10
86.64308805107213
 20
-71.74224270998043
 30
0.0
 10
86.6845966301158
 20
-71.88541655920767
 30
0.0
 10
86.74512313687663
 20
-72.02352949306191
 30
0.0
 10
86.81945276078157
 20
-72.15818812165205
 30
0.0
 10
86.91127356490958
 20
-72.28826196805026
 30
0.0
 10
87.01946643624929
 20
-72.41411120033425
 30
0.0
 10
87.14376655539071
 20
-72.5331447188195
 30
0.0
 10
87.27847981246336
 20
-72.64318580348069
 30
0.0
 10
87.42124645199577
 20
-72.7409769170212
 30
0.0
 10
87.57271710628673
 20
-72.82090248945993
 30
0.0
 10
87.72989120313724
 20
-72.8880455983983
 30
0.0
 10
87.89435319434072
 20
-72.94037065273136
 30
0.0
 10
88.06530982634321
 20
-72.97706166661658
 30
0.0
 10
88.24308496633468
 20
-73.00012194483129
 30
0.0
 10
88.36385032823567
 20
-73.0028031942501
 30
0.0
 10
88.42526208600431
 20
-73.00416666666666
 30
0.0
  0
SPLINE
  5
1B1
330
1B
100
AcDbEntity
 67
     1
  8
0
  6
Continuous
 62
     7
370
    25
100
AcDbSpline
210
0.0
220
0.0
230
1.0
 70
     8
 71
     3
 72
    19
 73
    15
 74
     0
 42
0.000000001
 43
0.00000001
 40
0.0
 40
0.0
 40
0.0
 40
0.0
 40
0.0987013748863703
 40
0.1956706803858551
 40
0.2924199929089603
 40
0.3913392869674676
 40
0.4444587417649341
 40
0.5042245791547472
 40
0.570347591406355
 40
0.6429138259794851
 40
0.7222898165239623
 40
0.8079227212022517
 40
0.9004703662977959
 40
1.0
 40
1.0
 40
1.0
 40
1.0
 10
80.34465811965813
 20
-74.69597355769231
 30
0.0
 10
80.34824224903244
 20
-74.59279068560289
 30
0.0
 10
80.35534761138499
 20
-74.38823565474186
 30
0.0
 10
80.41612554949607
 20
-74.0876368774011
 30
0.0
 10
80.51105380688159
 20
-73.79639995202048
 30
0.0
 10
80.62533808329451
 20
-73.56199800702754
 30
0.0
 10
80.74066076066184
 20
-73.37313832620742
 30
0.0
 10
80.84447929501378
 20
-73.21756382206861
 30
0.0
 10
80.96670725136642
 20
-73.050095988646
 30
0.0
 10
81.106300367888
 20
-72.8700570018195
 30
0.0
 10
81.26566263611063
 20
-72.67980462423611
 30
0.0
 10
81.44065384572882
 20
-72.47545719595465
 30
0.0
 10
81.63579320510276
 20
-72.26079324220257
 30
0.0
 10
81.77263280900422
 20
-72.1140793517748
 30
0.0
 10
81.84353966346154
 20
-72.03805588942308
 30
0.0
  0
SPLINE
  5
1B2
330
1B
100
AcDbEntity
 67
     1
  8
0
  6
Continuous
 62
     7
370
    25
100
AcDbSpline
210
0.0
220
0.0
230
1.0
 70
     8
 71
     3
 72
    23
 73
    19
 74
     0
 42
0.000000001
 43
0.00000001
 40
0.0
 40
0.0
 40
0.0
 40
0.0
 40
0.069479636366983
 40
0.1365250035391412
 40
0.2008008928734211
 40
0.2639832069133287
 40
0.3257111447611861
 40
0.3872705140757311
 40
0.4494927805315659
 40
0.5129551957628501
 40
0.576266397070109
 40
0.637574966831177
 40
0.6979010984244973
 40
0.7575582794115652
 40
0.8165875043650651
 40
0.8766457566083141
 40
0.9372858729381274
 40
1.0
 40
1.0
 40
1.0
 40
1.0
 10
82.5825921474359
 20
-76.89829059829059
 30
0.0
 10
82.50135284057683
 20
-76.89640429815061
 30
0.0
 10
82.3417205045947
 20
-76.89269778575722
 30
0.0
 10
82.10883677916489
 20
-76.86038862106572
 30
0.0
 10
81.88660985267562
 20
-76.81087770590212
 30
0.0
 10
81.67755822071312
 20
-76.7375103289599
 30
0.0
 10
81.47953642605246
 20
-76.64545031970302
 30
0.0
 10
81.29499630711098
 20
-76.53096163690125
 30
0.0
 10
81.11947549135333
 20
-76.39946149978005
 30
0.0
 10
80.96158823474445
 20
-76.24435063953374
 30
0.0
 10
80.81654974230437
 20
-76.07884695984735
 30
0.0
 10
80.69153533090743
 20
-75.90209042158358
 30
0.0
 10
80.58387193631334
 20
-75.7193187184584
 30
0.0
 10
80.49575281075171
 20
-75.52910413760897
 30
0.0
 10
80.4289545948069
 20
-75.33082724789725
 30
0.0
 10
80.3794635185478
 20
-75.12638899769918
 30
0.0
 10
80.35117174488352
 20
-74.913430031046
 30
0.0
 10
80.34685352943694
 20
-74.76926700819702
 30
0.0
 10
80.34465811965813
 20
-74.69597355769231
 30
0.0
  0
SPLINE
  5
1B3
330
1B
100
AcDbEntity
 67
     1
  8
0
  6
Continuous
 62
     7
370
    25
100
AcDbSpline
210
0.0
220
0.0
230
1.0
 70
     8
 71
     3
 72
    23
 73
    19
 74
     0
 42
0.000000001
 43
0.00000001
 40
0.0
 40
0.0
 40
0.0
 40
0.0
 40
0.0687985167452391
 40
0.1351184559300889
 40
0.1990010113675062
 40
0.2619337007769927
 40
0.3235312844431791
 40
0.3854347205665496
 40
0.4472155159851228
 40
0.5100181032833269
 40
0.5725109099917953
 40
0.6333640222588522
 40
0.6932167277430208
 40
0.7525553881310327
 40
0.8125582265741719
 40
0.8732608589653633
 40
0.9355427078252683
 40
1.0
 40
1.0
 40
1.0
 40
1.0
 10
84.99861111111112
 20
-74.42884615384615
 30
0.0
 10
84.99427870813427
 20
-74.51704996774039
 30
0.0
 10
84.98576998398742
 20
-74.69027991083155
 30
0.0
 10
84.94590633531172
 20
-74.94284269383724
 30
0.0
 10
84.88891925024686
 20
-75.18428095068082
 30
0.0
 10
84.80815525585857
 20
-75.41252479198128
 30
0.0
 10
84.70841878053591
 20
-75.63030078191659
 30
0.0
 10
84.58631247211366
 20
-75.83471710726423
 30
0.0
 10
84.44443943932322
 20
-76.027802575817
 30
0.0
 10
84.28305995390653
 20
-76.20590143933886
 30
0.0
 10
84.10794833887881
 20
-76.36870606806575
 30
0.0
 10
83.92015378506069
 20
-76.5107839624
 30
0.0
 10
83.72160646554862
 20
-76.62945244778989
 30
0.0
 10
83.51402849477792
 20
-76.72919604655014
 30
0.0
 10
83.29501917222753
 20
-76.8039748221243
 30
0.0
 10
83.06667198190364
 20
-76.85948381734701
 30
0.0
 10
82.8279548178914
 20
-76.8928753027721
 30
0.0
 10
82.66531028748093
 20
-76.8964649612764
 30
0.0
 10
82.5825921474359
 20
-76.89829059829059
 30
0.0
  0
SPLINE
  5
1B5
330
1B
100
AcDbEntity
 67
     1
  8
0
  6
Continuous
 62
     7
370
    25
100
AcDbSpline
210
0.0
220
0.0
230
1.0
 70
     8
 71
     3
 72
    23
 73
    19
 74
     0
 42
0.000000001
 43
0.00000001
 40
0.0
 40
0.0
 40
0.0
 40
0.0
 40
0.0644420198530834
 40
0.1265534866972344
 40
0.1867788219416123
 40
0.2459439745213386
 40
0.3041103458128547
 40
0.3617852793109966
 40
0.4202554070674575
 40
0.4799428587769961
 40
0.5402862362437815
 40
0.6007123566267307
 40
0.6619622304358106
 40
0.7244721944653055
 40
0.7888813129531307
 40
0.8563062910592513
 40
0.9263482014292813
 40
1.0
 40
1.0
 40
1.0
 40
1.0
 10
82.61672509348291
 20
-76.13846153846154
 30
0.0
 10
82.67467482173467
 20
-76.1370082323895
 30
0.0
 10
82.78847851969662
 20
-76.13415417922556
 30
0.0
 10
82.95520848963496
 20
-76.11252281663506
 30
0.0
 10
83.11537669946762
 20
-76.07976322089286
 30
0.0
 10
83.26651500211067
 20
-76.02761021264719
 30
0.0
 10
83.41178645329028
 20
-75.96657193006111
 30
0.0
 10
83.54748510547276
 20
-75.88753809083666
 30
0.0
 10
83.67742290339403
 20
-75.79722970726242
 30
0.0
 10
83.79898740853287
 20
-75.69193586793055
 30
0.0
 10
83.90970640359157
 20
-75.573074983037
 30
0.0
 10
84.01042846446414
 20
-75.44369701031297
 30
0.0
 10
84.0957712652404
 20
-75.30150834049381
 30
0.0
 10
84.17152920841791
 20
-75.14992083146205
 30
0.0
 10
84.22946907827486
 20
-74.98476974895841
 30
0.0
 10
84.27900351501474
 20
-74.81009406395133
 30
0.0
 10
84.31498461117789
 20
-74.6234015652901
 30
0.0
 10
84.32739804239927
 20
-74.49477508027569
 30
0.0
 10
84.3337606837607
 20
-74.42884615384615
 30
0.0
  0
SPLINE
  5
1B6
330
1B
100
AcDbEntity
 67
     1
  8
0
  6
Continuous
 62
     7
370
    25
100
AcDbSpline
210
0.0
220
0.0
230
1.0
 70
     8
 71
     3
 72
    23
 73
    19
 74
     0
 42
0.000000001
 43
0.00000001
 40
0.0
 40
0.0
 40
0.0
 40
0.0
 40
0.0619690391917448
 40
0.1221290764323336
 40
0.1809991241916566
 40
0.2401624165448515
 40
0.2998647227478889
 40
0.359951267092579
 40
0.4217417893803261
 40
0.4865456790123973
 40
0.5515084714935606
 40
0.6149949372340028
 40
0.6772396658274396
 40
0.7397146797414236
 40
0.8030385380943941
 40
0.8664872928331443
 40
0.9319694797733322
 40
1.0
 40
1.0
 40
1.0
 40
1.0
 10
81.00950854700856
 20
-74.63661191239318
 30
0.0
 10
81.01084037901752
 20
-74.6871664582542
 30
0.0
 10
81.01346516415764
 20
-74.78679976023841
 30
0.0
 10
81.03706895226082
 20
-74.93278180264964
 30
0.0
 10
81.0717476018238
 20
-75.07414450921817
 30
0.0
 10
81.12519811348186
 20
-75.2091400313839
 30
0.0
 10
81.18941693519892
 20
-75.34042347011541
 30
0.0
 10
81.2714612155334
 20
-75.4640033994408
 30
0.0
 10
81.36521628321624
 20
-75.58409236254316
 30
0.0
 10
81.47396756304971
 20
-75.69657260841132
 30
0.0
 10
81.59335626127267
 20
-75.79962197987365
 30
0.0
 10
81.71950151970263
 20
-75.89089933862087
 30
0.0
 10
81.85295650445741
 20
-75.96718263349686
 30
0.0
 10
81.99316504949869
 20
-76.0297162324815
 30
0.0
 10
82.13973454855949
 20
-76.07877082650603
 30
0.0
 10
82.29294894683628
 20
-76.11276147621356
 30
0.0
 10
82.45238477552634
 20
-76.1341027366568
 30
0.0
 10
82.56125234220573
 20
-76.13699023348059
 30
0.0
 10
82.61672509348291
 20
-76.13846153846154
 30
0.0
  0
SPLINE
  5
1B7
330
1B
100
AcDbEntity
 67
     1
  8
0
  6
Continuous
 62
     7
370
    25
100
AcDbSpline
210
0.0
220
0.0
230
1.0
 70
     8
 71
     3
 72
    19
 73
    15
 74
     0
 42
0.000000001
 43
0.00000001
 40
0.0
 40
0.0
 40
0.0
 40
0.0
 40
0.1107941734871603
 40
0.2128129326077728
 40
0.3060779098917645
 40
0.390617458060213
 40
0.4672327266979068
 40
0.534450618381696
 40
0.5938668014988489
 40
0.6448329686326054
 40
0.7362206188001748
 40
0.8250374016667793
 40
0.9119923130965305
 40
0.9999999999999999
 40
0.9999999999999999
 40
0.9999999999999999
 40
0.9999999999999999
 10
82.4104433760684
 20
-72.36602897970087
 30
0.0
 10
82.340487063164
 20
-72.43904641250276
 30
0.0
 10
82.20611530303405
 20
-72.57929795748008
 30
0.0
 10
82.01614067284136
 20
-72.7841229550795
 30
0.0
 10
81.8452384459896
 20
-72.97391881604541
 30
0.0
 10
81.69329525548568
 20
-73.14952657090302
 30
0.0
 10
81.56018608140144
 20
-73.30995068786576
 30
0.0
 10
81.44633681468518
 20
-73.45644837291002
 30
0.0
 10
81.35124426211186
 20
-73.58776242566118
 30
0.0
 10
81.25046597232777
 20
-73.7420246841869
 30
0.0
 10
81.15436718559756
 20
-73.93059329006523
 30
0.0
 10
81.06990618515269
 20
-74.15987484496725
 30
0.0
 10
81.01877464457249
 20
-74.39642418393058
 30
0.0
 10
81.0126096114976
 20
-74.5562288136504
 30
0.0
 10
81.00950854700855
 20
-74.63661191239316
 30
0.0
  0
SPLINE
  5
1BA
330
1B
100
AcDbEntity
 67
     1
  8
0
  6
Continuous
 62
     7
370
    25
100
AcDbSpline
210
0.0
220
0.0
230
1.0
 70
     8
 71
     3
 72
    12
 73
     8
 74
     0
 42
0.000000001
 43
0.00000001
 40
0.0
 40
0.0
 40
0.0
 40
0.0
 40
0.1192834503733669
 40
0.2370928820686261
 40
0.3547960442151261
 40
0.4745763009408463
 40
0.4907951245715855
 40
0.4907951245715855
 40
0.4907951245715855
 40
0.4907951245715855
 10
86.50936498397441
 20
-69.92329727564103
 30
0.0
 10
86.56828552125185
 20
-69.85854045360368
 30
0.0
 10
86.6853984983867
 20
-69.72982702753843
 30
0.0
 10
86.88602236184084
 20
-69.56271447972435
 30
0.0
 10
87.10620201591799
 20
-69.4222749288938
 30
0.0
 10
87.27437846194339
 20
-69.34169940697646
 30
0.0
 10
87.3669181802177
 20
-69.30436922532476
 30
0.0
 10
87.37798659728122
 20
-69.30000000112986
 30
0.0
  0
SPLINE
  5
1BB
330
1B
100
AcDbEntity
 67
     1
  8
0
  6
Continuous
 62
     7
370
    25
100
AcDbSpline
210
0.0
220
0.0
230
1.0
 70
     8
 71
     3
 72
    15
 73
    11
 74
     0
 42
0.000000001
 43
0.00000001
 40
0.0
 40
0.0
 40
0.0
 40
0.0
 40
0.1281643900560246
 40
0.2536854172428121
 40
0.3773435734415361
 40
0.5005243883782274
 40
0.6229001123712938
 40
0.745827088414978
 40
0.8713890588678204
 40
0.9999999999999999
 40
0.9999999999999999
 40
0.9999999999999999
 40
0.9999999999999999
 10
85.94839743589746
 20
-71.45779580662392
 30
0.0
 10
85.9500211241612
 20
-71.38646586575449
 30
0.0
 10
85.95323501246878
 20
-71.24527714864313
 30
0.0
 10
85.98151970361538
 20
-71.0369442309827
 30
0.0
 10
86.02329993384453
 20
-70.83379134708264
 30
0.0
 10
86.08676810555895
 20
-70.63812146734128
 30
0.0
 10
86.1648687049266
 20
-70.44826744914509
 30
0.0
 10
86.26342133671884
 20
-70.26678713542736
 30
0.0
 10
86.374650740753
 20
-70.08847106177657
 30
0.0
 10
86.4641025585047
 20
-69.97879375474916
 30
0.0
 10
86.5093649839744
 20
-69.92329727564102
 30
0.0
  0
SPLINE
  5
1BC
330
1B
100
AcDbEntity
 67
     1
  8
0
  6
Continuous
 62
     7
370
    25
100
AcDbSpline
210
0.0
220
0.0
230
1.0
 70
     8
 71
     3
 72
    23
 73
    19
 74
     0
 42
0.000000001
 43
0.00000001
 40
0.0
 40
0.0
 40
0.0
 40
0.0
 40
0.0790137330422216
 40
0.1545852078983686
 40
0.2268619743906002
 40
0.2958929341764834
 40
0.3615958596672695
 40
0.4246568368570499
 40
0.4853322406891323
 40
0.5440113763315256
 40
0.6009735383430889
 40
0.6578572180182837
 40
0.7139883690835372
 40
0.7694791522711589
 40
0.8261384148636312
 40
0.8828910494631536
 40
0.9407037627843796
 40
1.0
 40
1.0
 40
1.0
 40
1.0
 10
87.38049712873935
 20
-73.42711838942307
 30
0.0
 10
87.32034038583541
 20
-73.39550543337052
 30
0.0
 10
87.20264764749425
 20
-73.33365674966062
 30
0.0
 10
87.03498988929299
 20
-73.23376919636222
 30
0.0
 10
86.87850798178246
 20
-73.13213710058407
 30
0.0
 10
86.73609615820055
 20
-73.02510638532576
 30
0.0
 10
86.6063582133748
 20
-72.91495214782188
 30
0.0
 10
86.48889489275246
 20
-72.80196586204212
 30
0.0
 10
86.38244295232192
 20
-72.68650486263078
 30
0.0
 10
86.29065948189287
 20
-72.5656008625045
 30
0.0
 10
86.20922394232113
 20
-72.44140389190886
 30
0.0
 10
86.1402380495436
 20
-72.31238325142044
 30
0.0
 10
86.08003088526961
 20
-72.18040331146778
 30
0.0
 10
86.03277576300793
 20
-72.04346034661283
 30
0.0
 10
85.99376124501062
 20
-71.90343302185397
 30
0.0
 10
85.96693709937294
 20
-71.75844240460819
 30
0.0
 10
85.95250637079073
 20
-71.60946308471476
 30
0.0
 10
85.94977859923648
 20
-71.50877672738994
 30
0.0
 10
85.94839743589746
 20
-71.45779580662392
 30
0.0
  0
SPLINE
  5
1BD
330
1B
100
AcDbEntity
 67
     1
  8
0
  6
Continuous
 62
     7
370
    25
100
AcDbSpline
210
0.0
220
0.0
230
1.0
 70
     8
 71
     3
 72
    15
 73
    11
 74
     0
 42
0.000000001
 43
0.00000001
 40
0.0
 40
0.0
 40
0.0
 40
0.0
 40
0.1219329697347745
 40
0.2394694222484205
 40
0.3547948844456224
 40
0.4715031982725505
 40
0.5923001109584685
 40
0.7192362206827413
 40
0.8548579476808102
 40
1.0
 40
1.0
 40
1.0
 40
1.0
 10
86.32831196581202
 20
-74.97645733173078
 30
0.0
 10
86.33136682152953
 20
-74.89608044986866
 30
0.0
 10
86.33736638452973
 20
-74.73822482227655
 30
0.0
 10
86.38717107399214
 20
-74.50843945425362
 30
0.0
 10
86.47235255642288
 20
-74.29368634188361
 30
0.0
 10
86.58726264440695
 20
-74.09066090226334
 30
0.0
 10
86.73808475429244
 20
-73.90260746813955
 30
0.0
 10
86.92177364545951
 20
-73.72859210221763
 30
0.0
 10
87.13594574376164
 20
-73.56521142705854
 30
0.0
 10
87.29715783804036
 20
-73.47417833884055
 30
0.0
 10
87.38049712873936
 20
-73.42711838942309
 30
0.0
  0
SPLINE
  5
1BE
330
1B
100
AcDbEntity
 67
     1
  8
0
  6
Continuous
 62
     7
370
    25
100
AcDbSpline
210
0.0
220
0.0
230
1.0
 70
     8
 71
     3
 72
    19
 73
    15
 74
     0
 42
0.000000001
 43
0.00000001
 40
0.0
 40
0.0
 40
0.0
 40
0.0
 40
0.0893861771357529
 40
0.1762593581666844
 40
0.2630042155133471
 40
0.3498011875281802
 40
0.435431432373711
 40
0.5192021929221164
 40
0.601265012572587
 40
0.6841449567266811
 40
0.7658683829686709
 40
0.8449176964414462
 40
0.922300251970302
 40
1.0
 40
1.0
 40
1.0
 40
1.0
 10
88.43119825053422
 20
-76.89829059829059
 30
0.0
 10
88.33699499323768
 20
-76.8952423993485
 30
0.0
 10
88.15123690177037
 20
-76.88923169829481
 30
0.0
 10
87.87778381763076
 20
-76.83860569007886
 30
0.0
 10
87.6159165617541
 20
-76.7549999363019
 30
0.0
 10
87.3671028000202
 20
-76.64112859530535
 30
0.0
 10
87.13663675200175
 20
-76.49924157341161
 30
0.0
 10
86.93154330287042
 20
-76.33055495423918
 30
0.0
 10
86.75014816629957
 20
-76.14044742307034
 30
0.0
 10
86.60028304295344
 20
-75.92716754365458
 30
0.0
 10
86.48005955722155
 20
-75.69960805068602
 30
0.0
 10
86.39348480010167
 20
-75.46355373163689
 30
0.0
 10
86.33875153304356
 20
-75.22183451226473
 30
0.0
 10
86.33179656326226
 20
-75.05836117684959
 30
0.0
 10
86.328311965812
 20
-74.97645733173077
 30
0.0
  0
SPLINE
  5
1BF
330
1B
100
AcDbEntity
 67
     1
  8
0
  6
Continuous
 62
     7
370
    25
100
AcDbSpline
210
0.0
220
0.0
230
1.0
 70
     8
 71
     3
 72
    19
 73
    15
 74
     0
 42
0.000000001
 43
0.00000001
 40
0.0
 40
0.0
 40
0.0
 40
0.0
 40
0.0740603829256034
 40
0.1488742855290754
 40
0.2266736570165105
 40
0.3081503389269856
 40
0.3912004800128959
 40
0.473974818621686
 40
0.5583406082994355
 40
0.6454044470352092
 40
0.7333570108929957
 40
0.8210873153668223
 40
0.9092848183305257
 40
1.0
 40
1.0
 40
1.0
 40
1.0
 10
90.60235042735046
 20
-74.99723390758548
 30
0.0
 10
90.59888263924762
 20
-75.07617676318321
 30
0.0
 10
90.59191178039191
 20
-75.23486567026795
 30
0.0
 10
90.53573829429732
 20
-75.4711547211945
 30
0.0
 10
90.44350439237705
 20
-75.70335562774494
 30
0.0
 10
90.3202013965033
 20
-75.93093029523621
 30
0.0
 10
90.16328309454333
 20
-76.14350904609752
 30
0.0
 10
89.97754835461045
 20
-76.33571084039822
 30
0.0
 10
89.76323081418667
 20
-76.50256128951037
 30
0.0
 10
89.52504110287674
 20
-76.64360476029528
 30
0.0
 10
89.26917363275531
 20
-76.75894721448373
 30
0.0
 10
88.99875532798231
 20
-76.83768977583675
 30
0.0
 10
88.71860570530578
 20
-76.88947882701677
 30
0.0
 10
88.52789530128899
 20
-76.89532591425072
 30
0.0
 10
88.43119825053422
 20
-76.89829059829059
 30
0.0
  0
SPLINE
  5
1C0
330
1B
100
AcDbEntity
 67
     1
  8
0
  6
Continuous
 62
     7
370
    25
100
AcDbSpline
210
0.0
220
0.0
230
1.0
 70
     8
 71
     3
 72
    15
 73
    11
 74
     0
 42
0.000000001
 43
0.00000001
 40
0.0
 40
0.0
 40
0.0
 40
0.0
 40
0.1458762987563661
 40
0.2820156607062498
 40
0.41096902990553
 40
0.5347112110032575
 40
0.6543961906333372
 40
0.770107841923191
 40
0.8845429919876359
 40
1.0
 40
1.0
 40
1.0
 40
1.0
 10
89.52048444177353
 20
-73.42711838942307
 30
0.0
 10
89.60629825164685
 20
-73.47410640300967
 30
0.0
 10
89.77219797967297
 20
-73.56494607888477
 30
0.0
 10
89.99396576607946
 20
-73.72976192367045
 30
0.0
 10
90.1818218339606
 20
-73.91150206334027
 30
0.0
 10
90.33376977559632
 20
-74.11043999479158
 30
0.0
 10
90.45374036877588
 20
-74.32003732110198
 30
0.0
 10
90.53856094705256
 20
-74.53919062324381
 30
0.0
 10
90.59392527590244
 20
-74.76545561060607
 30
0.0
 10
90.5995337337726
 20
-74.91974587136265
 30
0.0
 10
90.60235042735046
 20
-74.99723390758548
 30
0.0
  0
SPLINE
  5
1C1
330
1B
100
AcDbEntity
 67
     1
  8
0
  6
Continuous
 62
     7
370
    25
100
AcDbSpline
210
0.0
220
0.0
230
1.0
 70
     8
 71
     3
 72
    23
 73
    19
 74
     0
 42
0.000000001
 43
0.00000001
 40
0.0
 40
0.0
 40
0.0
 40
0.0
 40
0.058848476354647
 40
0.1163053604439762
 40
0.1726598517648843
 40
0.2287605241456255
 40
0.2845556518310192
 40
0.3407401274836657
 40
0.3971085317763482
 40
0.454280838635334
 40
0.5127523429271224
 40
0.5734479876041841
 40
0.6364162535651305
 40
0.702388787266924
 40
0.7715028959200626
 40
0.8441980054086107
 40
0.9200767335203553
 40
1.0
 40
1.0
 40
1.0
 40
1.0
 10
90.98226495726499
 20
-71.3969501201923
 30
0.0
 10
90.98104147627048
 20
-71.44893362636988
 30
0.0
 10
90.97862344598528
 20
-71.55167138268307
 30
0.0
 10
90.96189584828011
 20
-71.7034578190984
 30
0.0
 10
90.93498022344166
 20
-71.85118670313285
 30
0.0
 10
90.89850707689027
 20
-71.99544113172647
 30
0.0
 10
90.84862367613555
 20
-72.13545995210714
 30
0.0
 10
90.78944416990404
 20
-72.27196525972188
 30
0.0
 10
90.71977568861814
 20
-72.40495309987047
 30
0.0
 10
90.6368748758796
 20
-72.53239876557927
 30
0.0
 10
90.54553967366232
 20
-72.6588166916277
 30
0.0
 10
90.43711638538747
 20
-72.77792964680133
 30
0.0
 10
90.31883353134444
 20
-72.89673416058206
 30
0.0
 10
90.18364969327068
 20
-73.00800573994454
 30
0.0
 10
90.03886579405736
 20
-73.12093698134763
 30
0.0
 10
89.8777294522317
 20
-73.2260888266758
 30
0.0
 10
89.70561360869748
 20
-73.33166787222245
 30
0.0
 10
89.58325297016115
 20
-73.39475564184491
 30
0.0
 10
89.52048444177353
 20
-73.42711838942307
 30
0.0
  0
SPLINE
  5
1C2
330
1B
100
AcDbEntity
 67
     1
  8
0
  6
Continuous
 62
     7
370
    25
100
AcDbSpline
210
0.0
220
0.0
230
1.0
 70
     8
 71
     3
 72
    19
 73
    15
 74
     0
 42
0.000000001
 43
0.00000001
 40
0.2993540911802584
 40
0.2993540911802584
 40
0.2993540911802584
 40
0.2993540911802584
 40
0.3554080163481787
 40
0.4182941664943081
 40
0.4803896634667933
 40
0.5430717870965395
 40
0.6049212141612176
 40
0.6643937497230415
 40
0.7219362256164248
 40
0.778013060035011
 40
0.8338350510862125
 40
0.8888646543080232
 40
0.9440906590805257
 40
1.0
 40
1.0
 40
1.0
 40
1.0
 10
89.59108474251123
 20
-69.29999999887403
 30
0.0
 10
89.65709156351747
 20
-69.32627711096187
 30
0.0
 10
89.79429477203396
 20
-69.38934550664914
 30
0.0
 10
89.9910004302932
 20
-69.5080906273264
 30
0.0
 10
90.18056674296606
 20
-69.65258566350784
 30
0.0
 10
90.34768506026178
 20
-69.82065666880008
 30
0.0
 10
90.49601178297783
 20
-70.00071199158178
 30
0.0
 10
90.62642007586415
 20
-70.18641213177655
 30
0.0
 10
90.73420211981652
 20
-70.37762193376825
 30
0.0
 10
90.82710158399125
 20
-70.57143289769188
 30
0.0
 10
90.89623681386952
 20
-70.77177204542323
 30
0.0
 10
90.94527208473423
 20
-70.97658344007274
 30
0.0
 10
90.9760730744534
 20
-71.18528523341499
 30
0.0
 10
90.98019255320314
 20
-71.32610653602586
 30
0.0
 10
90.982264957265
 20
-71.39695012019232
 30
0.0
  0
SPLINE
  5
1CF
330
1B
100
AcDbEntity
 67
     1
  8
0
  6
Continuous
 62
     7
370
    25
100
AcDbSpline
210
0.0
220
0.0
230
1.0
 70
     8
 71
     3
 72
    19
 73
    15
 74
     0
 42
0.000000001
 43
0.00000001
 40
0.0
 40
0.0
 40
0.0
 40
0.0
 40
0.0983120084115323
 40
0.1994013174837906
 40
0.3048237292518287
 40
0.4153745308074243
 40
0.4740203509906804
 40
0.5367581311177554
 40
0.6030424874843957
 40
0.6741160119094327
 40
0.7494372881980278
 40
0.828267395244457
 40
0.9120612846467485
 40
1.0
 40
1.0
 40
1.0
 40
1.0
 10
97.63076923076926
 20
-74.62177150106837
 30
0.0
 10
97.63324354742208
 20
-74.5439936948871
 30
0.0
 10
97.63826207983149
 20
-74.38624087024112
 30
0.0
 10
97.67391487307792
 20
-74.14721660567717
 30
0.0
 10
97.73256914216151
 20
-73.90318373522322
 30
0.0
 10
97.79955055111479
 20
-73.69617732030301
 30
0.0
 10
97.86916970254116
 20
-73.52641064592412
 30
0.0
 10
97.92731883342803
 20
-73.38978327776285
 30
0.0
 10
97.9982228941926
 20
-73.248175900739
 30
0.0
 10
98.07891538037727
 20
-73.10056448572578
 30
0.0
 10
98.16542439022376
 20
-72.94479882421062
 30
0.0
 10
98.26294447982075
 20
-72.78377596180766
 30
0.0
 10
98.3694166086454
 20
-72.61658565603895
 30
0.0
 10
98.44525731030262
 20
-72.50388008195036
 30
0.0
 10
98.48409288194448
 20
-72.4461672008547
 30
0.0
  0
SPLINE
  5
1D0
330
1B
100
AcDbEntity
 67
     1
  8
0
  6
Continuous
 62
     7
370
    25
100
AcDbSpline
210
0.0
220
0.0
230
1.0
 70
     8
 71
     3
 72
    19
 73
    15
 74
     0
 42
0.000000001
 43
0.00000001
 40
0.0
 40
0.0
 40
0.0
 40
0.0
 40
0.0855258546254364
 40
0.1689910274487449
 40
0.2523165333954465
 40
0.3360491729607673
 40
0.4194246596293176
 40
0.5012749879686931
 40
0.5837070042392135
 40
0.6676536112842715
 40
0.7519367965071071
 40
0.8346098034319482
 40
0.9165317713927665
 40
1.0
 40
1.0
 40
1.0
 40
1.0
 10
99.92658086271369
 20
-76.89829059829059
 30
0.0
 10
99.82394307537074
 20
-76.89443065260483
 30
0.0
 10
99.62114048176775
 20
-76.88680376375129
 30
0.0
 10
99.32251939470359
 20
-76.83045680295304
 30
0.0
 10
99.03625366374789
 20
-76.73650029624008
 30
0.0
 10
98.76458442066735
 20
-76.60606774396992
 30
0.0
 10
98.51438044492966
 20
-76.44149243452351
 30
0.0
 10
98.28840619052437
 20
-76.2470822951835
 30
0.0
 10
98.09355505156384
 20
-76.02060497096157
 30
0.0
 10
97.92737308638878
 20
-75.76899880018776
 30
0.0
 10
97.79647452034298
 20
-75.49696897986752
 30
0.0
 10
97.70055544651139
 20
-75.21356629660607
 30
0.0
 10
97.64192438739461
 20
-74.92048665916626
 30
0.0
 10
97.63451072018317
 20
-74.72196190083883
 30
0.0
 10
97.63076923076926
 20
-74.62177150106837
 30
0.0
  0
SPLINE
  5
1D1
330
1B
100
AcDbEntity
 67
     1
  8
0
  6
Continuous
 62
     7
370
    25
100
AcDbSpline
210
0.0
220
0.0
230
1.0
 70
     8
 71
     3
 72
    19
 73
    15
 74
     0
 42
0.000000001
 43
0.00000001
 40
0.0
 40
0.0
 40
0.0
 40
0.0
 40
0.0852509209904107
 40
0.1673302640104389
 40
0.2481807684308668
 40
0.3292002182086021
 40
0.4099461068796828
 40
0.4906242307199377
 40
0.5730350744520031
 40
0.6583083502216196
 40
0.7442669205444983
 40
0.8289815135743526
 40
0.9139364100040839
 40
0.9999999999999999
 40
0.9999999999999999
 40
0.9999999999999999
 40
0.9999999999999999
 10
102.2847222222222
 20
-74.62919170673077
 30
0.0
 10
102.2810436232639
 20
-74.73283802546756
 30
0.0
 10
102.2738232797444
 20
-74.93627472358703
 30
0.0
 10
102.2159347572007
 20
-75.23358307099184
 30
0.0
 10
102.120024160215
 20
-75.51485641940413
 30
0.0
 10
101.9883918478756
 20
-75.7797802432818
 30
0.0
 10
101.8194179025857
 20
-76.02226924167994
 30
0.0
 10
101.6187488227428
 20
-76.24150184766323
 30
0.0
 10
101.3847627431463
 20
-76.43356727211538
 30
0.0
 10
101.1235686544906
 20
-76.59847804385112
 30
0.0
 10
100.8416776005905
 20
-76.73201271326006
 30
0.0
 10
100.5452255151337
 20
-76.82688340657002
 30
0.0
 10
100.2392063160356
 20
-76.8874890204376
 30
0.0
 10
100.0312387572332
 20
-76.89467454469174
 30
0.0
 10
99.92658086271369
 20
-76.89829059829059
 30
0.0
  0
SPLINE
  5
1D2
330
1B
100
AcDbEntity
 67
     1
  8
0
  6
Continuous
 62
     7
370
    25
100
AcDbSpline
210
0.0
220
0.0
230
1.0
 70
     8
 71
     3
 72
    23
 73
    19
 74
     0
 42
0.000000001
 43
0.00000001
 40
0.0
 40
0.0
 40
0.0
 40
0.0
 40
0.0662926774432302
 40
0.130126728667404
 40
0.1928557221658782
 40
0.2547508809666998
 40
0.3159143825399982
 40
0.3773406045409196
 40
0.4402056083033239
 40
0.5041733202243082
 40
0.5680296676598556
 40
0.6302216599279266
 40
0.6908533710945604
 40
0.7510329137478188
 40
0.8114720938156159
 40
0.8727547574474971
 40
0.9353929133658735
 40
1.0
 40
1.0
 40
1.0
 40
1.0
 10
100.0156233306624
 20
-72.43429487179486
 30
0.0
 10
100.0933918470948
 20
-72.43629272433034
 30
0.0
 10
100.24604464416
 20
-72.44021433414952
 30
0.0
 10
100.4705089064507
 20
-72.47112214669828
 30
0.0
 10
100.6865118349191
 20
-72.51926468375089
 30
0.0
 10
100.8932307212224
 20
-72.58943570158004
 30
0.0
 10
101.0904812239064
 20
-72.6791161783355
 30
0.0
 10
101.2789523692722
 20
-72.78835842723177
 30
0.0
 10
101.4583918997368
 20
-72.91757033724294
 30
0.0
 10
101.6266986481303
 20
-73.06535821746908
 30
0.0
 10
101.7797319438048
 20
-73.2276772132711
 30
0.0
 10
101.9161817476217
 20
-73.399414878419
 30
0.0
 10
102.0289638100797
 20
-73.58243458687178
 30
0.0
 10
102.1243246874395
 20
-73.77287396602804
 30
0.0
 10
102.1946168145387
 20
-73.97479838662244
 30
0.0
 10
102.2470408002239
 20
-74.18478139631803
 30
0.0
 10
102.2789625457276
 20
-74.40412649228162
 30
0.0
 10
102.2827826267018
 20
-74.55340003993217
 30
0.0
 10
102.2847222222222
 20
-74.62919170673077
 30
0.0
  0
SPLINE
  5
1D3
330
1B
100
AcDbEntity
 67
     1
  8
0
  6
Continuous
 62
     7
370
    25
100
AcDbSpline
210
0.0
220
0.0
230
1.0
 70
     8
 71
     3
 72
     9
 73
     5
 74
     0
 42
0.000000001
 43
0.00000001
 40
0.0
 40
0.0
 40
0.0
 40
0.0
 40
0.5079925144248166
 40
1.0
 40
1.0
 40
1.0
 40
1.0
 10
99.23650173611114
 20
-72.49068843482905
 30
0.0
 10
99.3679089568473
 20
-72.47386650434609
 30
0.0
 10
99.6265883999587
 20
-72.44075198000705
 30
0.0
 10
99.88733436434893
 20
-72.43642418120268
 30
0.0
 10
100.0156233306624
 20
-72.43429487179486
 30
0.0
  0
SPLINE
  5
1E1
330
1B
100
AcDbEntity
 67
     1
  8
0
  6
Continuous
 62
     7
370
    25
100
AcDbSpline
210
0.0
220
0.0
230
1.0
 70
     8
 71
     3
 72
    31
 73
    27
 74
     0
 42
0.000000001
 43
0.00000001
 40
0.0
 40
0.0
 40
0.0
 40
0.0
 40
0.0460789331718977
 40
0.0908033506254644
 40
0.1342901697877926
 40
0.1770176620073438
 40
0.2188144224581016
 40
0.2601525809625646
 40
0.3009867807439088
 40
0.3415192683708195
 40
0.3814872745332977
 40
0.4201624942685522
 40
0.4577665571630189
 40
0.4947807484119018
 40
0.5310556470601845
 40
0.5669862605707132
 40
0.602559674478113
 40
0.6380458471959372
 40
0.6747953027942841
 40
0.7134079580996773
 40
0.75445113052699
 40
0.7978230399965941
 40
0.8439953817289204
 40
0.8930756311861634
 40
0.9449654365550478
 40
0.9999999999999999
 40
0.9999999999999999
 40
0.9999999999999999
 40
0.9999999999999999
 10
111.7825854700855
 20
-72.9106720753205
 30
0.0
 10
111.7839176826889
 20
-72.81910276433342
 30
0.0
 10
111.7865429467697
 20
-72.63865587288578
 30
0.0
 10
111.8100871425337
 20
-72.3727115327908
 30
0.0
 10
111.8443739992124
 20
-72.11467738090006
 30
0.0
 10
111.8972138463833
 20
-71.86568641812542
 30
0.0
 10
111.9621422250077
 20
-71.62406226017852
 30
0.0
 10
112.0422803995206
 20
-71.39094896154185
 30
0.0
 10
112.1372644837757
 20
-71.16618808353351
 30
0.0
 10
112.2474190439816
 20
-70.95156484055225
 30
0.0
 10
112.3680337931395
 20
-70.7476011152695
 30
0.0
 10
112.4994633635089
 20
-70.55752858432263
 30
0.0
 10
112.6372076895056
 20
-70.37925161508196
 30
0.0
 10
112.7862905559042
 20
-70.21679768211135
 30
0.0
 10
112.9417759809199
 20
-70.06510792173023
 30
0.0
 10
113.1089522407359
 20
-69.930911305312
 30
0.0
 10
113.2825848480578
 20
-69.80797778267714
 30
0.0
 10
113.4678902308471
 20
-69.70004063448798
 30
0.0
 10
113.6663887500855
 20
-69.60402733311952
 30
0.0
 10
113.8832654688206
 20
-69.52294352440182
 30
0.0
 10
114.1177288486706
 20
-69.45316486651242
 30
0.0
 10
114.3713324908357
 20
-69.39757000738445
 30
0.0
 10
114.6432306034262
 20
-69.35275773006923
 30
0.0
 10
114.9341602405165
 20
-69.32291505427318
 30
0.0
 10
115.2435766169421
 20
-69.30267799590452
 30
0.0
 10
115.4560467600834
 20
-69.30090999819187
 30
0.0
 10
115.5654063167735
 20
-69.30000000000001
 30
0.0
  0
SPLINE
  5
1E2
330
1B
100
AcDbEntity
 67
     1
  8
0
  6
Continuous
 62
     7
370
    25
100
AcDbSpline
210
0.0
220
0.0
230
1.0
 70
     8
 71
     3
 72
    23
 73
    19
 74
     0
 42
0.000000001
 43
0.00000001
 40
0.0
 40
0.0
 40
0.0
 40
0.0
 40
0.0615435260186333
 40
0.1216914490610202
 40
0.1811506168838214
 40
0.2400657121915173
 40
0.2986720767057363
 40
0.3576161787882354
 40
0.4175721950753192
 40
0.47864894749014
 40
0.5403937355314621
 40
0.6023302295747606
 40
0.6651085453793636
 40
0.7285656598540723
 40
0.7936553700861423
 40
0.8605375307382646
 40
0.9292376162628273
 40
1.0
 40
1.0
 40
1.0
 40
1.0
 10
114.0145833333334
 20
-76.44120592948718
 30
0.0
 10
113.9288618033057
 20
-76.40855440389173
 30
0.0
 10
113.759362623138
 20
-76.34399178096756
 30
0.0
 10
113.5181588224223
 20
-76.22201715093544
 30
0.0
 10
113.2903222986131
 20
-76.08437965825556
 30
0.0
 10
113.077652058259
 20
-75.92792375188756
 30
0.0
 10
112.8796794935262
 20
-75.75464875469483
 30
0.0
 10
112.6939136801249
 20
-75.56595659971127
 30
0.0
 10
112.525679249406
 20
-75.35680984138084
 30
0.0
 10
112.3691737474353
 20
-75.13369822903424
 30
0.0
 10
112.2321908263676
 20
-74.894591398358
 30
0.0
 10
112.1113982144953
 20
-74.64427862807642
 30
0.0
 10
112.0082596623281
 20
-74.38324559876723
 30
0.0
 10
111.9277838880797
 20
-74.10958767228895
 30
0.0
 10
111.8612969911876
 20
-73.82593322526856
 30
0.0
 10
111.8166859144398
 20
-73.53013464768142
 30
0.0
 10
111.7870525695557
 20
-73.22391646692424
 30
0.0
 10
111.7840891106037
 20
-73.01611117790985
 30
0.0
 10
111.7825854700855
 20
-72.9106720753205
 30
0.0
  0
SPLINE
  5
1E3
330
1B
100
AcDbEntity
 67
     1
  8
0
  6
Continuous
 62
     7
370
    25
100
AcDbSpline
210
0.0
220
0.0
230
1.0
 70
     8
 71
     3
 72
    15
 73
    11
 74
     0
 42
0.000000001
 43
0.00000001
 40
0.0
 40
0.0
 40
0.0
 40
0.0
 40
0.1642896338889908
 40
0.3174067176726094
 40
0.4588447774378845
 40
0.5887462863853704
 40
0.7078305764569894
 40
0.81576956262074
 40
0.9128796815536468
 40
1.0
 40
1.0
 40
1.0
 40
1.0
 10
116.3653044871795
 20
-76.70833333333334
 30
0.0
 10
116.2351948583316
 20
-76.7073991128314
 30
0.0
 10
115.9838237325179
 20
-76.7055942036835
 30
0.0
 10
115.6205810083929
 20
-76.69408473367301
 30
0.0
 10
115.2849680746842
 20
-76.67393004399706
 30
0.0
 10
114.9771755211316
 20
-76.64400606670077
 30
0.0
 10
114.6967088546498
 20
-76.60808890797958
 30
0.0
 10
114.4440172745973
 20
-76.56241124947894
 30
0.0
 10
114.2186912753197
 20
-76.50869122998094
 30
0.0
 10
114.0801145637483
 20
-76.46287287068135
 30
0.0
 10
114.0145833333334
 20
-76.44120592948718
 30
0.0
  0
SPLINE
  5
209
330
1B
100
AcDbEntity
 67
     1
  8
0
  6
Continuous
 62
     7
370
    25
100
AcDbSpline
210
0.0
220
0.0
230
1.0
 70
     8
 71
     3
 72
    19
 73
    15
 74
     0
 42
0.000000001
 43
0.00000001
 40
0.0
 40
0.0
 40
0.0
 40
0.0
 40
0.0897134540802918
 40
0.1785408138776823
 40
0.2669077215250871
 40
0.3569311822942492
 40
0.4457305340947904
 40
0.5307957532315181
 40
0.6145911610392171
 40
0.6982439584905903
 40
0.7790840380441454
 40
0.8553156624734288
 40
0.9285380867824864
 40
1.0
 40
1.0
 40
1.0
 40
1.0
 10
88.44158653846156
 20
-73.76399572649572
 30
0.0
 10
88.3786117151597
 20
-73.76583397829371
 30
0.0
 10
88.25328406702285
 20
-73.76949232558943
 30
0.0
 10
88.06859856769341
 20
-73.80381675106844
 30
0.0
 10
87.88857287315871
 20
-73.8571258283054
 30
0.0
 10
87.71661337976678
 20
-73.93278842944162
 30
0.0
 10
87.55579775688828
 20
-74.02503931998996
 30
0.0
 10
87.41066166792005
 20
-74.13382893836928
 30
0.0
 10
87.28727878878804
 20
-74.26171212337455
 30
0.0
 10
87.18231135823136
 20
-74.4012706829707
 30
0.0
 10
87.10024168747307
 20
-74.54930859858982
 30
0.0
 10
87.03737503448244
 20
-74.69847630227315
 30
0.0
 10
87.00035212507595
 20
-74.85000248002689
 30
0.0
 10
86.99553945034613
 20
-74.9515366681435
 30
0.0
 10
86.99316239316244
 20
-75.00168603098291
 30
0.0
  0
SPLINE
  5
20A
330
1B
100
AcDbEntity
 67
     1
  8
0
  6
Continuous
 62
     7
370
    25
100
AcDbSpline
210
0.0
220
0.0
230
1.0
 70
     8
 71
     3
 72
    23
 73
    19
 74
     0
 42
0.000000001
 43
0.00000001
 40
0.0
 40
0.0
 40
0.0
 40
0.0
 40
0.0545758228698559
 40
0.1078496662517289
 40
0.162170282677566
 40
0.2174738153155545
 40
0.2744748480432942
 40
0.3348044050001937
 40
0.3980342556721858
 40
0.4652485089082483
 40
0.533409970337744
 40
0.6000340702050734
 40
0.6659259946635429
 40
0.7310251103024028
 40
0.7968392948864145
 40
0.8632618417772352
 40
0.9308161660685802
 40
1.0
 40
1.0
 40
1.0
 40
1.0
 10
89.93750000000003
 20
-74.98684561965813
 30
0.0
 10
89.93599482886826
 20
-74.94816930788569
 30
0.0
 10
89.93302039448179
 20
-74.87173935965659
 30
0.0
 10
89.91149133903784
 20
-74.75842129471003
 30
0.0
 10
89.87549457687868
 20
-74.64851368794434
 30
0.0
 10
89.82613527472536
 20
-74.54099052581878
 30
0.0
 10
89.7627918528218
 20
-74.43612779893371
 30
0.0
 10
89.68591185361116
 20
-74.33352367826004
 30
0.0
 10
89.59215947466228
 20
-74.23589144897709
 30
0.0
 10
89.48862855672951
 20
-74.14046109539578
 30
0.0
 10
89.37553934915832
 20
-74.05253969927703
 30
0.0
 10
89.25670316399341
 20
-73.97400349602125
 30
0.0
 10
89.13125272705705
 20
-73.91139512627862
 30
0.0
 10
89.00294498717285
 20
-73.85650038125688
 30
0.0
 10
88.86906653884687
 20
-73.81532295681129
 30
0.0
 10
88.73054048483331
 20
-73.78565704870088
 30
0.0
 10
88.58751479919336
 20
-73.76730683380096
 30
0.0
 10
88.49061421370284
 20
-73.76510816279036
 30
0.0
 10
88.44158653846156
 20
-73.76399572649572
 30
0.0
  0
SPLINE
  5
20B
330
1B
100
AcDbEntity
 67
     1
  8
0
  6
Continuous
 62
     7
370
    25
100
AcDbSpline
210
0.0
220
0.0
230
1.0
 70
     8
 71
     3
 72
    23
 73
    19
 74
     0
 42
0.000000001
 43
0.00000001
 40
0.0
 40
0.0
 40
0.0
 40
0.0
 40
0.0752210918485142
 40
0.1471653460574316
 40
0.2163831805268164
 40
0.2839411788631233
 40
0.3503014014318414
 40
0.4149720351941577
 40
0.4791814116234592
 40
0.5441840161099428
 40
0.6075579040300341
 40
0.6673235774160188
 40
0.7251676366748984
 40
0.7810285992574743
 40
0.8348905409591411
 40
0.889470799624716
 40
0.9440886027546803
 40
1.0
 40
1.0
 40
1.0
 40
1.0
 10
88.46829927884619
 20
-76.13846153846154
 30
0.0
 10
88.52026696729901
 20
-76.13708711960672
 30
0.0
 10
88.62193848877021
 20
-76.13439815536242
 30
0.0
 10
88.77098707216788
 20
-76.12024151707318
 30
0.0
 10
88.9128367727954
 20
-76.09304883459822
 30
0.0
 10
89.04826328030143
 20
-76.05579522595087
 30
0.0
 10
89.17773051399142
 20
-76.00944427278368
 30
0.0
 10
89.298269558632
 20
-75.94837531232021
 30
0.0
 10
89.4139312151974
 20
-75.88049690845641
 30
0.0
 10
89.52092109595499
 20
-75.80087863121608
 30
0.0
 10
89.61777410337416
 20
-75.71401336941614
 30
0.0
 10
89.70428091351145
 20
-75.62329628458122
 30
0.0
 10
89.77475711563027
 20
-75.52605307941013
 30
0.0
 10
89.83539037639152
 20
-75.42714870114291
 30
0.0
 10
89.88041904173619
 20
-75.3224808438039
 30
0.0
 10
89.91240585258738
 20
-75.21434124257968
 30
0.0
 10
89.93504316778022
 20
-75.10204494858696
 30
0.0
 10
89.93667469100589
 20
-75.02554384313372
 30
0.0
 10
89.93750000000003
 20
-74.98684561965813
 30
0.0
  0
SPLINE
  5
20C
330
1B
100
AcDbEntity
 67
     1
  8
0
  6
Continuous
 62
     7
370
    25
100
AcDbSpline
210
0.0
220
0.0
230
1.0
 70
     8
 71
     3
 72
    23
 73
    19
 74
     0
 42
0.000000001
 43
0.00000001
 40
0.0
 40
0.0
 40
0.0
 40
0.0
 40
0.0508772017638902
 40
0.100983953099029
 40
0.1516948808199744
 40
0.202987904353239
 40
0.2558050578101531
 40
0.3113708367483922
 40
0.3688073676579355
 40
0.4300229441527909
 40
0.4924965631092926
 40
0.5565918828063278
 40
0.6221830862506407
 40
0.690345962523118
 40
0.7615031533044218
 40
0.8364373496861773
 40
0.9155289043647552
 40
1.0
 40
1.0
 40
1.0
 40
1.0
 10
86.99316239316244
 20
-75.00168603098291
 30
0.0
 10
86.99426741926361
 20
-75.03688942130069
 30
0.0
 10
86.99646073768731
 20
-75.10676310525989
 30
0.0
 10
87.01526712688387
 20
-75.2102855667446
 30
0.0
 10
87.04459935165833
 20
-75.31151747058719
 30
0.0
 10
87.0873552150428
 20
-75.40986453670203
 30
0.0
 10
87.13907649948054
 20
-75.50761145761318
 30
0.0
 10
87.20500433785423
 20
-75.60169182220349
 30
0.0
 10
87.28141093971499
 20
-75.69495276485574
 30
0.0
 10
87.36939934629683
 20
-75.78432455383118
 30
0.0
 10
87.46880809660914
 20
-75.86822918916145
 30
0.0
 10
87.58044133212023
 20
-75.94096136480256
 30
0.0
 10
87.70331392555697
 20
-76.00161190716736
 30
0.0
 10
87.83577857667282
 20
-76.05256585753513
 30
0.0
 10
87.97923515286516
 20
-76.09040978449849
 30
0.0
 10
88.1324485236998
 20
-76.11888871282684
 30
0.0
 10
88.29680114327579
 20
-76.13490741361792
 30
0.0
 10
88.40989337381257
 20
-76.13725113534315
 30
0.0
 10
88.46829927884619
 20
-76.13846153846154
 30
0.0
  0
SPLINE
  5
20D
330
1B
100
AcDbEntity
 67
     1
  8
0
  6
Continuous
 62
     7
370
    25
100
AcDbSpline
210
0.0
220
0.0
230
1.0
 70
     8
 71
     3
 72
    23
 73
    19
 74
     0
 42
0.000000001
 43
0.00000001
 40
0.0
 40
0.0
 40
0.0
 40
0.0
 40
0.0687038005706952
 40
0.1347962908936138
 40
0.1995142441893746
 40
0.2633041215944929
 40
0.3264772709956767
 40
0.3895211760195701
 40
0.4533110534246845
 40
0.5183809346577186
 40
0.5830988879534826
 40
0.6450084467181997
 40
0.7047941097687619
 40
0.7635152545248368
 40
0.8218772451793135
 40
0.880018314222167
 40
0.9391148350649494
 40
1.0
 40
1.0
 40
1.0
 40
1.0
 10
99.9607138087607
 20
-76.13846153846154
 30
0.0
 10
100.0171544359874
 20
-76.13682073700785
 30
0.0
 10
100.1278904817765
 20
-76.13360149806893
 30
0.0
 10
100.2909882990465
 20
-76.11460522943935
 30
0.0
 10
100.4474061385878
 20
-76.08019365807193
 30
0.0
 10
100.5975205333935
 20
-76.03210313641841
 30
0.0
 10
100.74255299024
 20
-75.97363169405558
 30
0.0
 10
100.8795798956506
 20
-75.8981718326312
 30
0.0
 10
101.0106828964582
 20
-75.8102909944317
 30
0.0
 10
101.1345828649892
 20
-75.71016331840526
 30
0.0
 10
101.2472792778901
 20
-75.59989254039269
 30
0.0
 10
101.3481177594908
 20
-75.48426108796427
 30
0.0
 10
101.4316294026852
 20
-75.36139484939254
 30
0.0
 10
101.5005532608404
 20
-75.23314559934002
 30
0.0
 10
101.5538856987801
 20
-75.09911117982367
 30
0.0
 10
101.5932355871348
 20
-74.96002378219055
 30
0.0
 10
101.6156651193713
 20
-74.81493668304789
 30
0.0
 10
101.6184557026987
 20
-74.71633071190372
 30
0.0
 10
101.6198717948718
 20
-74.66629273504273
 30
0.0
  0
SPLINE
  5
20E
330
1B
100
AcDbEntity
 67
     1
  8
0
  6
Continuous
 62
     7
370
    25
100
AcDbSpline
210
0.0
220
0.0
230
1.0
 70
     8
 71
     3
 72
    23
 73
    19
 74
     0
 42
0.000000001
 43
0.00000001
 40
0.0
 40
0.0
 40
0.0
 40
0.0
 40
0.0595545584719145
 40
0.1174524894489472
 40
0.1744843092114489
 40
0.2317921668390129
 40
0.2892813024107668
 40
0.3487746791661692
 40
0.4105475713490288
 40
0.4747272014139089
 40
0.539757747642028
 40
0.6041235506948176
 40
0.668392287300376
 40
0.7320428323550239
 40
0.7966882308896738
 40
0.8628712533349657
 40
0.9304441516162831
 40
1.0
 40
1.0
 40
1.0
 40
1.0
 10
101.6198717948718
 20
-74.66629273504275
 30
0.0
 10
101.6185878581678
 20
-74.61623810850999
 30
0.0
 10
101.6160556999914
 20
-74.51752122359716
 30
0.0
 10
101.5916752787966
 20
-74.37246321336968
 30
0.0
 10
101.5507947578577
 20
-74.23346227681652
 30
0.0
 10
101.4965869709969
 20
-74.09933185136896
 30
0.0
 10
101.423838556366
 20
-73.97180723718262
 30
0.0
 10
101.3354281965534
 20
-73.85022716038495
 30
0.0
 10
101.2334177318437
 20
-73.73210608076229
 30
0.0
 10
101.1144640537702
 20
-73.62407359258188
 30
0.0
 10
100.9867283739321
 20
-73.52322727059433
 30
0.0
 10
100.8495266493606
 20
-73.43527706171984
 30
0.0
 10
100.7056160208514
 20
-73.36152810893371
 30
0.0
 10
100.5559204942917
 20
-73.29968042880988
 30
0.0
 10
100.3993199421684
 20
-73.25236176914797
 30
0.0
 10
100.2360324320892
 20
-73.21796277369498
 30
0.0
 10
100.0660285552563
 20
-73.19905872302463
 30
0.0
 10
99.9508632454784
 20
-73.19578464369776
 30
0.0
 10
99.89244791666668
 20
-73.19412393162393
 30
0.0
  0
SPLINE
  5
20F
330
1B
100
AcDbEntity
 67
     1
  8
0
  6
Continuous
 62
     7
370
    25
100
AcDbSpline
210
0.0
220
0.0
230
1.0
 70
     8
 71
     3
 72
    23
 73
    19
 74
     0
 42
0.000000001
 43
0.00000001
 40
0.0
 40
0.0
 40
0.0
 40
0.0
 40
0.072732919898767
 40
0.1415862688361219
 40
0.2084196140601597
 40
0.2725362381327682
 40
0.3357213363127401
 40
0.3980597494831407
 40
0.459748723832648
 40
0.5224807065591089
 40
0.5842663248129304
 40
0.6448451240948517
 40
0.703814355238724
 40
0.7614435286618453
 40
0.8199811634634951
 40
0.8784837505557668
 40
0.9382475860283632
 40
1.0
 40
1.0
 40
1.0
 40
1.0
 10
99.89244791666668
 20
-73.19412393162393
 30
0.0
 10
99.83353400151232
 20
-73.19573674508428
 30
0.0
 10
99.71884863701925
 20
-73.19887634460119
 30
0.0
 10
99.55081373301205
 20
-73.2178996600617
 30
0.0
 10
99.39229481258516
 20
-73.25187776950665
 30
0.0
 10
99.24227163593875
 20
-73.2998596050648
 30
0.0
 10
99.10092582294229
 20
-73.36064301064424
 30
0.0
 10
98.96821285089027
 20
-73.43471753898108
 30
0.0
 10
98.84548832416759
 20
-73.52370601009717
 30
0.0
 10
98.73231532300095
 20
-73.62373083094879
 30
0.0
 10
98.62960738166532
 20
-73.73335406268711
 30
0.0
 10
98.54104946542542
 20
-73.85080517432978
 30
0.0
 10
98.46437433547872
 20
-73.97243536713499
 30
0.0
 10
98.40320472504216
 20
-74.10073458813935
 30
0.0
 10
98.35390827872695
 20
-74.23360400800598
 30
0.0
 10
98.31951094175797
 20
-74.37296517596823
 30
0.0
 10
98.3005128204249
 20
-74.5178558860834
 30
0.0
 10
98.29726841016856
 20
-74.61627690814284
 30
0.0
 10
98.2956196581197
 20
-74.66629273504275
 30
0.0
  0
SPLINE
  5
210
330
1B
100
AcDbEntity
 67
     1
  8
0
  6
Continuous
 62
     7
370
    25
100
AcDbSpline
210
0.0
220
0.0
230
1.0
 70
     8
 71
     3
 72
    23
 73
    19
 74
     0
 42
0.000000001
 43
0.00000001
 40
0.0
 40
0.0
 40
0.0
 40
0.0
 40
0.060737713727929
 40
0.1196911150875952
 40
0.1776913785528859
 40
0.2359120286036037
 40
0.2944909629593745
 40
0.3541318375677151
 40
0.4155017912396704
 40
0.4800630111120083
 40
0.5449753066253515
 40
0.6091104491866507
 40
0.6725300499627306
 40
0.7355502071342506
 40
0.7991855987227411
 40
0.8643336623498572
 40
0.9308625296481249
 40
1.0
 40
1.0
 40
1.0
 40
1.0
 10
98.29561965811969
 20
-74.66629273504273
 30
0.0
 10
98.29703562222454
 20
-74.7163308218296
 30
0.0
 10
98.2998259531776
 20
-74.81493700959619
 30
0.0
 10
98.32225732574628
 20
-74.96002252911202
 30
0.0
 10
98.36160036446715
 20
-75.09911580604532
 30
0.0
 10
98.41495846406752
 20
-75.2331281991861
 30
0.0
 10
98.48378529643324
 20
-75.36146073015004
 30
0.0
 10
98.56748864389877
 20
-75.4837412075024
 30
0.0
 10
98.6666095854437
 20
-75.60041947093875
 30
0.0
 10
98.77955322593849
 20
-75.7100335779183
 30
0.0
 10
98.90348901686508
 20
-75.81075762192617
 30
0.0
 10
99.03597243727403
 20
-75.89817006924574
 30
0.0
 10
99.17409885935028
 20
-75.97330424984743
 30
0.0
 10
99.31943786599732
 20
-76.03212689081172
 30
0.0
 10
99.47001696373489
 20
-76.08041334505072
 30
0.0
 10
99.62749231970308
 20
-76.11457206127595
 30
0.0
 10
99.79205506521936
 20
-76.13360812130972
 30
0.0
 10
99.90377815412161
 20
-76.13682312661894
 30
0.0
 10
99.9607138087607
 20
-76.13846153846154
 30
0.0
  0
LINE
  5
22A
330
1B
100
AcDbEntity
 67
     1
  8
0
  6
Continuous
 62
     7
370
    25
100
AcDbLine
 10
116.6754690839
 20
-75.9485042735
 30
0.0
 11
117.1963675214
 21
-75.9485042735
 31
0.0
  0
LINE
  5
22B
330
1B
100
AcDbEntity
 67
     1
  8
0
  6
Continuous
 62
     7
370
    25
100
AcDbLine
 10
117.1963675214
 20
-70.0598290598
 30
0.0
 11
116.3460119525
 21
-70.0598290598
 31
0.0
  0
LINE
  5
22C
330
1B
100
AcDbEntity
 67
     1
  8
0
  6
Continuous
 62
     7
370
    25
100
AcDbLine
 10
117.1963675214
 20
-75.9485042735
 30
0.0
 11
117.1963675214
 21
-70.0598290598
 31
0.0
  0
LINE
  5
22D
330
1B
100
AcDbEntity
 67
     1
  8
0
  6
Continuous
 62
     7
370
    25
100
AcDbLine
 10
163.5
 20
-51.3
 30
0.0
 11
145.5
 21
-69.3
 31
0.0
  0
LINE
  5
22E
330
1B
100
AcDbEntity
 67
     1
  8
0
  6
Continuous
 62
     7
370
    25
100
AcDbLine
 10
163.5
 20
28.0
 30
0.0
 11
163.5
 21
-51.3
 31
0.0
  0
LINE
  5
22F
330
1B
100
AcDbEntity
 67
     1
  8
0
  6
Continuous
 62
     7
370
    25
100
AcDbLine
 10
167.5
 20
32.0
 30
0.0
 11
179.95
 21
32.0
 31
0.0
  0
LINE
  5
230
330
1B
100
AcDbEntity
 67
     1
  8
0
  6
Continuous
 62
     7
370
    25
100
AcDbLine
 10
179.95
 20
-15.0
 30
0.0
 11
179.95
 21
32.0
 31
0.0
  0
LINE
  5
231
330
1B
100
AcDbEntity
 67
     1
  8
0
  6
Continuous
 62
     7
370
    25
100
AcDbLine
 10
185.05
 20
-15.0
 30
0.0
 11
179.95
 21
-15.0
 31
0.0
  0
LINE
  5
232
330
1B
100
AcDbEntity
 67
     1
  8
0
  6
Continuous
 62
     7
370
    25
100
AcDbLine
 10
185.05
 20
32.0
 30
0.0
 11
185.05
 21
-15.0
 31
0.0
  0
LINE
  5
233
330
1B
100
AcDbEntity
 67
     1
  8
0
  6
Continuous
 62
     7
370
    25
100
AcDbLine
 10
185.05
 20
32.0
 30
0.0
 11
194.5
 21
32.0
 31
0.0
  0
LINE
  5
234
330
1B
100
AcDbEntity
 67
     1
  8
0
  6
Continuous
 62
     7
370
    25
100
AcDbLine
 10
198.5
 20
-100.3
 30
0.0
 11
198.5
 21
28.0
 31
0.0
  0
LINE
  5
235
330
1B
100
AcDbEntity
 67
     1
  8
0
  6
Continuous
 62
     7
370
    25
100
AcDbLine
 10
-194.5
 20
-104.3
 30
0.0
 11
194.5
 21
-104.3
 31
0.0
  0
LINE
  5
236
330
1B
100
AcDbEntity
 67
     1
  8
0
  6
Continuous
 62
     7
370
    25
100
AcDbLine
 10
-198.5
 20
28.0
 30
0.0
 11
-198.5
 21
-100.3
 31
0.0
  0
LINE
  5
237
330
1B
100
AcDbEntity
 67
     1
  8
0
  6
Continuous
 62
     7
370
    25
100
AcDbLine
 10
-194.5
 20
32.0
 30
0.0
 11
-185.05
 21
32.0
 31
0.0
  0
LINE
  5
238
330
1B
100
AcDbEntity
 67
     1
  8
0
  6
Continuous
 62
     7
370
    25
100
AcDbLine
 10
-185.05
 20
-15.0
 30
0.0
 11
-185.05
 21
32.0
 31
0.0
  0
LINE
  5
239
330
1B
100
AcDbEntity
 67
     1
  8
0
  6
Continuous
 62
     7
370
    25
100
AcDbLine
 10
-179.95
 20
-15.0
 30
0.0
 11
-185.05
 21
-15.0
 31
0.0
  0
LINE
  5
23A
330
1B
100
AcDbEntity
 67
     1
  8
0
  6
Continuous
 62
     7
370
    25
100
AcDbLine
 10
-179.95
 20
32.0
 30
0.0
 11
-179.95
 21
-15.0
 31
0.0
  0
LINE
  5
23B
330
1B
100
AcDbEntity
 67
     1
  8
0
  6
Continuous
 62
     7
370
    25
100
AcDbLine
 10
-179.95
 20
32.0
 30
0.0
 11
-167.5
 21
32.0
 31
0.0
  0
LINE
  5
23C
330
1B
100
AcDbEntity
 67
     1
  8
0
  6
Continuous
 62
     7
370
    25
100
AcDbLine
 10
-163.5
 20
-51.3
 30
0.0
 11
-163.5
 21
28.0
 31
0.0
  0
LINE
  5
23D
330
1B
100
AcDbEntity
 67
     1
  8
0
  6
Continuous
 62
     7
370
    25
100
AcDbLine
 10
-145.5
 20
-69.3
 30
0.0
 11
-163.5
 21
-51.3
 31
0.0
  0
LINE
  5
23E
330
1B
100
AcDbEntity
 67
     1
  8
0
  6
Continuous
 62
     7
370
    25
100
AcDbLine
 10
-74.5
 20
-69.3
 30
0.0
 11
-145.5
 21
-69.3
 31
0.0
  0
LINE
  5
23F
330
1B
100
AcDbEntity
 67
     1
  8
0
  6
Continuous
 62
     7
370
    25
100
AcDbLine
 10
-56.5
 20
-51.3
 30
0.0
 11
-74.5
 21
-69.3
 31
0.0
  0
LINE
  5
240
330
1B
100
AcDbEntity
 67
     1
  8
0
  6
Continuous
 62
     7
370
    25
100
AcDbLine
 10
-53.5
 20
-51.3
 30
0.0
 11
-56.5
 21
-51.3
 31
0.0
  0
LINE
  5
241
330
1B
100
AcDbEntity
 67
     1
  8
0
  6
Continuous
 62
     7
370
    25
100
AcDbLine
 10
-35.5
 20
-69.3
 30
0.0
 11
-53.5
 21
-51.3
 31
0.0
  0
LINE
  5
242
330
1B
100
AcDbEntity
 67
     1
  8
0
  6
Continuous
 62
     7
370
    25
100
AcDbLine
 10
35.5
 20
-69.3
 30
0.0
 11
-35.5
 21
-69.3
 31
0.0
  0
LINE
  5
243
330
1B
100
AcDbEntity
 67
     1
  8
0
  6
Continuous
 62
     7
370
    25
100
AcDbLine
 10
53.5
 20
-51.3
 30
0.0
 11
35.5
 21
-69.3
 31
0.0
  0
LINE
  5
244
330
1B
100
AcDbEntity
 67
     1
  8
0
  6
Continuous
 62
     7
370
    25
100
AcDbLine
 10
56.5
 20
-51.3
 30
0.0
 11
53.5
 21
-51.3
 31
0.0
  0
LINE
  5
245
330
1B
100
AcDbEntity
 67
     1
  8
0
  6
Continuous
 62
     7
370
    25
100
AcDbLine
 10
74.5
 20
-69.3
 30
0.0
 11
56.5
 21
-51.3
 31
0.0
  0
LINE
  5
246
330
1B
100
AcDbEntity
 67
     1
  8
0
  6
Continuous
 62
     7
370
    25
100
AcDbLine
 10
80.2496794872
 20
-70.0598290598
 30
0.0
 11
80.2496794872
 21
-69.3
 31
0.0
  0
LINE
  5
247
330
1B
100
AcDbEntity
 67
     1
  8
0
  6
Continuous
 62
     7
370
    25
100
AcDbLine
 10
83.6971070379
 20
-70.0598290598
 30
0.0
 11
80.2496794872
 21
-70.0598290598
 31
0.0
  0
LINE
  5
248
330
1B
100
AcDbEntity
 67
     1
  8
0
  6
Continuous
 62
     7
370
    25
100
AcDbLine
 10
81.8435396635
 20
-72.0380558894
 30
0.0
 11
83.6971070379
 21
-70.0598290598
 31
0.0
  0
LINE
  5
249
330
1B
100
AcDbEntity
 67
     1
  8
0
  6
Continuous
 62
     7
370
    25
100
AcDbLine
 10
84.3337606838
 20
-74.4288461538
 30
0.0
 11
84.9986111111
 21
-74.4288461538
 31
0.0
  0
LINE
  5
24A
330
1B
100
AcDbEntity
 67
     1
  8
0
  6
Continuous
 62
     7
370
    25
100
AcDbLine
 10
85.2835470085
 20
-69.3
 30
0.0
 11
82.4104433761
 21
-72.3660289797
 31
0.0
  0
LINE
  5
24B
330
1B
100
AcDbEntity
 67
     1
  8
0
  6
Continuous
 62
     7
370
    25
100
AcDbLine
 10
92.5019230769
 20
-71.0096153846
 30
0.0
 11
92.5019230769
 21
-69.3
 31
0.0
  0
LINE
  5
24C
330
1B
100
AcDbEntity
 67
     1
  8
0
  6
Continuous
 62
     7
370
    25
100
AcDbLine
 10
91.6471153846
 20
-71.0096153846
 30
0.0
 11
92.5019230769
 21
-71.0096153846
 31
0.0
  0
LINE
  5
24D
330
1B
100
AcDbEntity
 67
     1
  8
0
  6
Continuous
 62
     7
370
    25
100
AcDbLine
 10
91.6471153846
 20
-71.7694444444
 30
0.0
 11
91.6471153846
 21
-71.0096153846
 31
0.0
  0
LINE
  5
24E
330
1B
100
AcDbEntity
 67
     1
  8
0
  6
Continuous
 62
     7
370
    25
100
AcDbLine
 10
92.5019230769
 20
-71.7694444444
 30
0.0
 11
91.6471153846
 21
-71.7694444444
 31
0.0
  0
LINE
  5
24F
330
1B
100
AcDbEntity
 67
     1
  8
0
  6
Continuous
 62
     7
370
    25
100
AcDbLine
 10
92.5019230769
 20
-76.8982905983
 30
0.0
 11
92.5019230769
 21
-71.7694444444
 31
0.0
  0
LINE
  5
250
330
1B
100
AcDbEntity
 67
     1
  8
0
  6
Continuous
 62
     7
370
    25
100
AcDbLine
 10
92.63697082
 20
-76.8982905983
 30
0.0
 11
92.5019230769
 21
-76.8982905983
 31
0.0
  0
LINE
  5
251
330
1B
100
AcDbEntity
 67
     1
  8
0
  6
Continuous
 62
     7
370
    25
100
AcDbLine
 10
96.680982906
 20
-71.0096153846
 30
0.0
 11
92.63697082
 21
-76.8982905983
 31
0.0
  0
LINE
  5
252
330
1B
100
AcDbEntity
 67
     1
  8
0
  6
Continuous
 62
     7
370
    25
100
AcDbLine
 10
93.1667735043
 20
-71.0096153846
 30
0.0
 11
96.680982906
 21
-71.0096153846
 31
0.0
  0
LINE
  5
253
330
1B
100
AcDbEntity
 67
     1
  8
0
  6
Continuous
 62
     7
370
    25
100
AcDbLine
 10
93.1667735043
 20
-69.3
 30
0.0
 11
93.1667735043
 21
-71.0096153846
 31
0.0
  0
LINE
  5
254
330
1B
100
AcDbEntity
 67
     1
  8
0
  6
Continuous
 62
     7
370
    25
100
AcDbLine
 10
98.4840928819
 20
-72.4461672009
 30
0.0
 11
100.6351867377
 21
-69.3
 31
0.0
  0
LINE
  5
255
330
1B
100
AcDbEntity
 67
     1
  8
0
  6
Continuous
 62
     7
370
    25
100
AcDbLine
 10
101.296350828
 20
-69.479568977
 30
0.0
 11
99.2365017361
 21
-72.4906884348
 31
0.0
  0
LINE
  5
256
330
1B
100
AcDbEntity
 67
     1
  8
0
  6
Continuous
 62
     7
370
    25
100
AcDbLine
 10
101.296350828
 20
-69.479568977
 30
0.0
 11
101.038175351
 21
-69.3
 31
0.0
  0
LINE
  5
257
330
1B
100
AcDbEntity
 67
     1
  8
0
  6
Continuous
 62
     7
370
    25
100
AcDbLine
 10
103.8993589744
 20
-71.0096153846
 30
0.0
 11
103.8993589744
 21
-69.3
 31
0.0
  0
LINE
  5
258
330
1B
100
AcDbEntity
 67
     1
  8
0
  6
Continuous
 62
     7
370
    25
100
AcDbLine
 10
103.0445512821
 20
-71.0096153846
 30
0.0
 11
103.8993589744
 21
-71.0096153846
 31
0.0
  0
LINE
  5
259
330
1B
100
AcDbEntity
 67
     1
  8
0
  6
Continuous
 62
     7
370
    25
100
AcDbLine
 10
103.0445512821
 20
-71.7694444444
 30
0.0
 11
103.0445512821
 21
-71.0096153846
 31
0.0
  0
LINE
  5
25A
330
1B
100
AcDbEntity
 67
     1
  8
0
  6
Continuous
 62
     7
370
    25
100
AcDbLine
 10
103.8993589744
 20
-71.7694444444
 30
0.0
 11
103.0445512821
 21
-71.7694444444
 31
0.0
  0
LINE
  5
25B
330
1B
100
AcDbEntity
 67
     1
  8
0
  6
Continuous
 62
     7
370
    25
100
AcDbLine
 10
103.8993589744
 20
-76.8982905983
 30
0.0
 11
103.8993589744
 21
-71.7694444444
 31
0.0
  0
LINE
  5
25C
330
1B
100
AcDbEntity
 67
     1
  8
0
  6
Continuous
 62
     7
370
    25
100
AcDbLine
 10
104.0344067174
 20
-76.8982905983
 30
0.0
 11
103.8993589744
 21
-76.8982905983
 31
0.0
  0
LINE
  5
25D
330
1B
100
AcDbEntity
 67
     1
  8
0
  6
Continuous
 62
     7
370
    25
100
AcDbLine
 10
108.0784188034
 20
-71.0096153846
 30
0.0
 11
104.0344067174
 21
-76.8982905983
 31
0.0
  0
LINE
  5
25E
330
1B
100
AcDbEntity
 67
     1
  8
0
  6
Continuous
 62
     7
370
    25
100
AcDbLine
 10
104.5642094017
 20
-71.0096153846
 30
0.0
 11
108.0784188034
 21
-71.0096153846
 31
0.0
  0
LINE
  5
25F
330
1B
100
AcDbEntity
 67
     1
  8
0
  6
Continuous
 62
     7
370
    25
100
AcDbLine
 10
104.5642094017
 20
-69.3
 30
0.0
 11
104.5642094017
 21
-71.0096153846
 31
0.0
  0
LINE
  5
260
330
1B
100
AcDbEntity
 67
     1
  8
0
  6
Continuous
 62
     7
370
    25
100
AcDbLine
 10
117.8612179487
 20
-76.7083333333
 30
0.0
 11
116.3653044872
 21
-76.7083333333
 31
0.0
  0
LINE
  5
261
330
1B
100
AcDbEntity
 67
     1
  8
0
  6
Continuous
 62
     7
370
    25
100
AcDbLine
 10
117.8612179487
 20
-69.3
 30
0.0
 11
117.8612179487
 21
-76.7083333333
 31
0.0
  0
LINE
  5
262
330
1B
100
AcDbEntity
 67
     1
  8
0
  6
Continuous
 62
     7
370
    25
100
AcDbLine
 10
119.4758547009
 20
-76.7083333333
 30
0.0
 11
119.4758547009
 21
-69.3
 31
0.0
  0
LINE
  5
263
330
1B
100
AcDbEntity
 67
     1
  8
0
  6
Continuous
 62
     7
370
    25
100
AcDbLine
 10
120.1407051282
 20
-76.7083333333
 30
0.0
 11
119.4758547009
 21
-76.7083333333
 31
0.0
  0
LINE
  5
264
330
1B
100
AcDbEntity
 67
     1
  8
0
  6
Continuous
 62
     7
370
    25
100
AcDbLine
 10
120.1407051282
 20
-69.3
 30
0.0
 11
120.1407051282
 21
-76.7083333333
 31
0.0
  0
LINE
  5
265
330
1B
100
AcDbEntity
 67
     1
  8
0
  6
Continuous
 62
     7
370
    25
100
AcDbLine
 10
125.4936414931
 20
-76.7083333333
 30
0.0
 11
124.5097222222
 21
-69.3
 31
0.0
  0
LINE
  5
266
330
1B
100
AcDbEntity
 67
     1
  8
0
  6
Continuous
 62
     7
370
    25
100
AcDbLine
 10
125.5901041667
 20
-76.7083333333
 30
0.0
 11
125.4936414931
 21
-76.7083333333
 31
0.0
  0
LINE
  5
267
330
1B
100
AcDbEntity
 67
     1
  8
0
  6
Continuous
 62
     7
370
    25
100
AcDbLine
 10
128.641292735
 20
-70.6297008547
 30
0.0
 11
125.5901041667
 21
-76.7083333333
 31
0.0
  0
LINE
  5
268
330
1B
100
AcDbEntity
 67
     1
  8
0
  6
Continuous
 62
     7
370
    25
100
AcDbLine
 10
131.6999015091
 20
-76.7083333333
 30
0.0
 11
128.641292735
 21
-70.6297008547
 31
0.0
  0
LINE
  5
269
330
1B
100
AcDbEntity
 67
     1
  8
0
  6
Continuous
 62
     7
370
    25
100
AcDbLine
 10
131.7948801416
 20
-76.7083333333
 30
0.0
 11
131.6999015091
 21
-76.7083333333
 31
0.0
  0
LINE
  5
26A
330
1B
100
AcDbEntity
 67
     1
  8
0
  6
Continuous
 62
     7
370
    25
100
AcDbLine
 10
132.7728632479
 20
-69.3
 30
0.0
 11
131.7948801416
 21
-76.7083333333
 31
0.0
  0
LINE
  5
26B
330
1B
100
AcDbEntity
 67
     1
  8
0
  6
Continuous
 62
     7
370
    25
100
AcDbLine
 10
133.7226495726
 20
-70.0598290598
 30
0.0
 11
133.7226495726
 21
-69.3
 31
0.0
  0
LINE
  5
26C
330
1B
100
AcDbEntity
 67
     1
  8
0
  6
Continuous
 62
     7
370
    25
100
AcDbLine
 10
137.2368589744
 20
-70.0598290598
 30
0.0
 11
133.7226495726
 21
-70.0598290598
 31
0.0
  0
LINE
  5
26D
330
1B
100
AcDbEntity
 67
     1
  8
0
  6
Continuous
 62
     7
370
    25
100
AcDbLine
 10
137.2368589744
 20
-72.9091880342
 30
0.0
 11
137.2368589744
 21
-70.0598290598
 31
0.0
  0
LINE
  5
26E
330
1B
100
AcDbEntity
 67
     1
  8
0
  6
Continuous
 62
     7
370
    25
100
AcDbLine
 10
133.7226495726
 20
-72.9091880342
 30
0.0
 11
137.2368589744
 21
-72.9091880342
 31
0.0
  0
LINE
  5
26F
330
1B
100
AcDbEntity
 67
     1
  8
0
  6
Continuous
 62
     7
370
    25
100
AcDbLine
 10
133.7226495726
 20
-73.669017094
 30
0.0
 11
133.7226495726
 21
-72.9091880342
 31
0.0
  0
LINE
  5
270
330
1B
100
AcDbEntity
 67
     1
  8
0
  6
Continuous
 62
     7
370
    25
100
AcDbLine
 10
137.2368589744
 20
-73.669017094
 30
0.0
 11
133.7226495726
 21
-73.669017094
 31
0.0
  0
LINE
  5
271
330
1B
100
AcDbEntity
 67
     1
  8
0
  6
Continuous
 62
     7
370
    25
100
AcDbLine
 10
137.2368589744
 20
-75.9485042735
 30
0.0
 11
137.2368589744
 21
-73.669017094
 31
0.0
  0
LINE
  5
272
330
1B
100
AcDbEntity
 67
     1
  8
0
  6
Continuous
 62
     7
370
    25
100
AcDbLine
 10
133.7226495726
 20
-75.9485042735
 30
0.0
 11
137.2368589744
 21
-75.9485042735
 31
0.0
  0
LINE
  5
273
330
1B
100
AcDbEntity
 67
     1
  8
0
  6
Continuous
 62
     7
370
    25
100
AcDbLine
 10
133.7226495726
 20
-76.7083333333
 30
0.0
 11
133.7226495726
 21
-75.9485042735
 31
0.0
  0
LINE
  5
274
330
1B
100
AcDbEntity
 67
     1
  8
0
  6
Continuous
 62
     7
370
    25
100
AcDbLine
 10
137.9017094017
 20
-76.7083333333
 30
0.0
 11
133.7226495726
 21
-76.7083333333
 31
0.0
  0
LINE
  5
275
330
1B
100
AcDbEntity
 67
     1
  8
0
  6
Continuous
 62
     7
370
    25
100
AcDbLine
 10
137.9017094017
 20
-69.3
 30
0.0
 11
137.9017094017
 21
-76.7083333333
 31
0.0
  0
LINE
  5
276
330
1B
100
AcDbEntity
 67
     1
  8
0
  6
Continuous
 62
     7
370
    25
100
AcDbLine
 10
140.8460470085
 20
-75.9485042735
 30
0.0
 11
140.8460470085
 21
-69.3
 31
0.0
  0
LINE
  5
277
330
1B
100
AcDbEntity
 67
     1
  8
0
  6
Continuous
 62
     7
370
    25
100
AcDbLine
 10
139.2314102564
 20
-75.9485042735
 30
0.0
 11
140.8460470085
 21
-75.9485042735
 31
0.0
  0
LINE
  5
278
330
1B
100
AcDbEntity
 67
     1
  8
0
  6
Continuous
 62
     7
370
    25
100
AcDbLine
 10
139.2314102564
 20
-76.7083333333
 30
0.0
 11
139.2314102564
 21
-75.9485042735
 31
0.0
  0
LINE
  5
279
330
1B
100
AcDbEntity
 67
     1
  8
0
  6
Continuous
 62
     7
370
    25
100
AcDbLine
 10
143.125534188
 20
-76.7083333333
 30
0.0
 11
139.2314102564
 21
-76.7083333333
 31
0.0
  0
LINE
  5
27A
330
1B
100
AcDbEntity
 67
     1
  8
0
  6
Continuous
 62
     7
370
    25
100
AcDbLine
 10
143.125534188
 20
-75.9485042735
 30
0.0
 11
143.125534188
 21
-76.7083333333
 31
0.0
  0
LINE
  5
27B
330
1B
100
AcDbEntity
 67
     1
  8
0
  6
Continuous
 62
     7
370
    25
100
AcDbLine
 10
141.5108974359
 20
-75.9485042735
 30
0.0
 11
143.125534188
 21
-75.9485042735
 31
0.0
  0
LINE
  5
27C
330
1B
100
AcDbEntity
 67
     1
  8
0
  6
Continuous
 62
     7
370
    25
100
AcDbLine
 10
141.5108974359
 20
-69.3
 30
0.0
 11
141.5108974359
 21
-75.9485042735
 31
0.0
  0
LINE
  5
27D
330
1B
100
AcDbEntity
 67
     1
  8
0
  6
Continuous
 62
     7
370
    25
100
AcDbLine
 10
143.8853632479
 20
-76.7083333333
 30
0.0
 11
143.8853632479
 21
-69.3
 31
0.0
  0
LINE
  5
27E
330
1B
100
AcDbEntity
 67
     1
  8
0
  6
Continuous
 62
     7
370
    25
100
AcDbLine
 10
144.5502136752
 20
-76.7083333333
 30
0.0
 11
143.8853632479
 21
-76.7083333333
 31
0.0
  0
LINE
  5
27F
330
1B
100
AcDbEntity
 67
     1
  8
0
  6
Continuous
 62
     7
370
    25
100
AcDbLine
 10
144.5502136752
 20
-69.3
 30
0.0
 11
144.5502136752
 21
-76.7083333333
 31
0.0
  0
LINE
  5
280
330
1B
100
AcDbEntity
 67
     1
  8
0
  6
Continuous
 62
     7
370
    25
100
AcDbLine
 10
125.8869123932
 20
-74.6306757479
 30
0.0
 11
128.5611545139
 21
-69.3
 31
0.0
  0
LINE
  5
281
330
1B
100
AcDbEntity
 67
     1
  8
0
  6
Continuous
 62
     7
370
    25
100
AcDbLine
 10
125.1775407318
 20
-69.3
 30
0.0
 11
125.8869123932
 21
-74.6306757479
 31
0.0
  0
LINE
  5
282
330
1B
100
AcDbEntity
 67
     1
  8
0
  6
Continuous
 62
     7
370
    25
100
AcDbLine
 10
104.5642094017
 20
-74.9868456197
 30
0.0
 11
106.7724626068
 21
-71.7694444444
 31
0.0
  0
LINE
  5
283
330
1B
100
AcDbEntity
 67
     1
  8
0
  6
Continuous
 62
     7
370
    25
100
AcDbLine
 10
104.5642094017
 20
-71.7694444444
 30
0.0
 11
104.5642094017
 21
-74.9868456197
 31
0.0
  0
LINE
  5
284
330
1B
100
AcDbEntity
 67
     1
  8
0
  6
Continuous
 62
     7
370
    25
100
AcDbLine
 10
106.7724626068
 20
-71.7694444444
 30
0.0
 11
104.5642094017
 21
-71.7694444444
 31
0.0
  0
LINE
  5
285
330
1B
100
AcDbEntity
 67
     1
  8
0
  6
Continuous
 62
     7
370
    25
100
AcDbLine
 10
131.3956730769
 20
-74.6425480769
 30
0.0
 11
132.1035606971
 21
-69.3
 31
0.0
  0
LINE
  5
286
330
1B
100
AcDbEntity
 67
     1
  8
0
  6
Continuous
 62
     7
370
    25
100
AcDbLine
 10
128.7110426683
 20
-69.3
 30
0.0
 11
131.3956730769
 21
-74.6425480769
 31
0.0
  0
LINE
  5
287
330
1B
100
AcDbEntity
 67
     1
  8
0
  6
Continuous
 62
     7
370
    25
100
AcDbLine
 10
145.5
 20
-69.3
 30
0.0
 11
74.5
 21
-69.3
 31
0.0
  0
LINE
  5
288
330
1B
100
AcDbEntity
 67
     1
  8
0
  6
Continuous
 62
     7
370
    25
100
AcDbLine
 10
95.3750267094
 20
-71.7694444444
 30
0.0
 11
93.1667735043
 21
-71.7694444444
 31
0.0
  0
LINE
  5
289
330
1B
100
AcDbEntity
 67
     1
  8
0
  6
Continuous
 62
     7
370
    25
100
AcDbLine
 10
93.1667735043
 20
-71.7694444444
 30
0.0
 11
93.1667735043
 21
-74.9868456197
 31
0.0
  0
LINE
  5
28A
330
1B
100
AcDbEntity
 67
     1
  8
0
  6
Continuous
 62
     7
370
    25
100
AcDbLine
 10
93.1667735043
 20
-74.9868456197
 30
0.0
 11
95.3750267094
 21
-71.7694444444
 31
0.0
  0
ARC
  5
28B
330
1B
100
AcDbEntity
 67
     1
  8
0
  6
Continuous
 62
     7
370
    25
100
AcDbCircle
 10
167.5
 20
28.0
 30
0.0
 40
4.000000000000028
100
AcDbArc
 50
90.0
 51
180.0
  0
ARC
  5
28C
330
1B
100
AcDbEntity
 67
     1
  8
0
  6
Continuous
 62
     7
370
    25
100
AcDbCircle
 10
194.5
 20
28.0
 30
0.0
 40
3.999999999999979
100
AcDbArc
 50
0.0
 51
90.0
  0
ARC
  5
28D
330
1B
100
AcDbEntity
 67
     1
  8
0
  6
Continuous
 62
     7
370
    25
100
AcDbCircle
 10
194.5
 20
-100.3
 30
0.0
 40
4.0
100
AcDbArc
 50
270.0
 51
0.0
  0
ARC
  5
28E
330
1B
100
AcDbEntity
 67
     1
  8
0
  6
Continuous
 62
     7
370
    25
100
AcDbCircle
 10
-194.5
 20
-100.3
 30
0.0
 40
4.0
100
AcDbArc
 50
180.0
 51
270.0
  0
ARC
  5
28F
330
1B
100
AcDbEntity
 67
     1
  8
0
  6
Continuous
 62
     7
370
    25
100
AcDbCircle
 10
-194.5
 20
28.0
 30
0.0
 40
4.000000000000032
100
AcDbArc
 50
90.0
 51
180.0
  0
ARC
  5
290
330
1B
100
AcDbEntity
 67
     1
  8
0
  6
Continuous
 62
     7
370
    25
100
AcDbCircle
 10
-167.5
 20
28.0
 30
0.0
 40
4.000000000000032
100
AcDbArc
 50
0.0
 51
90.0
  0
VIEWPORT
  5
3B0
330
1B
100
AcDbEntity
 67
     1
  8
0
100
AcDbViewport
 10
0.0
 20
0.0
 30
0.0
 40
205.6
 41
156.0
 68
     1
 69
     1
 12
0.0
 22
-36.15
 13
0.0
 23
0.0
 14
10.0
 24
10.0
 15
10.0
 25
10.0
 16
0.0
 26
0.0
 36
1.0
 17
0.0
 27
0.0
 37
0.0
 42
50.0
 43
0.0
 44
0.0
 45
307.2501945525
 50
0.0
 51
0.0
 72
   100
 90
   557152
  1

281
     0
 71
     1
 74
     0
110
0.0
120
0.0
130
0.0
111
1.0
121
0.0
131
0.0
112
0.0
122
1.0
132
0.0
 79
     0
146
0.0
  0
ENDSEC
  0
SECTION
  2
OBJECTS
  0
DICTIONARY
  5
C
330
0
100
AcDbDictionary
281
     1
  3
ACAD_GROUP
350
D
  3
ACAD_LAYOUT
350
1A
  3
ACAD_MLINESTYLE
350
17
  3
ACAD_PLOTSETTINGS
350
19
  3
ACAD_PLOTSTYLENAME
350
E
  3
ACAD_SCALELIST
350
47
  0
DICTIONARY
  5
D
102
{ACAD_REACTORS
330
C
102
}
330
C
100
AcDbDictionary
281
     1
  0
DICTIONARY
  5
1A
102
{ACAD_REACTORS
330
C
102
}
330
C
100
AcDbDictionary
281
     1
  3
_Back
350
36D
  3
_Front
350
1E
  3
_Top
350
26
  3
Model
350
22
  0
DICTIONARY
  5
17
102
{ACAD_REACTORS
330
C
102
}
330
C
100
AcDbDictionary
281
     1
  3
Standard
350
18
  0
DICTIONARY
  5
19
102
{ACAD_REACTORS
330
C
102
}
330
C
100
AcDbDictionary
281
     1
  0
ACDBDICTIONARYWDFLT
  5
E
102
{ACAD_REACTORS
330
C
102
}
330
C
100
AcDbDictionary
281
     1
  3
Normal
350
F
100
AcDbDictionaryWithDefault
340
F
  0
DICTIONARY
  5
47
102
{ACAD_REACTORS
330
C
102
}
330
C
100
AcDbDictionary
281
     1
  3
A0
350
48
  3
A1
350
49
  3
A2
350
4A
  3
A3
350
4B
  3
A4
350
4C
  3
A5
350
4D
  3
A6
350
4E
  3
A7
350
4F
  3
A8
350
50
  3
A9
350
51
  3
B0
350
52
  3
B1
350
53
  3
B2
350
54
  3
B3
350
55
  3
B4
350
56
  3
B5
350
57
  3
B6
350
58
  3
B7
350
59
  3
B8
350
5A
  3
B9
350
5B
  3
C0
350
5C
  3
C1
350
5D
  3
C2
350
5E
  3
C3
350
5F
  3
C4
350
60
  3
C5
350
61
  3
C6
350
62
  3
C7
350
63
  3
C8
350
64
  3
C9
350
65
  3
D0
350
66
  3
D1
350
67
  3
D2
350
68
  0
LAYOUT
  5
36D
102
{ACAD_REACTORS
330
1A
102
}
330
1A
100
AcDbPlotSettings
  1

  2
none_device
  4
ISO_A4_(210.00_x_297.00_MM)
  6

 40
7.5
 41
20.0
 42
7.5
 43
20.0
 44
210.0
 45
297.0
 46
0.0
 47
0.0
 48
0.0
 49
0.0
140
0.0
141
0.0
142
1.0
143
1.5447470817
 70
   688
 72
     1
 73
     1
 74
     1
  7

 75
     0
147
0.6473551637
148
198.5
149
104.3
100
AcDbLayout
  1
_Back
 70
     1
 71
     3
 10
0.0
 20
0.0
 11
0.0
 21
0.0
 12
0.0
 22
0.0
 32
0.0
 14
0.0
 24
0.0
 34
0.0
 15
0.0
 25
0.0
 35
0.0
146
0.0
 13
0.0
 23
0.0
 33
0.0
 16
1.0
 26
0.0
 36
0.0
 17
0.0
 27
1.0
 37
0.0
 76
     0
330
36C
331
3B4
  0
LAYOUT
  5
1E
102
{ACAD_REACTORS
330
1A
102
}
330
1A
100
AcDbPlotSettings
  1

  2
none_device
  4
ISO_A4_(210.00_x_297.00_MM)
  6

 40
7.5
 41
20.0
 42
7.5
 43
20.0
 44
210.0
 45
297.0
 46
0.0
 47
0.0
 48
0.0
 49
0.0
140
0.0
141
0.0
142
1.0
143
1.5447470817
 70
   688
 72
     1
 73
     1
 74
     1
  7

 75
     0
147
0.6473551637
148
198.5
149
104.3
100
AcDbLayout
  1
_Front
 70
     1
 71
     1
 10
-229.3949416342
 20
-115.8856031128
 11
229.3949416342
 21
208.5112840467
 12
0.0
 22
0.0
 32
0.0
 14
-198.5
 24
-104.3
 34
0.0
 15
198.5
 25
32.0
 35
0.0
146
0.0
 13
0.0
 23
0.0
 33
0.0
 16
1.0
 26
0.0
 36
0.0
 17
0.0
 27
1.0
 37
0.0
 76
     0
330
1B
331
3B0
  0
LAYOUT
  5
26
102
{ACAD_REACTORS
330
1A
102
}
330
1A
100
AcDbPlotSettings
  1

  2
none_device
  4
ISO_A4_(210.00_x_297.00_MM)
  6

 40
7.5
 41
20.0
 42
7.5
 43
20.0
 44
210.0
 45
297.0
 46
0.0
 47
0.0
 48
0.0
 49
0.0
140
0.0
141
0.0
142
1.0
143
1.5447470817
 70
   688
 72
     1
 73
     1
 74
     1
  7

 75
     0
147
0.6473551637
148
198.5
149
104.3
100
AcDbLayout
  1
_Top
 70
     1
 71
     2
 10
0.0
 20
0.0
 11
0.0
 21
0.0
 12
0.0
 22
0.0
 32
0.0
 14
0.0
 24
0.0
 34
0.0
 15
0.0
 25
0.0
 35
0.0
146
0.0
 13
0.0
 23
0.0
 33
0.0
 16
1.0
 26
0.0
 36
0.0
 17
0.0
 27
1.0
 37
0.0
 76
     0
330
23
331
3B2
  0
LAYOUT
  5
22
102
{ACAD_REACTORS
330
1A
102
}
330
1A
100
AcDbPlotSettings
  1

  2
none_device
  4
ANSI_A_(11.00_x_8.50_Inches)
  6

 40
6.35
 41
19.05
 42
6.35000508
 43
19.05000254
 44
279.4
 45
215.9
 46
133.34999746
 47
114.0871697627
 48
0.0
 49
0.0
140
0.0
141
0.0
142
0.0274307305
143
1.0
 70
  1696
 72
     0
 73
     0
 74
     0
  7

 75
     0
147
0.0179189148
148
-1300.4909072572
149
0.0
100
AcDbLayout
  1
Model
 70
     1
 71
     0
 10
0.0
 20
0.0
 11
420.0
 21
297.0
 12
0.0
 22
0.0
 32
0.0
 14
-198.5
 24
-104.3
 34
0.0
 15
198.5
 25
32.0
 35
0.0
146
0.0
 13
0.0
 23
0.0
 33
0.0
 16
1.0
 26
0.0
 36
0.0
 17
0.0
 27
1.0
 37
0.0
 76
     0
330
1F
331
29
  0
MLINESTYLE
  5
18
102
{ACAD_REACTORS
330
17
102
}
330
17
100
AcDbMlineStyle
  2
Standard
 70
     0
  3

 62
   256
 51
90.0
 52
90.0
 71
     2
 49
0.5
 62
   256
  6
BYLAYER
 49
-0.5
 62
   256
  6
BYLAYER
  0
ACDBPLACEHOLDER
  5
F
102
{ACAD_REACTORS
330
E
102
}
330
E
  0
SCALE
  5
48
102
{ACAD_REACTORS
330
47
102
}
330
47
100
AcDbScale
 70
     0
300
1:1
140
1.0
141
1.0
290
     1
  0
SCALE
  5
49
102
{ACAD_REACTORS
330
47
102
}
330
47
100
AcDbScale
 70
     0
300
1:2
140
1.0
141
2.0
290
     0
  0
SCALE
  5
4A
102
{ACAD_REACTORS
330
47
102
}
330
47
100
AcDbScale
 70
     0
300
1:4
140
1.0
141
4.0
290
     0
  0
SCALE
  5
4B
102
{ACAD_REACTORS
330
47
102
}
330
47
100
AcDbScale
 70
     0
300
1:5
140
1.0
141
5.0
290
     0
  0
SCALE
  5
4C
102
{ACAD_REACTORS
330
47
102
}
330
47
100
AcDbScale
 70
     0
300
1:8
140
1.0
141
8.0
290
     0
  0
SCALE
  5
4D
102
{ACAD_REACTORS
330
47
102
}
330
47
100
AcDbScale
 70
     0
300
1:10
140
1.0
141
10.0
290
     0
  0
SCALE
  5
4E
102
{ACAD_REACTORS
330
47
102
}
330
47
100
AcDbScale
 70
     0
300
1:16
140
1.0
141
16.0
290
     0
  0
SCALE
  5
4F
102
{ACAD_REACTORS
330
47
102
}
330
47
100
AcDbScale
 70
     0
300
1:20
140
1.0
141
20.0
290
     0
  0
SCALE
  5
50
102
{ACAD_REACTORS
330
47
102
}
330
47
100
AcDbScale
 70
     0
300
1:30
140
1.0
141
30.0
290
     0
  0
SCALE
  5
51
102
{ACAD_REACTORS
330
47
102
}
330
47
100
AcDbScale
 70
     0
300
1:40
140
1.0
141
40.0
290
     0
  0
SCALE
  5
52
102
{ACAD_REACTORS
330
47
102
}
330
47
100
AcDbScale
 70
     0
300
1:50
140
1.0
141
50.0
290
     0
  0
SCALE
  5
53
102
{ACAD_REACTORS
330
47
102
}
330
47
100
AcDbScale
 70
     0
300
1:100
140
1.0
141
100.0
290
     0
  0
SCALE
  5
54
102
{ACAD_REACTORS
330
47
102
}
330
47
100
AcDbScale
 70
     0
300
2:1
140
2.0
141
1.0
290
     0
  0
SCALE
  5
55
102
{ACAD_REACTORS
330
47
102
}
330
47
100
AcDbScale
 70
     0
300
4:1
140
4.0
141
1.0
290
     0
  0
SCALE
  5
56
102
{ACAD_REACTORS
330
47
102
}
330
47
100
AcDbScale
 70
     0
300
8:1
140
8.0
141
1.0
290
     0
  0
SCALE
  5
57
102
{ACAD_REACTORS
330
47
102
}
330
47
100
AcDbScale
 70
     0
300
10:1
140
10.0
141
1.0
290
     0
  0
SCALE
  5
58
102
{ACAD_REACTORS
330
47
102
}
330
47
100
AcDbScale
 70
     0
300
100:1
140
100.0
141
1.0
290
     0
  0
SCALE
  5
59
102
{ACAD_REACTORS
330
47
102
}
330
47
100
AcDbScale
 70
     0
300
1/128" = 1'-0"
140
0.0078125
141
12.0
290
     0
  0
SCALE
  5
5A
102
{ACAD_REACTORS
330
47
102
}
330
47
100
AcDbScale
 70
     0
300
1/64" = 1'-0"
140
0.015625
141
12.0
290
     0
  0
SCALE
  5
5B
102
{ACAD_REACTORS
330
47
102
}
330
47
100
AcDbScale
 70
     0
300
1/32" = 1'-0"
140
0.03125
141
12.0
290
     0
  0
SCALE
  5
5C
102
{ACAD_REACTORS
330
47
102
}
330
47
100
AcDbScale
 70
     0
300
1/16" = 1'-0"
140
0.0625
141
12.0
290
     0
  0
SCALE
  5
5D
102
{ACAD_REACTORS
330
47
102
}
330
47
100
AcDbScale
 70
     0
300
3/32" = 1'-0"
140
0.09375
141
12.0
290
     0
  0
SCALE
  5
5E
102
{ACAD_REACTORS
330
47
102
}
330
47
100
AcDbScale
 70
     0
300
1/8" = 1'-0"
140
0.125
141
12.0
290
     0
  0
SCALE
  5
5F
102
{ACAD_REACTORS
330
47
102
}
330
47
100
AcDbScale
 70
     0
300
3/16" = 1'-0"
140
0.1875
141
12.0
290
     0
  0
SCALE
  5
60
102
{ACAD_REACTORS
330
47
102
}
330
47
100
AcDbScale
 70
     0
300
1/4" = 1'-0"
140
0.25
141
12.0
290
     0
  0
SCALE
  5
61
102
{ACAD_REACTORS
330
47
102
}
330
47
100
AcDbScale
 70
     0
300
3/8" = 1'-0"
140
0.375
141
12.0
290
     0
  0
SCALE
  5
62
102
{ACAD_REACTORS
330
47
102
}
330
47
100
AcDbScale
 70
     0
300
1/2" = 1'-0"
140
0.5
141
12.0
290
     0
  0
SCALE
  5
63
102
{ACAD_REACTORS
330
47
102
}
330
47
100
AcDbScale
 70
     0
300
3/4" = 1'-0"
140
0.75
141
12.0
290
     0
  0
SCALE
  5
64
102
{ACAD_REACTORS
330
47
102
}
330
47
100
AcDbScale
 70
     0
300
1" = 1'-0"
140
1.0
141
12.0
290
     0
  0
SCALE
  5
65
102
{ACAD_REACTORS
330
47
102
}
330
47
100
AcDbScale
 70
     0
300
1-1/2" = 1'-0"
140
1.5
141
12.0
290
     0
  0
SCALE
  5
66
102
{ACAD_REACTORS
330
47
102
}
330
47
100
AcDbScale
 70
     0
300
3" = 1'-0"
140
3.0
141
12.0
290
     0
  0
SCALE
  5
67
102
{ACAD_REACTORS
330
47
102
}
330
47
100
AcDbScale
 70
     0
300
6" = 1'-0"
140
6.0
141
12.0
290
     0
  0
SCALE
  5
68
102
{ACAD_REACTORS
330
47
102
}
330
47
100
AcDbScale
 70
     0
300
1'-0" = 1'-0"
140
12.0
141
12.0
290
     0
  0
ENDSEC
  0
EOF
