  0
SECTION
  2
HEADER
  9
$ACADVER
  1
AC1015
  9
$ACADMAINTVER
 70
     6
  9
$DWGCODEPAGE
  3
ANSI_1252
  9
$INSBASE
 10
0.0
 20
0.0
 30
0.0
  9
$EXTMIN
 10
0.0
 20
0.0
 30
0.0
  9
$EXTMAX
 10
420.0
 20
297.0
 30
0.0
  9
$LIMMIN
 10
0.0
 20
0.0
  9
$LIMMAX
 10
420.0
 20
297.0
  9
$ORTHOMODE
 70
     0
  9
$REGENMODE
 70
     1
  9
$FILLMODE
 70
     1
  9
$QTEXTMODE
 70
     0
  9
$MIRRTEXT
 70
     1
  9
$LTSCALE
 40
1.0
  9
$ATTMODE
 70
     1
  9
$TEXTSIZE
 40
3.5
  9
$TRACEWID
 40
1.0
  9
$TEXTSTYLE
  7
Standard
  9
$CLAYER
  8
0
  9
$CELTYPE
  6
ByLayer
  9
$CECOLOR
 62
   256
  9
$CELTSCALE
 40
1.0
  9
$DISPSILH
 70
     0
  9
$DIMSCALE
 40
1.0
  9
$DIMASZ
 40
2.6
  9
$DIMEXO
 40
1.0
  9
$DIMDLI
 40
3.75
  9
$DIMRND
 40
0.0
  9
$DIMDLE
 40
0.0
  9
$DIMEXE
 40
1.0
  9
$DIMTP
 40
0.0
  9
$DIMTM
 40
0.0
  9
$DIMTXT
 40
3.5
  9
$DIMCEN
 40
2.5
  9
$DIMTSZ
 40
0.0
  9
$DIMTOL
 70
     0
  9
$DIMLIM
 70
     0
  9
$DIMTIH
 70
     1
  9
$DIMTOH
 70
     1
  9
$DIMSE1
 70
     0
  9
$DIMSE2
 70
     0
  9
$DIMTAD
 70
     1
  9
$DIMZIN
 70
     0
  9
$DIMBLK
  1

  9
$DIMASO
 70
     1
  9
$DIMSHO
 70
     1
  9
$DIMPOST
  1

  9
$DIMAPOST
  1

  9
$DIMALT
 70
     0
  9
$DIMALTD
 70
     3
  9
$DIMALTF
 40
0.0393700787
  9
$DIMLFAC
 40
1.0
  9
$DIMTOFL
 70
     1
  9
$DIMTVP
 40
0.0
  9
$DIMTIX
 70
     0
  9
$DIMSOXD
 70
     0
  9
$DIMSAH
 70
     0
  9
$DIMBLK1
  1

  9
$DIMBLK2
  1

  9
$DIMSTYLE
  2
ISO-25
  9
$DIMCLRD
 70
     0
  9
$DIMCLRE
 70
     0
  9
$DIMCLRT
 70
     0
  9
$DIMTFAC
 40
1.0
  9
$DIMGAP
 40
1.524
  9
$DIMJUST
 70
     0
  9
$DIMSD1
 70
     0
  9
$DIMSD2
 70
     0
  9
$DIMTOLJ
 70
     0
  9
$DIMTZIN
 70
     0
  9
$DIMALTZ
 70
     0
  9
$DIMALTTZ
 70
     0
  9
$DIMUPT
 70
     0
  9
$DIMDEC
 70
     2
  9
$DIMTDEC
 70
     2
  9
$DIMALTU
 70
     2
  9
$DIMALTTD
 70
     3
  9
$DIMTXSTY
  7
Standard
  9
$DIMAUNIT
 70
     0
  9
$DIMADEC
 70
     2
  9
$DIMALTRND
 40
0.0
  9
$DIMAZIN
 70
     0
  9
$DIMDSEP
 70
    44
  9
$DIMATFIT
 70
     3
  9
$DIMFRAC
 70
     0
  9
$DIMLDRBLK
  1

  9
$DIMLUNIT
 70
     2
  9
$DIMLWD
 70
    -2
  9
$DIMLWE
 70
    -2
  9
$DIMTMOVE
 70
     0
  9
$LUNITS
 70
     2
  9
$LUPREC
 70
     2
  9
$SKETCHINC
 40
1.0
  9
$FILLETRAD
 40
10.0
  9
$AUNITS
 70
     0
  9
$AUPREC
 70
     2
  9
$MENU
  1
.
  9
$ELEVATION
 40
0.0
  9
$PELEVATION
 40
0.0
  9
$THICKNESS
 40
0.0
  9
$LIMCHECK
 70
     0
  9
$CHAMFERA
 40
0.0
  9
$CHAMFERB
 40
0.0
  9
$CHAMFERC
 40
0.0
  9
$CHAMFERD
 40
0.0
  9
$SKPOLY
 70
     0
  9
$TDCREATE
 40
2459668.472441505
  9
$TDUCREATE
 40
2459668.347441505
  9
$TDUPDATE
 40
2459668.472451041
  9
$TDUUPDATE
 40
2459668.347451041
  9
$TDINDWG
 40
0.0000000116
  9
$TDUSRTIMER
 40
0.0000000116
  9
$USRTIMER
 70
     1
  9
$ANGBASE
 50
0.0
  9
$ANGDIR
 70
     0
  9
$PDMODE
 70
     0
  9
$PDSIZE
 40
-1.0
  9
$PLINEWID
 40
0.0
  9
$SPLFRAME
 70
     0
  9
$SPLINETYPE
 70
     6
  9
$SPLINESEGS
 70
     8
  9
$HANDSEED
  5
235
  9
$SURFTAB1
 70
     6
  9
$SURFTAB2
 70
     6
  9
$SURFTYPE
 70
     6
  9
$SURFU
 70
     6
  9
$SURFV
 70
     6
  9
$UCSBASE
  2

  9
$UCSNAME
  2

  9
$UCSORG
 10
0.0
 20
0.0
 30
0.0
  9
$UCSXDIR
 10
1.0
 20
0.0
 30
0.0
  9
$UCSYDIR
 10
0.0
 20
1.0
 30
0.0
  9
$UCSORTHOREF
  2

  9
$UCSORTHOVIEW
 70
     0
  9
$UCSORGTOP
 10
0.0
 20
0.0
 30
0.0
  9
$UCSORGBOTTOM
 10
0.0
 20
0.0
 30
0.0
  9
$UCSORGLEFT
 10
0.0
 20
0.0
 30
0.0
  9
$UCSORGRIGHT
 10
0.0
 20
0.0
 30
0.0
  9
$UCSORGFRONT
 10
0.0
 20
0.0
 30
0.0
  9
$UCSORGBACK
 10
0.0
 20
0.0
 30
0.0
  9
$PUCSBASE
  2

  9
$PUCSNAME
  2

  9
$PUCSORG
 10
0.0
 20
0.0
 30
0.0
  9
$PUCSXDIR
 10
1.0
 20
0.0
 30
0.0
  9
$PUCSYDIR
 10
0.0
 20
1.0
 30
0.0
  9
$PUCSORTHOREF
  2

  9
$PUCSORTHOVIEW
 70
     0
  9
$PUCSORGTOP
 10
0.0
 20
0.0
 30
0.0
  9
$PUCSORGBOTTOM
 10
0.0
 20
0.0
 30
0.0
  9
$PUCSORGLEFT
 10
0.0
 20
0.0
 30
0.0
  9
$PUCSORGRIGHT
 10
0.0
 20
0.0
 30
0.0
  9
$PUCSORGFRONT
 10
0.0
 20
0.0
 30
0.0
  9
$PUCSORGBACK
 10
0.0
 20
0.0
 30
0.0
  9
$USERI1
 70
     0
  9
$USERI2
 70
     0
  9
$USERI3
 70
     0
  9
$USERI4
 70
     0
  9
$USERI5
 70
     0
  9
$USERR1
 40
0.0
  9
$USERR2
 40
0.0
  9
$USERR3
 40
0.0
  9
$USERR4
 40
0.0
  9
$USERR5
 40
0.0
  9
$WORLDVIEW
 70
     1
  9
$SHADEDGE
 70
     3
  9
$SHADEDIF
 70
    70
  9
$TILEMODE
 70
     1
  9
$MAXACTVP
 70
    64
  9
$PINSBASE
 10
0.0
 20
0.0
 30
0.0
  9
$PLIMCHECK
 70
     0
  9
$PEXTMIN
 10
1.0000000000E+20
 20
1.0000000000E+20
 30
1.0000000000E+20
  9
$PEXTMAX
 10
-1.0000000000E+20
 20
-1.0000000000E+20
 30
-1.0000000000E+20
  9
$PLIMMIN
 10
0.0
 20
0.0
  9
$PLIMMAX
 10
420.0
 20
297.0
  9
$UNITMODE
 70
     0
  9
$VISRETAIN
 70
     1
  9
$PLINEGEN
 70
     0
  9
$PSLTSCALE
 70
     1
  9
$TREEDEPTH
 70
  3020
  9
$CMLSTYLE
  2
Standard
  9
$CMLJUST
 70
     0
  9
$CMLSCALE
 40
20.0
  9
$PROXYGRAPHICS
 70
     1
  9
$MEASUREMENT
 70
     1
  9
$CELWEIGHT
370
    -1
  9
$ENDCAPS
280
     0
  9
$JOINSTYLE
280
     0
  9
$LWDISPLAY
290
     1
  9
$INSUNITS
 70
     4
  9
$HYPERLINKBASE
  1

  9
$STYLESHEET
  1

  9
$XEDIT
290
     1
  9
$CEPSNTYPE
380
     0
  9
$PSTYLEMODE
290
     1
  9
$FINGERPRINTGUID
  2
{0F481F27-7CC4-4A5A-9ED1-F713B2C3B5E0}
  9
$VERSIONGUID
  2
{FAEB1C32-E019-11D5-929B-00C0DF256EC4}
  9
$EXTNAMES
290
     1
  9
$PSVPSCALE
 40
0.0
  9
$OLESTARTUP
290
     0
  0
ENDSEC
  0
SECTION
  2
CLASSES
  0
CLASS
  1
ACDBDICTIONARYWDFLT
  2
AcDbDictionaryWithDefault
  3
ObjectDBX Classes
 90
        0
280
     0
281
     0
  0
CLASS
  1
VISUALSTYLE
  2
AcDbVisualStyle
  3
ObjectDBX Classes
 90
     4095
280
     0
281
     0
  0
CLASS
  1
MATERIAL
  2
AcDbMaterial
  3
ObjectDBX Classes
 90
     1153
280
     0
281
     0
  0
CLASS
  1
SCALE
  2
AcDbScale
  3
ObjectDBX Classes
 90
     1153
280
     0
281
     0
  0
CLASS
  1
TABLESTYLE
  2
AcDbTableStyle
  3
ObjectDBX Classes
 90
     4095
280
     0
281
     0
  0
CLASS
  1
MLEADERSTYLE
  2
AcDbMLeaderStyle
  3
ACDB_MLEADERSTYLE_CLASS
 90
     4095
280
     0
281
     0
  0
CLASS
  1
SUN
  2
AcDbSun
  3
SCENEOE
 90
     1153
280
     0
281
     0
  0
CLASS
  1
ACDBPLACEHOLDER
  2
AcDbPlaceHolder
  3
ObjectDBX Classes
 90
        0
280
     0
281
     0
  0
CLASS
  1
LAYOUT
  2
AcDbLayout
  3
ObjectDBX Classes
 90
        0
280
     0
281
     0
  0
ENDSEC
  0
SECTION
  2
TABLES
  0
TABLE
  2
VPORT
  5
8
330
0
100
AcDbSymbolTable
 70
     1
  0
VPORT
  5
29
330
8
100
AcDbSymbolTableRecord
100
AcDbViewportTableRecord
  2
*Active
 70
     0
 10
0.0
 20
0.0
 11
1.0
 21
1.0
 12
210.0
 22
148.5
 13
0.0
 23
0.0
 14
10.0
 24
10.0
 15
10.0
 25
10.0
 16
0.0
 26
0.0
 36
1.0
 17
0.0
 27
0.0
 37
0.0
 40
297.0
 41
1.4141414141
 42
50.0
 43
0.0
 44
0.0
 50
0.0
 51
0.0
 71
     0
 72
  2000
 73
     1
 74
     3
 75
     0
 76
     0
 77
     0
 78
     0
281
     0
 65
     1
110
0.0
120
0.0
130
0.0
111
1.0
121
0.0
131
0.0
112
0.0
122
1.0
132
0.0
 79
     0
146
0.0
  0
ENDTAB
  0
TABLE
  2
LTYPE
  5
5
330
0
100
AcDbSymbolTable
 70
     6
  0
LTYPE
  5
14
330
5
100
AcDbSymbolTableRecord
100
AcDbLinetypeTableRecord
  2
ByBlock
 70
     0
  3

 72
    65
 73
     0
 40
0.0
  0
LTYPE
  5
15
330
5
100
AcDbSymbolTableRecord
100
AcDbLinetypeTableRecord
  2
ByLayer
 70
     0
  3

 72
    65
 73
     0
 40
0.0
  0
LTYPE
  5
16
330
5
100
AcDbSymbolTableRecord
100
AcDbLinetypeTableRecord
  2
Continuous
 70
     0
  3
Solid line
 72
    65
 73
     0
 40
0.0
  0
LTYPE
  5
6E
330
5
100
AcDbSymbolTableRecord
100
AcDbLinetypeTableRecord
  2
HIDDEN
 70
     0
  3
Hidden __ __ __ __ __ __ __ __ __ __ __ __ __ __
 72
    65
 73
     2
 40
1.905
 49
1.27
 74
     0
 49
-0.635
 74
     0
  0
LTYPE
  5
6F
330
5
100
AcDbSymbolTableRecord
100
AcDbLinetypeTableRecord
  2
PHANTOM
 70
     0
  3
Phantom ______  __  __  ______  __  __  ______
 72
    65
 73
     6
 40
12.7
 49
6.35
 74
     0
 49
-1.27
 74
     0
 49
1.27
 74
     0
 49
-1.27
 74
     0
 49
1.27
 74
     0
 49
-1.27
 74
     0
  0
LTYPE
  5
70
330
5
100
AcDbSymbolTableRecord
100
AcDbLinetypeTableRecord
  2
CENTER
 70
     0
  3
Center ____ _ ____ _ ____ _ ____ _ ____ _ ____
 72
    65
 73
     4
 40
10.16
 49
6.35
 74
     0
 49
-1.27
 74
     0
 49
1.27
 74
     0
 49
-1.27
 74
     0
  0
LTYPE
  5
71
330
5
100
AcDbSymbolTableRecord
100
AcDbLinetypeTableRecord
  2
CENTERX2
 70
     0
  3
Center (2x) ________  __  ________  __  _____
 72
    65
 73
     4
 40
20.32
 49
12.7
 74
     0
 49
-2.54
 74
     0
 49
2.54
 74
     0
 49
-2.54
 74
     0
  0
LTYPE
  5
72
330
5
100
AcDbSymbolTableRecord
100
AcDbLinetypeTableRecord
  2
DOT2
 70
     0
  3
Dot (.5x) ........................................
 72
    65
 73
     2
 40
0.635
 49
0.0
 74
     0
 49
-0.635
 74
     0
  0
ENDTAB
  0
TABLE
  2
LAYER
  5
2
330
0
100
AcDbSymbolTable
 70
    10
  0
LAYER
  5
10
330
2
100
AcDbSymbolTableRecord
100
AcDbLayerTableRecord
  2
0
 70
     0
 62
     7
  6
Continuous
370
    -3
390
F
  0
LAYER
  5
73
330
2
100
AcDbSymbolTableRecord
100
AcDbLayerTableRecord
  2
SLD-0
 70
     0
 62
   179
  6
Continuous
370
    -3
390
F
  0
LAYER
  5
74
330
2
100
AcDbSymbolTableRecord
100
AcDbLayerTableRecord
  2
SLD-DEFPOINTS
 70
     0
 62
   179
  6
Continuous
370
    -3
390
F
  0
LAYER
  5
75
330
2
100
AcDbSymbolTableRecord
100
AcDbLayerTableRecord
  2
DIMENSIONS
 70
     0
 62
   124
  6
Continuous
370
    -3
390
F
  0
LAYER
  5
76
330
2
100
AcDbSymbolTableRecord
100
AcDbLayerTableRecord
  2
PARTS
 70
     0
 62
   179
  6
Continuous
370
    -3
390
F
  0
LAYER
  5
77
330
2
100
AcDbSymbolTableRecord
100
AcDbLayerTableRecord
  2
TRAFOVIHREÄ
 70
     0
 62
   124
  6
Continuous
370
    -3
390
F
  0
LAYER
  5
78
330
2
100
AcDbSymbolTableRecord
100
AcDbLayerTableRecord
  2
LOGOGREEN
 70
     0
 62
   124
  6
Continuous
370
    -3
390
F
  0
LAYER
  5
79
330
2
100
AcDbSymbolTableRecord
100
AcDbLayerTableRecord
  2
LOGOBLACK
 70
     0
 62
     7
  6
Continuous
370
    -3
390
F
  0
LAYER
  5
7A
330
2
100
AcDbSymbolTableRecord
100
AcDbLayerTableRecord
  2
LOGORED
 70
     0
 62
   242
  6
Continuous
370
    -3
390
F
  0
LAYER
  5
7B
330
2
100
AcDbSymbolTableRecord
100
AcDbLayerTableRecord
  2
LOGOWHITE
 70
     0
 62
     7
  6
Continuous
370
    -3
390
F
  0
ENDTAB
  0
TABLE
  2
STYLE
  5
3
330
0
100
AcDbSymbolTable
 70
     5
  0
STYLE
  5
11
330
3
100
AcDbSymbolTableRecord
100
AcDbTextStyleTableRecord
  2
Standard
 70
     0
 40
0.0
 41
1.0
 50
0.0
 71
     0
 42
3.5
  3
txt
  4

  0
STYLE
  5
159
330
3
100
AcDbSymbolTableRecord
100
AcDbTextStyleTableRecord
  2
SLDTEXTSTYLE0
 70
     0
 40
0.0
 41
0.605
 50
0.0
 71
     0
 42
3.5
  3
TXT
  4

  0
STYLE
  5
15F
330
3
100
AcDbSymbolTableRecord
100
AcDbTextStyleTableRecord
  2
SLDTEXTSTYLE1
 70
     0
 40
0.0
 41
0.75
 50
0.0
 71
     0
 42
3.5
  3
TXT
  4

  0
STYLE
  5
167
330
3
100
AcDbSymbolTableRecord
100
AcDbTextStyleTableRecord
  2
SLDTEXTSTYLE2
 70
     0
 40
0.0
 41
0.6237113402
 50
0.0
 71
     0
 42
3.5
  3
TXT
  4

  0
STYLE
  5
173
330
3
100
AcDbSymbolTableRecord
100
AcDbTextStyleTableRecord
  2
SLDTEXTSTYLE3
 70
     0
 40
0.0
 41
0.5239175258
 50
0.0
 71
     0
 42
3.5
  3
TXT
  4

  0
ENDTAB
  0
TABLE
  2
VIEW
  5
6
330
0
100
AcDbSymbolTable
 70
     0
  0
ENDTAB
  0
TABLE
  2
UCS
  5
7
330
0
100
AcDbSymbolTable
 70
     0
  0
ENDTAB
  0
TABLE
  2
APPID
  5
9
330
0
100
AcDbSymbolTable
 70
     1
  0
APPID
  5
12
330
9
100
AcDbSymbolTableRecord
100
AcDbRegAppTableRecord
  2
ACAD
 70
     0
  0
ENDTAB
  0
TABLE
  2
DIMSTYLE
  5
A
330
0
100
AcDbSymbolTable
 70
     6
100
AcDbDimStyleTable
  0
DIMSTYLE
105
27
330
A
100
AcDbSymbolTableRecord
100
AcDbDimStyleTableRecord
  2
ISO-25
 70
     0
 41
2.5
 42
0.625
 43
3.75
 44
1.25
 73
     0
 74
     0
 77
     1
 78
     8
140
2.5
141
2.5
143
0.0393700787
147
0.625
171
     3
172
     1
178
     0
271
     2
272
     2
274
     3
278
    44
283
     0
284
     8
340
11
  0
DIMSTYLE
105
1B3
102
{ACAD_REACTORS
330
1B2
330
1BD
102
}
330
A
100
AcDbSymbolTableRecord
100
AcDbDimStyleTableRecord
  2
SLDDIMSTYLE0
 70
     0
 41
2.6
 44
0.0
 45
0.000000001
 73
     0
 74
     0
 77
     1
 78
    12
 79
     3
140
3.5
147
0.875
173
     1
178
     0
271
     2
272
     2
276
     2
284
    12
340
15F
  0
DIMSTYLE
105
1C8
102
{ACAD_REACTORS
330
1C7
102
}
330
A
100
AcDbSymbolTableRecord
100
AcDbDimStyleTableRecord
  2
SLDDIMSTYLE1
 70
     0
 41
2.6
 44
0.0
 73
     0
 74
     0
 77
     1
 78
    12
 79
     3
140
3.5
147
0.875
173
     1
178
     0
179
     2
272
     2
276
     2
284
    12
340
15F
  0
DIMSTYLE
105
1D2
102
{ACAD_REACTORS
330
1D1
102
}
330
A
100
AcDbSymbolTableRecord
100
AcDbDimStyleTableRecord
  2
SLDDIMSTYLE2
 70
     0
 41
2.6
 44
0.0
 45
0.000000001
 73
     0
 74
     0
 77
     1
 78
    12
 79
     3
140
3.5
147
0.875
173
     1
178
     0
271
     0
272
     0
276
     2
284
    12
340
15F
  0
DIMSTYLE
105
1DD
102
{ACAD_REACTORS
330
1DC
330
1E9
330
210
102
}
330
A
100
AcDbSymbolTableRecord
100
AcDbDimStyleTableRecord
  2
SLDDIMSTYLE3
 70
     0
 41
2.6
 44
0.0
 45
0.000000001
 73
     0
 74
     0
 77
     1
 78
    12
 79
     3
140
3.5
147
0.875
172
     1
173
     1
178
     0
271
     2
272
     2
276
     2
284
    12
289
     0
340
15F
  0
DIMSTYLE
105
1F6
102
{ACAD_REACTORS
330
1F5
102
}
330
A
100
AcDbSymbolTableRecord
100
AcDbDimStyleTableRecord
  2
SLDDIMSTYLE4
 70
     0
 41
2.6
 44
0.0
 45
0.000000001
 78
    12
 79
     3
140
3.5
141
0.0
147
0.875
173
     1
178
     0
271
     2
272
     2
276
     2
284
    12
340
15F
  0
ENDTAB
  0
TABLE
  2
BLOCK_RECORD
  5
1
330
0
100
AcDbSymbolTable
 70
    13
  0
BLOCK_RECORD
  5
1F
330
1
100
AcDbSymbolTableRecord
100
AcDbBlockTableRecord
  2
*Model_Space
340
22
  0
BLOCK_RECORD
  5
1B
330
1
100
AcDbSymbolTableRecord
100
AcDbBlockTableRecord
  2
*Paper_Space
340
1E
  0
BLOCK_RECORD
  5
23
330
1
100
AcDbSymbolTableRecord
100
AcDbBlockTableRecord
  2
*Paper_Space0
340
26
  0
BLOCK_RECORD
  5
7C
330
1
100
AcDbSymbolTableRecord
100
AcDbBlockTableRecord
  2
Block1
340
0
102
{BLKREFS
331
157
102
}
  0
BLOCK_RECORD
  5
87
330
1
100
AcDbSymbolTableRecord
100
AcDbBlockTableRecord
  2
Block2
340
0
102
{BLKREFS
331
158
102
}
  0
BLOCK_RECORD
  5
8B
330
1
100
AcDbSymbolTableRecord
100
AcDbBlockTableRecord
  2
AQ_Trafotek_Block
340
0
102
{BLKREFS
331
156
102
}
  0
BLOCK_RECORD
  5
15C
330
1
100
AcDbSymbolTableRecord
100
AcDbBlockTableRecord
  2
SW_NOTE_0
340
0
102
{BLKREFS
331
166
102
}
  0
BLOCK_RECORD
  5
1B4
330
1
100
AcDbSymbolTableRecord
100
AcDbBlockTableRecord
  2
_D
340
0
  0
BLOCK_RECORD
  5
1BE
330
1
100
AcDbSymbolTableRecord
100
AcDbBlockTableRecord
  2
_D_1
340
0
  0
BLOCK_RECORD
  5
1C9
330
1
100
AcDbSymbolTableRecord
100
AcDbBlockTableRecord
  2
_D_2
340
0
  0
BLOCK_RECORD
  5
1D3
330
1
100
AcDbSymbolTableRecord
100
AcDbBlockTableRecord
  2
_D_3
340
0
  0
BLOCK_RECORD
  5
1DE
330
1
100
AcDbSymbolTableRecord
100
AcDbBlockTableRecord
  2
_D_4
340
0
  0
BLOCK_RECORD
  5
1EA
330
1
100
AcDbSymbolTableRecord
100
AcDbBlockTableRecord
  2
_D_5
340
0
  0
BLOCK_RECORD
  5
1F7
330
1
100
AcDbSymbolTableRecord
100
AcDbBlockTableRecord
  2
_D_6
340
0
  0
BLOCK_RECORD
  5
211
330
1
100
AcDbSymbolTableRecord
100
AcDbBlockTableRecord
  2
_D_7
340
0
  0
ENDTAB
  0
ENDSEC
  0
SECTION
  2
BLOCKS
  0
BLOCK
  5
20
330
1F
100
AcDbEntity
  8
0
100
AcDbBlockBegin
  2
*Model_Space
 70
     0
 10
0.0
 20
0.0
 30
0.0
  3
*Model_Space
  1

  0
ENDBLK
  5
21
330
1F
100
AcDbEntity
  8
0
100
AcDbBlockEnd
  0
BLOCK
  5
1C
330
1B
100
AcDbEntity
 67
     1
  8
0
100
AcDbBlockBegin
  2
*Paper_Space
 70
     0
 10
0.0
 20
0.0
 30
0.0
  3
*Paper_Space
  1

  0
ENDBLK
  5
1D
330
1B
100
AcDbEntity
 67
     1
  8
0
100
AcDbBlockEnd
  0
BLOCK
  5
24
330
23
100
AcDbEntity
  8
0
100
AcDbBlockBegin
  2
*Paper_Space0
 70
     0
 10
0.0
 20
0.0
 30
0.0
  3
*Paper_Space0
  1

  0
ENDBLK
  5
25
330
23
100
AcDbEntity
  8
0
100
AcDbBlockEnd
  0
BLOCK
  5
7D
330
7C
100
AcDbEntity
  8
0
100
AcDbBlockBegin
  2
Block1
 70
     0
 10
0.0
 20
0.0
 30
0.0
  3
Block1
  1

  0
CIRCLE
  5
7F
330
7C
100
AcDbEntity
  8
SLD-0
100
AcDbCircle
 10
231.0563775643
 20
15.4672582079
 30
0.0
 40
1.094845152071636
  0
CIRCLE
  5
80
330
7C
100
AcDbEntity
  8
SLD-0
100
AcDbCircle
 10
231.0563775643
 20
15.4672582079
 30
0.0
 40
2.178745006979097
  0
LINE
  5
81
330
7C
100
AcDbEntity
  8
SLD-0
100
AcDbLine
 10
226.1788949989
 20
17.6460032149
 30
0.0
 11
220.353874085
 21
16.7173759913
 31
0.0
  0
LINE
  5
82
330
7C
100
AcDbEntity
  8
SLD-0
100
AcDbLine
 10
220.353874085
 20
16.7173759913
 30
0.0
 11
220.353874085
 21
14.2171404245
 31
0.0
  0
LINE
  5
83
330
7C
100
AcDbEntity
  8
SLD-0
100
AcDbLine
 10
226.1788949989
 20
13.2885132009
 30
0.0
 11
226.1788949989
 21
17.6460032149
 31
0.0
  0
LINE
  5
84
330
7C
100
AcDbEntity
  8
SLD-0
100
AcDbLine
 10
220.353874085
 20
14.2171404245
 30
0.0
 11
226.1788949989
 21
13.2885132009
 31
0.0
  0
LINE
  5
85
330
7C
100
AcDbEntity
  8
SLD-0
100
AcDbLine
 10
218.1524491519
 20
15.4672582079
 30
0.0
 11
233.9858031192
 21
15.4672582079
 31
0.0
  0
LINE
  5
86
330
7C
100
AcDbEntity
  8
SLD-0
100
AcDbLine
 10
231.0563775643
 20
18.2059196819
 30
0.0
 11
231.0563775643
 21
12.7888813944
 31
0.0
  0
ENDBLK
  5
7E
330
7C
100
AcDbEntity
  8
0
100
AcDbBlockEnd
  0
BLOCK
  5
88
330
87
100
AcDbEntity
  8
0
100
AcDbBlockBegin
  2
Block2
 70
     2
 10
0.0
 20
0.0
 30
0.0
  3
Block2
  1

  0
ATTDEF
  5
8A
330
87
100
AcDbEntity
  8
DIMENSIONS
 62
   124
100
AcDbText
 10
0.0
 20
0.0
 30
0.0
 40
1.0
  1

100
AcDbAttributeDefinition
  3

  2
AUTOATTR0
 70
     0
  0
ENDBLK
  5
89
330
87
100
AcDbEntity
  8
0
100
AcDbBlockEnd
  0
BLOCK
  5
8C
330
8B
100
AcDbEntity
  8
0
100
AcDbBlockBegin
  2
AQ_Trafotek_Block
 70
     0
 10
0.0
 20
0.0
 30
0.0
  3
AQ_Trafotek_Block
  1

  0
ELLIPSE
  5
8E
330
8B
100
AcDbEntity
  8
LOGORED
  6
Continuous
100
AcDbEllipse
 10
287.1741289364
 20
-403.6074238746
 30
0.0
 11
3.884181341810064
 21
-27.26150096793652
 31
0.0
210
0.0
220
0.0
230
1.0
 40
0.9912750494
 41
0.0
 42
6.283185307179586
  0
LINE
  5
8F
330
8B
100
AcDbEntity
  8
0
  6
Continuous
 62
     7
370
    18
100
AcDbLine
 10
481.2952368181
 20
-459.5434343227
 30
0.0
 11
488.5218665281
 21
-467.3685815359
 31
0.0
  0
LINE
  5
90
330
8B
100
AcDbEntity
  8
0
  6
Continuous
 62
     7
370
    18
100
AcDbLine
 10
488.5218665281
 20
-467.3685815359
 30
0.0
 11
522.2215973733
 21
-467.3685815359
 31
0.0
  0
LINE
  5
91
330
8B
100
AcDbEntity
  8
LOGOBLACK
100
AcDbLine
 10
886.1611361577
 20
-460.2732542579
 30
0.0
 11
930.2302057115
 21
-460.2732542579
 31
0.0
  0
LINE
  5
92
330
8B
100
AcDbEntity
  8
LOGOBLACK
100
AcDbLine
 10
930.2302057115
 20
-460.2732542579
 30
0.0
 11
930.2302057115
 21
-447.9798570673
 31
0.0
  0
LINE
  5
93
330
8B
100
AcDbEntity
  8
LOGORED
100
AcDbLine
 10
100.2952368181
 20
-65.5434343227
 30
0.0
 11
557.2963309087
 21
-65.5434343227
 31
0.0
  0
LINE
  5
94
330
8B
100
AcDbEntity
  8
LOGORED
100
AcDbLine
 10
557.2963309087
 20
-65.5434343227
 30
0.0
 11
557.2963309087
 21
-522.154710598
 31
0.0
  0
LINE
  5
95
330
8B
100
AcDbEntity
  8
LOGORED
100
AcDbLine
 10
557.2963309087
 20
-522.154710598
 30
0.0
 11
100.2952368181
 21
-522.154710598
 31
0.0
  0
LINE
  5
96
330
8B
100
AcDbEntity
  8
LOGORED
100
AcDbLine
 10
100.2952368181
 20
-522.154710598
 30
0.0
 11
100.2952368181
 21
-65.5434343227
 31
0.0
  0
LINE
  5
97
330
8B
100
AcDbEntity
  8
0
  6
Continuous
 62
     7
370
    18
100
AcDbLine
 10
499.2952368181
 20
-442.5434343227
 30
0.0
 11
522.2215973733
 21
-467.3685815359
 31
0.0
  0
LINE
  5
98
330
8B
100
AcDbEntity
  8
LOGOWHITE
100
AcDbLine
 10
312.842064242
 20
-353.5434343227
 30
0.0
 11
312.842064242
 21
-344.1744740357
 31
0.0
  0
LINE
  5
99
330
8B
100
AcDbEntity
  8
LOGOWHITE
100
AcDbLine
 10
312.842064242
 20
-344.1744740357
 30
0.0
 11
356.2486833027
 21
-344.1744740357
 31
0.0
  0
LINE
  5
9A
330
8B
100
AcDbEntity
  8
LOGOWHITE
100
AcDbLine
 10
356.2486833027
 20
-344.1744740357
 30
0.0
 11
356.2486833027
 21
-466.0412643375
 31
0.0
  0
LINE
  5
9B
330
8B
100
AcDbEntity
  8
LOGOWHITE
100
AcDbLine
 10
356.2486833027
 20
-466.0412643375
 30
0.0
 11
312.842064242
 21
-466.0412643375
 31
0.0
  0
LINE
  5
9C
330
8B
100
AcDbEntity
  8
LOGOWHITE
100
AcDbLine
 10
312.842064242
 20
-466.0412643375
 30
0.0
 11
312.842064242
 21
-451.5485362307
 31
0.0
  0
LINE
  5
9D
330
8B
100
AcDbEntity
  8
LOGORED
100
AcDbLine
 10
474.8794331155
 20
-418.1457106613
 30
0.0
 11
465.8446623826
 21
-411.1938867868
 31
0.0
  0
LINE
  5
9E
330
8B
100
AcDbEntity
  8
LOGORED
100
AcDbLine
 10
465.8446623826
 20
-411.1938867868
 30
0.0
 11
443.2952368181
 21
-414.5434343227
 31
0.0
  0
LINE
  5
9F
330
8B
100
AcDbEntity
  8
LOGORED
100
AcDbLine
 10
443.2952368181
 20
-414.5434343227
 30
0.0
 11
456.5129422012
 21
-430.8689248426
 31
0.0
  0
LINE
  5
A0
330
8B
100
AcDbEntity
  8
LOGOBLACK
100
AcDbLine
 10
735.2952368181
 20
-336.5434343227
 30
0.0
 11
754.3215344085
 21
-336.5434343227
 31
0.0
  0
LINE
  5
A1
330
8B
100
AcDbEntity
  8
LOGOBLACK
100
AcDbLine
 10
754.3215344085
 20
-336.5434343227
 30
0.0
 11
804.8077967938
 21
-460.2732542579
 31
0.0
  0
LINE
  5
A2
330
8B
100
AcDbEntity
  8
LOGOBLACK
100
AcDbLine
 10
804.8077967938
 20
-460.2732542579
 30
0.0
 11
785.2581631104
 21
-460.2732542579
 31
0.0
  0
LINE
  5
A3
330
8B
100
AcDbEntity
  8
LOGOBLACK
100
AcDbLine
 10
785.2581631104
 20
-460.2732542579
 30
0.0
 11
772.3413668619
 21
-428.3611694086
 31
0.0
  0
LINE
  5
A4
330
8B
100
AcDbEntity
  8
LOGOBLACK
100
AcDbLine
 10
772.3413668619
 20
-428.3611694086
 30
0.0
 11
715.811387986
 21
-428.3611694086
 31
0.0
  0
LINE
  5
A5
330
8B
100
AcDbEntity
  8
LOGOBLACK
100
AcDbLine
 10
715.811387986
 20
-428.3611694086
 30
0.0
 11
702.2867425022
 21
-460.2732542579
 31
0.0
  0
LINE
  5
A6
330
8B
100
AcDbEntity
  8
LOGOBLACK
100
AcDbLine
 10
702.2867425022
 20
-460.2732542579
 30
0.0
 11
683.5721153698
 21
-460.2732542579
 31
0.0
  0
LINE
  5
A7
330
8B
100
AcDbEntity
  8
LOGOBLACK
100
AcDbLine
 10
683.5721153698
 20
-460.2732542579
 30
0.0
 11
735.2952368181
 21
-336.5434343227
 31
0.0
  0
LINE
  5
A8
330
8B
100
AcDbEntity
  8
LOGOBLACK
100
AcDbLine
 10
744.2283397327
 20
-354.5074873288
 30
0.0
 11
767.0226860537
 21
-414.3806369984
 31
0.0
  0
LINE
  5
A9
330
8B
100
AcDbEntity
  8
LOGOBLACK
100
AcDbLine
 10
767.0226860537
 20
-414.3806369984
 30
0.0
 11
720.5692598983
 21
-414.3806369984
 31
0.0
  0
LINE
  5
AA
330
8B
100
AcDbEntity
  8
LOGOBLACK
100
AcDbLine
 10
720.5692598983
 20
-414.3806369984
 30
0.0
 11
744.2283397327
 21
-354.5074873288
 31
0.0
  0
LINE
  5
AB
330
8B
100
AcDbEntity
  8
LOGOBLACK
100
AcDbLine
 10
901.5752102796
 20
-447.9798570673
 30
0.0
 11
930.2302057115
 21
-447.9798570673
 31
0.0
  0
LINE
  5
AC
330
8B
100
AcDbEntity
  8
LOGOBLACK
100
AcDbLine
 10
1093.4435773827
 20
-411.3320405597
 30
0.0
 11
1093.4435773827
 21
-460.2732542579
 31
0.0
  0
LINE
  5
AD
330
8B
100
AcDbEntity
  8
LOGOBLACK
100
AcDbLine
 10
977.2952368181
 20
-336.7218318027
 30
0.0
 11
1076.805091259
 21
-336.7218318027
 31
0.0
  0
LINE
  5
AE
330
8B
100
AcDbEntity
  8
LOGOBLACK
100
AcDbLine
 10
1076.805091259
 20
-336.7218318027
 30
0.0
 11
1076.805091259
 21
-351.9177947708
 31
0.0
  0
LINE
  5
AF
330
8B
100
AcDbEntity
  8
LOGOBLACK
100
AcDbLine
 10
1076.805091259
 20
-351.9177947708
 30
0.0
 11
1035.3234437538
 21
-351.9177947708
 31
0.0
  0
LINE
  5
B0
330
8B
100
AcDbEntity
  8
LOGOBLACK
100
AcDbLine
 10
1035.3234437538
 20
-351.9177947708
 30
0.0
 11
1035.3234437538
 21
-460.2732542579
 31
0.0
  0
LINE
  5
B1
330
8B
100
AcDbEntity
  8
LOGOBLACK
100
AcDbLine
 10
1035.3234437538
 20
-460.2732542579
 30
0.0
 11
1018.820495723
 21
-460.2732542579
 31
0.0
  0
LINE
  5
B2
330
8B
100
AcDbEntity
  8
LOGOBLACK
100
AcDbLine
 10
1018.820495723
 20
-460.2732542579
 30
0.0
 11
1018.820495723
 21
-351.9177947708
 31
0.0
  0
LINE
  5
B3
330
8B
100
AcDbEntity
  8
LOGOBLACK
100
AcDbLine
 10
1018.820495723
 20
-351.9177947708
 30
0.0
 11
977.2952368181
 21
-351.9177947708
 31
0.0
  0
LINE
  5
B4
330
8B
100
AcDbEntity
  8
LOGOBLACK
100
AcDbLine
 10
977.2952368181
 20
-351.9177947708
 30
0.0
 11
977.2952368181
 21
-336.7218318027
 31
0.0
  0
LINE
  5
B5
330
8B
100
AcDbEntity
  8
LOGOBLACK
100
AcDbLine
 10
1124.3899288565
 20
-374.51933383
 30
0.0
 11
1124.3899288565
 21
-389.7461891812
 31
0.0
  0
LINE
  5
B6
330
8B
100
AcDbEntity
  8
LOGOBLACK
100
AcDbLine
 10
1093.4435773827
 20
-460.2732542579
 30
0.0
 11
1077.2952368181
 21
-460.2732542579
 31
0.0
  0
LINE
  5
B7
330
8B
100
AcDbEntity
  8
LOGOBLACK
100
AcDbLine
 10
1077.2952368181
 20
-460.2732542579
 30
0.0
 11
1077.2952368181
 21
-375.3115798664
 31
0.0
  0
LINE
  5
B8
330
8B
100
AcDbEntity
  8
LOGOBLACK
100
AcDbLine
 10
1077.2952368181
 20
-375.3115798664
 30
0.0
 11
1093.4435773827
 21
-375.3115798664
 31
0.0
  0
LINE
  5
B9
330
8B
100
AcDbEntity
  8
LOGOBLACK
100
AcDbLine
 10
1093.4435773827
 20
-375.3115798664
 30
0.0
 11
1093.4435773827
 21
-389.2732542579
 31
0.0
  0
LINE
  5
BA
330
8B
100
AcDbEntity
  8
LOGOBLACK
100
AcDbLine
 10
1208.8582099957
 20
-460.2732542579
 30
0.0
 11
1193.9249504044
 21
-460.2732542579
 31
0.0
  0
LINE
  5
BB
330
8B
100
AcDbEntity
  8
LOGOBLACK
100
AcDbLine
 10
1193.9249504044
 20
-460.2732542579
 30
0.0
 11
1193.9249504044
 21
-448.3296603805
 31
0.0
  0
LINE
  5
BC
330
8B
100
AcDbEntity
  8
LOGOBLACK
100
AcDbLine
 10
1158.1120921724
 20
-396.8699154638
 30
0.0
 11
1142.2848171892
 21
-396.8699154638
 31
0.0
  0
LINE
  5
BD
330
8B
100
AcDbEntity
  8
LOGOBLACK
100
AcDbLine
 10
1280.4736097023
 20
-336.651183657
 30
0.0
 11
1280.4736097023
 21
-349.2527066653
 31
0.0
  0
LINE
  5
BE
330
8B
100
AcDbEntity
  8
LOGOBLACK
100
AcDbLine
 10
1258.3346402671
 20
-375.0287925077
 30
0.0
 11
1278.1015772628
 21
-375.0287925077
 31
0.0
  0
LINE
  5
BF
330
8B
100
AcDbEntity
  8
LOGOBLACK
100
AcDbLine
 10
1278.1015772628
 20
-375.0287925077
 30
0.0
 11
1278.1015772628
 21
-386.0982772253
 31
0.0
  0
LINE
  5
C0
330
8B
100
AcDbEntity
  8
LOGOBLACK
100
AcDbLine
 10
1278.1015772628
 20
-386.0982772253
 30
0.0
 11
1258.3346402671
 21
-386.0982772253
 31
0.0
  0
LINE
  5
C1
330
8B
100
AcDbEntity
  8
LOGOBLACK
100
AcDbLine
 10
1258.3346402671
 20
-386.0982772253
 30
0.0
 11
1258.3346402671
 21
-460.2732542579
 31
0.0
  0
LINE
  5
C2
330
8B
100
AcDbEntity
  8
LOGOBLACK
100
AcDbLine
 10
1258.3346402671
 20
-460.2732542579
 30
0.0
 11
1242.538737741
 21
-460.2732542579
 31
0.0
  0
LINE
  5
C3
330
8B
100
AcDbEntity
  8
LOGOBLACK
100
AcDbLine
 10
1242.538737741
 20
-460.2732542579
 30
0.0
 11
1242.538737741
 21
-386.0982772253
 31
0.0
  0
LINE
  5
C4
330
8B
100
AcDbEntity
  8
LOGOBLACK
100
AcDbLine
 10
1242.538737741
 20
-386.0982772253
 30
0.0
 11
1225.2952368181
 21
-386.0982772253
 31
0.0
  0
LINE
  5
C5
330
8B
100
AcDbEntity
  8
LOGOBLACK
100
AcDbLine
 10
1225.2952368181
 20
-386.0982772253
 30
0.0
 11
1225.2952368181
 21
-375.0287925077
 31
0.0
  0
LINE
  5
C6
330
8B
100
AcDbEntity
  8
LOGOBLACK
100
AcDbLine
 10
1225.2952368181
 20
-375.0287925077
 30
0.0
 11
1242.538737741
 21
-375.0287925077
 31
0.0
  0
LINE
  5
C7
330
8B
100
AcDbEntity
  8
LOGOBLACK
100
AcDbLine
 10
1416.8156480464
 20
-351.2389144002
 30
0.0
 11
1416.8156480464
 21
-374.5277272999
 31
0.0
  0
LINE
  5
C8
330
8B
100
AcDbEntity
  8
LOGOBLACK
100
AcDbLine
 10
1416.8156480464
 20
-374.5277272999
 30
0.0
 11
1435.4598883818
 21
-374.5277272999
 31
0.0
  0
LINE
  5
C9
330
8B
100
AcDbEntity
  8
LOGOBLACK
100
AcDbLine
 10
1435.4598883818
 20
-374.5277272999
 30
0.0
 11
1435.4598883818
 21
-385.9269895242
 31
0.0
  0
LINE
  5
CA
330
8B
100
AcDbEntity
  8
LOGOBLACK
100
AcDbLine
 10
1435.4598883818
 20
-385.9269895242
 30
0.0
 11
1416.8156480464
 21
-385.9269895242
 31
0.0
  0
LINE
  5
CB
330
8B
100
AcDbEntity
  8
LOGOBLACK
100
AcDbLine
 10
1416.8156480464
 20
-385.9269895242
 30
0.0
 11
1416.8156480464
 21
-440.1134951993
 31
0.0
  0
LINE
  5
CC
330
8B
100
AcDbEntity
  8
LOGOBLACK
100
AcDbLine
 10
1435.6530962161
 20
-448.2316596791
 30
0.0
 11
1435.6530962161
 21
-460.2732542579
 31
0.0
  0
LINE
  5
CD
330
8B
100
AcDbEntity
  8
LOGOBLACK
100
AcDbLine
 10
1400.8756860403
 20
-385.9269895242
 30
0.0
 11
1385.2952368181
 21
-385.9269895242
 31
0.0
  0
LINE
  5
CE
330
8B
100
AcDbEntity
  8
LOGOBLACK
100
AcDbLine
 10
1385.2952368181
 20
-385.9269895242
 30
0.0
 11
1385.2952368181
 21
-374.5277272999
 31
0.0
  0
LINE
  5
CF
330
8B
100
AcDbEntity
  8
LOGOBLACK
100
AcDbLine
 10
1385.2952368181
 20
-374.5277272999
 30
0.0
 11
1400.8756860403
 21
-374.5277272999
 31
0.0
  0
LINE
  5
D0
330
8B
100
AcDbEntity
  8
LOGOBLACK
100
AcDbLine
 10
1400.8756860403
 20
-374.5277272999
 30
0.0
 11
1400.8756860403
 21
-356.9458143777
 31
0.0
  0
LINE
  5
D1
330
8B
100
AcDbEntity
  8
LOGOBLACK
100
AcDbLine
 10
1526.6701905967
 20
-420.0343033098
 30
0.0
 11
1464.3182601893
 21
-420.0343033098
 31
0.0
  0
LINE
  5
D2
330
8B
100
AcDbEntity
  8
LOGOBLACK
100
AcDbLine
 10
1509.9760928699
 20
-433.850108325
 30
0.0
 11
1525.8067027832
 21
-433.850108325
 31
0.0
  0
LINE
  5
D3
330
8B
100
AcDbEntity
  8
LOGOBLACK
100
AcDbLine
 10
1510.2952368181
 20
-409.0967910061
 30
0.0
 11
1465.2841270784
 21
-409.0967910061
 31
0.0
  0
LINE
  5
D4
330
8B
100
AcDbEntity
  8
LOGOBLACK
100
AcDbLine
 10
1549.1048904995
 20
-336.0564003262
 30
0.0
 11
1564.932458591
 21
-336.0564003262
 31
0.0
  0
LINE
  5
D5
330
8B
100
AcDbEntity
  8
LOGOBLACK
100
AcDbLine
 10
1564.932458591
 20
-336.0564003262
 30
0.0
 11
1564.932458591
 21
-409.0967910061
 31
0.0
  0
LINE
  5
D6
330
8B
100
AcDbEntity
  8
LOGOBLACK
100
AcDbLine
 10
1617.0395288564
 20
-374.9839176399
 30
0.0
 11
1581.6879286986
 21
-411.0116412979
 31
0.0
  0
LINE
  5
D7
330
8B
100
AcDbEntity
  8
LOGOBLACK
100
AcDbLine
 10
1581.6879286986
 20
-411.0116412979
 30
0.0
 11
1620.1297792793
 21
-460.2732542579
 31
0.0
  0
LINE
  5
D8
330
8B
100
AcDbEntity
  8
LOGOBLACK
100
AcDbLine
 10
1617.0395288564
 20
-374.9839176399
 30
0.0
 11
1596.5685083232
 21
-374.9839176399
 31
0.0
  0
LINE
  5
D9
330
8B
100
AcDbEntity
  8
LOGOBLACK
100
AcDbLine
 10
1620.1297792793
 20
-460.2732542579
 30
0.0
 11
1599.1488682258
 21
-460.2732542579
 31
0.0
  0
LINE
  5
DA
330
8B
100
AcDbEntity
  8
LOGOBLACK
100
AcDbLine
 10
1599.1488682258
 20
-460.2732542579
 30
0.0
 11
1564.932458591
 21
-413.9936902133
 31
0.0
  0
LINE
  5
DB
330
8B
100
AcDbEntity
  8
LOGOBLACK
100
AcDbLine
 10
1564.932458591
 20
-413.9936902133
 30
0.0
 11
1564.932458591
 21
-460.2732542579
 31
0.0
  0
LINE
  5
DC
330
8B
100
AcDbEntity
  8
LOGOBLACK
100
AcDbLine
 10
1564.932458591
 20
-460.2732542579
 30
0.0
 11
1549.1048904995
 21
-460.2732542579
 31
0.0
  0
LINE
  5
DD
330
8B
100
AcDbEntity
  8
LOGOBLACK
100
AcDbLine
 10
1549.1048904995
 20
-460.2732542579
 30
0.0
 11
1549.1048904995
 21
-336.0564003262
 31
0.0
  0
LINE
  5
DE
330
8B
100
AcDbEntity
  8
LOGOBLACK
100
AcDbLine
 10
1208.8582099957
 20
-391.6273069066
 30
0.0
 11
1208.8582099957
 21
-460.2732542579
 31
0.0
  0
LINE
  5
DF
330
8B
100
AcDbEntity
  8
LOGOBLACK
100
AcDbLine
 10
1280.4736097023
 20
-349.2527066653
 30
0.0
 11
1266.2414150654
 21
-349.2527066653
 31
0.0
  0
LINE
  5
E0
330
8B
100
AcDbEntity
  8
LOGOBLACK
100
AcDbLine
 10
1242.538737741
 20
-375.0287925077
 30
0.0
 11
1242.538737741
 21
-357.1985068748
 31
0.0
  0
LINE
  5
E1
330
8B
100
AcDbEntity
  8
LOGOBLACK
100
AcDbLine
 10
1258.3346402671
 20
-375.0287925077
 30
0.0
 11
1258.3346402671
 21
-357.1985068748
 31
0.0
  0
LINE
  5
E2
330
8B
100
AcDbEntity
  8
LOGOBLACK
100
AcDbLine
 10
1400.8756860403
 20
-356.9458143777
 30
0.0
 11
1416.8156480464
 21
-351.2389144002
 31
0.0
  0
LINE
  5
E3
330
8B
100
AcDbEntity
  8
LOGOBLACK
100
AcDbLine
 10
1400.8756860403
 20
-385.9269895242
 30
0.0
 11
1400.8756860403
 21
-444.5439026263
 31
0.0
  0
LINE
  5
E4
330
8B
100
AcDbEntity
  8
LOGOBLACK
100
AcDbLine
 10
1596.5685083232
 20
-374.9839176399
 30
0.0
 11
1564.932458591
 21
-409.0967910061
 31
0.0
  0
LINE
  5
E5
330
8B
100
AcDbEntity
  8
LOGOBLACK
100
AcDbLine
 10
1193.413475427
 20
-417.8913728832
 30
0.0
 11
1193.413475427
 21
-428.543604944
 31
0.0
  0
SPLINE
  5
E6
330
8B
100
AcDbEntity
  8
LOGOBLACK
100
AcDbSpline
210
0.0
220
0.0
230
1.0
 70
    11
 71
     3
 72
    15
 73
    11
 74
     0
 42
0.000000001
 43
0.00000001
 40
0.0
 40
0.0
 40
0.0
 40
0.0
 40
0.1572834442625891
 40
0.2558031543050804
 40
0.3854880000862587
 40
0.5168698899814066
 40
0.6693083427623244
 40
0.768317812370019
 40
0.8801687844334025
 40
1.0
 40
1.0
 40
1.0
 40
1.0
 10
830.3347198728837
 20
-398.9355163194719
 30
0.0
 10
830.5266360402612
 20
-383.7134387053566
 30
0.0
 10
834.9626988625823
 20
-356.7267731838041
 30
0.0
 10
875.256000260984
 20
-343.4594666257946
 30
0.0
 10
903.0190676879313
 20
-365.3259533602916
 30
0.0
 10
906.9501214828967
 20
-405.127873034323
 30
0.0
 10
896.1397235467405
 20
-445.9125561570935
 30
0.0
 10
856.5834947348957
 20
-452.5462094360998
 30
0.0
 10
832.7514811029142
 20
-431.4167952881572
 30
0.0
 10
830.1885026550988
 20
-410.532922979153
 30
0.0
 10
830.3347198728837
 20
-398.9355163194719
 30
0.0
  0
SPLINE
  5
E7
330
8B
100
AcDbEntity
  8
LOGOWHITE
100
AcDbSpline
210
0.0
220
0.0
230
1.0
 70
     8
 71
     3
 72
    15
 73
    11
 74
     0
 42
0.000000001
 43
0.00000001
 40
0.0
 40
0.0
 40
0.0
 40
0.0
 40
0.13222047033936
 40
0.219257562868491
 40
0.3803459203833053
 40
0.4739726821031104
 40
0.5918338686184114
 40
0.6999147150498567
 40
0.8284972553668565
 40
1.0
 40
1.0
 40
1.0
 40
1.0
 10
481.2952368180738
 20
-459.5434343227236
 30
0.0
 10
480.634134466377
 20
-459.8078752634023
 30
0.0
 10
450.2327104245459
 20
-476.9122567268358
 30
0.0
 10
385.0073447823211
 20
-451.9817261369127
 30
0.0
 10
373.6340631787112
 20
-400.6650247030703
 30
0.0
 10
390.3570127325023
 20
-359.5882651194876
 30
0.0
 10
425.9135753759987
 20
-335.8838900238231
 30
0.0
 10
491.3441449893735
 20
-341.5664456974412
 30
0.0
 10
526.5759901658064
 20
-409.5947550473275
 30
0.0
 10
499.8568452491536
 20
-441.9818258916439
 30
0.0
 10
499.2952368180739
 20
-442.5434343227236
 30
0.0
  0
SPLINE
  5
E8
330
8B
100
AcDbEntity
  8
LOGOBLACK
100
AcDbSpline
210
0.0
220
0.0
230
1.0
 70
     8
 71
     3
 72
    11
 73
     7
 74
     0
 42
0.000000001
 43
0.00000001
 40
0.0
 40
0.0
 40
0.0
 40
0.0
 40
0.4496838640015969
 40
0.6199989944421912
 40
0.7978090030722027
 40
1.0
 40
1.0
 40
1.0
 40
1.0
 10
1193.582028881778
 20
-407.111883620884
 30
0.0
 10
1165.389134586478
 20
-407.0988671861919
 30
0.0
 10
1136.771363299824
 20
-410.1992283183419
 30
0.0
 10
1136.862549034692
 20
-455.6701884463584
 30
0.0
 10
1167.753999684547
 20
-466.117670740158
 30
0.0
 10
1185.1232979903
 20
-460.3971661769531
 30
0.0
 10
1193.924950404406
 20
-448.3296603804841
 30
0.0
  0
SPLINE
  5
E9
330
8B
100
AcDbEntity
  8
LOGOWHITE
100
AcDbSpline
210
0.0
220
0.0
230
1.0
 70
     8
 71
     3
 72
    14
 73
    10
 74
     0
 42
0.000000001
 43
0.00000001
 40
0.0
 40
0.0
 40
0.0
 40
0.0
 40
0.0990597115464948
 40
0.1954535194865211
 40
0.3273142924966166
 40
0.5522143697720502
 40
0.6411111540118
 40
0.7934229238297069
 40
1.0
 40
1.0
 40
1.0
 40
1.0
 10
312.8420642420303
 20
-451.5485362307365
 30
0.0
 10
312.188697796188
 20
-452.1887033544407
 30
0.0
 10
300.1927287161632
 20
-467.9878093074191
 30
0.0
 10
253.5902259185405
 20
-467.762300244694
 30
0.0
 10
221.3929387242668
 20
-441.81845730132
 30
0.0
 10
209.6350368819181
 20
-395.5912462385817
 30
0.0
 10
237.5022191532712
 20
-347.639426019953
 30
0.0
 10
287.9783448787948
 20
-331.8385018360149
 30
0.0
 10
311.8352375707926
 20
-352.5158483386771
 30
0.0
 10
312.8420642420303
 20
-353.5434343227237
 30
0.0
  0
SPLINE
  5
EA
330
8B
100
AcDbEntity
  8
LOGORED
100
AcDbSpline
210
0.0
220
0.0
230
1.0
 70
     8
 71
     3
 72
    16
 73
    12
 74
     0
 42
0.000000001
 43
0.00000001
 40
0.0
 40
0.0
 40
0.0
 40
0.0
 40
0.1503386625098543
 40
0.2973298480720804
 40
0.4286765270530243
 40
0.4924273020817406
 40
0.5500266311365198
 40
0.7031170033296005
 40
0.801026911347908
 40
0.8824846636807683
 40
1.0
 40
1.0
 40
1.0
 40
1.0
 10
456.5129422011573
 20
-430.8689248425744
 30
0.0
 10
456.4628293136541
 20
-430.9190377300778
 30
0.0
 10
437.2349319182861
 20
-435.4964166248861
 30
0.0
 10
418.0275701407455
 20
-410.7853963056221
 30
0.0
 10
422.2064505858368
 20
-388.2798145651623
 30
0.0
 10
431.7604034166466
 20
-379.4014278607186
 30
0.0
 10
444.6132793744995
 20
-372.6937870267974
 30
0.0
 10
462.0857559218529
 20
-375.258475100619
 30
0.0
 10
474.091494360712
 20
-384.524296114738
 30
0.0
 10
482.6440325003924
 20
-407.0225258080306
 30
0.0
 10
474.918604894223
 20
-418.0281953250234
 30
0.0
 10
474.87943311545
 20
-418.1457106613427
 30
0.0
  0
SPLINE
  5
EB
330
8B
100
AcDbEntity
  8
LOGOBLACK
100
AcDbSpline
210
0.0
220
0.0
230
1.0
 70
     8
 71
     3
 72
    18
 73
    14
 74
     0
 42
0.000000001
 43
0.00000001
 40
0.0
 40
0.0
 40
0.0
 40
0.0
 40
0.194192402585278
 40
0.2497521479681457
 40
0.2992750302232267
 40
0.3384263062788241
 40
0.4454283850247076
 40
0.5213071419668607
 40
0.5673660849076805
 40
0.6334378507611373
 40
0.7710366243461027
 40
0.8371083901995265
 40
1.0
 40
1.0
 40
1.0
 40
1.0
 10
886.1611361577391
 20
-460.2732542579102
 30
0.0
 10
875.3422057578953
 20
-463.116477603778
 30
0.0
 10
859.3000430582309
 20
-464.2922952527733
 30
0.0
 10
835.7369003139137
 20
-455.9975114596144
 30
0.0
 10
819.0212227605515
 20
-437.1657082575885
 30
0.0
 10
811.2897154177408
 20
-411.8073478802499
 30
0.0
 10
810.7413727993826
 20
-381.423205493752
 30
0.0
 10
823.7665336173577
 20
-352.8304609219184
 30
0.0
 10
843.4305204488403
 20
-336.6655099561106
 30
0.0
 10
884.7281757662258
 20
-330.2441213247711
 30
0.0
 10
913.056309529522
 20
-349.8042750099435
 30
0.0
 10
924.3309963149316
 20
-385.8832727232532
 30
0.0
 10
924.5564900506396
 20
-427.59961382927
 30
0.0
 10
901.5752102795987
 20
-447.9798570672617
 30
0.0
  0
SPLINE
  5
EC
330
8B
100
AcDbEntity
  8
LOGOBLACK
100
AcDbSpline
210
0.0
220
0.0
230
1.0
 70
     8
 71
     3
 72
     9
 73
     5
 74
     0
 42
0.000000001
 43
0.00000001
 40
0.0
 40
0.0
 40
0.0
 40
0.0
 40
0.3743891026624015
 40
1.0
 40
1.0
 40
1.0
 40
1.0
 10
1093.443577382744
 20
-389.2732542579102
 30
0.0
 10
1093.568373750297
 20
-389.148457890356
 30
0.0
 10
1100.76265344834
 20
-372.4217851005341
 30
0.0
 10
1121.678948301402
 20
-374.3107968642279
 30
0.0
 10
1124.389928856531
 20
-374.519333830007
 30
0.0
  0
SPLINE
  5
ED
330
8B
100
AcDbEntity
  8
LOGOBLACK
100
AcDbSpline
210
0.0
220
0.0
230
1.0
 70
     8
 71
     3
 72
     9
 73
     5
 74
     0
 42
0.000000001
 43
0.00000001
 40
0.0
 40
0.0
 40
0.0
 40
0.0
 40
0.1860766563292801
 40
1.0
 40
1.0
 40
1.0
 40
1.0
 10
1124.389928856531
 20
-389.7461891812497
 30
0.0
 10
1123.334682794341
 20
-389.7923929845617
 30
0.0
 10
1103.748452327082
 20
-386.1584865660047
 30
0.0
 10
1094.571774038132
 20
-398.0177546173236
 30
0.0
 10
1093.443577382744
 20
-411.3320405597051
 30
0.0
  0
SPLINE
  5
EE
330
8B
100
AcDbEntity
  8
LOGOBLACK
100
AcDbSpline
210
0.0
220
0.0
230
1.0
 70
     8
 71
     3
 72
    10
 73
     6
 74
     0
 42
0.000000001
 43
0.00000001
 40
0.0
 40
0.0
 40
0.0
 40
0.0
 40
0.4204727082433015
 40
0.6524066117084282
 40
1.0
 40
1.0
 40
1.0
 40
1.0
 10
1142.284817189226
 20
-396.8699154637982
 30
0.0
 10
1142.652254627543
 20
-383.034392844928
 30
0.0
 10
1161.19565248864
 20
-370.5809957231805
 30
0.0
 10
1190.343511997634
 20
-372.1959046458764
 30
0.0
 10
1207.150983758595
 20
-379.8214312951409
 30
0.0
 10
1208.858209995655
 20
-391.6273069066301
 30
0.0
  0
SPLINE
  5
EF
330
8B
100
AcDbEntity
  8
LOGOBLACK
100
AcDbSpline
210
0.0
220
0.0
230
1.0
 70
     8
 71
     3
 72
     9
 73
     5
 74
     0
 42
0.000000001
 43
0.00000001
 40
0.0
 40
0.0
 40
0.0
 40
0.0
 40
0.2750556893924498
 40
1.0
 40
1.0
 40
1.0
 40
1.0
 10
1242.538737740972
 20
-357.1985068747965
 30
0.0
 10
1242.538737740972
 20
-351.4241663205751
 30
0.0
 10
1247.225818926365
 20
-334.4138421764871
 30
0.0
 10
1270.897374175325
 20
-333.6567561877144
 30
0.0
 10
1280.473609702332
 20
-336.6511836569633
 30
0.0
  0
SPLINE
  5
F0
330
8B
100
AcDbEntity
  8
LOGOBLACK
100
AcDbSpline
210
0.0
220
0.0
230
1.0
 70
     8
 71
     3
 72
     9
 73
     5
 74
     0
 42
0.000000001
 43
0.00000001
 40
0.0
 40
0.0
 40
0.0
 40
0.0
 40
0.4938718806057532
 40
1.0
 40
1.0
 40
1.0
 40
1.0
 10
1258.334640267127
 20
-357.1985068747965
 30
0.0
 10
1258.334640267127
 20
-355.2421471016139
 30
0.0
 10
1259.692501541489
 20
-350.9183167317323
 30
0.0
 10
1263.940007516335
 20
-349.2527066653168
 30
0.0
 10
1266.241415065414
 20
-349.2527066653167
 30
0.0
  0
SPLINE
  5
F1
330
8B
100
AcDbEntity
  8
LOGOBLACK
100
AcDbSpline
210
0.0
220
0.0
230
1.0
 70
     8
 71
     3
 72
    10
 73
     6
 74
     0
 42
0.000000001
 43
0.00000001
 40
0.0
 40
0.0
 40
0.0
 40
0.0
 40
0.2798150617500965
 40
0.5122745805932668
 40
1.0
 40
1.0
 40
1.0
 40
1.0
 10
1193.582028881778
 20
-407.111883620884
 30
0.0
 10
1193.526240796657
 20
-405.5492852978068
 30
0.0
 10
1194.756649960638
 20
-383.6155332470445
 30
0.0
 10
1160.307607320568
 20
-382.0037444319324
 30
0.0
 10
1159.652161009259
 20
-392.2497089532604
 30
0.0
 10
1158.112092172413
 20
-396.8699154637982
 30
0.0
  0
SPLINE
  5
F2
330
8B
100
AcDbEntity
  8
LOGOBLACK
100
AcDbSpline
210
0.0
220
0.0
230
1.0
 70
    11
 71
     3
 72
    15
 73
    11
 74
     0
 42
0.000000001
 43
0.00000001
 40
0.0
 40
0.0
 40
0.0
 40
0.0
 40
0.1597312406721427
 40
0.2538976409030486
 40
0.3815294728889243
 40
0.5048795980769698
 40
0.644078165757665
 40
0.7506116727333013
 40
0.8696389301601041
 40
1.0
 40
1.0
 40
1.0
 40
1.0
 10
1288.328837475769
 20
-417.8913728832235
 30
0.0
 10
1288.179659794909
 20
-402.2438926836442
 30
0.0
 10
1297.784488527913
 20
-378.346164050338
 30
0.0
 10
1335.855820870049
 20
-368.828330964804
 30
0.0
 10
1369.347277223289
 20
-382.4065702590351
 30
0.0
 10
1377.561234935753
 20
-422.6473507757325
 30
0.0
 10
1364.035374666786
 20
-456.1862598679141
 30
0.0
 10
1329.384620837057
 20
-466.3353391308128
 30
0.0
 10
1296.57312795339
 20
-455.8732408197785
 30
0.0
 10
1288.450585494449
 20
-430.6617129277399
 30
0.0
 10
1288.328837475769
 20
-417.8913728832235
 30
0.0
  0
SPLINE
  5
F3
330
8B
100
AcDbEntity
  8
LOGOBLACK
100
AcDbSpline
210
0.0
220
0.0
230
1.0
 70
    11
 71
     3
 72
    15
 73
    11
 74
     0
 42
0.000000001
 43
0.00000001
 40
0.0
 40
0.0
 40
0.0
 40
0.0
 40
0.1477423621966168
 40
0.2567690463135646
 40
0.3736433571566602
 40
0.5063667112849842
 40
0.65512459445787
 40
0.7537690364438497
 40
0.8757101265328279
 40
1.0
 40
1.0
 40
1.0
 40
1.0
 10
1305.267053791806
 20
-417.6540250348229
 30
0.0
 10
1305.299019648338
 20
-407.977289059024
 30
0.0
 10
1308.31052397716
 20
-390.8982651841817
 30
0.0
 10
1332.588917401932
 20
-381.3258550884507
 30
0.0
 10
1355.684832073111
 20
-392.9191969820961
 30
0.0
 10
1357.487259700808
 20
-419.0132690521651
 30
0.0
 10
1353.174457437
 20
-444.8363298616995
 30
0.0
 10
1327.549348359037
 20
-454.661880245256
 30
0.0
 10
1307.571553728328
 20
-441.7113434087968
 30
0.0
 10
1305.240162166381
 20
-425.7946847083612
 30
0.0
 10
1305.267053791806
 20
-417.6540250348229
 30
0.0
  0
SPLINE
  5
F4
330
8B
100
AcDbEntity
  8
LOGOBLACK
100
AcDbSpline
210
0.0
220
0.0
230
1.0
 70
     8
 71
     3
 72
     9
 73
     5
 74
     0
 42
0.000000001
 43
0.00000001
 40
0.0
 40
0.0
 40
0.0
 40
0.0
 40
0.3120208634196994
 40
1.0
 40
1.0
 40
1.0
 40
1.0
 10
1416.815648046404
 20
-440.1134951993061
 30
0.0
 10
1416.815648046404
 20
-443.488959347206
 30
0.0
 10
1420.111025944111
 20
-450.3043999992836
 30
0.0
 10
1430.596319255001
 20
-448.8813959070913
 30
0.0
 10
1435.65309621613
 20
-448.231659679118
 30
0.0
  0
SPLINE
  5
F5
330
8B
100
AcDbEntity
  8
LOGOBLACK
100
AcDbSpline
210
0.0
220
0.0
230
1.0
 70
     8
 71
     3
 72
     9
 73
     5
 74
     0
 42
0.000000001
 43
0.00000001
 40
0.0
 40
0.0
 40
0.0
 40
0.0
 40
0.2932527405431021
 40
1.0
 40
1.0
 40
1.0
 40
1.0
 10
1400.875686040272
 20
-444.5439026263478
 30
0.0
 10
1400.875686040272
 20
-450.3219029044819
 30
0.0
 10
1405.206930452206
 20
-464.0101762556594
 30
0.0
 10
1427.258094705461
 20
-461.4832801181861
 30
0.0
 10
1435.65309621613
 20
-460.2732542579101
 30
0.0
  0
SPLINE
  5
F6
330
8B
100
AcDbEntity
  8
LOGOBLACK
100
AcDbSpline
210
0.0
220
0.0
230
1.0
 70
     8
 71
     3
 72
     9
 73
     5
 74
     0
 42
0.000000001
 43
0.00000001
 40
0.0
 40
0.0
 40
0.0
 40
0.0
 40
0.5158716470413174
 40
1.0
 40
1.0
 40
1.0
 40
1.0
 10
1465.284127078366
 20
-409.096791006054
 30
0.0
 10
1465.218641205964
 20
-390.243973745671
 30
0.0
 10
1496.304202490259
 20
-374.7011931035232
 30
0.0
 10
1510.120007505501
 20
-394.1296689062079
 30
0.0
 10
1510.295236818074
 20
-409.096791006054
 30
0.0
  0
SPLINE
  5
F7
330
8B
100
AcDbEntity
  8
LOGOBLACK
100
AcDbSpline
210
0.0
220
0.0
230
1.0
 70
     8
 71
     3
 72
     9
 73
     5
 74
     0
 42
0.000000001
 43
0.00000001
 40
0.0
 40
0.0
 40
0.0
 40
0.0
 40
0.3997347720406709
 40
1.0
 40
1.0
 40
1.0
 40
1.0
 10
1509.976092869926
 20
-433.8501083250301
 30
0.0
 10
1509.832178234351
 20
-446.8024255268199
 30
0.0
 10
1478.458787678902
 20
-459.3229988218835
 30
0.0
 10
1464.499068028087
 20
-438.0236327567178
 30
0.0
 10
1464.318260189277
 20
-420.0343033097876
 30
0.0
  0
SPLINE
  5
F8
330
8B
100
AcDbEntity
  8
LOGOBLACK
100
AcDbSpline
210
0.0
220
0.0
230
1.0
 70
     8
 71
     3
 72
    14
 73
    10
 74
     0
 42
0.000000001
 43
0.00000001
 40
0.0
 40
0.0
 40
0.0
 40
0.0
 40
0.1698976723234483
 40
0.2697276718388843
 40
0.3913409437651446
 40
0.5445091432007206
 40
0.6759631913788797
 40
0.800632927906011
 40
1.0
 40
1.0
 40
1.0
 40
1.0
 10
1526.670190596677
 20
-420.0343033097876
 30
0.0
 10
1527.245849138979
 20
-399.4545104224994
 30
0.0
 10
1521.489263715961
 20
-379.3064614419374
 30
0.0
 10
1488.419648313165
 20
-369.0861617275195
 30
0.0
 10
1454.683863469337
 20
-380.3701019046936
 30
0.0
 10
1446.653653216731
 20
-417.8755837761559
 30
0.0
 10
1454.397333228061
 20
-455.1735226892396
 30
0.0
 10
1496.304202490258
 20
-468.8213647698627
 30
0.0
 10
1525.374958876498
 20
-453.5664133988655
 30
0.0
 10
1525.806702783224
 20
-433.8501083250301
 30
0.0
  0
SPLINE
  5
F9
330
8B
100
AcDbEntity
  8
LOGOBLACK
100
AcDbSpline
210
0.0
220
0.0
230
1.0
 70
     8
 71
     3
 72
    14
 73
    10
 74
     0
 42
0.000000001
 43
0.00000001
 40
0.0
 40
0.0
 40
0.0
 40
0.0
 40
0.2019604257443172
 40
0.3546053896324524
 40
0.4589124134349229
 40
0.5708650480258104
 40
0.6914800964576889
 40
0.8371640456447865
 40
1.0
 40
1.0
 40
1.0
 40
1.0
 10
1193.413475427034
 20
-417.8913728832235
 30
0.0
 10
1185.673545531105
 20
-417.9459629437906
 30
0.0
 10
1169.479590292212
 20
-417.8367649493389
 30
0.0
 10
1154.74667535859
 20
-424.9629132711634
 30
0.0
 10
1151.874552957251
 20
-438.329329062011
 30
0.0
 10
1158.626764634438
 20
-449.6115055352852
 30
0.0
 10
1175.379087276572
 20
-451.6628103486079
 30
0.0
 10
1187.345032020954
 20
-446.7054903830783
 30
0.0
 10
1193.413475427034
 20
-436.4489663164653
 30
0.0
 10
1193.413475427034
 20
-428.5436049439868
 30
0.0
  0
HATCH
  5
FA
330
8B
100
AcDbEntity
  8
LOGOBLACK
100
AcDbHatch
 10
0.0
 20
0.0
 30
0.0
210
0.0
220
0.0
230
1.0
  2
SOLID
 70
     1
 71
     0
 91
        1
 92
        0
 93
       11
 72
     1
 10
1617.039528856351
 20
-374.983917639904
 11
1596.56850832318
 21
-374.9839176399039
 72
     1
 10
1596.56850832318
 20
-374.9839176399039
 11
1564.932458590987
 21
-409.096791006054
 72
     1
 10
1564.932458590987
 20
-409.096791006054
 11
1564.932458590987
 21
-336.056400326247
 72
     1
 10
1564.932458590987
 20
-336.056400326247
 11
1549.104890499464
 21
-336.056400326247
 72
     1
 10
1549.104890499464
 20
-336.056400326247
 11
1549.104890499464
 21
-460.2732542579101
 72
     1
 10
1549.104890499464
 20
-460.2732542579101
 11
1564.932458590987
 21
-460.2732542579101
 72
     1
 10
1564.932458590987
 20
-460.2732542579101
 11
1564.932458590987
 21
-413.9936902133333
 72
     1
 10
1564.932458590987
 20
-413.9936902133333
 11
1599.14886822584
 21
-460.2732542579101
 72
     1
 10
1599.14886822584
 20
-460.2732542579101
 11
1620.129779279259
 21
-460.2732542579102
 72
     1
 10
1620.129779279259
 20
-460.2732542579102
 11
1581.687928698593
 21
-411.0116412979468
 72
     1
 10
1581.687928698593
 20
-411.0116412979468
 11
1617.039528856351
 21
-374.983917639904
 97
        0
 75
     0
 76
     1
 98
        1
 10
0.0
 20
0.0
  0
HATCH
  5
FB
330
8B
100
AcDbEntity
  8
LOGOBLACK
100
AcDbHatch
 10
0.0
 20
0.0
 30
0.0
210
0.0
220
0.0
230
1.0
  2
SOLID
 70
     1
 71
     0
 91
        2
 92
        0
 93
        4
 72
     1
 10
1464.318260189277
 20
-420.0343033097876
 11
1526.670190596677
 21
-420.0343033097876
 72
     4
 94
        3
 73
     1
 74
     0
 95
       14
 96
       10
 40
0.0
 40
0.0
 40
0.0
 40
0.0
 40
0.1698976723234483
 40
0.2697276718388843
 40
0.3913409437651446
 40
0.5445091432007206
 40
0.6759631913788797
 40
0.800632927906011
 40
1.0
 40
1.0
 40
1.0
 40
1.0
 10
1526.670190596677
 20
-420.0343033097876
 42
1.0
 10
1527.245849138979
 20
-399.4545104224994
 42
1.0
 10
1521.489263715961
 20
-379.3064614419374
 42
1.0
 10
1488.419648313165
 20
-369.0861617275195
 42
1.0
 10
1454.683863469337
 20
-380.3701019046936
 42
1.0
 10
1446.653653216731
 20
-417.8755837761559
 42
1.0
 10
1454.397333228061
 20
-455.1735226892396
 42
1.0
 10
1496.304202490258
 20
-468.8213647698627
 42
1.0
 10
1525.374958876498
 20
-453.5664133988655
 42
1.0
 10
1525.806702783224
 20
-433.8501083250301
 42
1.0
 72
     1
 10
1525.806702783224
 20
-433.8501083250301
 11
1509.976092869926
 21
-433.8501083250301
 72
     4
 94
        3
 73
     1
 74
     0
 95
        9
 96
        5
 40
0.0
 40
0.0
 40
0.0
 40
0.0
 40
0.3997347720406709
 40
1.0
 40
1.0
 40
1.0
 40
1.0
 10
1509.976092869926
 20
-433.8501083250301
 42
1.0
 10
1509.832178234351
 20
-446.8024255268199
 42
1.0
 10
1478.458787678902
 20
-459.3229988218835
 42
1.0
 10
1464.499068028087
 20
-438.0236327567178
 42
1.0
 10
1464.318260189277
 20
-420.0343033097876
 42
1.0
 97
        0
 92
        0
 93
        2
 72
     1
 10
1510.295236818074
 20
-409.096791006054
 11
1465.284127078366
 21
-409.096791006054
 72
     4
 94
        3
 73
     1
 74
     0
 95
        9
 96
        5
 40
0.0
 40
0.0
 40
0.0
 40
0.0
 40
0.5158716470413174
 40
1.0
 40
1.0
 40
1.0
 40
1.0
 10
1465.284127078366
 20
-409.096791006054
 42
1.0
 10
1465.218641205964
 20
-390.243973745671
 42
1.0
 10
1496.304202490259
 20
-374.7011931035232
 42
1.0
 10
1510.120007505501
 20
-394.1296689062079
 42
1.0
 10
1510.295236818074
 20
-409.096791006054
 42
1.0
 97
        0
 75
     0
 76
     1
 98
        1
 10
0.0
 20
0.0
  0
HATCH
  5
FC
330
8B
100
AcDbEntity
  8
LOGOBLACK
100
AcDbHatch
 10
0.0
 20
0.0
 30
0.0
210
0.0
220
0.0
230
1.0
  2
SOLID
 70
     1
 71
     0
 91
        1
 92
        0
 93
       14
 72
     1
 10
1400.875686040272
 20
-385.9269895242496
 11
1400.875686040272
 21
-444.5439026263478
 72
     4
 94
        3
 73
     1
 74
     0
 95
        9
 96
        5
 40
0.0
 40
0.0
 40
0.0
 40
0.0
 40
0.2932527405431021
 40
1.0
 40
1.0
 40
1.0
 40
1.0
 10
1400.875686040272
 20
-444.5439026263478
 42
1.0
 10
1400.875686040272
 20
-450.3219029044819
 42
1.0
 10
1405.206930452206
 20
-464.0101762556594
 42
1.0
 10
1427.258094705461
 20
-461.4832801181861
 42
1.0
 10
1435.65309621613
 20
-460.2732542579101
 42
1.0
 72
     1
 10
1435.65309621613
 20
-460.2732542579101
 11
1435.65309621613
 21
-448.231659679118
 72
     4
 94
        3
 73
     1
 74
     0
 95
        9
 96
        5
 40
0.0
 40
0.0
 40
0.0
 40
0.0
 40
0.6879791365803005
 40
1.0
 40
1.0
 40
1.0
 40
1.0
 10
1435.65309621613
 20
-448.231659679118
 42
1.0
 10
1430.596319255001
 20
-448.8813959070913
 42
1.0
 10
1420.111025944111
 20
-450.3043999992836
 42
1.0
 10
1416.815648046404
 20
-443.488959347206
 42
1.0
 10
1416.815648046404
 20
-440.1134951993061
 42
1.0
 72
     1
 10
1416.815648046404
 20
-440.1134951993061
 11
1416.815648046404
 21
-385.9269895242496
 72
     1
 10
1416.815648046404
 20
-385.9269895242496
 11
1435.45988838182
 21
-385.9269895242496
 72
     1
 10
1435.45988838182
 20
-385.9269895242496
 11
1435.45988838182
 21
-374.5277272999406
 72
     1
 10
1435.45988838182
 20
-374.5277272999406
 11
1416.815648046404
 21
-374.5277272999406
 72
     1
 10
1416.815648046404
 20
-374.5277272999406
 11
1416.815648046404
 21
-351.2389144001975
 72
     1
 10
1416.815648046404
 20
-351.2389144001975
 11
1400.875686040272
 21
-356.9458143777015
 72
     1
 10
1400.875686040272
 20
-356.9458143777015
 11
1400.875686040272
 21
-374.5277272999406
 72
     1
 10
1400.875686040272
 20
-374.5277272999406
 11
1385.295236818074
 21
-374.5277272999406
 72
     1
 10
1385.295236818074
 20
-374.5277272999406
 11
1385.295236818074
 21
-385.9269895242496
 72
     1
 10
1385.295236818074
 20
-385.9269895242496
 11
1400.875686040272
 21
-385.9269895242496
 97
        0
 75
     0
 76
     1
 98
        1
 10
0.0
 20
0.0
  0
HATCH
  5
FD
330
8B
100
AcDbEntity
  8
LOGOBLACK
100
AcDbHatch
 10
0.0
 20
0.0
 30
0.0
210
0.0
220
0.0
230
1.0
  2
SOLID
 70
     1
 71
     0
 91
        2
 92
        0
 93
        1
 72
     4
 94
        3
 73
     1
 74
     0
 95
       15
 96
       11
 40
0.0
 40
0.0
 40
0.0
 40
0.0
 40
0.1303610698398959
 40
0.2493883272666987
 40
0.355921834242335
 40
0.4951204019230302
 40
0.6184705271110758
 40
0.7461023590969514
 40
0.8402687593278573
 40
1.0
 40
1.0
 40
1.0
 40
1.0
 10
1288.328837475769
 20
-417.8913728832235
 42
1.0
 10
1288.450585494449
 20
-430.6617129277399
 42
1.0
 10
1296.57312795339
 20
-455.8732408197785
 42
1.0
 10
1329.384620837057
 20
-466.3353391308128
 42
1.0
 10
1364.035374666786
 20
-456.1862598679141
 42
1.0
 10
1377.561234935753
 20
-422.6473507757325
 42
1.0
 10
1369.347277223289
 20
-382.4065702590351
 42
1.0
 10
1335.855820870049
 20
-368.828330964804
 42
1.0
 10
1297.784488527913
 20
-378.346164050338
 42
1.0
 10
1288.17965979491
 20
-402.2438926836442
 42
1.0
 10
1288.328837475769
 20
-417.8913728832235
 42
1.0
 97
        0
 92
        0
 93
        1
 72
     4
 94
        3
 73
     1
 74
     0
 95
       15
 96
       11
 40
0.0
 40
0.0
 40
0.0
 40
0.0
 40
0.1477423621966168
 40
0.2567690463135646
 40
0.3736433571566602
 40
0.5063667112849842
 40
0.65512459445787
 40
0.7537690364438497
 40
0.8757101265328279
 40
1.0
 40
1.0
 40
1.0
 40
1.0
 10
1305.267053791806
 20
-417.6540250348229
 42
1.0
 10
1305.299019648338
 20
-407.977289059024
 42
1.0
 10
1308.31052397716
 20
-390.8982651841817
 42
1.0
 10
1332.588917401932
 20
-381.3258550884507
 42
1.0
 10
1355.684832073111
 20
-392.9191969820961
 42
1.0
 10
1357.487259700808
 20
-419.0132690521651
 42
1.0
 10
1353.174457437
 20
-444.8363298616995
 42
1.0
 10
1327.549348359037
 20
-454.661880245256
 42
1.0
 10
1307.571553728328
 20
-441.7113434087968
 42
1.0
 10
1305.240162166381
 20
-425.7946847083612
 42
1.0
 10
1305.267053791806
 20
-417.6540250348229
 42
1.0
 97
        0
 75
     0
 76
     1
 98
        1
 10
0.0
 20
0.0
  0
HATCH
  5
FE
330
8B
100
AcDbEntity
  8
LOGOBLACK
100
AcDbHatch
 10
0.0
 20
0.0
 30
0.0
210
0.0
220
0.0
230
1.0
  2
SOLID
 70
     1
 71
     0
 91
        1
 92
        0
 93
       15
 72
     1
 10
1258.334640267127
 20
-375.0287925077347
 11
1258.334640267127
 21
-357.1985068747965
 72
     4
 94
        3
 73
     1
 74
     0
 95
        9
 96
        5
 40
0.0
 40
0.0
 40
0.0
 40
0.0
 40
0.4938718806057532
 40
1.0
 40
1.0
 40
1.0
 40
1.0
 10
1258.334640267127
 20
-357.1985068747965
 42
1.0
 10
1258.334640267127
 20
-355.2421471016139
 42
1.0
 10
1259.692501541489
 20
-350.9183167317323
 42
1.0
 10
1263.940007516335
 20
-349.2527066653168
 42
1.0
 10
1266.241415065414
 20
-349.2527066653167
 42
1.0
 72
     1
 10
1266.241415065414
 20
-349.2527066653167
 11
1280.473609702332
 21
-349.2527066653167
 72
     1
 10
1280.473609702332
 20
-349.2527066653167
 11
1280.473609702332
 21
-336.6511836569633
 72
     4
 94
        3
 73
     1
 74
     0
 95
        9
 96
        5
 40
0.0
 40
0.0
 40
0.0
 40
0.0
 40
0.7249443106075502
 40
1.0
 40
1.0
 40
1.0
 40
1.0
 10
1280.473609702332
 20
-336.6511836569633
 42
1.0
 10
1270.897374175325
 20
-333.6567561877144
 42
1.0
 10
1247.225818926365
 20
-334.4138421764871
 42
1.0
 10
1242.538737740972
 20
-351.4241663205751
 42
1.0
 10
1242.538737740972
 20
-357.1985068747965
 42
1.0
 72
     1
 10
1242.538737740972
 20
-357.1985068747965
 11
1242.538737740972
 21
-375.0287925077347
 72
     1
 10
1242.538737740972
 20
-375.0287925077347
 11
1225.295236818074
 21
-375.0287925077347
 72
     1
 10
1225.295236818074
 20
-375.0287925077347
 11
1225.295236818074
 21
-386.0982772253375
 72
     1
 10
1225.295236818074
 20
-386.0982772253375
 11
1242.538737740972
 21
-386.0982772253375
 72
     1
 10
1242.538737740972
 20
-386.0982772253375
 11
1242.538737740972
 21
-460.2732542579101
 72
     1
 10
1242.538737740972
 20
-460.2732542579101
 11
1258.334640267127
 21
-460.2732542579101
 72
     1
 10
1258.334640267127
 20
-460.2732542579101
 11
1258.334640267127
 21
-386.0982772253375
 72
     1
 10
1258.334640267127
 20
-386.0982772253375
 11
1278.101577262847
 21
-386.0982772253375
 72
     1
 10
1278.101577262847
 20
-386.0982772253375
 11
1278.101577262847
 21
-375.0287925077347
 72
     1
 10
1278.101577262847
 20
-375.0287925077347
 11
1258.334640267127
 21
-375.0287925077347
 97
        0
 75
     0
 76
     1
 98
        1
 10
0.0
 20
0.0
  0
HATCH
  5
FF
330
8B
100
AcDbEntity
  8
LOGOBLACK
100
AcDbHatch
 10
0.0
 20
0.0
 30
0.0
210
0.0
220
0.0
230
1.0
  2
SOLID
 70
     1
 71
     0
 91
        2
 92
        0
 93
        7
 72
     4
 94
        3
 73
     1
 74
     0
 95
       10
 96
        6
 40
0.0
 40
0.0
 40
0.0
 40
0.0
 40
0.4877254194067332
 40
0.7201849382499035
 40
1.0
 40
1.0
 40
1.0
 40
1.0
 10
1158.112092172413
 20
-396.8699154637982
 42
1.0
 10
1159.652161009259
 20
-392.2497089532604
 42
1.0
 10
1160.307607320568
 20
-382.0037444319324
 42
1.0
 10
1194.756649960638
 20
-383.6155332470445
 42
1.0
 10
1193.526240796657
 20
-405.5492852978068
 42
1.0
 10
1193.582028881778
 20
-407.111883620884
 42
1.0
 72
     4
 94
        3
 73
     1
 74
     0
 95
       11
 96
        7
 40
0.0
 40
0.0
 40
0.0
 40
0.0
 40
0.4496838640015969
 40
0.6199989944421912
 40
0.7978090030722027
 40
1.0
 40
1.0
 40
1.0
 40
1.0
 10
1193.582028881778
 20
-407.111883620884
 42
1.0
 10
1165.389134586478
 20
-407.0988671861919
 42
1.0
 10
1136.771363299824
 20
-410.1992283183419
 42
1.0
 10
1136.862549034692
 20
-455.6701884463584
 42
1.0
 10
1167.753999684547
 20
-466.117670740158
 42
1.0
 10
1185.1232979903
 20
-460.3971661769531
 42
1.0
 10
1193.924950404406
 20
-448.3296603804841
 42
1.0
 72
     1
 10
1193.924950404406
 20
-448.3296603804841
 11
1193.924950404406
 21
-460.2732542579101
 72
     1
 10
1193.924950404406
 20
-460.2732542579101
 11
1208.858209995655
 21
-460.2732542579101
 72
     1
 10
1208.858209995655
 20
-460.2732542579101
 11
1208.858209995655
 21
-391.6273069066301
 72
     4
 94
        3
 73
     1
 74
     0
 95
       10
 96
        6
 40
0.0
 40
0.0
 40
0.0
 40
0.0
 40
0.3475933882915718
 40
0.5795272917566985
 40
1.0
 40
1.0
 40
1.0
 40
1.0
 10
1208.858209995655
 20
-391.6273069066301
 42
1.0
 10
1207.150983758595
 20
-379.8214312951409
 42
1.0
 10
1190.343511997634
 20
-372.1959046458764
 42
1.0
 10
1161.19565248864
 20
-370.5809957231805
 42
1.0
 10
1142.652254627543
 20
-383.034392844928
 42
1.0
 10
1142.284817189226
 20
-396.8699154637982
 42
1.0
 72
     1
 10
1142.284817189226
 20
-396.8699154637982
 11
1158.112092172413
 21
-396.8699154637982
 97
        0
 92
        0
 93
        2
 72
     4
 94
        3
 73
     1
 74
     0
 95
       14
 96
       10
 40
0.0
 40
0.0
 40
0.0
 40
0.0
 40
0.1628359543552135
 40
0.3085199035423111
 40
0.4291349519741896
 40
0.541087586565077
 40
0.6453946103675476
 40
0.7980395742556828
 40
1.0
 40
1.0
 40
1.0
 40
1.0
 10
1193.413475427034
 20
-428.5436049439868
 42
1.0
 10
1193.413475427034
 20
-436.4489663164653
 42
1.0
 10
1187.345032020954
 20
-446.7054903830783
 42
1.0
 10
1175.379087276572
 20
-451.6628103486079
 42
1.0
 10
1158.626764634438
 20
-449.6115055352852
 42
1.0
 10
1151.874552957251
 20
-438.329329062011
 42
1.0
 10
1154.74667535859
 20
-424.9629132711634
 42
1.0
 10
1169.479590292212
 20
-417.8367649493389
 42
1.0
 10
1185.673545531105
 20
-417.9459629437906
 42
1.0
 10
1193.413475427034
 20
-417.8913728832235
 42
1.0
 72
     1
 10
1193.413475427034
 20
-417.8913728832235
 11
1193.413475427034
 21
-428.5436049439868
 97
        0
 75
     0
 76
     1
 98
        1
 10
0.0
 20
0.0
  0
HATCH
  5
100
330
8B
100
AcDbEntity
  8
LOGOBLACK
100
AcDbHatch
 10
0.0
 20
0.0
 30
0.0
210
0.0
220
0.0
230
1.0
  2
SOLID
 70
     1
 71
     0
 91
        1
 92
        0
 93
        8
 72
     4
 94
        3
 73
     1
 74
     0
 95
        9
 96
        5
 40
0.0
 40
0.0
 40
0.0
 40
0.0
 40
0.81392334367072
 40
1.0
 40
1.0
 40
1.0
 40
1.0
 10
1093.443577382744
 20
-411.3320405597051
 42
1.0
 10
1094.571774038132
 20
-398.0177546173236
 42
1.0
 10
1103.748452327082
 20
-386.1584865660047
 42
1.0
 10
1123.334682794341
 20
-389.7923929845617
 42
1.0
 10
1124.389928856531
 20
-389.7461891812497
 42
1.0
 72
     1
 10
1124.389928856531
 20
-389.7461891812497
 11
1124.389928856531
 21
-374.519333830007
 72
     4
 94
        3
 73
     1
 74
     0
 95
        9
 96
        5
 40
0.0
 40
0.0
 40
0.0
 40
0.0
 40
0.6256108973375984
 40
1.0
 40
1.0
 40
1.0
 40
1.0
 10
1124.389928856531
 20
-374.519333830007
 42
1.0
 10
1121.678948301402
 20
-374.3107968642279
 42
1.0
 10
1100.76265344834
 20
-372.4217851005341
 42
1.0
 10
1093.568373750297
 20
-389.148457890356
 42
1.0
 10
1093.443577382744
 20
-389.2732542579102
 42
1.0
 72
     1
 10
1093.443577382744
 20
-389.2732542579102
 11
1093.443577382744
 21
-375.3115798664087
 72
     1
 10
1093.443577382744
 20
-375.3115798664087
 11
1077.295236818074
 21
-375.3115798664087
 72
     1
 10
1077.295236818074
 20
-375.3115798664087
 11
1077.295236818074
 21
-460.2732542579101
 72
     1
 10
1077.295236818074
 20
-460.2732542579101
 11
1093.443577382744
 21
-460.2732542579101
 72
     1
 10
1093.443577382744
 20
-460.2732542579101
 11
1093.443577382744
 21
-411.3320405597052
 97
        0
 75
     0
 76
     1
 98
        1
 10
0.0
 20
0.0
  0
HATCH
  5
101
330
8B
100
AcDbEntity
  8
LOGOBLACK
100
AcDbHatch
 10
0.0
 20
0.0
 30
0.0
210
0.0
220
0.0
230
1.0
  2
SOLID
 70
     1
 71
     0
 91
        1
 92
        0
 93
        8
 72
     1
 10
977.295236818074
 20
-336.7218318027406
 11
977.295236818074
 21
-351.9177947708171
 72
     1
 10
977.295236818074
 20
-351.9177947708171
 11
1018.820495722953
 21
-351.9177947708171
 72
     1
 10
1018.820495722953
 20
-351.9177947708171
 11
1018.820495722953
 21
-460.2732542579101
 72
     1
 10
1018.820495722953
 20
-460.2732542579101
 11
1035.323443753764
 21
-460.2732542579101
 72
     1
 10
1035.323443753764
 20
-460.2732542579101
 11
1035.323443753764
 21
-351.9177947708171
 72
     1
 10
1035.323443753764
 20
-351.9177947708171
 11
1076.805091259034
 21
-351.9177947708171
 72
     1
 10
1076.805091259034
 20
-351.9177947708171
 11
1076.805091259034
 21
-336.7218318027406
 72
     1
 10
1076.805091259034
 20
-336.7218318027406
 11
977.295236818074
 21
-336.7218318027406
 97
        0
 75
     0
 76
     1
 98
        1
 10
0.0
 20
0.0
  0
HATCH
  5
102
330
8B
100
AcDbEntity
  8
LOGOBLACK
100
AcDbHatch
 10
0.0
 20
0.0
 30
0.0
210
0.0
220
0.0
230
1.0
  2
SOLID
 70
     1
 71
     0
 91
        2
 92
        0
 93
        4
 72
     4
 94
        3
 73
     1
 74
     0
 95
       18
 96
       14
 40
0.0
 40
0.0
 40
0.0
 40
0.0
 40
0.1628916098004735
 40
0.2289633756538973
 40
0.3665621492388627
 40
0.4326339150923195
 40
0.4786928580331393
 40
0.5545716149752924
 40
0.6615736937211758
 40
0.7007249697767733
 40
0.7502478520318543
 40
0.805807597414722
 40
1.0
 40
1.0
 40
1.0
 40
1.0
 10
901.5752102795987
 20
-447.9798570672617
 42
1.0
 10
924.5564900506396
 20
-427.59961382927
 42
1.0
 10
924.3309963149316
 20
-385.8832727232532
 42
1.0
 10
913.056309529522
 20
-349.8042750099435
 42
1.0
 10
884.7281757662258
 20
-330.2441213247711
 42
1.0
 10
843.4305204488403
 20
-336.6655099561106
 42
1.0
 10
823.7665336173577
 20
-352.8304609219184
 42
1.0
 10
810.7413727993826
 20
-381.423205493752
 42
1.0
 10
811.2897154177408
 20
-411.8073478802499
 42
1.0
 10
819.0212227605515
 20
-437.1657082575885
 42
1.0
 10
835.7369003139137
 20
-455.9975114596144
 42
1.0
 10
859.3000430582309
 20
-464.2922952527733
 42
1.0
 10
875.3422057578953
 20
-463.116477603778
 42
1.0
 10
886.1611361577391
 20
-460.2732542579102
 42
1.0
 72
     1
 10
886.1611361577391
 20
-460.2732542579102
 11
930.2302057115448
 21
-460.2732542579102
 72
     1
 10
930.2302057115448
 20
-460.2732542579102
 11
930.2302057115448
 21
-447.9798570672617
 72
     1
 10
930.2302057115448
 20
-447.9798570672617
 11
901.5752102795987
 21
-447.9798570672617
 97
        0
 92
        0
 93
        1
 72
     4
 94
        3
 73
     1
 74
     0
 95
       15
 96
       11
 40
0.0
 40
0.0
 40
0.0
 40
0.0
 40
0.1572834442625891
 40
0.2558031543050804
 40
0.3854880000862587
 40
0.5168698899814066
 40
0.6693083427623244
 40
0.768317812370019
 40
0.8801687844334025
 40
1.0
 40
1.0
 40
1.0
 40
1.0
 10
830.3347198728837
 20
-398.9355163194719
 42
1.0
 10
830.5266360402612
 20
-383.7134387053566
 42
1.0
 10
834.9626988625823
 20
-356.7267731838041
 42
1.0
 10
875.256000260984
 20
-343.4594666257946
 42
1.0
 10
903.0190676879313
 20
-365.3259533602916
 42
1.0
 10
906.9501214828967
 20
-405.127873034323
 42
1.0
 10
896.1397235467405
 20
-445.9125561570935
 42
1.0
 10
856.5834947348957
 20
-452.5462094360998
 42
1.0
 10
832.7514811029142
 20
-431.4167952881572
 42
1.0
 10
830.1885026550988
 20
-410.532922979153
 42
1.0
 10
830.3347198728837
 20
-398.9355163194719
 42
1.0
 97
        0
 75
     0
 76
     1
 98
        1
 10
0.0
 20
0.0
  0
HATCH
  5
103
330
8B
100
AcDbEntity
  8
LOGOBLACK
100
AcDbHatch
 10
0.0
 20
0.0
 30
0.0
210
0.0
220
0.0
230
1.0
  2
SOLID
 70
     1
 71
     0
 91
        2
 92
        0
 93
        8
 72
     1
 10
735.2952368180737
 20
-336.5434343227234
 11
683.5721153697581
 21
-460.2732542579102
 72
     1
 10
683.5721153697581
 20
-460.2732542579102
 11
702.2867425022049
 21
-460.2732542579102
 72
     1
 10
702.2867425022049
 20
-460.2732542579102
 11
715.8113879859593
 21
-428.3611694086024
 72
     1
 10
715.8113879859593
 20
-428.3611694086024
 11
772.3413668618757
 21
-428.3611694086026
 72
     1
 10
772.3413668618757
 20
-428.3611694086026
 11
785.2581631104049
 21
-460.2732542579102
 72
     1
 10
785.2581631104049
 20
-460.2732542579102
 11
804.8077967937613
 21
-460.2732542579102
 72
     1
 10
804.8077967937613
 20
-460.2732542579102
 11
754.3215344085143
 21
-336.5434343227234
 72
     1
 10
754.3215344085143
 20
-336.5434343227234
 11
735.2952368180737
 21
-336.5434343227234
 97
        0
 92
        0
 93
        3
 72
     1
 10
767.0226860536577
 20
-414.38063699843
 11
720.5692598982616
 21
-414.38063699843
 72
     1
 10
720.5692598982616
 20
-414.38063699843
 11
744.2283397327237
 21
-354.5074873287769
 72
     1
 10
744.2283397327237
 20
-354.5074873287769
 11
767.0226860536577
 21
-414.38063699843
 97
        0
 75
     0
 76
     1
 98
        1
 10
0.0
 20
0.0
  0
HATCH
  5
104
330
8B
100
AcDbEntity
  8
LOGORED
100
AcDbHatch
 10
0.0
 20
0.0
 30
0.0
210
0.0
220
0.0
230
1.0
  2
SOLID
 70
     1
 71
     0
 91
        3
 92
        0
 93
        4
 72
     1
 10
100.2952368180736
 20
-65.54343432272347
 11
100.2952368180736
 21
-522.1547105979978
 72
     1
 10
100.2952368180736
 20
-522.1547105979978
 11
557.2963309086676
 21
-522.1547105979978
 72
     1
 10
557.2963309086676
 20
-522.1547105979978
 11
557.2963309086676
 21
-65.54343432272344
 72
     1
 10
557.2963309086676
 20
-65.54343432272347
 11
100.2952368180736
 21
-65.54343432272347
 97
        0
 92
        0
 93
        4
 72
     1
 10
488.5218665281461
 20
-467.3685815359345
 11
481.2952368180739
 21
-459.5434343227236
 72
     4
 94
        3
 73
     1
 74
     0
 95
       15
 96
       11
 40
0.0
 40
0.0
 40
0.0
 40
0.0
 40
0.13222047033936
 40
0.219257562868491
 40
0.3803459203833053
 40
0.4739726821031104
 40
0.5918338686184114
 40
0.6999147150498567
 40
0.8284972553668565
 40
1.0
 40
1.0
 40
1.0
 40
1.0
 10
481.2952368180738
 20
-459.5434343227236
 42
1.0
 10
480.634134466377
 20
-459.8078752634023
 42
1.0
 10
450.2327104245459
 20
-476.9122567268358
 42
1.0
 10
385.0073447823211
 20
-451.9817261369127
 42
1.0
 10
373.6340631787112
 20
-400.6650247030703
 42
1.0
 10
390.3570127325023
 20
-359.5882651194876
 42
1.0
 10
425.9135753759987
 20
-335.8838900238231
 42
1.0
 10
491.3441449893735
 20
-341.5664456974412
 42
1.0
 10
526.5759901658064
 20
-409.5947550473275
 42
1.0
 10
499.8568452491536
 20
-441.9818258916439
 42
1.0
 10
499.2952368180739
 20
-442.5434343227236
 42
1.0
 72
     1
 10
499.2952368180738
 20
-442.5434343227237
 11
522.2215973733141
 21
-467.3685815359345
 72
     1
 10
522.2215973733141
 20
-467.3685815359345
 11
488.5218665281461
 21
-467.3685815359345
 97
        0
 92
        0
 93
        6
 72
     1
 10
312.8420642420303
 20
-466.0412643374983
 11
312.8420642420303
 21
-451.5485362307365
 72
     4
 94
        3
 73
     1
 74
     0
 95
       14
 96
       10
 40
0.0
 40
0.0
 40
0.0
 40
0.0
 40
0.0990597115464948
 40
0.1954535194865211
 40
0.3273142924966166
 40
0.5522143697720502
 40
0.6411111540118
 40
0.7934229238297069
 40
1.0
 40
1.0
 40
1.0
 40
1.0
 10
312.8420642420303
 20
-451.5485362307365
 42
1.0
 10
312.188697796188
 20
-452.1887033544407
 42
1.0
 10
300.1927287161632
 20
-467.9878093074191
 42
1.0
 10
253.5902259185405
 20
-467.762300244694
 42
1.0
 10
221.3929387242668
 20
-441.81845730132
 42
1.0
 10
209.6350368819181
 20
-395.5912462385817
 42
1.0
 10
237.5022191532712
 20
-347.639426019953
 42
1.0
 10
287.9783448787948
 20
-331.8385018360149
 42
1.0
 10
311.8352375707926
 20
-352.5158483386771
 42
1.0
 10
312.8420642420303
 20
-353.5434343227237
 42
1.0
 72
     1
 10
312.8420642420303
 20
-353.5434343227237
 11
312.8420642420303
 21
-344.1744740357442
 72
     1
 10
312.8420642420303
 20
-344.1744740357442
 11
356.2486833027336
 21
-344.1744740357442
 72
     1
 10
356.2486833027336
 20
-344.1744740357442
 11
356.2486833027336
 21
-466.0412643374983
 72
     1
 10
356.2486833027336
 20
-466.0412643374983
 11
312.8420642420303
 21
-466.0412643374983
 97
        0
 75
     0
 76
     1
 98
        1
 10
0.0
 20
0.0
  0
HATCH
  5
106
330
8B
100
AcDbEntity
  8
LOGORED
100
AcDbHatch
 10
0.0
 20
0.0
 30
0.0
210
0.0
220
0.0
230
1.0
  2
SOLID
 70
     1
 71
     0
 91
        1
 92
        0
 93
        4
 72
     4
 94
        3
 73
     1
 74
     0
 95
       16
 96
       12
 40
0.0
 40
0.0
 40
0.0
 40
0.0
 40
0.1175153363192317
 40
0.198973088652092
 40
0.2968829966703995
 40
0.4499733688634802
 40
0.5075726979182594
 40
0.5713234729469757
 40
0.7026701519279196
 40
0.8496613374901457
 40
1.0
 40
1.0
 40
1.0
 40
1.0
 10
474.87943311545
 20
-418.1457106613427
 42
1.0
 10
474.918604894223
 20
-418.0281953250234
 42
1.0
 10
482.6440325003924
 20
-407.0225258080306
 42
1.0
 10
474.091494360712
 20
-384.524296114738
 42
1.0
 10
462.0857559218529
 20
-375.258475100619
 42
1.0
 10
444.6132793744995
 20
-372.6937870267974
 42
1.0
 10
431.7604034166466
 20
-379.4014278607186
 42
1.0
 10
422.2064505858368
 20
-388.2798145651623
 42
1.0
 10
418.0275701407455
 20
-410.7853963056221
 42
1.0
 10
437.2349319182861
 20
-435.4964166248861
 42
1.0
 10
456.4628293136541
 20
-430.9190377300778
 42
1.0
 10
456.5129422011573
 20
-430.8689248425744
 42
1.0
 72
     1
 10
456.5129422011573
 20
-430.8689248425744
 11
443.2952368180739
 21
-414.5434343227236
 72
     1
 10
443.2952368180739
 20
-414.5434343227236
 11
465.8446623825576
 21
-411.1938867867981
 72
     1
 10
465.8446623825576
 20
-411.1938867867981
 11
474.87943311545
 21
-418.1457106613427
 97
        0
 75
     0
 76
     1
 98
        1
 10
0.0
 20
0.0
  0
HATCH
  5
108
330
8B
100
AcDbEntity
  8
LOGOWHITE
100
AcDbHatch
 10
0.0
 20
0.0
 30
0.0
210
0.0
220
0.0
230
1.0
  2
SOLID
 70
     1
 71
     0
 91
        2
 92
        0
 93
        4
 72
     4
 94
        3
 73
     1
 74
     0
 95
       15
 96
       11
 40
0.0
 40
0.0
 40
0.0
 40
0.0
 40
0.1715027446331435
 40
0.3000852849501433
 40
0.4081661313815886
 40
0.5260273178968895
 40
0.6196540796166947
 40
0.7807424371315089
 40
0.8677795296606401
 40
1.0
 40
1.0
 40
1.0
 40
1.0
 10
499.2952368180739
 20
-442.5434343227236
 42
1.0
 10
499.8568452491536
 20
-441.9818258916439
 42
1.0
 10
526.5759901658064
 20
-409.5947550473275
 42
1.0
 10
491.3441449893735
 20
-341.5664456974412
 42
1.0
 10
425.9135753759987
 20
-335.8838900238231
 42
1.0
 10
390.3570127325023
 20
-359.5882651194876
 42
1.0
 10
373.6340631787112
 20
-400.6650247030703
 42
1.0
 10
385.0073447823211
 20
-451.9817261369127
 42
1.0
 10
450.2327104245459
 20
-476.9122567268358
 42
1.0
 10
480.634134466377
 20
-459.8078752634023
 42
1.0
 10
481.2952368180738
 20
-459.5434343227236
 42
1.0
 72
     1
 10
481.2952368180739
 20
-459.5434343227236
 11
488.5218665281461
 21
-467.3685815359345
 72
     1
 10
488.5218665281461
 20
-467.3685815359345
 11
522.2215973733141
 21
-467.3685815359345
 72
     1
 10
522.2215973733141
 20
-467.3685815359345
 11
499.2952368180738
 21
-442.5434343227237
 97
        0
 92
        0
 93
        4
 72
     1
 10
443.2952368180739
 20
-414.5434343227236
 11
456.5129422011573
 21
-430.8689248425744
 72
     4
 94
        3
 73
     1
 74
     0
 95
       16
 96
       12
 40
0.0
 40
0.0
 40
0.0
 40
0.0
 40
0.1503386625098543
 40
0.2973298480720804
 40
0.4286765270530243
 40
0.4924273020817406
 40
0.5500266311365198
 40
0.7031170033296005
 40
0.801026911347908
 40
0.8824846636807683
 40
1.0
 40
1.0
 40
1.0
 40
1.0
 10
456.5129422011573
 20
-430.8689248425744
 42
1.0
 10
456.4628293136541
 20
-430.9190377300778
 42
1.0
 10
437.2349319182861
 20
-435.4964166248861
 42
1.0
 10
418.0275701407455
 20
-410.7853963056221
 42
1.0
 10
422.2064505858368
 20
-388.2798145651623
 42
1.0
 10
431.7604034166466
 20
-379.4014278607186
 42
1.0
 10
444.6132793744995
 20
-372.6937870267974
 42
1.0
 10
462.0857559218529
 20
-375.258475100619
 42
1.0
 10
474.091494360712
 20
-384.524296114738
 42
1.0
 10
482.6440325003924
 20
-407.0225258080306
 42
1.0
 10
474.918604894223
 20
-418.0281953250234
 42
1.0
 10
474.87943311545
 20
-418.1457106613427
 42
1.0
 72
     1
 10
474.87943311545
 20
-418.1457106613427
 11
465.8446623825576
 21
-411.1938867867981
 72
     1
 10
465.8446623825576
 20
-411.1938867867981
 11
443.2952368180739
 21
-414.5434343227236
 97
        0
 75
     0
 76
     1
 98
        1
 10
0.0
 20
0.0
  0
ENDBLK
  5
8D
330
8B
100
AcDbEntity
  8
0
100
AcDbBlockEnd
  0
BLOCK
  5
15D
330
15C
100
AcDbEntity
  8
0
100
AcDbBlockBegin
  2
SW_NOTE_0
 70
     0
 10
0.0
 20
0.0
 30
0.0
  3
SW_NOTE_0
  1

  0
MTEXT
  5
160
330
15C
100
AcDbEntity
  8
DIMENSIONS
 62
     0
100
AcDbMText
 10
0.0
 20
4.5117370892
 30
0.0
 40
3.5
 41
0.0
 71
     1
 72
     1
  1
Make by laser cutting using TRDOC0423690-01.dxf;
  7
SLDTEXTSTYLE1
 73
     1
 44
1.0
  0
MTEXT
  5
161
330
15C
100
AcDbEntity
  8
DIMENSIONS
 62
     0
100
AcDbMText
 10
-9.9999997765
 20
4.5117370892
 30
0.0
 40
3.5
 41
0.0
 71
     1
 72
     1
  1
1.
  7
SLDTEXTSTYLE1
 73
     1
 44
1.0
  0
MTEXT
  5
162
330
15C
100
AcDbEntity
  8
DIMENSIONS
 62
     0
100
AcDbMText
 10
0.0
 20
-0.0139574413
 30
0.0
 40
3.5
 41
0.0
 71
     1
 72
     1
  1
Blunt the sharp edges;
  7
SLDTEXTSTYLE1
 73
     1
 44
1.0
  0
MTEXT
  5
163
330
15C
100
AcDbEntity
  8
DIMENSIONS
 62
     0
100
AcDbMText
 10
-9.9999997765
 20
-0.0139574413
 30
0.0
 40
3.5
 41
0.0
 71
     1
 72
     1
  1
2.
  7
SLDTEXTSTYLE1
 73
     1
 44
1.0
  0
MTEXT
  5
164
330
15C
100
AcDbEntity
  8
DIMENSIONS
 62
     0
100
AcDbMText
 10
0.0
 20
-4.5396519717
 30
0.0
 40
3.5
 41
0.0
 71
     1
 72
     1
  1
Remove the burs.
  7
SLDTEXTSTYLE1
 73
     1
 44
1.0
  0
MTEXT
  5
165
330
15C
100
AcDbEntity
  8
DIMENSIONS
 62
     0
100
AcDbMText
 10
-9.9999997765
 20
-4.5396519717
 30
0.0
 40
3.5
 41
0.0
 71
     1
 72
     1
  1
3.
  7
SLDTEXTSTYLE1
 73
     1
 44
1.0
  0
ENDBLK
  5
15E
330
15C
100
AcDbEntity
  8
0
100
AcDbBlockEnd
  0
BLOCK
  5
1B5
330
1B4
100
AcDbEntity
  8
0
100
AcDbBlockBegin
  2
_D
 70
     0
 10
0.0
 20
0.0
 30
0.0
  3
_D
  1

  0
SOLID
  5
1B7
330
1B4
100
AcDbEntity
  8
DIMENSIONS
100
AcDbTrace
 10
56.1963062813
 20
240.6332872254
 30
0.0
 11
55.7963062813
 21
238.0332872254
 31
0.0
 12
56.5963062813
 22
238.0332872254
 32
0.0
 13
56.5963062813
 23
238.0332872254
 33
0.0
  0
SOLID
  5
1B8
330
1B4
100
AcDbEntity
  8
DIMENSIONS
100
AcDbTrace
 10
56.1963062813
 20
160.6332872254
 30
0.0
 11
56.5963062813
 21
163.2332872254
 31
0.0
 12
55.7963062813
 22
163.2332872254
 32
0.0
 13
55.7963062813
 23
163.2332872254
 33
0.0
  0
LINE
  5
1B9
330
1B4
100
AcDbEntity
  8
DIMENSIONS
100
AcDbLine
 10
78.6071765663
 20
240.6332872254
 30
0.0
 11
55.1963062813
 21
240.6332872254
 31
0.0
  0
LINE
  5
1BA
330
1B4
100
AcDbEntity
  8
DIMENSIONS
100
AcDbLine
 10
104.7071765663
 20
160.6332872254
 30
0.0
 11
55.1963062813
 21
160.6332872254
 31
0.0
  0
LINE
  5
1BB
330
1B4
100
AcDbEntity
  8
DIMENSIONS
100
AcDbLine
 10
56.1963062813
 20
240.6332872254
 30
0.0
 11
56.1963062813
 21
160.6332872254
 31
0.0
  0
MTEXT
  5
1BC
330
1B4
100
AcDbEntity
  8
DIMENSIONS
100
AcDbMText
 10
51.6845693668
 20
198.0471760319
 30
0.0
 40
3.5
 41
0.0
 71
     1
 72
     1
  1
80
  7
SLDTEXTSTYLE1
 11
-7.044195017643634E-15
 21
1.0
 31
0.0
 73
     1
 44
1.0
  0
ENDBLK
  5
1B6
330
1B4
100
AcDbEntity
  8
0
100
AcDbBlockEnd
  0
BLOCK
  5
1BF
330
1BE
100
AcDbEntity
  8
0
100
AcDbBlockBegin
  2
_D_1
 70
     0
 10
0.0
 20
0.0
 30
0.0
  3
_D_1
  1

  0
SOLID
  5
1C1
330
1BE
100
AcDbEntity
  8
DIMENSIONS
100
AcDbTrace
 10
76.6071765663
 20
126.6332872254
 30
0.0
 11
79.2071765663
 21
126.2332872254
 31
0.0
 12
79.2071765663
 22
127.0332872254
 32
0.0
 13
79.2071765663
 23
127.0332872254
 33
0.0
  0
SOLID
  5
1C2
330
1BE
100
AcDbEntity
  8
DIMENSIONS
100
AcDbTrace
 10
152.6071765663
 20
126.6332872254
 30
0.0
 11
150.0071765663
 21
127.0332872254
 31
0.0
 12
150.0071765663
 22
126.2332872254
 32
0.0
 13
150.0071765663
 23
126.2332872254
 33
0.0
  0
LINE
  5
1C3
330
1BE
100
AcDbEntity
  8
DIMENSIONS
100
AcDbLine
 10
76.6071765663
 20
205.7175284242
 30
0.0
 11
76.6071765663
 21
125.6332872254
 31
0.0
  0
LINE
  5
1C4
330
1BE
100
AcDbEntity
  8
DIMENSIONS
100
AcDbLine
 10
152.6071765663
 20
205.7175284242
 30
0.0
 11
152.6071765663
 21
125.6332872254
 31
0.0
  0
LINE
  5
1C5
330
1BE
100
AcDbEntity
  8
DIMENSIONS
100
AcDbLine
 10
76.6071765663
 20
126.6332872254
 30
0.0
 11
152.6071765663
 21
126.6332872254
 31
0.0
  0
MTEXT
  5
1C6
330
1BE
100
AcDbEntity
  8
DIMENSIONS
100
AcDbMText
 10
112.0210653728
 20
131.14502414
 30
0.0
 40
3.5
 41
0.0
 71
     1
 72
     1
  1
76
  7
SLDTEXTSTYLE1
 73
     1
 44
1.0
  0
ENDBLK
  5
1C0
330
1BE
100
AcDbEntity
  8
0
100
AcDbBlockEnd
  0
BLOCK
  5
1CA
330
1C9
100
AcDbEntity
  8
0
100
AcDbBlockBegin
  2
_D_2
 70
     0
 10
0.0
 20
0.0
 30
0.0
  3
_D_2
  1

  0
ARC
  5
1CC
330
1C9
100
AcDbEntity
  8
DIMENSIONS
100
AcDbCircle
 10
114.6071765663
 20
159.9288198714
 30
0.0
 40
25.04867785333246
100
AcDbArc
 50
50.2588967056
 51
129.7411032944
  0
ARC
  5
1CD
330
1C9
100
AcDbEntity
  8
DIMENSIONS
100
AcDbCircle
 10
114.6071765663
 20
159.9288198714
 30
0.0
 40
25.04867785333246
100
AcDbArc
 50
10.7811246824
 51
50.2588967056
  0
SOLID
  5
1CE
330
1C9
100
AcDbEntity
  8
DIMENSIONS
100
AcDbTrace
 10
130.6212875468
 20
179.1897780954
 30
0.0
 11
128.7782785922
 21
181.0668284392
 31
0.0
 12
128.2993043365
 22
180.4260604139
 32
0.0
 13
128.2993043365
 23
180.4260604139
 33
0.0
  0
SOLID
  5
1CF
330
1C9
100
AcDbEntity
  8
DIMENSIONS
100
AcDbTrace
 10
98.5930655858
 20
179.1897780954
 30
0.0
 11
100.9150487962
 21
180.4260604139
 31
0.0
 12
100.4360745404
 22
181.0668284392
 32
0.0
 13
100.4360745404
 23
181.0668284392
 33
0.0
  0
MTEXT
  5
1D0
330
1C9
100
AcDbEntity
  8
DIMENSIONS
100
AcDbMText
 10
138.2600472876
 20
178.9011802958
 30
0.0
 40
3.5
 41
0.0
 71
     1
 72
     1
  1
79,48°
  7
SLDTEXTSTYLE1
 11
0.4362854743495627
 21
-0.8998083045135653
 31
0.0
 73
     1
 44
1.0
  0
ENDBLK
  5
1CB
330
1C9
100
AcDbEntity
  8
0
100
AcDbBlockEnd
  0
BLOCK
  5
1D4
330
1D3
100
AcDbEntity
  8
0
100
AcDbBlockBegin
  2
_D_3
 70
     0
 10
0.0
 20
0.0
 30
0.0
  3
_D_3
  1

  0
SOLID
  5
1D6
330
1D3
100
AcDbEntity
  8
DIMENSIONS
100
AcDbTrace
 10
66.6071765663
 20
240.6332872254
 30
0.0
 11
66.2071765663
 21
238.0332872254
 31
0.0
 12
67.0071765663
 22
238.0332872254
 32
0.0
 13
67.0071765663
 23
238.0332872254
 33
0.0
  0
SOLID
  5
1D7
330
1D3
100
AcDbEntity
  8
DIMENSIONS
100
AcDbTrace
 10
66.6071765663
 20
206.7175284242
 30
0.0
 11
67.0071765663
 21
209.3175284242
 31
0.0
 12
66.2071765663
 22
209.3175284242
 32
0.0
 13
66.2071765663
 23
209.3175284242
 33
0.0
  0
LINE
  5
1D8
330
1D3
100
AcDbEntity
  8
DIMENSIONS
100
AcDbLine
 10
78.6071765663
 20
240.6332872254
 30
0.0
 11
65.6071765663
 21
240.6332872254
 31
0.0
  0
LINE
  5
1D9
330
1D3
100
AcDbEntity
  8
DIMENSIONS
100
AcDbLine
 10
75.6071765663
 20
206.7175284242
 30
0.0
 11
65.6071765663
 21
206.7175284242
 31
0.0
  0
LINE
  5
1DA
330
1D3
100
AcDbEntity
  8
DIMENSIONS
100
AcDbLine
 10
66.6071765663
 20
240.6332872254
 30
0.0
 11
66.6071765663
 21
206.7175284242
 31
0.0
  0
MTEXT
  5
1DB
330
1D3
100
AcDbEntity
  8
DIMENSIONS
100
AcDbMText
 10
62.0954396517
 20
221.0892966313
 30
0.0
 40
3.5
 41
0.0
 71
     1
 72
     1
  1
34
  7
SLDTEXTSTYLE1
 11
-7.044195017643634E-15
 21
1.0
 31
0.0
 73
     1
 44
1.0
  0
ENDBLK
  5
1D5
330
1D3
100
AcDbEntity
  8
0
100
AcDbBlockEnd
  0
BLOCK
  5
1DF
330
1DE
100
AcDbEntity
  8
0
100
AcDbBlockBegin
  2
_D_4
 70
     0
 10
0.0
 20
0.0
 30
0.0
  3
_D_4
  1

  0
SOLID
  5
1E1
330
1DE
100
AcDbEntity
  8
DIMENSIONS
100
AcDbTrace
 10
105.7071765663
 20
135.5163730659
 30
0.0
 11
103.1071765663
 21
135.9163730659
 31
0.0
 12
103.1071765663
 22
135.1163730659
 32
0.0
 13
103.1071765663
 23
135.1163730659
 33
0.0
  0
SOLID
  5
1E2
330
1DE
100
AcDbEntity
  8
DIMENSIONS
100
AcDbTrace
 10
123.5071765663
 20
135.5163730659
 30
0.0
 11
126.1071765663
 21
135.1163730659
 31
0.0
 12
126.1071765663
 22
135.9163730659
 32
0.0
 13
126.1071765663
 23
135.9163730659
 33
0.0
  0
LINE
  5
1E3
330
1DE
100
AcDbEntity
  8
DIMENSIONS
100
AcDbLine
 10
105.7071765663
 20
159.6332872254
 30
0.0
 11
105.7071765663
 21
134.5163730659
 31
0.0
  0
LINE
  5
1E4
330
1DE
100
AcDbEntity
  8
DIMENSIONS
100
AcDbLine
 10
123.5071765663
 20
159.6332872254
 30
0.0
 11
123.5071765663
 21
134.5163730659
 31
0.0
  0
LINE
  5
1E5
330
1DE
100
AcDbEntity
  8
DIMENSIONS
100
AcDbLine
 10
105.7071765663
 20
135.5163730659
 30
0.0
 11
100.7071765663
 21
135.5163730659
 31
0.0
  0
LINE
  5
1E6
330
1DE
100
AcDbEntity
  8
DIMENSIONS
100
AcDbLine
 10
105.7071765663
 20
135.5163730659
 30
0.0
 11
123.5071765663
 21
135.5163730659
 31
0.0
  0
LINE
  5
1E7
330
1DE
100
AcDbEntity
  8
DIMENSIONS
100
AcDbLine
 10
123.5071765663
 20
135.5163730659
 30
0.0
 11
128.5071765663
 21
135.5163730659
 31
0.0
  0
MTEXT
  5
1E8
330
1DE
100
AcDbEntity
  8
DIMENSIONS
100
AcDbMText
 10
108.7884263227
 20
140.0281099804
 30
0.0
 40
3.5
 41
0.0
 71
     1
 72
     1
  1
17,80
  7
SLDTEXTSTYLE1
 73
     1
 44
1.0
  0
ENDBLK
  5
1E0
330
1DE
100
AcDbEntity
  8
0
100
AcDbBlockEnd
  0
BLOCK
  5
1EB
330
1EA
100
AcDbEntity
  8
0
100
AcDbBlockBegin
  2
_D_5
 70
     0
 10
0.0
 20
0.0
 30
0.0
  3
_D_5
  1

  0
SOLID
  5
1ED
330
1EA
100
AcDbEntity
  8
DIMENSIONS
100
AcDbTrace
 10
68.2123664383
 20
170.6332872254
 30
0.0
 11
68.6123664383
 21
173.2332872254
 31
0.0
 12
67.8123664383
 22
173.2332872254
 32
0.0
 13
67.8123664383
 23
173.2332872254
 33
0.0
  0
SOLID
  5
1EE
330
1EA
100
AcDbEntity
  8
DIMENSIONS
100
AcDbTrace
 10
68.2123664383
 20
160.6332872254
 30
0.0
 11
67.8123664383
 21
158.0332872254
 31
0.0
 12
68.6123664383
 22
158.0332872254
 32
0.0
 13
68.6123664383
 23
158.0332872254
 33
0.0
  0
LINE
  5
1EF
330
1EA
100
AcDbEntity
  8
DIMENSIONS
100
AcDbLine
 10
104.7071765663
 20
170.6332872254
 30
0.0
 11
67.2123664383
 21
170.6332872254
 31
0.0
  0
LINE
  5
1F0
330
1EA
100
AcDbEntity
  8
DIMENSIONS
100
AcDbLine
 10
104.7071765663
 20
160.6332872254
 30
0.0
 11
67.2123664383
 21
160.6332872254
 31
0.0
  0
LINE
  5
1F1
330
1EA
100
AcDbEntity
  8
DIMENSIONS
100
AcDbLine
 10
68.2123664383
 20
170.6332872254
 30
0.0
 11
68.2123664383
 21
175.6332872254
 31
0.0
  0
LINE
  5
1F2
330
1EA
100
AcDbEntity
  8
DIMENSIONS
100
AcDbLine
 10
68.2123664383
 20
170.6332872254
 30
0.0
 11
68.2123664383
 21
160.6332872254
 31
0.0
  0
LINE
  5
1F3
330
1EA
100
AcDbEntity
  8
DIMENSIONS
100
AcDbLine
 10
68.2123664383
 20
160.6332872254
 30
0.0
 11
68.2123664383
 21
155.6332872254
 31
0.0
  0
MTEXT
  5
1F4
330
1EA
100
AcDbEntity
  8
DIMENSIONS
100
AcDbMText
 10
63.7006295237
 20
163.0471760319
 30
0.0
 40
3.5
 41
0.0
 71
     1
 72
     1
  1
10
  7
SLDTEXTSTYLE1
 11
-7.044195017643634E-15
 21
1.0
 31
0.0
 73
     1
 44
1.0
  0
ENDBLK
  5
1EC
330
1EA
100
AcDbEntity
  8
0
100
AcDbBlockEnd
  0
BLOCK
  5
1F8
330
1F7
100
AcDbEntity
  8
0
100
AcDbBlockBegin
  2
_D_6
 70
     0
 10
0.0
 20
0.0
 30
0.0
  3
_D_6
  1

  0
SOLID
  5
1FA
330
1F7
100
AcDbEntity
  8
DIMENSIONS
100
AcDbTrace
 10
77.4205618474
 20
239.6872385566
 30
0.0
 11
75.7993559351
 21
241.7588783394
 31
0.0
 12
75.2516355801
 22
241.1757810811
 32
0.0
 13
75.2516355801
 23
241.1757810811
 33
0.0
  0
LINE
  5
1FB
330
1F7
100
AcDbEntity
  8
DIMENSIONS
100
AcDbLine
 10
77.4205618474
 20
239.6872385566
 30
0.0
 11
58.2944790522
 21
257.6529290263
 31
0.0
  0
LINE
  5
1FC
330
1F7
100
AcDbEntity
  8
DIMENSIONS
100
AcDbLine
 10
79.6071765663
 20
237.6332872254
 30
0.0
 11
77.4205618474
 21
239.6872385566
 31
0.0
  0
LINE
  5
1FD
330
1F7
100
AcDbEntity
  8
DIMENSIONS
100
AcDbLine
 10
58.2944790522
 20
257.6529290263
 30
0.0
 11
51.2868399928
 21
257.6529290263
 31
0.0
  0
MTEXT
  5
1FE
330
1F7
100
AcDbEntity
  8
DIMENSIONS
100
AcDbMText
 10
51.2868399928
 20
262.1646659409
 30
0.0
 40
3.5
 41
0.0
 71
     1
 72
     1
  1
R3
  7
SLDTEXTSTYLE1
 73
     1
 44
1.0
  0
ENDBLK
  5
1F9
330
1F7
100
AcDbEntity
  8
0
100
AcDbBlockEnd
  0
BLOCK
  5
212
330
211
100
AcDbEntity
  8
0
100
AcDbBlockBegin
  2
_D_7
 70
     0
 10
0.0
 20
0.0
 30
0.0
  3
_D_7
  1

  0
SOLID
  5
214
330
211
100
AcDbEntity
  8
DIMENSIONS
100
AcDbTrace
 10
219.8246541904
 20
129.011795584
 30
0.0
 11
217.2246541904
 21
129.411795584
 31
0.0
 12
217.2246541904
 22
128.611795584
 32
0.0
 13
217.2246541904
 23
128.611795584
 33
0.0
  0
SOLID
  5
215
330
211
100
AcDbEntity
  8
DIMENSIONS
100
AcDbTrace
 10
224.8246541904
 20
129.011795584
 30
0.0
 11
227.4246541904
 21
128.611795584
 31
0.0
 12
227.4246541904
 22
129.411795584
 32
0.0
 13
227.4246541904
 23
129.411795584
 33
0.0
  0
LINE
  5
216
330
211
100
AcDbEntity
  8
DIMENSIONS
100
AcDbLine
 10
219.8246541904
 20
169.6332872254
 30
0.0
 11
219.8246541904
 21
128.011795584
 31
0.0
  0
LINE
  5
217
330
211
100
AcDbEntity
  8
DIMENSIONS
100
AcDbLine
 10
224.8246541904
 20
169.6332872254
 30
0.0
 11
224.8246541904
 21
128.011795584
 31
0.0
  0
LINE
  5
218
330
211
100
AcDbEntity
  8
DIMENSIONS
100
AcDbLine
 10
219.8246541904
 20
129.011795584
 30
0.0
 11
214.8246541904
 21
129.011795584
 31
0.0
  0
LINE
  5
219
330
211
100
AcDbEntity
  8
DIMENSIONS
100
AcDbLine
 10
219.8246541904
 20
129.011795584
 30
0.0
 11
224.8246541904
 21
129.011795584
 31
0.0
  0
LINE
  5
21A
330
211
100
AcDbEntity
  8
DIMENSIONS
100
AcDbLine
 10
224.8246541904
 20
129.011795584
 30
0.0
 11
229.8246541904
 21
129.011795584
 31
0.0
  0
MTEXT
  5
21B
330
211
100
AcDbEntity
  8
DIMENSIONS
100
AcDbMText
 10
221.0315985936
 20
133.5235324986
 30
0.0
 40
3.5
 41
0.0
 71
     1
 72
     1
  1
5
  7
SLDTEXTSTYLE1
 73
     1
 44
1.0
  0
ENDBLK
  5
213
330
211
100
AcDbEntity
  8
0
100
AcDbBlockEnd
  0
ENDSEC
  0
SECTION
  2
ENTITIES
  0
LINE
  5
109
330
1F
100
AcDbEntity
  8
SLD-0
100
AcDbLine
 10
206.73591875
 20
31.664457543
 30
0.0
 11
154.8588359854
 21
31.664457543
 31
0.0
  0
LINE
  5
10A
330
1F
100
AcDbEntity
  8
SLD-0
100
AcDbLine
 10
140.3324155014
 20
41.0100673479
 30
0.0
 11
140.3324155014
 21
10.6601045205
 31
0.0
  0
LINE
  5
10B
330
1F
100
AcDbEntity
  8
SLD-0
100
AcDbLine
 10
211.5379098951
 20
17.664457543
 30
0.0
 11
154.8588359854
 21
17.664457543
 31
0.0
  0
LINE
  5
10C
330
1F
100
AcDbEntity
  8
SLD-0
100
AcDbLine
 10
206.73591875
 20
24.664457543
 30
0.0
 11
154.8588359854
 21
24.664457543
 31
0.0
  0
LINE
  5
10D
330
1F
100
AcDbEntity
  8
SLD-0
100
AcDbLine
 10
188.9579664579
 20
17.664457543
 30
0.0
 11
188.9579664579
 21
24.664457543
 31
0.0
  0
LINE
  5
10E
330
1F
100
AcDbEntity
  8
SLD-0
100
AcDbLine
 10
226.73591875
 20
17.664457543
 30
0.0
 11
226.73591875
 21
10.6601045205
 31
0.0
  0
LINE
  5
10F
330
1F
100
AcDbEntity
  8
SLD-0
100
AcDbLine
 10
226.73591875
 20
10.6601045205
 30
0.0
 11
226.73591875
 21
17.664457543
 31
0.0
  0
LINE
  5
110
330
1F
100
AcDbEntity
  8
SLD-0
100
AcDbLine
 10
396.73591875
 20
17.664457543
 30
0.0
 11
406.73591875
 21
17.664457543
 31
0.0
  0
LINE
  5
111
330
1F
100
AcDbEntity
  8
SLD-0
100
AcDbLine
 10
396.73591875
 20
24.664457543
 30
0.0
 11
406.73591875
 21
24.664457543
 31
0.0
  0
LINE
  5
112
330
1F
100
AcDbEntity
  8
SLD-0
100
AcDbLine
 10
13.2362851723
 20
16.7300970859
 30
0.0
 11
154.8588359854
 21
16.7300970859
 31
0.0
  0
LINE
  5
113
330
1F
100
AcDbEntity
  8
SLD-0
100
AcDbLine
 10
13.236651678
 20
22.8000896514
 30
0.0
 11
154.8588359854
 21
22.8000896514
 31
0.0
  0
LINE
  5
114
330
1F
100
AcDbEntity
  8
SLD-0
100
AcDbLine
 10
13.2370181838
 20
28.8700822169
 30
0.0
 11
154.8588359854
 21
28.8700822169
 31
0.0
  0
LINE
  5
115
330
1F
100
AcDbEntity
  8
SLD-0
100
AcDbLine
 10
154.8588359854
 20
41.0100673479
 30
0.0
 11
154.8588359854
 21
10.6601045205
 31
0.0
  0
LINE
  5
116
330
1F
100
AcDbEntity
  8
SLD-0
100
AcDbLine
 10
396.73591875
 20
24.664457543
 30
0.0
 11
396.73591875
 21
10.6601045205
 31
0.0
  0
LINE
  5
117
330
1F
100
AcDbEntity
  8
SLD-0
100
AcDbLine
 10
361.73591875
 20
31.664457543
 30
0.0
 11
361.73591875
 21
10.6601045205
 31
0.0
  0
LINE
  5
118
330
1F
100
AcDbEntity
  8
SLD-0
100
AcDbLine
 10
291.73591875
 20
31.664457543
 30
0.0
 11
291.73591875
 21
10.6601045205
 31
0.0
  0
LINE
  5
119
330
1F
100
AcDbEntity
  8
SLD-0
100
AcDbLine
 10
246.73591875
 20
31.664457543
 30
0.0
 11
246.73591875
 21
10.6601045205
 31
0.0
  0
LINE
  5
11A
330
1F
100
AcDbEntity
  8
SLD-0
100
AcDbLine
 10
206.73591875
 20
31.664457543
 30
0.0
 11
206.73591875
 21
10.6601045205
 31
0.0
  0
LINE
  5
11B
330
1F
100
AcDbEntity
  8
SLD-0
100
AcDbLine
 10
154.8588359854
 20
41.0100673479
 30
0.0
 11
246.73591875
 21
41.0100673479
 31
0.0
  0
LINE
  5
11C
330
1F
100
AcDbEntity
  8
SLD-0
100
AcDbLine
 10
246.73591875
 20
31.664457543
 30
0.0
 11
246.73591875
 21
41.0100673479
 31
0.0
  0
LINE
  5
11D
330
1F
100
AcDbEntity
  8
SLD-0
100
AcDbLine
 10
13.2370928843
 20
34.9400747824
 30
0.0
 11
154.8588359854
 21
34.9400747824
 31
0.0
  0
LINE
  5
11E
330
1F
100
AcDbEntity
  8
SLD-0
100
AcDbLine
 10
128.7673900487
 20
41.0100673479
 30
0.0
 11
128.7673900487
 21
10.6601045205
 31
0.0
  0
LINE
  5
11F
330
1F
100
AcDbEntity
  8
SLD-0
100
AcDbLine
 10
154.8588359854
 20
41.0100673479
 30
0.0
 11
13.2364555902
 21
41.0100673479
 31
0.0
  0
LINE
  5
120
330
1F
100
AcDbEntity
  8
SLD-0
100
AcDbLine
 10
22.4781414143
 20
41.0100673479
 30
0.0
 11
22.4781414143
 21
10.6601045205
 31
0.0
  0
LINE
  5
121
330
1F
100
AcDbEntity
  8
SLD-0
100
AcDbLine
 10
13.2372781461
 20
33.1755242707
 30
0.0
 11
13.2359186665
 21
10.6601045205
 31
0.0
  0
LINE
  5
122
330
1F
100
AcDbEntity
  8
SLD-0
100
AcDbLine
 10
211.5379098951
 20
17.664457543
 30
0.0
 11
236.73591875
 21
17.664457543
 31
0.0
  0
LINE
  5
123
330
1F
100
AcDbEntity
  8
SLD-0
100
AcDbLine
 10
13.2108382623
 20
285.0057129805
 30
0.0
 11
13.2372781461
 21
33.1755242707
 31
0.0
  0
LINE
  5
124
330
1F
100
AcDbEntity
  8
SLD-0
100
AcDbLine
 10
406.73591875
 20
250.8732734677
 30
0.0
 11
410.23591875
 21
250.8732734677
 31
0.0
  0
LINE
  5
125
330
1F
100
AcDbEntity
  8
SLD-0
100
AcDbLine
 10
46.03591875
 20
284.9982734677
 30
0.0
 11
46.03591875
 21
288.4982734677
 31
0.0
  0
LINE
  5
126
330
1F
100
AcDbEntity
  8
SLD-0
100
AcDbLine
 10
206.73591875
 20
10.6601045205
 30
0.0
 11
206.7360579393
 21
8.0221853247
 31
0.0
  0
LINE
  5
127
330
1F
100
AcDbEntity
  8
SLD-0
100
AcDbLine
 10
291.73591875
 20
24.664457543
 30
0.0
 11
246.73591875
 21
24.664457543
 31
0.0
  0
LINE
  5
128
330
1F
100
AcDbEntity
  8
SLD-0
100
AcDbLine
 10
291.73591875
 20
17.664457543
 30
0.0
 11
246.73591875
 21
17.664457543
 31
0.0
  0
LINE
  5
129
330
1F
100
AcDbEntity
  8
SLD-0
100
AcDbLine
 10
361.73591875
 20
17.664457543
 30
0.0
 11
291.73591875
 21
17.664457543
 31
0.0
  0
LINE
  5
12A
330
1F
100
AcDbEntity
  8
SLD-0
100
AcDbLine
 10
206.73591875
 20
31.664457543
 30
0.0
 11
406.73591875
 21
31.664457543
 31
0.0
  0
LINE
  5
12B
330
1F
100
AcDbEntity
  8
SLD-0
100
AcDbLine
 10
396.73591875
 20
24.664457543
 30
0.0
 11
361.73591875
 21
24.664457543
 31
0.0
  0
LINE
  5
12C
330
1F
100
AcDbEntity
  8
SLD-0
100
AcDbLine
 10
396.73591875
 20
24.664457543
 30
0.0
 11
396.7352778144
 21
24.664457543
 31
0.0
  0
LINE
  5
12D
330
1F
100
AcDbEntity
  8
SLD-0
100
AcDbLine
 10
396.73591875
 20
17.664457543
 30
0.0
 11
361.73591875
 21
17.664457543
 31
0.0
  0
LINE
  5
12E
330
1F
100
AcDbEntity
  8
SLD-0
100
AcDbLine
 10
396.73591875
 20
17.664457543
 30
0.0
 11
396.7355978416
 21
17.664457543
 31
0.0
  0
LINE
  5
12F
330
1F
100
AcDbEntity
  8
SLD-0
100
AcDbLine
 10
206.73591875
 20
10.6601045205
 30
0.0
 11
406.73591875
 21
10.6601045205
 31
0.0
  0
LINE
  5
130
330
1F
100
AcDbEntity
  8
SLD-0
100
AcDbLine
 10
406.73591875
 20
285.0470179971
 30
0.0
 11
406.73591875
 21
10.6601045205
 31
0.0
  0
LINE
  5
131
330
1F
100
AcDbEntity
  8
SLD-0
100
AcDbLine
 10
13.2108382623
 20
285.0057129805
 30
0.0
 11
406.73591875
 21
285.0470179971
 31
0.0
  0
LINE
  5
132
330
1F
100
AcDbEntity
  8
SLD-0
100
AcDbLine
 10
9.73591875
 20
288.4982734677
 30
0.0
 11
410.5696133065
 21
288.4982734677
 31
0.0
  0
LINE
  5
133
330
1F
100
AcDbEntity
  8
SLD-0
100
AcDbLine
 10
410.5696133065
 20
288.4982734677
 30
0.0
 11
410.2362017211
 21
8.0221853247
 31
0.0
  0
LINE
  5
134
330
1F
100
AcDbEntity
  8
SLD-0
100
AcDbLine
 10
410.2362017211
 20
8.0221853247
 30
0.0
 11
9.73591875
 21
8.0221853247
 31
0.0
  0
LINE
  5
135
330
1F
100
AcDbEntity
  8
SLD-0
100
AcDbLine
 10
9.73591875
 20
8.0221853247
 30
0.0
 11
9.73591875
 21
288.4982734677
 31
0.0
  0
LINE
  5
136
330
1F
100
AcDbEntity
  8
SLD-0
100
AcDbLine
 10
9.73591875
 20
250.8732734677
 30
0.0
 11
13.23591875
 21
250.8732734677
 31
0.0
  0
LINE
  5
137
330
1F
100
AcDbEntity
  8
SLD-0
100
AcDbLine
 10
236.73591875
 20
17.664457543
 30
0.0
 11
236.73591875
 21
11.9982734676
 31
0.0
  0
LINE
  5
138
330
1F
100
AcDbEntity
  8
SLD-0
100
AcDbLine
 10
236.73591875
 20
17.664457543
 30
0.0
 11
246.73591875
 21
17.664457543
 31
0.0
  0
LINE
  5
139
330
1F
100
AcDbEntity
  8
SLD-0
100
AcDbLine
 10
9.73591875
 20
216.7482734677
 30
0.0
 11
13.23591875
 21
216.7482734677
 31
0.0
  0
LINE
  5
13A
330
1F
100
AcDbEntity
  8
SLD-0
100
AcDbLine
 10
406.73591875
 20
216.7482734677
 30
0.0
 11
410.23591875
 21
216.7482734677
 31
0.0
  0
LINE
  5
13B
330
1F
100
AcDbEntity
  8
SLD-0
100
AcDbLine
 10
406.73591875
 20
182.6232734677
 30
0.0
 11
410.23591875
 21
182.6232734677
 31
0.0
  0
LINE
  5
13C
330
1F
100
AcDbEntity
  8
SLD-0
100
AcDbLine
 10
9.73591875
 20
182.6232734677
 30
0.0
 11
13.23591875
 21
182.6232734677
 31
0.0
  0
LINE
  5
13D
330
1F
100
AcDbEntity
  8
SLD-0
100
AcDbLine
 10
406.73591875
 20
148.4982734677
 30
0.0
 11
410.23591875
 21
148.4982734677
 31
0.0
  0
LINE
  5
13E
330
1F
100
AcDbEntity
  8
SLD-0
100
AcDbLine
 10
9.73591875
 20
148.4982734677
 30
0.0
 11
13.23591875
 21
148.4982734677
 31
0.0
  0
LINE
  5
13F
330
1F
100
AcDbEntity
  8
SLD-0
100
AcDbLine
 10
406.73591875
 20
114.3732734677
 30
0.0
 11
410.23591875
 21
114.3732734677
 31
0.0
  0
LINE
  5
140
330
1F
100
AcDbEntity
  8
SLD-0
100
AcDbLine
 10
9.73591875
 20
114.3732734677
 30
0.0
 11
13.23591875
 21
114.3732734677
 31
0.0
  0
LINE
  5
141
330
1F
100
AcDbEntity
  8
SLD-0
100
AcDbLine
 10
406.73591875
 20
80.2482734677
 30
0.0
 11
410.23591875
 21
80.2482734677
 31
0.0
  0
LINE
  5
142
330
1F
100
AcDbEntity
  8
SLD-0
100
AcDbLine
 10
9.73591875
 20
80.2482734677
 30
0.0
 11
13.23591875
 21
80.2482734677
 31
0.0
  0
LINE
  5
143
330
1F
100
AcDbEntity
  8
SLD-0
100
AcDbLine
 10
406.73591875
 20
46.1232734677
 30
0.0
 11
410.23591875
 21
46.1232734677
 31
0.0
  0
LINE
  5
144
330
1F
100
AcDbEntity
  8
SLD-0
100
AcDbLine
 10
9.73591875
 20
46.1232734677
 30
0.0
 11
13.23591875
 21
46.1232734677
 31
0.0
  0
LINE
  5
145
330
1F
100
AcDbEntity
  8
SLD-0
100
AcDbLine
 10
13.2365899209
 20
28.162281024
 30
0.0
 11
13.2372781461
 21
33.1755242707
 31
0.0
  0
LINE
  5
146
330
1F
100
AcDbEntity
  8
SLD-0
100
AcDbLine
 10
13.2364556867
 20
24.6622810266
 30
0.0
 11
13.2365899209
 21
28.162281024
 31
0.0
  0
LINE
  5
147
330
1F
100
AcDbEntity
  8
SLD-0
100
AcDbLine
 10
13.2363214525
 20
21.1622810292
 30
0.0
 11
13.2364556867
 21
24.6622810266
 31
0.0
  0
LINE
  5
148
330
1F
100
AcDbEntity
  8
SLD-0
100
AcDbLine
 10
13.2361872183
 20
17.6622810318
 30
0.0
 11
13.2363214525
 21
21.1622810292
 31
0.0
  0
LINE
  5
149
330
1F
100
AcDbEntity
  8
SLD-0
100
AcDbLine
 10
13.2360529842
 20
14.1622810343
 30
0.0
 11
13.2361872183
 21
17.6622810318
 31
0.0
  0
LINE
  5
14A
330
1F
100
AcDbEntity
  8
SLD-0
100
AcDbLine
 10
206.73591875
 20
10.6601045205
 30
0.0
 11
13.2359186665
 21
10.6601045205
 31
0.0
  0
LINE
  5
14B
330
1F
100
AcDbEntity
  8
SLD-0
100
AcDbLine
 10
13.2359186665
 20
10.6601045205
 30
0.0
 11
13.2360529842
 21
14.1622810343
 31
0.0
  0
LINE
  5
14C
330
1F
100
AcDbEntity
  8
SLD-0
100
AcDbLine
 10
78.83591875
 20
284.9982734677
 30
0.0
 11
78.83591875
 21
288.4982734677
 31
0.0
  0
LINE
  5
14D
330
1F
100
AcDbEntity
  8
SLD-0
100
AcDbLine
 10
111.63591875
 20
284.9982734677
 30
0.0
 11
111.63591875
 21
288.4982734677
 31
0.0
  0
LINE
  5
14E
330
1F
100
AcDbEntity
  8
SLD-0
100
AcDbLine
 10
144.43591875
 20
284.9982734677
 30
0.0
 11
144.43591875
 21
288.4982734677
 31
0.0
  0
LINE
  5
14F
330
1F
100
AcDbEntity
  8
SLD-0
100
AcDbLine
 10
177.23591875
 20
284.9982734677
 30
0.0
 11
177.23591875
 21
288.4982734677
 31
0.0
  0
LINE
  5
150
330
1F
100
AcDbEntity
  8
SLD-0
100
AcDbLine
 10
209.98591875
 20
284.9982734677
 30
0.0
 11
209.98591875
 21
288.4982734677
 31
0.0
  0
LINE
  5
151
330
1F
100
AcDbEntity
  8
SLD-0
100
AcDbLine
 10
242.73591875
 20
284.9982734677
 30
0.0
 11
242.73591875
 21
288.4982734677
 31
0.0
  0
LINE
  5
152
330
1F
100
AcDbEntity
  8
SLD-0
100
AcDbLine
 10
275.53591875
 20
284.9982734677
 30
0.0
 11
275.53591875
 21
288.4982734677
 31
0.0
  0
LINE
  5
153
330
1F
100
AcDbEntity
  8
SLD-0
100
AcDbLine
 10
308.33591875
 20
284.9982734677
 30
0.0
 11
308.33591875
 21
288.4982734677
 31
0.0
  0
LINE
  5
154
330
1F
100
AcDbEntity
  8
SLD-0
100
AcDbLine
 10
341.13591875
 20
284.9982734677
 30
0.0
 11
341.13591875
 21
288.4982734677
 31
0.0
  0
LINE
  5
155
330
1F
100
AcDbEntity
  8
SLD-0
100
AcDbLine
 10
373.93591875
 20
284.9982734677
 30
0.0
 11
373.93591875
 21
288.4982734677
 31
0.0
  0
INSERT
  5
156
330
1F
100
AcDbEntity
  8
0
  6
Continuous
 62
     7
100
AcDbBlockReference
  2
AQ_Trafotek_Block
 10
209.9306044873
 20
30.3442393609
 30
0.0
 41
0.018
 42
0.018
 43
0.018
  0
INSERT
  5
157
330
1F
100
AcDbEntity
  8
0
  6
Continuous
 62
     7
100
AcDbBlockReference
  2
Block1
 10
-9.9570192481
 20
-1.1505125087
 30
0.0
  0
INSERT
  5
158
330
1F
100
AcDbEntity
  8
0
  6
Continuous
 62
     7
100
AcDbBlockReference
 66
     1
  2
Block2
 10
16.3579470011
 20
249.1135858457
 30
0.0
  0
ATTRIB
  5
15A
330
158
100
AcDbEntity
  8
DIMENSIONS
 62
   124
100
AcDbText
 10
20.8738204837
 20
244.0765444798
 30
0.0
 40
5.1366373698
  1

 50
45.0
 41
0.605
  7
SLDTEXTSTYLE0
 11
22.1569144121
 21
242.7934505514
 31
0.0
100
AcDbAttribute
  2
AUTOATTR0
 70
     0
 74
     1
  0
SEQEND
  5
15B
330
158
100
AcDbEntity
  8
0
  6
Continuous
 62
     7
  0
INSERT
  5
166
330
1F
100
AcDbEntity
  8
DIMENSIONS
100
AcDbBlockReference
  2
SW_NOTE_0
 10
260.7794633678
 20
42.5564769914
 30
0.0
  0
MTEXT
  5
168
330
1F
100
AcDbEntity
  8
SLD-0
100
AcDbMText
 10
399.4389299495
 20
21.9596933076
 30
0.0
 40
2.5
 41
0.0
 71
     1
 72
     1
  1
1/1
  7
SLDTEXTSTYLE2
 73
     1
 44
1.0
  0
MTEXT
  5
169
330
1F
100
AcDbEntity
  8
SLD-0
100
AcDbMText
 10
407.3621973494
 20
269.2764802216
 30
0.0
 40
2.5
 41
0.0
 71
     1
 72
     1
  1
A
  7
SLDTEXTSTYLE2
 73
     1
 44
1.0
  0
MTEXT
  5
16A
330
1F
100
AcDbEntity
  8
SLD-0
100
AcDbMText
 10
28.9764102322
 20
287.8770677153
 30
0.0
 40
2.5
 41
0.0
 71
     1
 72
     1
  1
1
  7
SLDTEXTSTYLE2
 73
     1
 44
1.0
  0
MTEXT
  5
16B
330
1F
100
AcDbEntity
  8
SLD-0
100
AcDbMText
 10
290.8336892952
 20
28.7812355301
 30
0.0
 40
2.5
 41
0.0
 71
     3
 72
     1
  1
28.03.2022
  7
SLDTEXTSTYLE2
 73
     1
 44
1.0
  0
MTEXT
  5
16C
330
1F
100
AcDbEntity
  8
SLD-0
100
AcDbMText
 10
285.38413461
 20
31.2250288487
 30
0.0
 40
1.5875
 41
0.0
 71
     1
 72
     1
  1
Date
  7
SLDTEXTSTYLE2
 73
     1
 44
1.0
  0
MTEXT
  5
16D
330
1F
100
AcDbEntity
  8
SLD-0
100
AcDbMText
 10
247.9925585214
 20
24.1515138359
 30
0.0
 40
1.5875
 41
0.0
 71
     1
 72
     1
  1
Checked
  7
SLDTEXTSTYLE2
 73
     1
 44
1.0
  0
MTEXT
  5
16E
330
1F
100
AcDbEntity
  8
SLD-0
100
AcDbMText
 10
247.8324492364
 20
28.7812355301
 30
0.0
 40
2.5
 41
0.0
 71
     1
 72
     1
  1
Kirill Gavrilov
  7
SLDTEXTSTYLE2
 73
     1
 44
1.0
  0
MTEXT
  5
16F
330
1F
100
AcDbEntity
  8
SLD-0
100
AcDbMText
 10
247.9308225449
 20
31.2250288487
 30
0.0
 40
1.5875
 41
0.0
 71
     1
 72
     1
  1
Designer
  7
SLDTEXTSTYLE2
 73
     1
 44
1.0
  0
MTEXT
  5
170
330
1F
100
AcDbEntity
  8
SLD-0
100
AcDbMText
 10
248.2256504297
 20
17.3537641726
 30
0.0
 40
1.5875
 41
0.0
 71
     1
 72
     1
  1
Approved
  7
SLDTEXTSTYLE2
 73
     1
 44
1.0
  0
MTEXT
  5
171
330
1F
100
AcDbEntity
  8
SLD-0
100
AcDbMText
 10
292.4969545903
 20
17.3537641726
 30
0.0
 40
1.5875
 41
0.0
 71
     1
 72
     1
  1
Project
  7
SLDTEXTSTYLE2
 73
     1
 44
1.0
  0
MTEXT
  5
172
330
1F
100
AcDbEntity
  8
SLD-0
100
AcDbMText
 10
292.2812713628
 20
31.2250288487
 30
0.0
 40
1.5875
 41
0.0
 71
     1
 72
     1
  1
Title
  7
SLDTEXTSTYLE2
 73
     1
 44
1.0
  0
MTEXT
  5
174
330
1F
100
AcDbEntity
  8
SLD-0
100
AcDbMText
 10
218.2300436922
 20
10.3487875777
 30
0.0
 40
1.4
 41
0.0
 71
     1
 72
     1
  1
WE RESERVE ALL RIGHTS IN THIS DOCUMENT AND IN THE INFORMATION CONTAINED THEREIN. REPRODUCTION, USE OR DISCLOSURE TO THIRD PARTIES WITHOUT EXPRESS AUTHORITY IS STRICTLY FORBIDDEN.
  7
SLDTEXTSTYLE3
 73
     1
 44
1.0
  0
MTEXT
  5
175
330
1F
100
AcDbEntity
  8
SLD-0
100
AcDbMText
 10
362.4787831443
 20
31.2250288487
 30
0.0
 40
1.5875
 41
0.0
 71
     1
 72
     1
  1
Customer Doc. No
  7
SLDTEXTSTYLE2
 73
     1
 44
1.0
  0
MTEXT
  5
176
330
1F
100
AcDbEntity
  8
SLD-0
100
AcDbMText
 10
362.4073041192
 20
17.2582420884
 30
0.0
 40
1.5875
 41
0.0
 71
     1
 72
     1
  1
Trafotek Doc. No
  7
SLDTEXTSTYLE2
 73
     1
 44
1.0
  0
MTEXT
  5
177
330
1F
100
AcDbEntity
  8
SLD-0
100
AcDbMText
 10
362.4073041192
 20
14.5930267861
 30
0.0
 40
2.5
 41
0.0
 71
     1
 72
     1
  1
TRDOC0423690-01
  7
SLDTEXTSTYLE2
 73
     1
 44
1.0
  0
MTEXT
  5
178
330
1F
100
AcDbEntity
  8
SLD-0
100
AcDbMText
 10
399.9631313799
 20
17.2582420884
 30
0.0
 40
1.5875
 41
0.0
 71
     1
 72
     1
  1
Rev
  7
SLDTEXTSTYLE2
 73
     1
 44
1.0
  0
MTEXT
  5
179
330
1F
100
AcDbEntity
  8
SLD-0
100
AcDbMText
 10
362.4787831443
 20
24.1550721297
 30
0.0
 40
1.5875
 41
0.0
 71
     1
 72
     1
  1
Design number
  7
SLDTEXTSTYLE2
 73
     1
 44
1.0
  0
MTEXT
  5
17A
330
1F
100
AcDbEntity
  8
SLD-0
100
AcDbMText
 10
399.4389299495
 20
24.1550721297
 30
0.0
 40
1.5875
 41
0.0
 71
     1
 72
     1
  1
Page
  7
SLDTEXTSTYLE2
 73
     1
 44
1.0
  0
MTEXT
  5
17B
330
1F
100
AcDbEntity
  8
SLD-0
100
AcDbMText
 10
10.3621973494
 20
269.2764802216
 30
0.0
 40
2.5
 41
0.0
 71
     1
 72
     1
  1
A
  7
SLDTEXTSTYLE2
 73
     1
 44
1.0
  0
MTEXT
  5
17C
330
1F
100
AcDbEntity
  8
SLD-0
100
AcDbMText
 10
241.7309364085
 20
17.3537641726
 30
0.0
 40
1.5875
 41
0.0
 71
     2
 72
     1
  1
Size
  7
SLDTEXTSTYLE2
 73
     1
 44
1.0
  0
MTEXT
  5
17D
330
1F
100
AcDbEntity
  8
SLD-0
100
AcDbMText
 10
242.0617371116
 20
14.5688561705
 30
0.0
 40
2.5
 41
0.0
 71
     2
 72
     1
  1
A3
  7
SLDTEXTSTYLE2
 73
     1
 44
1.0
  0
MTEXT
  5
17E
330
1F
100
AcDbEntity
  8
SLD-0
100
AcDbMText
 10
231.2774569897
 20
17.3537641726
 30
0.0
 40
1.5875
 41
0.0
 71
     2
 72
     1
  1
Scale
  7
SLDTEXTSTYLE2
 73
     1
 44
1.0
  0
MTEXT
  5
17F
330
1F
100
AcDbEntity
  8
SLD-0
100
AcDbMText
 10
61.7264102322
 20
287.8770677153
 30
0.0
 40
2.5
 41
0.0
 71
     1
 72
     1
  1
2
  7
SLDTEXTSTYLE2
 73
     1
 44
1.0
  0
MTEXT
  5
180
330
1F
100
AcDbEntity
  8
SLD-0
100
AcDbMText
 10
94.4764102322
 20
287.8770677153
 30
0.0
 40
2.5
 41
0.0
 71
     1
 72
     1
  1
3
  7
SLDTEXTSTYLE2
 73
     1
 44
1.0
  0
MTEXT
  5
181
330
1F
100
AcDbEntity
  8
SLD-0
100
AcDbMText
 10
127.2264102322
 20
287.8770677153
 30
0.0
 40
2.5
 41
0.0
 71
     1
 72
     1
  1
4
  7
SLDTEXTSTYLE2
 73
     1
 44
1.0
  0
MTEXT
  5
182
330
1F
100
AcDbEntity
  8
SLD-0
100
AcDbMText
 10
159.9764102322
 20
287.8770677153
 30
0.0
 40
2.5
 41
0.0
 71
     1
 72
     1
  1
5
  7
SLDTEXTSTYLE2
 73
     1
 44
1.0
  0
MTEXT
  5
183
330
1F
100
AcDbEntity
  8
SLD-0
100
AcDbMText
 10
192.7264102322
 20
287.8770677153
 30
0.0
 40
2.5
 41
0.0
 71
     1
 72
     1
  1
6
  7
SLDTEXTSTYLE2
 73
     1
 44
1.0
  0
MTEXT
  5
184
330
1F
100
AcDbEntity
  8
SLD-0
100
AcDbMText
 10
225.4764102322
 20
287.8770677153
 30
0.0
 40
2.5
 41
0.0
 71
     1
 72
     1
  1
7
  7
SLDTEXTSTYLE2
 73
     1
 44
1.0
  0
MTEXT
  5
185
330
1F
100
AcDbEntity
  8
SLD-0
100
AcDbMText
 10
258.2264102322
 20
287.8770677153
 30
0.0
 40
2.5
 41
0.0
 71
     1
 72
     1
  1
8
  7
SLDTEXTSTYLE2
 73
     1
 44
1.0
  0
MTEXT
  5
186
330
1F
100
AcDbEntity
  8
SLD-0
100
AcDbMText
 10
290.9764102322
 20
287.8770677153
 30
0.0
 40
2.5
 41
0.0
 71
     1
 72
     1
  1
9
  7
SLDTEXTSTYLE2
 73
     1
 44
1.0
  0
MTEXT
  5
187
330
1F
100
AcDbEntity
  8
SLD-0
100
AcDbMText
 10
323.7264102322
 20
287.8770677153
 30
0.0
 40
2.5
 41
0.0
 71
     1
 72
     1
  1
10
  7
SLDTEXTSTYLE2
 73
     1
 44
1.0
  0
MTEXT
  5
188
330
1F
100
AcDbEntity
  8
SLD-0
100
AcDbMText
 10
356.4764102322
 20
287.8770677153
 30
0.0
 40
2.5
 41
0.0
 71
     1
 72
     1
  1
11
  7
SLDTEXTSTYLE2
 73
     1
 44
1.0
  0
MTEXT
  5
189
330
1F
100
AcDbEntity
  8
SLD-0
100
AcDbMText
 10
389.2264102322
 20
287.8770677153
 30
0.0
 40
2.5
 41
0.0
 71
     1
 72
     1
  1
12
  7
SLDTEXTSTYLE2
 73
     1
 44
1.0
  0
MTEXT
  5
18A
330
1F
100
AcDbEntity
  8
SLD-0
100
AcDbMText
 10
10.3621973494
 20
235.1514802216
 30
0.0
 40
2.5
 41
0.0
 71
     1
 72
     1
  1
B
  7
SLDTEXTSTYLE2
 73
     1
 44
1.0
  0
MTEXT
  5
18B
330
1F
100
AcDbEntity
  8
SLD-0
100
AcDbMText
 10
407.3621973494
 20
235.1514802216
 30
0.0
 40
2.5
 41
0.0
 71
     1
 72
     1
  1
B
  7
SLDTEXTSTYLE2
 73
     1
 44
1.0
  0
MTEXT
  5
18C
330
1F
100
AcDbEntity
  8
SLD-0
100
AcDbMText
 10
407.3621973494
 20
201.0264802216
 30
0.0
 40
2.5
 41
0.0
 71
     1
 72
     1
  1
C
  7
SLDTEXTSTYLE2
 73
     1
 44
1.0
  0
MTEXT
  5
18D
330
1F
100
AcDbEntity
  8
SLD-0
100
AcDbMText
 10
10.3621973494
 20
201.0264802216
 30
0.0
 40
2.5
 41
0.0
 71
     1
 72
     1
  1
C
  7
SLDTEXTSTYLE2
 73
     1
 44
1.0
  0
MTEXT
  5
18E
330
1F
100
AcDbEntity
  8
SLD-0
100
AcDbMText
 10
407.3621973494
 20
166.9014802216
 30
0.0
 40
2.5
 41
0.0
 71
     1
 72
     1
  1
D
  7
SLDTEXTSTYLE2
 73
     1
 44
1.0
  0
MTEXT
  5
18F
330
1F
100
AcDbEntity
  8
SLD-0
100
AcDbMText
 10
10.3621973494
 20
166.9014802216
 30
0.0
 40
2.5
 41
0.0
 71
     1
 72
     1
  1
D
  7
SLDTEXTSTYLE2
 73
     1
 44
1.0
  0
MTEXT
  5
190
330
1F
100
AcDbEntity
  8
SLD-0
100
AcDbMText
 10
407.3621973494
 20
132.7764802216
 30
0.0
 40
2.5
 41
0.0
 71
     1
 72
     1
  1
E
  7
SLDTEXTSTYLE2
 73
     1
 44
1.0
  0
MTEXT
  5
191
330
1F
100
AcDbEntity
  8
SLD-0
100
AcDbMText
 10
10.3621973494
 20
132.7764802216
 30
0.0
 40
2.5
 41
0.0
 71
     1
 72
     1
  1
E
  7
SLDTEXTSTYLE2
 73
     1
 44
1.0
  0
MTEXT
  5
192
330
1F
100
AcDbEntity
  8
SLD-0
100
AcDbMText
 10
407.3621973494
 20
98.6514802216
 30
0.0
 40
2.5
 41
0.0
 71
     1
 72
     1
  1
F
  7
SLDTEXTSTYLE2
 73
     1
 44
1.0
  0
MTEXT
  5
193
330
1F
100
AcDbEntity
  8
SLD-0
100
AcDbMText
 10
10.3621973494
 20
98.6514802216
 30
0.0
 40
2.5
 41
0.0
 71
     1
 72
     1
  1
F
  7
SLDTEXTSTYLE2
 73
     1
 44
1.0
  0
MTEXT
  5
194
330
1F
100
AcDbEntity
  8
SLD-0
100
AcDbMText
 10
407.3621973494
 20
64.5264802216
 30
0.0
 40
2.5
 41
0.0
 71
     1
 72
     1
  1
G
  7
SLDTEXTSTYLE2
 73
     1
 44
1.0
  0
MTEXT
  5
195
330
1F
100
AcDbEntity
  8
SLD-0
100
AcDbMText
 10
10.3621973494
 20
64.5264802216
 30
0.0
 40
2.5
 41
0.0
 71
     1
 72
     1
  1
G
  7
SLDTEXTSTYLE2
 73
     1
 44
1.0
  0
MTEXT
  5
196
330
1F
100
AcDbEntity
  8
SLD-0
100
AcDbMText
 10
407.3621973494
 20
30.4014802216
 30
0.0
 40
2.5
 41
0.0
 71
     1
 72
     1
  1
H
  7
SLDTEXTSTYLE2
 73
     1
 44
1.0
  0
MTEXT
  5
197
330
1F
100
AcDbEntity
  8
SLD-0
100
AcDbMText
 10
10.3621973494
 20
30.4014802216
 30
0.0
 40
2.5
 41
0.0
 71
     1
 72
     1
  1
H
  7
SLDTEXTSTYLE2
 73
     1
 44
1.0
  0
MTEXT
  5
198
330
1F
100
AcDbEntity
  8
SLD-0
100
AcDbMText
 10
231.8626886484
 20
14.5688561705
 30
0.0
 40
2.5
 41
0.0
 71
     2
 72
     1
  1
1:1
  7
SLDTEXTSTYLE2
 73
     1
 44
1.0
  0
MTEXT
  5
199
330
1F
100
AcDbEntity
  8
SLD-0
100
AcDbMText
 10
155.1677911741
 20
31.1835528184
 30
0.0
 40
1.5875
 41
0.0
 71
     1
 72
     1
  1
Surface finishing
  7
SLDTEXTSTYLE2
 73
     1
 44
1.0
  0
MTEXT
  5
19A
330
1F
100
AcDbEntity
  8
SLD-0
100
AcDbMText
 10
155.1677911741
 20
24.2979317591
 30
0.0
 40
1.5875
 41
0.0
 71
     1
 72
     1
  1
Non-tolerated dimensions
  7
SLDTEXTSTYLE2
 73
     1
 44
1.0
  0
MTEXT
  5
19B
330
1F
100
AcDbEntity
  8
SLD-0
100
AcDbMText
 10
190.3360048846
 20
24.2979317591
 30
0.0
 40
1.5875
 41
0.0
 71
     1
 72
     1
  1
Weight
  7
SLDTEXTSTYLE2
 73
     1
 44
1.0
  0
MTEXT
  5
19C
330
1F
100
AcDbEntity
  8
SLD-0
100
AcDbMText
 10
190.3360048846
 20
21.5111471844
 30
0.0
 40
2.5
 41
0.0
 71
     1
 72
     1
  1
0.17 kg
  7
SLDTEXTSTYLE2
 73
     1
 44
1.0
  0
MTEXT
  5
19D
330
1F
100
AcDbEntity
  8
SLD-0
100
AcDbMText
 10
292.3796748455
 20
29.0483176196
 30
0.0
 40
2.5
 41
0.0
 71
     1
 72
     1
  1
gorizontal wall
  7
SLDTEXTSTYLE2
 73
     1
 44
1.0
  0
MTEXT
  5
19E
330
1F
100
AcDbEntity
  8
SLD-0
100
AcDbMText
 10
155.1677911741
 20
17.3590410137
 30
0.0
 40
1.5875
 41
0.0
 71
     1
 72
     1
  1
Item ID
  7
SLDTEXTSTYLE2
 73
     1
 44
1.0
  0
MTEXT
  5
19F
330
1F
100
AcDbEntity
  8
SLD-0
100
AcDbMText
 10
155.4018964303
 20
39.9123797063
 30
0.0
 40
1.5875
 41
0.0
 71
     1
 72
     1
  1
Material
  7
SLDTEXTSTYLE2
 73
     1
 44
1.0
  0
MTEXT
  5
1A0
330
1F
100
AcDbEntity
  8
SLD-0
100
AcDbMText
 10
155.1677911741
 20
36.6231463913
 30
0.0
 40
2.5
 41
0.0
 71
     1
 72
     1
  1
1.0114 (S235J0) mm
  7
SLDTEXTSTYLE2
 73
     1
 44
1.0
  0
MTEXT
  5
1A1
330
1F
100
AcDbEntity
  8
SLD-0
100
AcDbMText
 10
14.6710480292
 20
39.5991687679
 30
0.0
 40
2.6458333333
 41
0.0
 71
     1
 72
     1
  1
Rev.
  7
SLDTEXTSTYLE1
 73
     1
 44
1.0
  0
MTEXT
  5
1A2
330
1F
100
AcDbEntity
  8
SLD-0
100
AcDbMText
 10
56.2269359364
 20
39.5991687679
 30
0.0
 40
2.6458333333
 41
0.0
 71
     1
 72
     1
  1
Description
  7
SLDTEXTSTYLE1
 73
     1
 44
1.0
  0
MTEXT
  5
1A3
330
1F
100
AcDbEntity
  8
SLD-0
100
AcDbMText
 10
143.4510905198
 20
39.1935980672
 30
0.0
 40
2.6458333333
 41
0.0
 71
     1
 72
     1
  1
Date
  7
SLDTEXTSTYLE1
 73
     1
 44
1.0
  0
MTEXT
  5
1A4
330
1F
100
AcDbEntity
  8
SLD-0
100
AcDbMText
 10
154.8676215
 20
20.8065826123
 30
0.0
 40
1.8520833333
 41
0.0
 71
     1
 72
     1
  1
ISO 2768-m
  7
SLDTEXTSTYLE0
 73
     1
 44
1.0
  0
MTEXT
  5
1A5
330
1F
100
AcDbEntity
  8
SLD-0
100
AcDbMText
 10
130.2469070168
 20
39.1935980672
 30
0.0
 40
2.6458333333
 41
0.0
 71
     1
 72
     1
  1
Prep.
  7
SLDTEXTSTYLE1
 73
     1
 44
1.0
  0
ARC
  5
1A6
330
1F
100
AcDbEntity
  8
0
  6
Continuous
 62
     7
370
    25
100
AcDbCircle
 10
79.6071765663
 20
206.7175284242
 30
0.0
 40
3.0
100
AcDbArc
 50
180.0
 51
219.7411032944
  0
ARC
  5
1A7
330
1F
100
AcDbEntity
  8
0
  6
Continuous
 62
     7
370
    25
100
AcDbCircle
 10
79.6071765663
 20
237.6332872254
 30
0.0
 40
3.0
100
AcDbArc
 50
90.0
 51
180.0
  0
ARC
  5
1A8
330
1F
100
AcDbEntity
  8
0
  6
Continuous
 62
     7
370
    25
100
AcDbCircle
 10
149.6071765663
 20
237.6332872254
 30
0.0
 40
3.0
100
AcDbArc
 50
0.0
 51
90.0
  0
ARC
  5
1A9
330
1F
100
AcDbEntity
  8
0
  6
Continuous
 62
     7
370
    25
100
AcDbCircle
 10
149.6071765663
 20
206.7175284242
 30
0.0
 40
3.0
100
AcDbArc
 50
320.2588967056
 51
0.0
  0
LINE
  5
1AA
330
1F
100
AcDbEntity
  8
0
  6
Continuous
 62
     7
370
    25
100
AcDbLine
 10
149.6071765663
 20
240.6332872254
 30
0.0
 11
79.6071765663
 21
240.6332872254
 31
0.0
  0
LINE
  5
1AB
330
1F
100
AcDbEntity
  8
0
  6
Continuous
 62
     7
370
    25
100
AcDbLine
 10
152.6071765663
 20
206.7175284242
 30
0.0
 11
152.6071765663
 21
237.6332872254
 31
0.0
  0
LINE
  5
1AC
330
1F
100
AcDbEntity
  8
0
  6
Continuous
 62
     7
370
    25
100
AcDbLine
 10
123.5071765663
 20
170.6332872254
 30
0.0
 11
151.9139999049
 21
204.7995695913
 31
0.0
  0
LINE
  5
1AD
330
1F
100
AcDbEntity
  8
0
  6
Continuous
 62
     7
370
    25
100
AcDbLine
 10
123.5071765663
 20
160.6332872254
 30
0.0
 11
123.5071765663
 21
170.6332872254
 31
0.0
  0
LINE
  5
1AE
330
1F
100
AcDbEntity
  8
0
  6
Continuous
 62
     7
370
    25
100
AcDbLine
 10
105.7071765663
 20
160.6332872254
 30
0.0
 11
123.5071765663
 21
160.6332872254
 31
0.0
  0
LINE
  5
1AF
330
1F
100
AcDbEntity
  8
0
  6
Continuous
 62
     7
370
    25
100
AcDbLine
 10
105.7071765663
 20
170.6332872254
 30
0.0
 11
105.7071765663
 21
160.6332872254
 31
0.0
  0
LINE
  5
1B0
330
1F
100
AcDbEntity
  8
0
  6
Continuous
 62
     7
370
    25
100
AcDbLine
 10
77.3003532278
 20
204.7995695913
 30
0.0
 11
105.7071765663
 21
170.6332872254
 31
0.0
  0
LINE
  5
1B1
330
1F
100
AcDbEntity
  8
0
  6
Continuous
 62
     7
370
    25
100
AcDbLine
 10
76.6071765663
 20
237.6332872254
 30
0.0
 11
76.6071765663
 21
206.7175284242
 31
0.0
  0
DIMENSION
  5
1B2
330
1F
100
AcDbEntity
  8
DIMENSIONS
100
AcDbDimension
  2
_D
 10
56.1963062813
 20
160.6332872254
 30
0.0
 11
56.1963062813
 21
200.6332872254
 31
0.0
 70
   160
  1
<>
 71
     2
 42
-1.0
  3
SLDDIMSTYLE0
100
AcDbAlignedDimension
 13
79.6071765663
 23
240.6332872254
 33
0.0
 14
105.7071765663
 24
160.6332872254
 34
0.0
 50
90.0
100
AcDbRotatedDimension
  0
DIMENSION
  5
1BD
330
1F
100
AcDbEntity
  8
DIMENSIONS
100
AcDbDimension
  2
_D_1
 10
152.6071765663
 20
126.6332872254
 30
0.0
 11
114.6071765663
 21
126.6332872254
 31
0.0
 70
   160
  1
<>
 71
     2
 42
-1.0
  3
SLDDIMSTYLE0
100
AcDbAlignedDimension
 13
76.6071765663
 23
206.7175284242
 33
0.0
 14
152.6071765663
 24
206.7175284242
 34
0.0
 50
0.0
100
AcDbRotatedDimension
  0
DIMENSION
  5
1C7
330
1F
100
AcDbEntity
  8
DIMENSIONS
100
AcDbDimension
  2
_D_2
 10
77.3003532278
 20
204.7995695913
 30
0.0
 11
137.1461849158
 21
170.8571941705
 31
0.0
 70
   162
  1
<>
 71
     1
 42
-1.0
  3
SLDDIMSTYLE1
100
AcDb2LineAngularDimension
 13
151.9139999049
 23
204.7995695913
 33
0.0
 14
123.5071765663
 24
170.6332872254
 34
0.0
 15
105.7071765663
 25
170.6332872254
 35
0.0
 16
114.6071765663
 26
184.9774977248
 36
0.0
  0
DIMENSION
  5
1D1
330
1F
100
AcDbEntity
  8
DIMENSIONS
100
AcDbDimension
  2
_D_3
 10
66.6071765663
 20
206.7175284242
 30
0.0
 11
66.6071765663
 21
223.6754078248
 31
0.0
 70
   160
  1
<>
 71
     2
 42
-1.0
  3
SLDDIMSTYLE2
100
AcDbAlignedDimension
 13
79.6071765663
 23
240.6332872254
 33
0.0
 14
76.6071765663
 24
206.7175284242
 34
0.0
 50
90.0
100
AcDbRotatedDimension
  0
DIMENSION
  5
1DC
330
1F
100
AcDbEntity
  8
DIMENSIONS
100
AcDbDimension
  2
_D_4
 10
123.5071765663
 20
135.5163730659
 30
0.0
 11
114.6071765663
 21
135.5163730659
 31
0.0
 70
   160
  1
<>
 71
     2
 42
-1.0
  3
SLDDIMSTYLE3
100
AcDbAlignedDimension
 13
105.7071765663
 23
160.6332872254
 33
0.0
 14
123.5071765663
 24
160.6332872254
 34
0.0
100
AcDbRotatedDimension
  0
DIMENSION
  5
1E9
330
1F
100
AcDbEntity
  8
DIMENSIONS
100
AcDbDimension
  2
_D_5
 10
68.2123664383
 20
160.6332872254
 30
0.0
 11
68.2123664383
 21
165.6332872254
 31
0.0
 70
   160
  1
<>
 71
     2
 42
-1.0
  3
SLDDIMSTYLE3
100
AcDbAlignedDimension
 13
105.7071765663
 23
170.6332872254
 33
0.0
 14
105.7071765663
 24
160.6332872254
 34
0.0
 50
90.0
100
AcDbRotatedDimension
  0
DIMENSION
  5
1F5
330
1F
100
AcDbEntity
  8
DIMENSIONS
100
AcDbDimension
  2
_D_6
 10
79.6071765663
 20
237.6332872254
 30
0.0
 11
53.9969095225
 21
260.4310540218
 31
0.0
 70
   164
  1
<>
 71
     1
 42
-1.0
  3
SLDDIMSTYLE4
100
AcDbRadialDimension
 15
77.4205618474
 25
239.6872385566
 35
0.0
 40
0.0
  0
LINE
  5
1FF
330
1F
100
AcDbEntity
  8
DIMENSIONS
  6
CENTERX2
370
    18
100
AcDbLine
 10
114.6071765663
 20
154.2925874695
 30
0.0
 11
114.6071765663
 21
239.6332872254
 31
0.0
  0
LINE
  5
200
330
1F
100
AcDbEntity
  8
0
  6
Continuous
 62
     7
370
    25
100
AcDbLine
 10
219.8246541904
 20
206.7175284242
 30
0.0
 11
224.8246541904
 21
206.7175284242
 31
0.0
  0
LINE
  5
201
330
1F
100
AcDbEntity
  8
0
  6
Continuous
 62
     7
370
    25
100
AcDbLine
 10
219.8246541904
 20
237.6332872254
 30
0.0
 11
219.8246541904
 21
206.7175284242
 31
0.0
  0
LINE
  5
202
330
1F
100
AcDbEntity
  8
0
  6
Continuous
 62
     7
370
    25
100
AcDbLine
 10
224.8246541904
 20
237.6332872254
 30
0.0
 11
219.8246541904
 21
237.6332872254
 31
0.0
  0
LINE
  5
203
330
1F
100
AcDbEntity
  8
0
  6
Continuous
 62
     7
370
    25
100
AcDbLine
 10
224.8246541904
 20
237.6332872254
 30
0.0
 11
224.8246541904
 21
206.7175284242
 31
0.0
  0
LINE
  5
204
330
1F
100
AcDbEntity
  8
0
  6
Continuous
 62
     7
370
    25
100
AcDbLine
 10
219.8246541904
 20
240.6332872254
 30
0.0
 11
224.8246541904
 21
240.6332872254
 31
0.0
  0
LINE
  5
205
330
1F
100
AcDbEntity
  8
0
  6
Continuous
 62
     7
370
    25
100
AcDbLine
 10
224.8246541904
 20
240.6332872254
 30
0.0
 11
224.8246541904
 21
237.6332872254
 31
0.0
  0
LINE
  5
206
330
1F
100
AcDbEntity
  8
0
  6
Continuous
 62
     7
370
    25
100
AcDbLine
 10
219.8246541904
 20
237.6332872254
 30
0.0
 11
219.8246541904
 21
240.6332872254
 31
0.0
  0
LINE
  5
207
330
1F
100
AcDbEntity
  8
0
  6
Continuous
 62
     7
370
    25
100
AcDbLine
 10
224.8246541904
 20
204.7995695913
 30
0.0
 11
219.8246541904
 21
204.7995695913
 31
0.0
  0
LINE
  5
208
330
1F
100
AcDbEntity
  8
0
  6
Continuous
 62
     7
370
    25
100
AcDbLine
 10
224.8246541904
 20
206.7175284242
 30
0.0
 11
224.8246541904
 21
204.7995695913
 31
0.0
  0
LINE
  5
209
330
1F
100
AcDbEntity
  8
0
  6
Continuous
 62
     7
370
    25
100
AcDbLine
 10
219.8246541904
 20
204.7995695913
 30
0.0
 11
219.8246541904
 21
206.7175284242
 31
0.0
  0
LINE
  5
20A
330
1F
100
AcDbEntity
  8
0
  6
Continuous
 62
     7
370
    25
100
AcDbLine
 10
224.8246541904
 20
170.6332872254
 30
0.0
 11
219.8246541904
 21
170.6332872254
 31
0.0
  0
LINE
  5
20B
330
1F
100
AcDbEntity
  8
0
  6
Continuous
 62
     7
370
    25
100
AcDbLine
 10
224.8246541904
 20
204.7995695913
 30
0.0
 11
224.8246541904
 21
170.6332872254
 31
0.0
  0
LINE
  5
20C
330
1F
100
AcDbEntity
  8
0
  6
Continuous
 62
     7
370
    25
100
AcDbLine
 10
219.8246541904
 20
204.7995695913
 30
0.0
 11
219.8246541904
 21
170.6332872254
 31
0.0
  0
LINE
  5
20D
330
1F
100
AcDbEntity
  8
0
  6
Continuous
 62
     7
370
    25
100
AcDbLine
 10
224.8246541904
 20
160.6332872254
 30
0.0
 11
219.8246541904
 21
160.6332872254
 31
0.0
  0
LINE
  5
20E
330
1F
100
AcDbEntity
  8
0
  6
Continuous
 62
     7
370
    25
100
AcDbLine
 10
224.8246541904
 20
170.6332872254
 30
0.0
 11
224.8246541904
 21
160.6332872254
 31
0.0
  0
LINE
  5
20F
330
1F
100
AcDbEntity
  8
0
  6
Continuous
 62
     7
370
    25
100
AcDbLine
 10
219.8246541904
 20
170.6332872254
 30
0.0
 11
219.8246541904
 21
160.6332872254
 31
0.0
  0
DIMENSION
  5
210
330
1F
100
AcDbEntity
  8
DIMENSIONS
100
AcDbDimension
  2
_D_7
 10
224.8246541904
 20
129.0117955841
 30
0.0
 11
222.3246541904
 21
129.0117955841
 31
0.0
 70
   160
  1
<>
 71
     2
 42
-1.0
  3
SLDDIMSTYLE3
100
AcDbAlignedDimension
 13
219.8246541904
 23
170.6332872254
 33
0.0
 14
224.8246541904
 24
170.6332872254
 34
0.0
100
AcDbRotatedDimension
  0
LINE
  5
21C
330
1F
100
AcDbEntity
  8
0
  6
Continuous
 62
     7
370
    25
100
AcDbLine
 10
343.7619153471
 20
252.379416597
 30
0.0
 11
340.2263814411
 21
254.4204368766
 31
0.0
  0
LINE
  5
21D
330
1F
100
AcDbEntity
  8
0
  6
Continuous
 62
     7
370
    25
100
AcDbLine
 10
320.2710163532
 20
178.2945219149
 30
0.0
 11
320.2710163532
 21
186.4599300338
 31
0.0
  0
LINE
  5
21E
330
1F
100
AcDbEntity
  8
0
  6
Continuous
 62
     7
370
    25
100
AcDbLine
 10
307.6845156481
 20
171.0284897197
 30
0.0
 11
320.2710163532
 21
178.2945219149
 31
0.0
  0
LINE
  5
21F
330
1F
100
AcDbEntity
  8
0
  6
Continuous
 62
     7
370
    25
100
AcDbLine
 10
307.6845156481
 20
179.1938978386
 30
0.0
 11
307.6845156481
 21
171.0284897197
 31
0.0
  0
LINE
  5
220
330
1F
100
AcDbEntity
  8
0
  6
Continuous
 62
     7
370
    25
100
AcDbLine
 10
287.5978582334
 20
195.4962812784
 30
0.0
 11
307.6845156481
 21
179.1938978386
 31
0.0
  0
ARC
  5
221
330
1F
100
AcDbEntity
  8
0
  6
Continuous
 62
     7
370
    25
100
AcDbCircle
 10
288.7129689552
 20
196.6574315149
 30
0.0
 40
1.609888751882644
100
AcDbArc
 50
175.6544401512
 51
226.158702939
  0
LINE
  5
222
330
1F
100
AcDbEntity
  8
0
  6
Continuous
 62
     7
370
    25
100
AcDbLine
 10
287.1077083156
 20
222.0233942079
 30
0.0
 11
287.1077083156
 21
196.7794154163
 31
0.0
  0
ARC
  5
223
330
1F
100
AcDbEntity
  8
0
  6
Continuous
 62
     7
370
    25
100
AcDbCircle
 10
291.6938914153
 20
221.8250498922
 30
0.0
 40
4.590470116602435
100
AcDbArc
 50
122.4763978922
 51
177.5236019622
  0
LINE
  5
224
330
1F
100
AcDbEntity
  8
0
  6
Continuous
 62
     7
370
    25
100
AcDbLine
 10
338.7265033422
 20
254.2719127251
 30
0.0
 11
289.2290286591
 21
225.6976288113
 31
0.0
  0
ARC
  5
225
330
1F
100
AcDbEntity
  8
0
  6
Continuous
 62
     7
370
    25
100
AcDbCircle
 10
339.548110776
 20
253.2454458068
 30
0.0
 40
1.314790138971702
100
AcDbArc
 50
351.3146750033
 51
128.674573242
  0
LINE
  5
226
330
1F
100
AcDbEntity
  8
0
  6
Continuous
 62
     7
370
    25
100
AcDbLine
 10
340.8478236857
 20
227.8029236656
 30
0.0
 11
340.8478236857
 21
253.0469024572
 31
0.0
  0
ARC
  5
227
330
1F
100
AcDbEntity
  8
0
  6
Continuous
 62
     7
370
    25
100
AcDbCircle
 10
336.6549752453
 20
227.9248833197
 30
0.0
 40
4.194621818663935
100
AcDbArc
 50
331.9728745911
 51
358.3338764089
  0
LINE
  5
228
330
1F
100
AcDbEntity
  8
0
  6
Continuous
 62
     7
370
    25
100
AcDbLine
 10
320.2710163532
 20
186.4599300338
 30
0.0
 11
340.3576737679
 21
225.9538744784
 31
0.0
  0
LINE
  5
229
330
1F
100
AcDbEntity
  8
0
  6
Continuous
 62
     7
370
    25
100
AcDbLine
 10
320.2710163532
 20
186.4599300338
 30
0.0
 11
323.8065502591
 21
184.4189097542
 31
0.0
  0
LINE
  5
22A
330
1F
100
AcDbEntity
  8
0
  6
Continuous
 62
     7
370
    25
100
AcDbLine
 10
343.8932076738
 20
223.9128541988
 30
0.0
 11
340.3576737679
 21
225.9538744784
 31
0.0
  0
LINE
  5
22B
330
1F
100
AcDbEntity
  8
0
  6
Continuous
 62
     7
370
    25
100
AcDbLine
 10
323.8065502591
 20
184.4189097542
 30
0.0
 11
343.8932076738
 21
223.9128541988
 31
0.0
  0
LINE
  5
22C
330
1F
100
AcDbEntity
  8
0
  6
Continuous
 62
     7
370
    25
100
AcDbLine
 10
307.6845156481
 20
171.0284897197
 30
0.0
 11
311.220049554
 21
168.9874694402
 31
0.0
  0
LINE
  5
22D
330
1F
100
AcDbEntity
  8
0
  6
Continuous
 62
     7
370
    25
100
AcDbLine
 10
320.2710163532
 20
178.2945219149
 30
0.0
 11
323.8065502591
 21
176.2535016354
 31
0.0
  0
LINE
  5
22E
330
1F
100
AcDbEntity
  8
0
  6
Continuous
 62
     7
370
    25
100
AcDbLine
 10
311.220049554
 20
168.9874694402
 30
0.0
 11
323.8065502591
 21
176.2535016354
 31
0.0
  0
LINE
  5
22F
330
1F
100
AcDbEntity
  8
0
  6
Continuous
 62
     7
370
    25
100
AcDbLine
 10
323.8065502591
 20
176.2535016354
 30
0.0
 11
323.8065502591
 21
184.4189097542
 31
0.0
  0
LINE
  5
230
330
1F
100
AcDbEntity
  8
0
  6
Continuous
 62
     7
370
    25
100
AcDbLine
 10
340.8478236857
 20
227.8029236656
 30
0.0
 11
344.3833575917
 21
225.761903386
 31
0.0
  0
ARC
  5
231
330
1F
100
AcDbEntity
  8
0
  6
Continuous
 62
     7
370
    25
100
AcDbCircle
 10
340.1905091513
 20
225.8838630401
 30
0.0
 40
4.194621818663708
100
AcDbArc
 50
331.9728745911
 51
358.3338764089
  0
LINE
  5
232
330
1F
100
AcDbEntity
  8
0
  6
Continuous
 62
     7
370
    25
100
AcDbLine
 10
344.3833575917
 20
251.0058821776
 30
0.0
 11
340.8478236857
 21
253.0469024572
 31
0.0
  0
LINE
  5
233
330
1F
100
AcDbEntity
  8
0
  6
Continuous
 62
     7
370
    25
100
AcDbLine
 10
344.3833575917
 20
225.761903386
 30
0.0
 11
344.3833575917
 21
251.0058821776
 31
0.0
  0
ARC
  5
234
330
1F
100
AcDbEntity
  8
0
  6
Continuous
 62
     7
370
    25
100
AcDbCircle
 10
342.8834243813
 20
251.1546019828
 30
0.0
 40
1.507288033585675
100
AcDbArc
 50
354.337576136
 51
54.3502434707
  0
ENDSEC
  0
SECTION
  2
OBJECTS
  0
DICTIONARY
  5
C
330
0
100
AcDbDictionary
281
     1
  3
ACAD_GROUP
350
D
  3
ACAD_LAYOUT
350
1A
  3
ACAD_MLINESTYLE
350
17
  3
ACAD_PLOTSETTINGS
350
19
  3
ACAD_PLOTSTYLENAME
350
E
  3
ACAD_SCALELIST
350
47
  0
DICTIONARY
  5
D
102
{ACAD_REACTORS
330
C
102
}
330
C
100
AcDbDictionary
281
     1
  0
DICTIONARY
  5
1A
102
{ACAD_REACTORS
330
C
102
}
330
C
100
AcDbDictionary
281
     1
  3
Layout1
350
1E
  3
Layout2
350
26
  3
Model
350
22
  0
DICTIONARY
  5
17
102
{ACAD_REACTORS
330
C
102
}
330
C
100
AcDbDictionary
281
     1
  3
Standard
350
18
  0
DICTIONARY
  5
19
102
{ACAD_REACTORS
330
C
102
}
330
C
100
AcDbDictionary
281
     1
  0
ACDBDICTIONARYWDFLT
  5
E
102
{ACAD_REACTORS
330
C
102
}
330
C
100
AcDbDictionary
281
     1
  3
Normal
350
F
100
AcDbDictionaryWithDefault
340
F
  0
DICTIONARY
  5
47
102
{ACAD_REACTORS
330
C
102
}
330
C
100
AcDbDictionary
281
     1
  3
A0
350
48
  3
A1
350
49
  3
A2
350
4A
  3
A3
350
4B
  3
A4
350
4C
  3
A5
350
4D
  3
A6
350
4E
  3
A7
350
4F
  3
A8
350
50
  3
A9
350
51
  3
B0
350
52
  3
B1
350
53
  3
B2
350
54
  3
B3
350
55
  3
B4
350
56
  3
B5
350
57
  3
B6
350
58
  3
B7
350
59
  3
B8
350
5A
  3
B9
350
5B
  3
C0
350
5C
  3
C1
350
5D
  3
C2
350
5E
  3
C3
350
5F
  3
C4
350
60
  3
C5
350
61
  3
C6
350
62
  3
C7
350
63
  3
C8
350
64
  3
C9
350
65
  3
D0
350
66
  3
D1
350
67
  3
D2
350
68
  0
LAYOUT
  5
1E
102
{ACAD_REACTORS
330
1A
102
}
330
1A
100
AcDbPlotSettings
  1

  2
none_device
  4

  6

 40
0.0
 41
0.0
 42
0.0
 43
0.0
 44
0.0
 45
0.0
 46
0.0
 47
0.0
 48
0.0
 49
0.0
140
0.0
141
0.0
142
1.0
143
1.0
 70
   688
 72
     1
 73
     0
 74
     5
  7

 75
    16
147
1.0
148
0.0
149
0.0
100
AcDbLayout
  1
Layout1
 70
     1
 71
     1
 10
0.0
 20
0.0
 11
420.0
 21
297.0
 12
0.0
 22
0.0
 32
0.0
 14
1.0000000000E+20
 24
1.0000000000E+20
 34
1.0000000000E+20
 15
-1.0000000000E+20
 25
-1.0000000000E+20
 35
-1.0000000000E+20
146
0.0
 13
0.0
 23
0.0
 33
0.0
 16
1.0
 26
0.0
 36
0.0
 17
0.0
 27
1.0
 37
0.0
 76
     0
330
1B
  0
LAYOUT
  5
26
102
{ACAD_REACTORS
330
1A
102
}
330
1A
100
AcDbPlotSettings
  1

  2
none_device
  4

  6

 40
0.0
 41
0.0
 42
0.0
 43
0.0
 44
0.0
 45
0.0
 46
0.0
 47
0.0
 48
0.0
 49
0.0
140
0.0
141
0.0
142
1.0
143
1.0
 70
   688
 72
     1
 73
     0
 74
     5
  7

 75
    16
147
1.0
148
0.0
149
0.0
100
AcDbLayout
  1
Layout2
 70
     1
 71
     2
 10
0.0
 20
0.0
 11
0.0
 21
0.0
 12
0.0
 22
0.0
 32
0.0
 14
0.0
 24
0.0
 34
0.0
 15
0.0
 25
0.0
 35
0.0
146
0.0
 13
0.0
 23
0.0
 33
0.0
 16
1.0
 26
0.0
 36
0.0
 17
0.0
 27
1.0
 37
0.0
 76
     0
330
23
  0
LAYOUT
  5
22
102
{ACAD_REACTORS
330
1A
102
}
330
1A
100
AcDbPlotSettings
  1

  2
none_device
  4
Letter_(8.50_x_11.00_Inches)
  6

 40
6.35
 41
6.35
 42
6.35000508
 43
6.35000508
 44
215.9
 45
279.4
 46
0.0
 47
0.0
 48
0.0
 49
0.0
140
0.0
141
0.0
142
1.0
143
1.0
 70
  1712
 72
     1
 73
     0
 74
     0
  7

 75
     0
147
1.0
148
0.0
149
0.0
100
AcDbLayout
  1
Model
 70
     1
 71
     0
 10
0.0
 20
0.0
 11
420.0
 21
297.0
 12
0.0
 22
0.0
 32
0.0
 14
0.0
 24
0.0
 34
0.0
 15
420.0
 25
297.0
 35
0.0
146
0.0
 13
0.0
 23
0.0
 33
0.0
 16
1.0
 26
0.0
 36
0.0
 17
0.0
 27
1.0
 37
0.0
 76
     0
330
1F
331
29
  0
MLINESTYLE
  5
18
102
{ACAD_REACTORS
330
17
102
}
330
17
100
AcDbMlineStyle
  2
Standard
 70
     0
  3

 62
   256
 51
90.0
 52
90.0
 71
     2
 49
0.5
 62
   256
  6
BYLAYER
 49
-0.5
 62
   256
  6
BYLAYER
  0
ACDBPLACEHOLDER
  5
F
102
{ACAD_REACTORS
330
E
102
}
330
E
  0
SCALE
  5
48
102
{ACAD_REACTORS
330
47
102
}
330
47
100
AcDbScale
 70
     0
300
1:1
140
1.0
141
1.0
290
     1
  0
SCALE
  5
49
102
{ACAD_REACTORS
330
47
102
}
330
47
100
AcDbScale
 70
     0
300
1:2
140
1.0
141
2.0
290
     0
  0
SCALE
  5
4A
102
{ACAD_REACTORS
330
47
102
}
330
47
100
AcDbScale
 70
     0
300
1:4
140
1.0
141
4.0
290
     0
  0
SCALE
  5
4B
102
{ACAD_REACTORS
330
47
102
}
330
47
100
AcDbScale
 70
     0
300
1:5
140
1.0
141
5.0
290
     0
  0
SCALE
  5
4C
102
{ACAD_REACTORS
330
47
102
}
330
47
100
AcDbScale
 70
     0
300
1:8
140
1.0
141
8.0
290
     0
  0
SCALE
  5
4D
102
{ACAD_REACTORS
330
47
102
}
330
47
100
AcDbScale
 70
     0
300
1:10
140
1.0
141
10.0
290
     0
  0
SCALE
  5
4E
102
{ACAD_REACTORS
330
47
102
}
330
47
100
AcDbScale
 70
     0
300
1:16
140
1.0
141
16.0
290
     0
  0
SCALE
  5
4F
102
{ACAD_REACTORS
330
47
102
}
330
47
100
AcDbScale
 70
     0
300
1:20
140
1.0
141
20.0
290
     0
  0
SCALE
  5
50
102
{ACAD_REACTORS
330
47
102
}
330
47
100
AcDbScale
 70
     0
300
1:30
140
1.0
141
30.0
290
     0
  0
SCALE
  5
51
102
{ACAD_REACTORS
330
47
102
}
330
47
100
AcDbScale
 70
     0
300
1:40
140
1.0
141
40.0
290
     0
  0
SCALE
  5
52
102
{ACAD_REACTORS
330
47
102
}
330
47
100
AcDbScale
 70
     0
300
1:50
140
1.0
141
50.0
290
     0
  0
SCALE
  5
53
102
{ACAD_REACTORS
330
47
102
}
330
47
100
AcDbScale
 70
     0
300
1:100
140
1.0
141
100.0
290
     0
  0
SCALE
  5
54
102
{ACAD_REACTORS
330
47
102
}
330
47
100
AcDbScale
 70
     0
300
2:1
140
2.0
141
1.0
290
     0
  0
SCALE
  5
55
102
{ACAD_REACTORS
330
47
102
}
330
47
100
AcDbScale
 70
     0
300
4:1
140
4.0
141
1.0
290
     0
  0
SCALE
  5
56
102
{ACAD_REACTORS
330
47
102
}
330
47
100
AcDbScale
 70
     0
300
8:1
140
8.0
141
1.0
290
     0
  0
SCALE
  5
57
102
{ACAD_REACTORS
330
47
102
}
330
47
100
AcDbScale
 70
     0
300
10:1
140
10.0
141
1.0
290
     0
  0
SCALE
  5
58
102
{ACAD_REACTORS
330
47
102
}
330
47
100
AcDbScale
 70
     0
300
100:1
140
100.0
141
1.0
290
     0
  0
SCALE
  5
59
102
{ACAD_REACTORS
330
47
102
}
330
47
100
AcDbScale
 70
     0
300
1/128" = 1'-0"
140
0.0078125
141
12.0
290
     0
  0
SCALE
  5
5A
102
{ACAD_REACTORS
330
47
102
}
330
47
100
AcDbScale
 70
     0
300
1/64" = 1'-0"
140
0.015625
141
12.0
290
     0
  0
SCALE
  5
5B
102
{ACAD_REACTORS
330
47
102
}
330
47
100
AcDbScale
 70
     0
300
1/32" = 1'-0"
140
0.03125
141
12.0
290
     0
  0
SCALE
  5
5C
102
{ACAD_REACTORS
330
47
102
}
330
47
100
AcDbScale
 70
     0
300
1/16" = 1'-0"
140
0.0625
141
12.0
290
     0
  0
SCALE
  5
5D
102
{ACAD_REACTORS
330
47
102
}
330
47
100
AcDbScale
 70
     0
300
3/32" = 1'-0"
140
0.09375
141
12.0
290
     0
  0
SCALE
  5
5E
102
{ACAD_REACTORS
330
47
102
}
330
47
100
AcDbScale
 70
     0
300
1/8" = 1'-0"
140
0.125
141
12.0
290
     0
  0
SCALE
  5
5F
102
{ACAD_REACTORS
330
47
102
}
330
47
100
AcDbScale
 70
     0
300
3/16" = 1'-0"
140
0.1875
141
12.0
290
     0
  0
SCALE
  5
60
102
{ACAD_REACTORS
330
47
102
}
330
47
100
AcDbScale
 70
     0
300
1/4" = 1'-0"
140
0.25
141
12.0
290
     0
  0
SCALE
  5
61
102
{ACAD_REACTORS
330
47
102
}
330
47
100
AcDbScale
 70
     0
300
3/8" = 1'-0"
140
0.375
141
12.0
290
     0
  0
SCALE
  5
62
102
{ACAD_REACTORS
330
47
102
}
330
47
100
AcDbScale
 70
     0
300
1/2" = 1'-0"
140
0.5
141
12.0
290
     0
  0
SCALE
  5
63
102
{ACAD_REACTORS
330
47
102
}
330
47
100
AcDbScale
 70
     0
300
3/4" = 1'-0"
140
0.75
141
12.0
290
     0
  0
SCALE
  5
64
102
{ACAD_REACTORS
330
47
102
}
330
47
100
AcDbScale
 70
     0
300
1" = 1'-0"
140
1.0
141
12.0
290
     0
  0
SCALE
  5
65
102
{ACAD_REACTORS
330
47
102
}
330
47
100
AcDbScale
 70
     0
300
1-1/2" = 1'-0"
140
1.5
141
12.0
290
     0
  0
SCALE
  5
66
102
{ACAD_REACTORS
330
47
102
}
330
47
100
AcDbScale
 70
     0
300
3" = 1'-0"
140
3.0
141
12.0
290
     0
  0
SCALE
  5
67
102
{ACAD_REACTORS
330
47
102
}
330
47
100
AcDbScale
 70
     0
300
6" = 1'-0"
140
6.0
141
12.0
290
     0
  0
SCALE
  5
68
102
{ACAD_REACTORS
330
47
102
}
330
47
100
AcDbScale
 70
     0
300
1'-0" = 1'-0"
140
12.0
141
12.0
290
     0
  0
ENDSEC
  0
EOF
